<svg xmlns="http://www.w3.org/2000/svg" viewBox="0 0 1239 41.23"><g id="Layer_2" data-name="Layer 2"><g id="Layer_1-2" data-name="Layer 1"><rect width="1239" height="41.23" fill="none"/><path d="M18.34,23.07a7.2,7.2,0,0,0,3.34.12C20.55,23.19,19.51,22.79,18.34,23.07Z" transform="translate(0)" fill="#bea457" fill-rule="evenodd"/><path d="M21.5,22.25c1.14-.08,2.17.39,3.35.12C23.75,22.26,22.71,21.84,21.5,22.25Z" transform="translate(0)" fill="#bea457" fill-rule="evenodd"/><path d="M30.13,23.88c1.17.21,1.25-.07,3-.14a9,9,0,0,0-1.8-.28C30.6,23.6,31,23.74,30.13,23.88Z" transform="translate(0)" fill="#bea457" fill-rule="evenodd"/><path d="M62.9,31.54l1.42.36c.82-.3,1.52-.08,2.32-.32A7.38,7.38,0,0,0,62.9,31.54Z" transform="translate(0)" fill="#bea457" fill-rule="evenodd"/><path d="M27.82,22.41c-.61.24,1.84.54,2.56.28.06-.32-.87-.11-1.77-.45C28.48,22.37,28.33,22.5,27.82,22.41Z" transform="translate(0)" fill="#bea457" fill-rule="evenodd"/><path d="M68.09,31.77a4,4,0,0,1,2.13.53c.66-.27.37-.56-.57-.85Z" transform="translate(0)" fill="#bea457" fill-rule="evenodd"/><path d="M49.75,24.86c-.52.3,2.11.44,3,0C51.81,24.49,50.68,25.18,49.75,24.86Z" transform="translate(0)" fill="#bea457" fill-rule="evenodd"/><path d="M82.12,32.6c.56,0,1.64-.09,1.1.1.71.21,1.56-.24,2.32-.31a10.2,10.2,0,0,0,3.23.63c.1-.69,2.64-.6,4.66-.8a11.29,11.29,0,0,1-3.3-.29c-.07.47-.7.27-2.35.48-.08-.11-.17-.23-.68-.35a7.11,7.11,0,0,1-3,0C83.11,32.22,82.18,32.41,82.12,32.6Z" transform="translate(0)" fill="#bea457" fill-rule="evenodd"/><path d="M54.54,25.16l1.43.36a1.23,1.23,0,0,1,1.16-.24C57.75,25,55.29,24.81,54.54,25.16Z" transform="translate(0)" fill="#bea457" fill-rule="evenodd"/><path d="M59.53,22.84a11,11,0,0,0,3.41-.22C61.79,22.55,59.66,22.41,59.53,22.84Z" transform="translate(0)" fill="#bea457" fill-rule="evenodd"/><path d="M113.07,34.82c1,.27,3,.21,3-.14A16.24,16.24,0,0,0,113.07,34.82Z" transform="translate(0)" fill="#bea457" fill-rule="evenodd"/><path d="M70.69,23.13c1.23.06,2.38.5,3.73,0A14.08,14.08,0,0,0,70.69,23.13Z" transform="translate(0)" fill="#bea457" fill-rule="evenodd"/><path d="M108.68,29.07c1.6.17,1.46-.21,3.46-.38a7,7,0,0,1-1.46-.19C110,29.06,108.21,28.58,108.68,29.07Z" transform="translate(0)" fill="#bea457" fill-rule="evenodd"/><path d="M83.62,22.09c.52-.27-2.14-.31-2.83-.71C79.6,21.74,82.57,21.92,83.62,22.09Z" transform="translate(0)" fill="#bea457" fill-rule="evenodd"/><path d="M96.56,22.82a19.17,19.17,0,0,0,3.77-.12c-1.47-.15-3-.16-4.4-.39C94.6,22.46,97.88,22.67,96.56,22.82Z" transform="translate(0)" fill="#bea457" fill-rule="evenodd"/><path d="M137.07,32.78c-.56.52,2.19.12,3,.21C140.56,32.57,137.84,32.86,137.07,32.78Z" transform="translate(0)" fill="#bea457" fill-rule="evenodd"/><path d="M140.06,31c-.8-.33-1.78.17-2.56-.28-.72.22-.76.45-.14.68C138.48,31,140,31.46,140.06,31Z" transform="translate(0)" fill="#bea457" fill-rule="evenodd"/><path d="M160.65,36.19a11.89,11.89,0,0,0,4.09.13A30.79,30.79,0,0,0,160.65,36.19Z" transform="translate(0)" fill="#bea457" fill-rule="evenodd"/><path d="M88.26,17.89c.68.32,1.47.12,2.17.36,1.38-.21.49-.44-.6-.68Z" transform="translate(0)" fill="#bea457" fill-rule="evenodd"/><path d="M97.89,20.12a10.11,10.11,0,0,0,2.91.37C101.3,20.24,98.75,19.73,97.89,20.12Z" transform="translate(0)" fill="#bea457" fill-rule="evenodd"/><path d="M96.05,18.23a1.42,1.42,0,0,0,.74,0c2.9.46,6,.07,8.89.44,1.7-.27.7-.56,1.66-.83-1.63-.27-1.38.27-2.66.22-1.36-.23-.36-.43-1.77-.44-.14.46-2.26.31-3.49.55a17.72,17.72,0,0,0-2.52-.45C95.19,17.88,97.75,18.08,96.05,18.23Z" transform="translate(0)" fill="#bea457" fill-rule="evenodd"/><path d="M157.83,31.91c-.76-.11,1.49-.29,1.92-.24.87-.43-1.44.06-1.81-.27-1.55.18-.65.39-1.25.58,1,.18,1.94.27,2.92.38C160.68,32.09,158.82,31.91,157.83,31.91Z" transform="translate(0)" fill="#bea457" fill-rule="evenodd"/><path d="M71.56,10.32a7.74,7.74,0,0,0,3.69.21A15.06,15.06,0,0,0,71.56,10.32Z" transform="translate(0)" fill="#bea457" fill-rule="evenodd"/><path d="M71.31,9.72c-.63.29,1.88.33,2.59.11C73.13,9.36,72.15,9.86,71.31,9.72Z" transform="translate(0)" fill="#bea457" fill-rule="evenodd"/><path d="M76.39,10.45c1-.18.65-.39,1.24-.58-.61-.09-1.24,0-1.84-.1C75.26,10,75.69,10.22,76.39,10.45Z" transform="translate(0)" fill="#bea457" fill-rule="evenodd"/><path d="M162.34,31.79c-.21.52,2.94.19,4,.47C167.48,31.71,163.65,31.75,162.34,31.79Z" transform="translate(0)" fill="#bea457" fill-rule="evenodd"/><path d="M63.76,4.79a19.1,19.1,0,0,0,5-.54A30.81,30.81,0,0,0,63.76,4.79Z" transform="translate(0)" fill="#bea457" fill-rule="evenodd"/><path d="M176.41,32.45c.06-.27-1.76-.65-2.91-.37C173.44,32.34,175.23,32.84,176.41,32.45Z" transform="translate(0)" fill="#bea457" fill-rule="evenodd"/><path d="M98.63,13.16c1.16.35,5.43.11,3.44-.39C100.86,13.22,99.79,13,98.63,13.16Z" transform="translate(0)" fill="#bea457" fill-rule="evenodd"/><path d="M123.58,18.87c.18.46,3.62.5,5.23.06-.75-.12-.36-.23.08-.34C127.22,18.17,125.27,19.15,123.58,18.87Z" transform="translate(0)" fill="#bea457" fill-rule="evenodd"/><path d="M83.33,7.73A10.47,10.47,0,0,0,87.77,8C86.26,8,84.89,7.43,83.33,7.73Z" transform="translate(0)" fill="#bea457" fill-rule="evenodd"/><path d="M183.45,32.79c.56,0,1.11.06.71.17,2.44-.35,4.69.21,7.15-.17C187.8,32.8,186.28,31.8,183.45,32.79Z" transform="translate(0)" fill="#bea457" fill-rule="evenodd"/><path d="M115,13.68c.79.38,1.77-.11,2.67-.22a7,7,0,0,1-1.46-.19C116.11,13.41,115.68,13.55,115,13.68Z" transform="translate(0)" fill="#bea457" fill-rule="evenodd"/><path d="M192.05,32.8c-.94.3,1.13.11,1.42.35-.62-.53,1.31,0,2.7-.39-.77-.46-1.82.34-2.59-.12A3.73,3.73,0,0,1,192.05,32.8Z" transform="translate(0)" fill="#bea457" fill-rule="evenodd"/><path d="M196.49,33c2.38.16,2.77.83,4.77.47-2.26-.31.74-.56-1.32-.86C199.77,33.22,197.72,32.72,196.49,33Z" transform="translate(0)" fill="#bea457" fill-rule="evenodd"/><path d="M116.87,10.05c1.72.11,4.22-.12,2.74-.56A8.74,8.74,0,0,0,116.87,10.05Z" transform="translate(0)" fill="#bea457" fill-rule="evenodd"/><path d="M209.18,33.16c1.41.4,3,.09,4.44.22.72.2-.22.39-1.25.58,2.57.25,2.58-.6,6.08-.45-.68-.37-.77-.21-2.13-.53-1.7.3.56.11,1,.44C214.61,33.42,212,32.85,209.18,33.16Z" transform="translate(0)" fill="#bea457" fill-rule="evenodd"/><path d="M173.62,21a9.33,9.33,0,0,0,4.19-.38C176.19,20.6,174.34,20.58,173.62,21Z" transform="translate(0)" fill="#bea457" fill-rule="evenodd"/><path d="M150.65,14.75c1.36.05.41.13,1.42.36.69-.19.33-.39.5-.59A6.81,6.81,0,0,0,150.65,14.75Z" transform="translate(0)" fill="#bea457" fill-rule="evenodd"/><path d="M184.76,16.15a18.06,18.06,0,0,0,4.9-.2C188.09,16.09,185.22,15.72,184.76,16.15Z" transform="translate(0)" fill="#bea457" fill-rule="evenodd"/><path d="M163.37,6a21.62,21.62,0,0,0,2.55.29c1.33-.16-1.94-.36-.63-.52A6.81,6.81,0,0,0,163.37,6Z" transform="translate(0)" fill="#bea457" fill-rule="evenodd"/><path d="M145,1.18A12.47,12.47,0,0,0,149.5.89C148,1,145.3.82,145,1.18Z" transform="translate(0)" fill="#bea457" fill-rule="evenodd"/><path d="M223,19.12l1.41.36c.14-.13.27-.26.78-.16C226,19.06,223.64,18.82,223,19.12Z" transform="translate(0)" fill="#bea457" fill-rule="evenodd"/><path d="M172.72,4.21c1.56.29,3.25,0,4.76.48.71-.19-.16-.4-.24-.6,1.06-.15,2.61.18,2.66-.23-.84-.13-1.79.25-2.59-.11C176.52,4.34,174.51,3.84,172.72,4.21Z" transform="translate(0)" fill="#bea457" fill-rule="evenodd"/><path d="M230.53,17.25a14.14,14.14,0,0,0,1.85.11c1.24-.23.11-.61-1-.61C229.68,16.9,232.24,17.1,230.53,17.25Z" transform="translate(0)" fill="#bea457" fill-rule="evenodd"/><path d="M194.44,4.11c.05.42,4.93.59,5.22.06A24.57,24.57,0,0,1,194.44,4.11Z" transform="translate(0)" fill="#bea457" fill-rule="evenodd"/><path d="M191.71,1.11A8.11,8.11,0,0,0,195.49,1,28.27,28.27,0,0,0,191.71,1.11Z" transform="translate(0)" fill="#bea457" fill-rule="evenodd"/><path d="M212.8,5.67a13,13,0,0,0,3.74,0A14.16,14.16,0,0,0,212.8,5.67Z" transform="translate(0)" fill="#bea457" fill-rule="evenodd"/><path d="M226.1,6.5c.83.15,1.75,0,2.59.11.42-.14-.56-.29-1-.44Z" transform="translate(0)" fill="#bea457" fill-rule="evenodd"/><path d="M231.75,6.3c.93.32,2,0,2.94.21C235.19,6.32,232.62,5.9,231.75,6.3Z" transform="translate(0)" fill="#bea457" fill-rule="evenodd"/><path d="M283.73,18.6c.4-.05.22-.11,0-.17a4.19,4.19,0,0,1,1.46.19c.91-.09.58-.6,2-.41,1.34-.29-2-.12-.68-.34C285.33,17.9,281.78,18.19,283.73,18.6Z" transform="translate(0)" fill="#bea457" fill-rule="evenodd"/><path d="M288,18.05a2.82,2.82,0,0,0,1.5,0c.53.12,1.06.24.67.35a6.42,6.42,0,0,0,1.91-.24l-1.77-.44C289.46,18,288.76,17.82,288,18.05Z" transform="translate(0)" fill="#bea457" fill-rule="evenodd"/><path d="M296.2,19.76a11.07,11.07,0,0,0,3-.14A5.6,5.6,0,0,0,296.2,19.76Z" transform="translate(0)" fill="#bea457" fill-rule="evenodd"/><path d="M252,7.63c1.59.12,1.56-.48.89-.67C251.05,6.94,252.37,7.39,252,7.63Z" transform="translate(0)" fill="#bea457" fill-rule="evenodd"/><path d="M249.27,6.58c1.92.16,4.66.44,5.65-.19C253,6.54,251.26,6,249.27,6.58Z" transform="translate(0)" fill="#bea457" fill-rule="evenodd"/><path d="M254.66,7.58a30,30,0,0,0,3.77-.13c-1.22-.11-2.48,0-3.69-.21C254.4,7.35,255.18,7.47,254.66,7.58Z" transform="translate(0)" fill="#bea457" fill-rule="evenodd"/><path d="M260.7,9.09c3.3-.13,4,.16,2-.75A3.7,3.7,0,0,0,260.7,9.09Z" transform="translate(0)" fill="#bea457" fill-rule="evenodd"/><path d="M307.43,19.71a9.17,9.17,0,0,0,3.73,0A12.92,12.92,0,0,0,307.43,19.71Z" transform="translate(0)" fill="#bea457" fill-rule="evenodd"/><path d="M325.55,20.68c3.6-.45,6.6,0,8.74-.67-2.74,0-5.48,0-8.28.25-.35-.12.41-.23.82-.34C324.35,19.6,324.15,20.28,325.55,20.68Z" transform="translate(0)" fill="#bea457" fill-rule="evenodd"/><path d="M283.27,8.49c1.92.25.81-.65,2-.41C285.44,7.53,282.68,8.29,283.27,8.49Z" transform="translate(0)" fill="#bea457" fill-rule="evenodd"/><path d="M285.19,8.25A8.66,8.66,0,0,0,288.6,8,10.74,10.74,0,0,0,285.19,8.25Z" transform="translate(0)" fill="#bea457" fill-rule="evenodd"/><path d="M342.86,20.19l1.42.35c.74-.13.39-.28,1.21-.41A14.51,14.51,0,0,0,342.86,20.19Z" transform="translate(0)" fill="#bea457" fill-rule="evenodd"/><path d="M309.74,10.65c.6-.19-.31-.4,1.25-.58C309.24,10,307,10.57,309.74,10.65Z" transform="translate(0)" fill="#bea457" fill-rule="evenodd"/><path d="M362.86,3.59a3.84,3.84,0,0,0,3.46-.39A21.82,21.82,0,0,0,362.86,3.59Z" transform="translate(0)" fill="#bea457" fill-rule="evenodd"/><path d="M400.5,4.26c1.54.33,1.49-.42,3.37,0,.71.33-1.47.21-1.95.4a6.08,6.08,0,0,0,3.44-.38c-1,0-1.35-.14-1.41-.36,1.7-.41,3.19.26,4.9-.2a6.63,6.63,0,0,1-2.56-.28,13.38,13.38,0,0,1-5.23-.06C401,3.64,402.63,4,400.5,4.26Z" transform="translate(0)" fill="#bea457" fill-rule="evenodd"/><path d="M414.71,4.24l1.42.36a9.23,9.23,0,0,0,2.35-.49c-1.29-.3-3.51.41-2.2-.19A1.83,1.83,0,0,0,414.71,4.24Z" transform="translate(0)" fill="#bea457" fill-rule="evenodd"/><path d="M420.22,4.73c0-.23,1.34-.44,2.38-.65l-1.06-.27a2.79,2.79,0,0,1-1.14.07c-.09.32.34.23-1.21.41C419.87,4.44,419.46,4.58,420.22,4.73Z" transform="translate(0)" fill="#bea457" fill-rule="evenodd"/><path d="M426.11,5.13c1.32-.31,2.5,0,3.81-.29-1.57-.22-3.28.16-4.8-.31C424.36,4.9,425.65,4.75,426.11,5.13Z" transform="translate(0)" fill="#bea457" fill-rule="evenodd"/><path d="M432.27,4.35c-1.13.19-1.56.38-.5.59a9.11,9.11,0,0,0,1.53-.15C433.29,4.65,432.92,4.5,432.27,4.35Z" transform="translate(0)" fill="#bea457" fill-rule="evenodd"/><path d="M433.33,4.62c.69.15.27.29,1,.43.75-.12.41-.36,1.17-.24.42-.13-.56-.29-1-.43Z" transform="translate(0)" fill="#bea457" fill-rule="evenodd"/><path d="M435.72,4c-.26.17,2.56.73,3.65.38A17.07,17.07,0,0,0,435.72,4Z" transform="translate(0)" fill="#bea457" fill-rule="evenodd"/><path d="M457.18,5.05a21.42,21.42,0,0,1,2.7-.39c-.8-.34-1.76,0-2.56-.29C456.54,4.59,455.72,4.81,457.18,5.05Z" transform="translate(0)" fill="#bea457" fill-rule="evenodd"/><path d="M468.8,4.92a7.28,7.28,0,0,0,3,0l-1.42-.36Z" transform="translate(0)" fill="#bea457" fill-rule="evenodd"/><path d="M475.87,5.09c1.47.11,3,.14,4.44.22,1.25-.19-2.24-.43-1-.61-.92-.1-.76.14-1.17.24C477.38,5,476.69,4.73,475.87,5.09Z" transform="translate(0)" fill="#bea457" fill-rule="evenodd"/><path d="M480.92,4.21c.84.16,1.79-.22,2.63-.06-.12-.32-1.11-.37-2.52-.45C480.33,3.86,481.93,4.05,480.92,4.21Z" transform="translate(0)" fill="#bea457" fill-rule="evenodd"/><path d="M489.23,5.57c2.34-.46,4.49,0,6.71.08,1.57-.51-2.64-.61-3.5-1.06-.44.48.13.52-2.39.65-1.54-.38-1.27-.64-3.23-.63C486.41,5.09,487.28,5.2,489.23,5.57Z" transform="translate(0)" fill="#bea457" fill-rule="evenodd"/><path d="M489.84,4.48c1.59.13,3.25-.07,4.83.14A9.8,9.8,0,0,0,489.84,4.48Z" transform="translate(0)" fill="#bea457" fill-rule="evenodd"/><path d="M497.77,4.14c.59.17,1.23.09,1.81.28,1.08-.25-.84-.52.53-.76a8.38,8.38,0,0,0-2.27.14C499.36,4.09,499.4,3.88,497.77,4.14Z" transform="translate(0)" fill="#bea457" fill-rule="evenodd"/><path d="M508.61,4.17a8.43,8.43,0,0,0,1.81.28c-.26-.2.71-.39-.25-.6C510,4.16,509.64,4,508.61,4.17Z" transform="translate(0)" fill="#bea457" fill-rule="evenodd"/><path d="M637.36,7.29A18.63,18.63,0,0,0,643,7.1c-1.59-.15-3.16-.42-4.77-.48C637.64,6.84,637.72,7.07,637.36,7.29Z" transform="translate(0)" fill="#bea457" fill-rule="evenodd"/><path d="M673.89,6.08c.8.36,1.76,0,2.6.11C677.1,6,674.63,5.73,673.89,6.08Z" transform="translate(0)" fill="#bea457" fill-rule="evenodd"/><path d="M711.88,6.84c0,.34,3.15.37,4.48,0C714.89,6.75,713.37,6.86,711.88,6.84Z" transform="translate(0)" fill="#bea457" fill-rule="evenodd"/><path d="M730.14,7.13c1.82-.22,5.09-.21,5.73-.54C734.12,6.56,730.82,6.63,730.14,7.13Z" transform="translate(0)" fill="#bea457" fill-rule="evenodd"/><path d="M766.89,6.68c1.34.21,2.75,0,4.09.13C771.14,6.55,768.12,6.31,766.89,6.68Z" transform="translate(0)" fill="#bea457" fill-rule="evenodd"/><path d="M805.48,8.13c.16-.2,1.1-.39,1.26-.58a8.43,8.43,0,0,0-2.28.14C805.14,7.84,804.73,8,805.48,8.13Z" transform="translate(0)" fill="#bea457" fill-rule="evenodd"/><path d="M930.89,37.38c2.94.25,6.1-.5,9-.25C938.56,36.48,933.69,37.12,930.89,37.38Z" transform="translate(0)" fill="#bea457" fill-rule="evenodd"/><path d="M940.35,36.88a7.78,7.78,0,0,0,3.76-.13A20.75,20.75,0,0,0,940.35,36.88Z" transform="translate(0)" fill="#bea457" fill-rule="evenodd"/><path d="M875.68,7c.33-.14.35-.28-.28-.43,2.51,0,3.14.07,6-.1a44.14,44.14,0,0,0-7.46-.09C875.31,6.55,874.84,6.74,875.68,7Z" transform="translate(0)" fill="#bea457" fill-rule="evenodd"/><path d="M887.37,8.26c0-.25,1.75-.49.53-.75C886.39,7.5,886.25,8,887.37,8.26Z" transform="translate(0)" fill="#bea457" fill-rule="evenodd"/><path d="M884.35,6.62c-.42.13.57.29,1,.43,1-.16,1.45-.32,1.6-.49C886.15,6.4,885.17,6.9,884.35,6.62Z" transform="translate(0)" fill="#bea457" fill-rule="evenodd"/><path d="M973.64,5.39a5.49,5.49,0,0,0,2.7-.39,8.36,8.36,0,0,0-2.27.14C974.4,5.23,973.86,5.31,973.64,5.39Z" transform="translate(0)" fill="#bea457" fill-rule="evenodd"/><path d="M979.47,4.35a3.79,3.79,0,0,0,2.34-.48C980.21,3.84,979.5,4,979.47,4.35Z" transform="translate(0)" fill="#bea457" fill-rule="evenodd"/><path d="M986.07,4.94c3.2.24,6.48,0,9.74-.07-.64-.4,1.37-.31,2.74-.56C994.05,4.3,991,4.79,986.07,4.94Z" transform="translate(0)" fill="#bea457" fill-rule="evenodd"/><path d="M997.34,4.72a17.79,17.79,0,0,0,4.16-.21A10.54,10.54,0,0,0,997.34,4.72Z" transform="translate(0)" fill="#bea457" fill-rule="evenodd"/><path d="M1003,4.53a39.31,39.31,0,0,0,4.48,0C1007.26,4.29,1004.52,4.11,1003,4.53Z" transform="translate(0)" fill="#bea457" fill-rule="evenodd"/><path d="M1007,5.17a20.3,20.3,0,0,1,3.66.38c1.09-.35,1.84-.37.92-.84C1011.16,5.28,1008.47,4.88,1007,5.17Z" transform="translate(0)" fill="#bea457" fill-rule="evenodd"/><path d="M1010.23.44c-.54.38,2.15.21,3,0a9.31,9.31,0,0,0-1.82-.28C1010.66.32,1011,.56,1010.23.44Z" transform="translate(0)" fill="#bea457" fill-rule="evenodd"/><path d="M1027.09,3.77c-.4,0-.23.11,0,.17l.7.18c1.09-.39,4.9,0,7.22-.51-.47-.09-.54-.18-.32-.26-1.79.2-3.52.15-5.33.45-1.79-.44.92-.3.89-.67-.81-.29-1.85.51-2.66.22C1027,3.45,1029.1,4,1027.09,3.77Z" transform="translate(0)" fill="#bea457" fill-rule="evenodd"/><path d="M1017,.35a42.64,42.64,0,0,0,7.18-.35C1021.79,0,1019.39.14,1017,.35Z" transform="translate(0)" fill="#bea457" fill-rule="evenodd"/><path d="M1036.87,3.54c1.22,0,1.1.56,2.87.54-.59-.34-.23-.54,1.64-.66A20.13,20.13,0,0,0,1036.87,3.54Z" transform="translate(0)" fill="#bea457" fill-rule="evenodd"/><path d="M1039.6,3a24,24,0,0,0,5.31-.28A28.22,28.22,0,0,0,1039.6,3Z" transform="translate(0)" fill="#bea457" fill-rule="evenodd"/><path d="M1056.42,3.08c.48-.14-.93-.3-.28-.43-2.49,0-5.16.77-7.55.26C1048.47,3.84,1054.05,2.75,1056.42,3.08Z" transform="translate(0)" fill="#bea457" fill-rule="evenodd"/><path d="M1047.92,2.56c2.56.28,5.29-.24,8-.51C1053.34,1.73,1050.59,2.34,1047.92,2.56Z" transform="translate(0)" fill="#bea457" fill-rule="evenodd"/><path d="M1054.18,1.27c-.31.45,2.72,0,3.77-.13C1056.75.89,1055.4,1.44,1054.18,1.27Z" transform="translate(0)" fill="#bea457" fill-rule="evenodd"/><path d="M1055.57,1.79a18.72,18.72,0,0,0,6.4-.18C1059.77,2,1057.77,1.4,1055.57,1.79Z" transform="translate(0)" fill="#bea457" fill-rule="evenodd"/><path d="M1066.26,2.51c-2.13-.42.56-.77,2-.58,1,.34-1,.43-2,.58.91.41,2-.17,3,.2.81-.75,5.92-1.55,8.25-1.87,0-.6-5.14.43-5.4.79-.17-.5-2.81-.12-1.74-.61-2.9.51-5.35,1.14-9.39,1.94A14.65,14.65,0,0,0,1066.26,2.51Z" transform="translate(0)" fill="#bea457" fill-rule="evenodd"/><path d="M1076.53,1.69c-.41.13.57.28,1,.43a24.94,24.94,0,0,1,3.06-.3c.17-.15-.41-.29.46-.43-.72-.08-1.47-.1-2.2-.19C1077.82,1.42,1078.54,2,1076.53,1.69Z" transform="translate(0)" fill="#bea457" fill-rule="evenodd"/><path d="M1080.87,2.41c1.14,0,3.79-.23,2-.57C1081.41,2,1081.8,2.22,1080.87,2.41Z" transform="translate(0)" fill="#bea457" fill-rule="evenodd"/><path d="M1083.33,1.42c-.76.4,1.67.05,2.16.36.4-.32,0-.34,1.6-.49C1085.91,1,1084.56,1.46,1083.33,1.42Z" transform="translate(0)" fill="#bea457" fill-rule="evenodd"/><path d="M2.17,21.7c-.53-.21,1.24-.38-.24-.6-.66.16-1.27.06-1.93.24,3,.08-1.55,1.5,1.78.44a85.34,85.34,0,0,1,9.63.44c1.52-.35,2-.21,2.6.12.33-.11-.45-.23.07-.34,1.44-.16.39.33,1.77.44.4-.4,1.17-.34,3.2-1a17.34,17.34,0,0,0-4.19.38c-1-.49-2.21-.18-3.34-.12-2.29-.8-6.09-.41-7.32-.76-1.74.34,1.78.65,2.48.62C5.11,22,3.75,21.28,2.17,21.7Z" transform="translate(0)" fill="#bea457" fill-rule="evenodd"/><path d="M34,25.19a35,35,0,0,0,6,.07c-1.33-.19-.37-.35-1.39-.53C37.74,25.44,35.72,24.93,34,25.19Z" transform="translate(0)" fill="#bea457" fill-rule="evenodd"/><path d="M43.27,25.38c1.09,0,1.52-.19.47-.42a4,4,0,0,1,1.46.19c1.45-.19,1.06-.39,2-.58a44.88,44.88,0,0,0,6.75-.09c2.56.89,5.46.16,8.14.43-.29.68-4.23.2-4.66.8,4.2-.23,6.58.4,11.26-.22a5,5,0,0,0,3.7.21c.93.38.34.8-1.31.92.56.24,1.25,0,1.84.11-.68-.3,1.78-.55.18-.85,2.52.47,5.27-.14,7.86,0-3.49.32-5.74.67-6.51.69,1,.63,5.52-.19,7.92-.34.1.45,2.7.35,4,.31.34-.12-.43-.24.07-.34s.76,0,1.15-.08c.1.15-.54.28.28.43,3.11.05,6.29-.27,9.41-.32.22.09,0,.17.33.26-3.36.14-4.5.43-7.61.59,2.53.42,5.21.11,7.78.34.94-.29-1.13-.11-1.42-.35a10,10,0,0,1,1.92-.23c1.67.26.37.68,2.1.7.74-.14.39-.28,1.2-.41a3.36,3.36,0,0,0-1.13.07c-.82-.21-.5-.88-1.43-.36-2.11-.48.55-.65,2-.57-1.92.24,2.08.33.6.69,1,.16,2.08-.43,3.06-.31,1,.34-1.68.53-2.74.57-1,.21.82.46-.15.67,1.33.23,2.78-.14,4.09.13-.14.38-1.54.25-2.38.66,1.26.5,2.77-.14,4,.3.73-.3-1.66-.17-2.13-.54a28.52,28.52,0,0,1,3.34.13c-1.61-.37-.67-.56-.17-.94.37-.05.74,0,1.13-.07,1.64.18-1,.32.64.51,1.73-.53,10.39,0,9.59.62,1.06-.3,2.3-.12,2.35-.49,1.92.28.56.52,1.7.79-1.84-.11-3.79.22-5.61,0,1,.39,5.38.48,7.78.34.7.18-.62.34.64.52a14,14,0,0,1,5.61,0c.3-.44,1.86-.36.93-.84,1,.37,2.55-.16,4.44.22-1-.63,3.11-.23,3.13-.65,2.66.28-1.67.49.21.77a8.68,8.68,0,0,1,3.41-.22c.1.2-.33.39-.5.59-3.88.18-7.53-.18-10.52.22.8.34,1.78-.17,2.57.29,5.05-.92,9.58.64,14.6-.1,4.56.91,13.41.09,15.49,1,1.48.08,3,.1,4.44.22.92-.64,3.4-.14,5.3-.28.11.14-.54.28.28.43.22-.44,2.89-.43,2.63-.06,4.22-.47,8.16.32,12.33.05-1.13-.25,1-.38,1.6-.49.64.21-1.62.38-1.24.58,3.39.46,7-.05,10.48-.05-.21.64,4,.71,4.8.31.68.31,1.46.11,2.16.36,2-.92,9.46.49,13.9-.27,3.11,1,9.46-.51,11.87.47a25.32,25.32,0,0,0-3.37,0c.75.47,4.6-.15,7.46.08,1.17.09,5.32.65,5.57.14.79-.19,1.44.28,2.17.37,2.69-.31,5.24,0,7.92-.34,3,.36,9.66.33,14.5.42,125.47,3.29,251.74,2.82,378,2.29,1.05.21.1.4-.5.59-9.35-.62-19,.4-28.4-.14a6.69,6.69,0,0,1-2.7.39c-.35-.16.64-.06,1.18-.24-1.46-.21-3.09.41-4.48-.05-1.17.22.15.46-.9.67-3.92-.84-10.33-.6-15.67-.17a88.57,88.57,0,0,0-12.72,0c-.47-.09-.54-.17-.32-.26-6.69.47-15.91-.19-20.29.46-1-.24-.06-.32-1.42-.36-.41.11.32.23.67.35-8.37-.59-15.23.46-23.88-.26-.85.55-5,0-7.11,0-3.46,0-6,.55-7.5.09a33,33,0,0,1-9-.1c-1.71.15.84.35-.86.5-.38.2-2.31-.29-1.41-.35-2.1.43-4,0-6.05.27-.75-.12-.37-.23.07-.34-2.71.43-5.25.11-7.93.34-.18-.64-.19-.07-2.17-.37,0,.22-1,.42-1.95.41,0-.14-.39-.29-1-.44-1.86.63-5.39-.26-9.06.41-.63-.15-.63-.29-.29-.43-4.4.18-14.63-.06-15.78.34-2.26.08-4.37-.5-6.75.1-2-.42-5.7-.68-6.68-.25-14-.38-26.91,0-41.44-.37-.73.1-.33.22-.81.33-1.11-.26-1.53-.17-3.27-.46-7.85.5-18.58-.57-27.72.2-.69-.15-.28-.28-1-.43-3.51.06-7,.27-10.49,0,.11.25.86,1-2.49,1.16-.94-.34-.06-.54-2.09-.7-.51-.27,2.07-.58,2.66-.23,1.44-.39-2.4-.61-2.2-.19-4.59-.68-9.52.21-14.11-.49-1.14.57-4.28.36-6.32-.16-.8.1-.46.22-.08.34-4.16-.32-8.45-.14-12.61-.48-.39.14,0,.28-.47.42-6-.34-14.5.19-18.93-.63-.37.08.13.17.31.25-6.68-.21-13.46,0-20.07-.56-4.83.34-12.68-.09-18.66-.2-1.47.18.23.4-1.24.58a6.26,6.26,0,0,1-1.5,0c1.6-.92-4.53-.47-6.57-.75-.77.45,1.67.1,2.17.37s-1.74.24-2.31.31c-2.3-1.12-7.43-.49-11-1-1.46.18.23.4-1.24.58-.52.06-1-.12-1.49,0-.37-.14.68-.27,1.2-.41a7.4,7.4,0,0,0-3.37,0c-.09.17,1.19.35-.11.51.71.17,1.52-.11,2.2.19-1.32.33-2.46-.15-3.8.3-1.14-.51-2.43-.28-3.66-.38-.24-.42,2.44.11,3.41-.22-2.31-.59,1.07-.2,2-.4-3.5-.65-3.28.05-6.65-.41-.66.16,1,.34.64.51a3.1,3.1,0,0,1-1.1-.09c-.62.21-.28.31.68.34-2,.46-3.8.26-5.76.7-1.12-.18-1.77-.2-1.39-.52-1.61,0-3.39.67-4.94.37-.84-.18,1.23-.33,1.6-.49-1.19-.25-2.31.17-1.95.4-1.18.25-2.17-.37-3.34-.12-.4-.18.92-.33-.65-.52-1.81.63-7.56.73-7.49.09-1.63,0-3.19-.28-4.91.2-1.9-.7-5.06.07-5.86-.57-2.15,1-6.8-.61-10.13.14-3.06-.26-6.23,0-9.27-.36-1-.25,1.9,0,.07-.34-5.15.75-9.89-.41-15,0,.58.17,1.23.09,1.81.27.28.12-.54.22-.08.34-2.22-.1-4.37-.53-6.6-.58-.44.21.58.17,1.06.26.61.32-1.67-.08-2.31.32-.07-.23-.44-.32-1.42-.36-2.12.95-5.86-.39-9,.24-1.29-.24-1.24-.46.14-.67-.92-.32-2,0-2.94-.21-.42.14.57.29,1,.44a11.62,11.62,0,0,1-3.06.31c-.53-.18-.14-.35.85-.5a76.11,76.11,0,0,1-7.85,0c-.39-.17.93-.33-.63-.51-1.66.86-9.49.17-12.09.54-.77-.42-3.76-.34-1.35-.69-1.59-.11-1.77.12-2,.4-1.57,0-1.81-.83-4-.47.69.3,1.49,0,2.2.2-.51.08-.62.16-.42.25-3.73-.07-7.35-.6-11.23,0,.19-.47-.13-.41-1.32-.86-1.19.24.28.51,1,.77-2.14.68-3.89-.45-6,.11-2.22-.34,1.07-.61-.17-.94-1.43.3-.75.62-1.32.92-1.49.29-1.41-.34-2.2-.19-.36-.15.68-.28,1.21-.41-1.29-.14-3.37.09-2.7.39-2.51-.6-2.56-.08-4.34-.73a17,17,0,0,1-5.23-.05c-.37.22,1,.46-.89.67l1.78.44c1.36,0,.74-.44,2.24,0,.8-.11.46-.23.08-.34,2.3,0,9.54-.07,8.06.76.7.21,1.55-.24,2.3-.31,1.22.36.14.63-1.28.75.76.11,4.58.11,3.07-.3,1.64-.12,3.17.27,4.9-.21.64.21-1.62.38-1.25.59,1.23.35,5.18-.27,4,.46.91.21,1.37-.24.82-.33a21,21,0,0,1,4,.3c.38-.13,0-.28.46-.42.9-.13,1.72.08,2.63-.05,0,.14-.17.28-.47.42a63.57,63.57,0,0,1,9.75-.07c.81.25-1.17,0-1.57.33,1.07.25,2.26-.12,3.3.29a11.77,11.77,0,0,1-4.44-.22c-1.27.7-5.11-.17-7.53.26,4.9.27,9.33.12,13.39.31.94-.3-1.13-.11-1.42-.35,2.49-.45,2.32.76,4.8.31-.73-.09-1.48-.11-2.2-.2,1.09-.43,2,.13,3.05-.3.94.15.12.28-.46.41a7.12,7.12,0,0,1,1.85.11c.73-.57,7.1-.17,10.09,0,.59.41-1.65-.2-2.27.14,5.13-.08,10.23-.06,15.28.26.36.14-.69.27-1.21.41,1.52.44,2.81-.14,2.7-.4,2.25-.07-.09.5,2.1.7,2.11-.17-1.41-.41-.25-.59,3.11.06,6.32-.43,9.31.18,1.24-.58,2.57-.29,4.59-.45,1.32.18.36.34,1.38.52a45.07,45.07,0,0,1,7.14-.18c.5.33-2,.2-2.67.23a20.3,20.3,0,0,0,6.4-.18c1.39.21-.39.39,1,.6-1.09.27-2.66,0-2.71.4a91.92,91.92,0,0,0,12.09-.55c2,.28-1.42.49.21.77a85,85,0,0,1,11.87.47,9.93,9.93,0,0,1,4.47,0c.77-.17-.46-.35.86-.5,2.79.59,9.71-.26,10,.53,4.65,0,11.07.53,14.57.08,2.27.5,4.74,0,7,.67,1.72-.47,3.24,0,5-.54,1.32.18.36.34,1.38.52,8.7.11,17.46,0,26.05.63.27-.22,1.24-.41-.28-.43,7.15.38,14.31.69,21.6.41,1.79-.2,3.4.45,5.16.4.33-.11-.45-.23.06-.34a39.82,39.82,0,0,0,8.21.09l2.13.53c7.69-.38,15.21,0,22.75.34.24-.09,0-.17.43-.25,13.1.5,26.38.25,39.51.6,2.1-.51,11.09.06,16.82.1,3.1,0,5.58-.28,7.81.18l1.57-.33c1.41.64,4.89-.18,7.39.42,6.35-.54,15.31.26,22.84-.17l1.43.36c9.71-.52,19.14.28,28.86-.28,4.11.56,8.53-.24,12.65.31,2.6-.48,4.95.15,7.53-.26,6.9.41,13.92.26,20.94.06,15.4.28,31-.26,46.38,0l1.56-.32c.68-.08.65.15.32.26,8.24-.24,14.19-.16,22.54-.43l1.41.35c1.56,0,.69-.61,3.06-.3.36.16-.64.07-1.17.24,1,.11,2.64,0,2.66-.23,60.76.19,119.75-1.35,180.3-1.83l1.18-.24c8.17.26,16.57-.57,24.7-.07,1.46-.1,2.76-.67,3-.14a26.27,26.27,0,0,1,6.75-.09l1.57-.32a67.52,67.52,0,0,0,8.63-.17c13.74.44,27.82-.66,41.48.21l1.56-.32a23.27,23.27,0,0,0,7.5-.09c.69.15.27.28,1,.43,1.06-.63,2.29-.23,3.38,0,3.63-.53,8-.38,12.79-.37.63.15.63.29.28.43,1.13.08,1.34-.6,3.42-.22.37-.08-.14-.17-.32-.26,1.15-.15,2.2.17,3.41-.22.75.12.36.23-.08.34a38.71,38.71,0,0,1,6.08-.44c1,.44-1.27.22-2.34.48,4.57-.39,9.1-.57,13.65-.87l1.78.45c-.41.38,1.07-.21-.68-.35,2.11-.42,4-.31,6.86-.6.47.37,3.15.23,1.39.52,1.25.14,1.3-.49,3.73,0,1.78-.34-.89-.27-1.42-.35,2.71-.44,5.24,0,8-.51.35.12-.42.22-.82.33.73.11,1.54-.18,2.2.2-.63-.48,1.34-.19,2.74-.57,6.43.66,13.87-1.09,19.47-.12,1.29-.77,5.29-.62,7.66-.77-.15.54-3.26.14-4.59.46.59.17,1.22.09,1.81.28-2.17.22-4.4.71-6.55.86.28-.89-5.59,0-6.75.09a66.82,66.82,0,0,0,15.46-.59c.37.15-.67.27-1.2.41,2.32-.1,7.12-.09,7.28-.85,1.45-.16.91.33,1.78.44,4.33-.53,7-.52,11.84-1.14a118.81,118.81,0,0,0,17.38-.83,53.51,53.51,0,0,0,11-.81c7.25.36,19.91-1.77,29.29-.53-2.25-1.08,5.63-.59,5.19-1.56,2,.09,4.19-.9,6-.27a105.37,105.37,0,0,1,23.6-.17c1-.27,2.17-.54,1.67-.83a21.52,21.52,0,0,0,7.07.17c.55-.47,1.59-.4,2.42-.83-.7-.23-1.52.14-2.24,0a84.66,84.66,0,0,1,19,.29c.78-.62,2.94-.75,5.37-.62a99.65,99.65,0,0,1,17-2.36l2.14.53c-.59-.55,3.35-.4,5-.7.15.11.3.22-.07.33a121.27,121.27,0,0,0,14.83-1.11c5.67-.17,13.28-.43,17.88-1.41,3.84.09,11-.9,14.11-1.29,5.26-.65,9.94-1.17,13.91-2.06a4,4,0,0,1-2.13-.53c1-.26,2-.05,3.06-.31-1.83-.17-2.65.15-3.7-.21-1.88.59-5-.25-5.69.37-.9.16-1.67-.35-2.51-.46-2.4.12-4.78.17-7.15.18,2.21-.41,3.21-.43,6.23-1.12-8.9.2-21,.33-31.36,1.44a10.71,10.71,0,0,1-2.95-.21c-.1.14,0,.29.28.43-1.12,0-2.27.13-3.41.22-1.56-.78-6,.46-8.07,1-1-.29.58-.56,1.68-.83-1.06.1-2.63-.14-2.52-.45,1.88-.36,2.2,0,3.48-.56-.82-.26-1.86.54-2.63.06-1.4.15-.52.34-1.6.49a6.83,6.83,0,0,1-1.5,0c.05-.29,1.69-.55,1.68-.84a10.88,10.88,0,0,0,1.13-.07c-.91.52,2.32.13,3.73,0,.69.15.28.29,1,.44,3.31-.25,4-1.12,7-1.28.26.31-2.59.59-3.55.89,1.35,0,4.2-.15,3.48-.55,3.55.3,7.32-.41,11-.82-2.18-.27-4.57.39-6.86.61,1.42-.82,6-1.05,8.35-.59a34,34,0,0,1,8.71-.5c9.09-1.12,17.87-.75,26.91-1.66-1.9-.42-4-.13-5.82-.74a21.67,21.67,0,0,1-6.3-.32c-.73.1-.33.22-.81.33-1.5-.58-3.24-.05-4.79-.31-.73-.21.21-.39,1.23-.58-1.91-.36-4,.05-6-.07-1.48-.21.81-.39-.23-.6-2.89-.26-4.54.38-8,.51-.91-.47,3-.81,4.34-1a8,8,0,0,1-1.82-.28c-.37.08.14.17.33.26-1.53.21-2.34-.16-3.06.3-.69-.14-.27-.28-1-.43a50.88,50.88,0,0,1-7.5.09c-.95.21-1,.44-.14.67a9.59,9.59,0,0,1-2.32.32,3.13,3.13,0,0,1-1.27-1c3-.09,7.6-.73,8.53-1.43a133.89,133.89,0,0,1,13.87-.1c-1.1-.69,2.33-.45,4.19-.38.49.36-2,0-2.66.22,1.91.39,4.06-.34,6.07-.44,1.39.24-.92.41,1,.44.52-.58,5.65-.58,8.32-.42,2.28-.52,4.85-.27,8-.51.34-.57-2.69-.13-3.69-.21a62.42,62.42,0,0,1,13.54-.36c3.2-.69,13.9,0,14.9-1.45,2.72.21,3.83-.54,6-.27,0,.29-1.5.19-1.25.58,6-.57,12-1.42,12.52-2.58-1.38-.27-3.86-.54-3.16-1-3.17-.4-8.24-.3-9-1.37-1.54.46-4.27.26-4.67.79a4.83,4.83,0,0,0,1.54-.15c.69.33-.19.22-1.21.41a7.51,7.51,0,0,0-2.91-.37c-1.06-.21-.63-.4.49-.59-1-.06-1.86,0-1.92.23-2.27-.62-7.59-.09-11.27.22-4.07-.79-8.53.29-12.9.88l-.71-.18c1.83-.9,6-.93,8.18-1.52-.7-.25-1.49-.05-2.17-.37-6.49.92-10.4.57-16.7,1.18-.21-.09,0-.17-.32-.26a34.63,34.63,0,0,0,6.94-.94c-1-.27-2,0-3-.21.4.37-.61.45-1.93.24.31.23.25.45-.14.68-2.16-.21-7.07.09-6.16.78-.94.26-.33-.54-1.8-.28-.22-.17,1.5-.16.85-.5-1.5-.06-2.9.59-2.42.82-1,.12-.78-.45-1.74-.61-2,.23-.78.5-2,.74-1,.19-1.25-.27-.67-.35-1.55-.16-1.24.38-1.6.5-.46,0-2-.26-2.13-.53a19.7,19.7,0,0,1,2.71-.4c-2.19-.31-3.25.3-3.14.65-2.65.07-5,.09-6.9.77-1.9-.25.28-.45-.6-.69,1.53-.13,3-.18,4.55-.29-1.39-.35-1.31-.69.22-1-.94-.19-1.86,0-1.92.23-.14-.41-1.78,0-2.13-.54a32.17,32.17,0,0,1-6.83.44c-.5-.25,2-.43,2.63-.06.4,0,.23-.11,0-.16l.78-.17a15.59,15.59,0,0,0-4.51.12c-.69-.34.18-.67-.53-1a9.69,9.69,0,0,1-2.35.48c-1.36-.21-.89-.4-1.74-.61-1,.13-.79.27-1.21.41-1-.18-.06-.34-1.38-.53-2.28.19-4.51.12-6.75.1-.94-.39.91-.21,2-.57-1.07-.24-2.31.27-3.34-.12,0,.14-.86.27-.46.42-5.41-.36-11.07.42-16.49.15-.41.11.31.23.67.35a12.42,12.42,0,0,1-2.71.4c-1.27-1.35-7.35.32-10.48.05,1.11-1.2,5.08-.85,8.14-1.35-1.57-.28-3.55.31-4-.3l-2.35.48c-.9-.15-.66-.29-1-.44a15.54,15.54,0,0,1,3-.13c-.5-.38,1-.21,1.24-.58-1.59-.68-3.66.83-5.26.11-1.74.46-3.56.92-5.15,1.39-1.47-.25-.64-.47.14-.68-1.15-.44-2.46-.13-3.69-.21.22.23-.17.45-1.64.66.72.1,1.53-.18,2.2.19a11.09,11.09,0,0,1-3.73,0l-3.52.73c-.53-.51.76-.4-1.78-.45-1.74-.24.91-.44-.59-.68-.65.82-2.68.55-5.13,1.22-2.21-.16-4.46-.18-6.65-.42-1.83.8-4,.94-6.65,1.37-1.66-.24,1.33-.44.9-.67a28.38,28.38,0,0,0-8.61,1.78c3.48.22,4.67-.91,7-1.11.64.14.64.28.29.42.95.17,2.49-.36,1.6-.49,3.07.69,9.37-1.31,13.54-.36-2.71,1-8.44,1-12.15.88-2.5,1.17-7.79,1.05-12.59,1.14,1.41-.51,2.21-.89,2.56-1.5-1.07.35-2,.18-3.09.48-3.24-.94-4.68.47-7.78-.34-3.55.38-2.39.27-5.72.53,1,.15-.24.28.28.42a17.94,17.94,0,0,0-3.06.31c-1.66-.33.46-.51,1.6-.49-.31-.39-4.65.08-4.58.46-1.49,0-3.06.29-4.45-.22-2.1-.06-4.4.8-6.47.52-1.31-.49,1-1,2.18-1.42-2.71,0-4,.74-7.61.6-1.29-.34-.56-.41-2.17-.37-1.27.31,2.31.13,1,.44a20,20,0,0,0,3.37,0c.5.44.17.4,2.18.37.35.11-.42.22-.82.33-1,.14-1.9-.47-2.92-.38,0,.15-.86.28-.46.42-1.28.13-2.49,0-3.73,0-.52-.23-.14-.31.82-.33.73-.08.3.15,1.06.27.22-.25.81-.5-.21-.77-5.27,1.32-10.24,1.26-15.36,1.87-.54-.12-1.07-.24-.68-.35a33.68,33.68,0,0,1-6.89.78c-.28-.44,3.79-.64,3.56-.9,1,.38,2,.18.39-.08-4.25.39-8.08.58-11.34.56-1.17-.58,4-.36,3.94-1-1.45,0-1.9-.17-2.66.22-4.87-.46-13.82.82-18.91,1-1.07-.24,3-.42.9-.67-.73.47-2.62.6-4.28.71a16.93,16.93,0,0,0,3.35.13c.21.08,0,.17.31.26-2.3.29-4.41-.34-6.79.26-.68-.15-.26-.29-1-.44-1.84.39-3.51.11-5.3.29-.63-.15-.63-.29-.29-.43-.84-.14-1.79.24-2.59-.12-.79.11-.46.23-.07.34-6.9-.11-11.55,0-18.37.23-.54-.18-.14-.35.85-.5-1.11-.05-2.27.14-3.38,0-1.83.21.72.46-.89.67a13.5,13.5,0,0,0-5.25.11c-1-.18-.07-.34-1.39-.52-.69.19.19.4-.5.59-2-.5-1.72,0-4.52.12-1-.18-.05-.34-1.38-.53-.33.14-.35.28.28.43-2.38.24-7.42-.35-7.28-.93-3.56.3,2.77.52.53,1-1.28,0-.87-.25-2.52-.45-1.78.31-3.82,0-4.62.62-1.64,0-3.5.05-4-.47l-2,.41c1.31.46.53-.36,1.84.1-1.08.63-6.53.15-9.84.57.57-.34.27-.62,2-.74-2.53-.48-3.1.63-5.76.7-1.62-.55-3.47-.08-5.25.12a21.91,21.91,0,0,0-6.33-.16c-.49-.37,2-.12,2.7-.4-.72-.26,1.1-.49.54-.75-2.11.49-5.08.56-7,1.11-.59-.17-1.51,0-3-.2-.75-.51,4.48-.07,1.64-.67,1.18-.33,2.22.12,3.41-.21-1.06-.41-4.27.27-4.05-.3-1.25.29-2.57.16-4.59.46.17-.69-2.15,0-4-.47-2.35.48-4.55.32-6.85.6-.08.35,1.77.61,2.91.37-.27.59-3.53.23-4.91.2-.31-.26.72-.53,1.25-.58-.23-.27-1.31-.29-1.35-.69-.2.76-2.22.19-4.27.72.78.45,1.76-.06,2.56.28a11.64,11.64,0,0,1-3.73,0c-.35-.17.64-.07,1.17-.24-.52-.17-1.58-.1-1.06-.27-1.36-.27-.57.55-1.88.06.35.29,1,.58-.18.85-1.8,0-.08-.28-1.39-.52-1,.18-.68.39-.5.59a7.45,7.45,0,0,0-1.88.06c-1.91-.39,1.23-.72-.14-1.11-.44.23-1.12.44-.89.67-1.33.37-2.41-.39-3.77.13-1.37-.21-.89-.4-1.74-.61a19.86,19.86,0,0,1-4.87,0c-1,.58-3.73.4-5.69.36-1-.18,2-.32.11-.51-1.72.52-3.56.24-6,.28-1.57.18.64.4-.5.59-2.18.07-.33-.51-2.1-.71-1,0-1.39.1-1.56.33-3.53-1-7.58.44-11.2-.13-1.34.56-2.15.47-4.65.8a15.49,15.49,0,0,0-2.56-.28c-.36-.43,2.25-.21,3.09-.48a17.48,17.48,0,0,0-5.68.36c-1.85-.16-1-.35-2.1-.7-1.5.11-2.34-.14-3.06.31l-1.42-.36c.6.46-3.39.62-4.86,0-1.25.62-2.27.35-4.17.21-1.55.3.16.1.68.35a13.65,13.65,0,0,1-2.63,0c-1.4-.41-.39-.4.15-.67a15,15,0,0,1-4.73-.65A2.77,2.77,0,0,1,777,6.71c-.2-.32-3.69-.18-5.19-.23,3.89.28,3.14.82,6.89,1-3.59.7-4-.53-6.64-.41.05.37,2.8.77,2.38,1.13-1-.33-3.54-.29-4.33-.73-1.08.36-1.16.72-2.11,1.08.5-.6-1.38-.58-2.8-.88-.71-.23,1.64-.43.14-.68-.69.27-1,.27-.89.67-1,0-2.34-.31-1.53.16a20,20,0,0,1-3.27-.46c0-.27,3.41,0,2.74-.57-2,.29-11.1,1-9.35,0-1.11,0-2.31.36-3.37,0-1.68.8-5.58.14-8.43.93-.6-.57-2.94-.22-2.09-.71-1.26-.14-1,.44-2.74.57a44.73,44.73,0,0,0-8.64.16c-.26-.48-2.73-.36-3,0-1-.46-2.21-.18-3.27-.46.31.28.88.29,1.35.69a10.62,10.62,0,0,1-3.63-.55c-2-.1-1.07.49-3.72,0-.17.14.41.29-.47.42a20.55,20.55,0,0,1,4.79.31c-2.73,0-5.46-.12-8.2-.09-.22-.09,0-.17-.32-.26,1.28-.15,3.58.22,3.8-.3-1.92-.28-3.71.39-6.32-.15a3.89,3.89,0,0,1-1.53.15c-.33.14-.35.28.29.43-1.69.28-3.24-.05-4.91.2-1.33-.19-.37-.35-1.39-.53-1.47.21.74.43-1.21.41-1.38-.23.92-.41-1-.43-1.07.13.12.28-.47.42-5.67-1.06-12.8-.1-17.45-.62-.6-.18,1.11-.33.85-.5-2.07-.19-4.35.57-6.32-.15-.32.13-.35.27.28.42-.81.3-1.51.09-2.31.32-.94-.16-.11-.29.47-.42-1.07-.24-2.25,0-3.35-.12-.4.1.32.23.68.34-.81.29-1.49,0-2.28.15-.1-.15.54-.28-.28-.43l-1.56.32c-1-.18-.06-.34-1.39-.52-3.64.1-7.27.2-10.87.13l1.06.27a15.43,15.43,0,0,1-3,.14c-.94-.16-.12-.29.46-.42a38.49,38.49,0,0,0-7.18.34c-.54-.36-1.41-.45-2.94-.2,1.87.34.16.34-.86.5,3.44-.14,4.83.36,8.56.18.42-.16-.35-.07-.7-.18.83-.37,1.44.23,2.27-.14a17,17,0,0,0,2.84.71c-4.31-.4-10.33.27-13.4-.32-.24.08,0,.17-.43.25-1.46.16.38-.32-1-.44-2.39.68-4.54.24-6.76.1-.69.46-2.25.41-3.8.3.59-.34,2-.66,1-1,1.12-.1,3,0,3.07-.31A3.16,3.16,0,0,1,632,6.3c-.66.38-1.64.28-2,.57-1.27.12-2.45-.21-3.77.13-1.41-.63-4.78-.32-7.46-.08,0-.52-1.33-.49-3.34-.12-.26-.15-.23-.29.47-.42-2.44-.27-5.05.29-7.51.08-.69.16.91.35-.1.51-.8.23-1.4-.45-2.24,0-.63-.15-.63-.29-.28-.43-1.19-.09,0,.47-1.92.23-.92-.18-1.24-.35-.64-.51-1.92.23-5.26-.26-6,.27-1-.18,0-.34-1.38-.52-.09.52-2,.06-1.88.06-2.64,0-3.58.72-6.4.18-.57.5-3.63.23-5.3.28-.1-.14.53-.27-.28-.42-1.24.54-3,0-5,.53-.64.36,1.85.47,2.56.29.66.08-1.77.37-2.31.31-.76.4,1.67.12,2.2.2.36.14-.68.27-1.21.41s-2-.55-3.73,0c-.93-.21-1.8-.42-1-.61-1.31-.31-2.77.12-4-.3-.38.22,0,.52-1.6.5.92-.63,3.8-1,6.64-1.38-1.22-.06-2.43-.27-3.65-.38a2.48,2.48,0,0,1-1.92.24c-.39.13,0,.28-.46.42-1.71.21-.93-.21-2.52-.46.2.72-6.42.76-7.11,0-.07.42-1.59,0-2.7.4,1.17.31,2.51-.11,3.69.21-.09.31-3.22,0-4.48-.05-.15.17-.58.33-1.6.49s-.83-.27.07-.34c-1.28-.14-1.45.43-.5.59a11.05,11.05,0,0,0,2.66-.23c.33.18.33.35.65.52-1.8.23-3.43-.31-5.22-.06-.35-.33,2.72-.92.21-1,.38.46-.56.23-2,.4-.15-.51,1.3-.21-1.38-.53-.2.33-.36.44-2,.58-.53-.65-2.83.2-4.41-.39,4.52,0,8.11-.55,13.12-.11-1.78-.59,3.46-.23,2.8-.9-.58-.17-1.22-.09-1.8-.28-.78.55-3.86.12-4.45-.22,1,.5-1.81.43-.56.93a13.65,13.65,0,0,1-3,0c-.71-.28,3,.06.47-.42.83-.37,1.45.22,2.28-.15-.69-.15-.27-.28-1-.43-2.26.54-2.82.1-3.31-.3-.15.71-4.84.2-7.18.35-.83.31.09.22,1,.44-2.57.55-6.62,0-8,.5-1.49-.21.28-.39-.25-.59,2,0,4-.1,6,.06.72-.22.77-.44.15-.68a2.78,2.78,0,0,1-1.49,0c-.2.11-.39.22-.08.34-2-.53-7.68-.07-9.06.41,1-.85-2.65-.44-3.52-1.06a5.43,5.43,0,0,1-1.88.06c-.77.45,1.67.1,2.17.37s-1.61.57-3.6,1.06c-1.65-.48,1.66-.47,1.68-.83-1.83-.34-1.48,0-3.42.22.61.2.17.4.25.59-.9.12-1.68-.28-2.63.06,1.54.36,3.31-.34,4.79.31A26.36,26.36,0,0,1,527,5.57c.63.21-1.72.12-2.27.14-.75.3,1.9.33,1.49,0,.28,1.66-10.7.17-16.6.66.53.12,1.06.24.67.35.82.26,1.8-.24,2.6.12.16.24-2.83.52-3.77.12.71.41-2.54.92-3.84.47a8.21,8.21,0,0,1,3-.14c-.44-.5.87-.48,1.32-.92-1.6-.21-1.09-.33-2.88-.54,2.69-.16,4.21.2,7.57-.42-1.52-.42.19-.4-2.09-.71,0,.29,1.37.58-.92.84-2.5,0-4.95-.22-7.47-.08.92.18,1.24.35.64.52,1.1.09,2.22.11,3.33.12-.11.24-1.57.38-2.34.48-.74-.12-.36-.23.07-.34-2.11-.24-.62.49-3.06.31-.1-.25.85-.5.54-.76-2.72.62-7.69-.06-10.59.57-.51-.21.47-.4-1-.61-1.41.18-2.73-.06-4.2.38.95.18,1.3.35,1.39.52-1.79.19-3.5,0-5.3.28-.81-.34,1.4-1,3.09-.47-.81-.27.64-.5-.21-.77-1.62.59-3.3.33-6.51.69.8.36,1.78-.14,2.6.12-.14.41-2.21,0-3.45.38-.69-.14-.26-.28-1-.43-1,.91-4.36-.07-6.43.35-1-.64,2.93-.42,3.16-.81a3.36,3.36,0,0,0-1.13.07c-1.64-.19,1-.33-.64-.52-1.37.25-3.34,0-2.71.4-1.32.36-2.45-.2-3.73,0-.26-.23.46-.54,1.57-.33-.2-.59-4.88.43-5.16-.39l-2.34.48c.91.15.67.29,1,.44a2.87,2.87,0,0,1-2.17-.37c-2.4.66-4.54,0-8.53-.35-2.27.46-7-.28-10.48.06-.12.4,1.56.11,2.56.28-.61.45-4.3.31-6,.28-.57-.43,2.34,0,2-.41a5.91,5.91,0,0,1-2.13-.53c-.92.16-2.64.66-4,1-1.72.1-1.23-.46-2.49-.63-.89-.06-3.78.42-3.33-.12a45.56,45.56,0,0,1-8.64.16c-1.68-.27,1.47-.49-.21-.77-2.2.23.54.52-1.28.76S415,5,413.85,4.74a26.89,26.89,0,0,1-3,0c.32-.22,0-.45-1.34-.69a1.32,1.32,0,0,1-1.18.24c-.92.23,1.15,0,1.42.35a8.75,8.75,0,0,1-3,0c-.83.22,1.35.32,1.81.28.09.2-.34.39-.5.58-1.44,0-1.42-.3-2.28.15-1.56-.4.45-.3.5-.59-1.51-.25-1.41.18-1.95.4-1.77.12-3.48-.1-5.23-.05-.07-.26,1.19-.5,1.28-.75-1.63-.15-3.08-.84-5.11-.57-1.39-.53-1.68-.81-5.05-.91,1,.19,2.24.21,2.14.54a13.69,13.69,0,0,1-3.38,0c-.77.17.47.35-.85.5,1.44,0,4.11.47,4.47,0,.18.21.54.41-.5.59-1.3,0-.81-.48-2.63.06-1.63-.19,1-.33-.63-.52.21.52-1.83.48-3.42.22-1,.31.42.41,1.42.36-.66.15-1.26.06-1.92.23-.39-.2-2.56-.42-1.74-.61-.65-.06-3.27.43-2.59-.12-1.2-.17-2,.74-3.84.47-.36-.15.69-.28,1.21-.41-1.86-.08-5.19-.58-6-.07-.56.07-3.18-.11-1.42-.35-3.29,0-7.65.53-8.93,1.51a19.36,19.36,0,0,0-2.63.06c-1.43-.3,1.42-.55-.56-.86a6.7,6.7,0,0,1,3,0c1.79-.26,2.2-.54.93-.83-.38.08.13.17.32.26a9,9,0,0,1-3.38,0c-.82-.25,1.16,0,1.57-.32-.92-.36-2.05.21-3-.2-.82.81-4.84.19-7.43-.25-1.27.29-2.37.86.17.93-.53-.44,1-.28,2.28-.14.36.15-.66.15-1.14.07.55.39,4.45.15,6.29.32-6.11.53-15.2,0-22.5.27-.35-.12.42-.23.82-.33a6.36,6.36,0,0,0-3,.13c-.5-.55-1.49-.09-2.91-.37-1.07-.21,2.52-.37.5-.59-1.45.54-2.17.21-4.88,0a6.85,6.85,0,0,1-4.51.12c-1.32.38-2.51.09-3.83.47-3.76-1.21-11-.4-17.73-1.05.1.38-1.66.68-2.28.15-1.55.18-1.17.38-1.25.58a6.18,6.18,0,0,1-1.49,0c.23-.25-.18-.51,1.29-.75-2.1-.35-.67.7-3,.14-.69.6-1.31.38-3.44.39-.72-.21.21-.4,1.24-.58-3.65.42-9,0-11.8,1a9.56,9.56,0,0,1-2.95-.2c-1-.27,1.05-.5-.21-.77-1.4.21-1.16.44-.89.67-1.81-.11-1.38.17-3.06.31-1-.47,1.48-1,3.21-1-.75-.13-.37-.26,0-.17a23.51,23.51,0,0,0-10.06-.19c-1.31-.24,1.81-.44.15-.68-1.41.46-5-.12-7.47-.08-.75.13-.39.28-1.21.41-.1-.15.53-.28-.28-.43-1.37,0-.47.11-1.57.32-.29-.11.54-.22.08-.34-1.55-.37-3.24-.08-3.06.31a2.54,2.54,0,0,0-1.1-.1c-.35-.11.41-.22.81-.33-3.48-.05-8.8-.73-11.18-.12-3.31-.5-2.54.13-4.45-.22-2,.65-3.19.52-5.8.87a21.72,21.72,0,0,0,2.57.28c-1.19.29-2.21-.17-3.38,0-.36-.12.41-.22.81-.33-2.35-.06-4.64-.43-7-.5-.35-.12.42-.22.83-.33a13.7,13.7,0,0,0-3.38.05c-1.37.91-8.6-.45-12.37.11,4.32.19,8.66.3,13,.57a26.75,26.75,0,0,1-4.48-.05c-.65.4,1.93.12,2.56.29l-2.35.48c-.69-.15-.27-.29-1-.44-3.16.19-3.15,1-6.86.61-.27-.3,2.54-.33,3.49-.56-.08-.2-1-.4-.25-.6a12.9,12.9,0,0,1-5.76.7c-.53-.17-.13-.34.85-.5-1.49-.31-3.05.7-5.33.46-1.51-.25,1.14-.45-.6-.69-.4.05-.23.11,0,.17,0,.23-2,0-1.61.49-.65-.08-3.13-.22-2.66.23a14,14,0,0,1-2.6-.12c0-.31,2.64-.59,2.07-.91-.94.09-2.29.21-3.45.39-1-.18-.06-.34-1.38-.53-2.27.1-4.48-.05-6.72-.07-.74-.21,1.44-.09,2-.41-2.83-.29-3.66.88-6.4.19-.76.07-1.61.52-2.31.31-.93.23,1.14.05,1.41.36l-1.17.24c-2.17-.35-4.48,0-6.64-.41,0-.44,3.07-.46,4.12,0a14.13,14.13,0,0,1,3.06-.31c-1.22,0-4-.64-6-.06-1.46-.28.52-.51-.95-.78-1.54.59-6,.5-9.45.49-.81-.32,1.17-.09,1.56-.32-1.59,0-.82-.29-2.13-.53-2,.23-4,0-6,.27-2.66-.55-2.72.08-6.86.6a37.59,37.59,0,0,1,4.86,0c.8-.1.47-.22.08-.34a11.85,11.85,0,0,1,3,0c.85.15-1.2.21-1.53.15a12.26,12.26,0,0,0,5.87.57c1.12.52,5.29.53,7.78.34.83.26.36.46,1.85.11a53.9,53.9,0,0,0,11.47.55c0,.59,4.06.17,2.84.71A27.24,27.24,0,0,1,189,3.28c-.59-.16-1.23-.08-1.81-.27.76-.07,1.51-.07,2.27-.15.26.15.23.29-.46.42.93.29,2,.1,2.91.38.73-.11.34-.23.82-.34a3.7,3.7,0,0,0,2.59.12,4.63,4.63,0,0,0,1.82.27c1,.18-2,.32-.12.51,1.59-.64,8-.28,9.32.19,1.31.21.49-.26,1.56-.32A10.92,10.92,0,0,0,209,4c1.37.22.38.41,1.74.62,2.54-.51,7.27,0,10.81.2a21.42,21.42,0,0,1,2.7-.39c-1.81-.39-1.53.29-3.38,0,1-.26.69-.19-.24-.6,2.5-.53,4.59-.21,5.19.23-1.06.29-1.91-.42-3,0,1.66,0,2.36.53,1,.78,2.36,0,4.68.29,7,.33-.76.46-.4.27,1.39.52a10.46,10.46,0,0,1-3.67-.37c-.69.16.91.34-.1.5,1.39-.1,2.71.16,4.09.13,1-.21-.42-.45-1.35-.69,2.14-.1,4.19.19,6.4-.19.33-.22-.39-.45.14-.67,2.25-.11,0,.44,1.73.61.36.17-.63.07-1.16.24,2.07.61,7.07.28,9.52,1,3.1-.52,6-.12,9-.07.94.44-2.12.35-2.42.82,2.21.36,2.91-.54,3.31.29.73-.27.79-.56.18-.85a49.49,49.49,0,0,1,7.81.17c.92-.64,3.45-.37,5.3-.28.35.12-.42.22-.82.33a5.23,5.23,0,0,1-1.81-.27c-.52.08-.62.16-.43.25l-.78.16c1.32.23,2.79-.26,4,.3a13.56,13.56,0,0,1-2.62,0c-.55.46,2.15.25,2.91.38-2.56.69,2.86.16,4.76.47-.09-.26.47-.75,2-.74-1.1.43.88.44.92.95a2.8,2.8,0,0,1,1.14-.08c-.61-.47,1.89-.39,2.42-.82a23.42,23.42,0,0,0,6.32.15c1.3.25,0,.46-.14.68,2.05.24,4,.29,5.11.57l1.57-.32L294.22,8c-1.47.47-2.73-.1-4.09-.13,1.82-.35,3.45.21,5.26-.11-.24,1,4,.48,6.89,1-1.09-.13-2.26.11-3.34-.12-.18.42,2.91.3,4.05.3.38-.23.29-.45.89-.67,2.05-.11.94.45,1.74.61a2.82,2.82,0,0,1,1.5,0c.15-.53,1.91-.51,3.72,0-1-.57.6-.18,2.39-.65,2,.49-2.74.38-.18.84.75-.61,2.14-.43,3.17-.81,1.76.42-2.2.38-1.65.66A8.06,8.06,0,0,0,318,8.61c1.62.39-1.28.19-.86.51,3.16.63,4.28-.07,7.54-.26.84.21.37.4,1.74.61,1.7-.37,3.23,0,4.9-.2.44.23-.38.45-.14.68-.54.15-1,.05-1.53.15-1.23-.18.12-.34.11-.51a43.89,43.89,0,0,1-5.66.2,24,24,0,0,0,4.81.3c1.22.26-2,0-.83.33-1.7-.18-3.47-.11-5.19-.22-.34.11.44.23-.06.34-1.46.16-.39-.33-1.78-.45a5.77,5.77,0,0,1-1.89.07c-.33,1.05-3.59-.28-5.68.36-1.31-.24.41-.51-1.39-.53-1.14.33.23.69-1,1,.94.27,2,0,2.95.2.4-.1-.32-.23-.68-.34a12.92,12.92,0,0,1,3.73,0c.18.31-1.21.13-1.6.49a36,36,0,0,0-4.51.12c-1.31-.24.41-.51-1.38-.52-2.62,1.21-10.6.24-15.39.25-.21-.23,1.56-.44.89-.67,4.45.18,8.86.52,13.36.49.74-.3-1.62-.33-2.24,0-1.09-.3-2.63-.23-1-.6-1.26.05-2.52.12-3.77.13-.28-.23,1.13-.44-.6-.69-1.26.48-1.62.31-3.42.22-1.38-.22.4-.39-1-.61a35.72,35.72,0,0,0-7.58.43c.06-.14-.74-.29-.28-.43,1.1-.22,0,.43,1.49,0-2.17-.36-4.47-.09-6.64-.42l-2.74.57a7.28,7.28,0,0,0-2.1-.7c-1.62.55.87.56,1.32.86-1.44.29-2.62-.61-4.09-.13-1.69-.36,1.62-.66-.53-1-.37.08.13.18.32.26a58.14,58.14,0,0,1-8.57-.18c-1.58.35.76.75,2.1.71-1.4.14-3,.94-4.24.54-.6-.32,1.57-.08,1.21-.41-.66-.39-1.53.2-2.2-.19-.9.32.06.44-2,.57-.84-.18-.81-.35.11-.51-2-.36-2,.66-3.81.3-.52-.26,2.13-.49.54-.76-1.45.18-1.06.39-2,.57a6.18,6.18,0,0,1-1.49,0c0-.28,2.05-.26,1.63-.66-1.9,0-1.42-.25-3.23-.63a85.94,85.94,0,0,0-9.73.06c2.23-.59-5.93-.41-8.46-.69.24-.45,3.46.1,4.94-.37-3-.45-5.77.41-7.82-.17-.4.11.32.23.68.35-1.09.39-2,0-3.06.3-2.64-.86-6.48-.11-8.07-.77-3.48.36-5.45-.13-8.31.42,1.35,0,.41.12,1.41.36-4.21.5-5.22-.46-5.35-1.17-1,.33-.29.68-1,1-1.6-.11-3.22-.08-4.79-.31-.52-.23,2-.17,2.7-.39.35.2-5.6-.37-6.68-.24-.87-.09-.77-.55.07-.34,0-.41-1.49,0-2.24,0-.4.11.32.23.67.35-3.06,0-7.6-1.07-11.83-.64l-1.77-.44c-.78.15-1.47-.14-2.28.14-3-.93-6.47-.07-9.52-.95a34.16,34.16,0,0,1-10-.54c2.09-.25,2.24-.43,3.87-.64-3.72,0-7.61.54-9.34,0,0,.72-2.76,1-1.9,1.84-1.84-.11-3.66-.35-5.5-.48,0,.76,6.78.35,6.46,1.26-.79.19-1.43-.28-2.17-.36-.38.52-3,0-4.58.45.29-.27.53-.56-1.31-.86.08.41-1.12.49-2.77.73-1.11-.33-3.16-.78-3.31-.29-1.31-.24-.54-.52-2.13-.53-.7-.33.18-.22,1.21-.41a25.59,25.59,0,0,0-4.87,0c-1.23-.3,1.47-.55.18-.85-.69.13-1.33.8-2.7.4-.26.19-1.23.38.25.6-2.15.16-1.8.09-2.74.56-.81.28-1.4-.48-2.21-.19-1.77.3.88.34,1.39.52a29.73,29.73,0,0,0-3,0c-.71-.24,1.65-.44.15-.68-.52.36-2.67.13-1.85-.11-2.36.64-6.13.29-9.27-.35-.15.19-1.1.38-1.25.58a7.61,7.61,0,0,1,2.13.53c1-.13.23-.28-.28-.43a82.66,82.66,0,0,1,9.2.7c-2.68.27-5.15-.44-7.82-.17,1.35.11,2.69.23,4,.47-1.53.18-2.93-.28-4.54.29-.72-.24.69-.45-.61-.69-.65.16-1.26.06-1.92.23-.94-.15-.11-.28.46-.42-.7-.17-1.51.11-2.19-.19-.47.48-2.85.16-3.14.65-2-.31.16-.57-1.31-.87-1.56.25-4.94-.11-5.15-.39-2.37.28-2.25-.25-4.48,0-.81-.32,1.18-.09,1.57-.33-2-.38-4.23,0-6.29-.32-.86.25-1,.34-1.28.75-1.23-.1-3.64,0-3.84.47-1.64-.19,1-.33-.64-.52-1.1-.12-2.29.19-3.34-.12-1.46.2-.55.42-2,.4-1.17-.29,1.85-.54,1.68-.83.92-.24,1.62.57,2.59.11-.28-.4-3.24-.38-4.83-.13-1.33-.19-.37-.35-1.39-.53-1.93.28-5.84.58-6.39.18-.64-.09-.72.14-.43.26a11.38,11.38,0,0,1-4-.3c-.94.31-1.77.08-2.7.39,1.67-.26,3.11.62,4.83.14,1,.43-.58.59,2.06.87A5,5,0,0,1,72.6,5.4c-1.55.4,1.43.32,1.35.69a3.19,3.19,0,0,1,2.24,0c1-.31,1.88-.08,2-.41-1.2-.2-2.27,0-1.77-.44.89-.14,1.66.38,2.58.11.6.34-1.1.44,1,.61-.66-.59,1.66,0,3,0,.22.11-.27.6-1.2.41,1,0,3.33.59,5.15.4,1.26.75,3.66.29,4.65,1,1.94-.14,1.77-.5,3.83-.47.37.15-.68.27-1.2.41,1.5.56,3.19.25,4.76.48.62-.22.27-.31-.67-.35,1.11-.41,2.64,0,2.7-.39a1.35,1.35,0,0,0,1.42.35c.69.33-.19.22-1.21.41,1.92.33,4-.06,5.86.58.85-.89,2.69.44,4.55-.29-.48.52,1.54.22,1.74.61a11.17,11.17,0,0,1-4-.3c-1.35.7-4.77.09-7-.33-.18.25-.37.5-2,.74,3.75-.77,10.47,1.32,14.25-.18,2.34.11,4.73,0,7,.33.62-.22.28-.31-.67-.35l2.35-.48a8.09,8.09,0,0,1,2.2.19c-1.18.26-2.24,0-3.45.39,1.07.24,2.2.22,3.27.46l1.56-.32a14.14,14.14,0,0,1,1.85.11c.72.2-.22.39-1.25.58,2.76.18,1.64-.81,4.59-.46.32-.14.35-.28-.29-.43A8.93,8.93,0,0,1,133.93,9c-1.61.73,4.14,1,6.07,1.34-2.23.19-7.62-.38-7.53.26-2.24,0-4.42-.33-6.68-.24-.32.48,2.68.17,3.66.38a10.43,10.43,0,0,0-3.1.47c-.78-.74-2.17-.1-2.8-.88-1.93.29-1.13.61-.57.93-1.46.14-1.4-.4-2.13-.53a21.16,21.16,0,0,0-2.7.39c-1.34-.18-.37-.34-1.39-.52-1.74.4-1,0-2.6-.12-1.79.25-3.49,0-5.29.29-1.49-.22.28-.4-.24-.6,1.84-.12,5.13.31,4.94-.37a23.31,23.31,0,0,0-3.07.31c-.07-.12-.16-.23-.67-.35a5.61,5.61,0,0,1-3.37,0c-2.19.29.12.63-2.06.92-.39.05-.75,0-1.15.07-1.3-.24,0-.45.15-.68-.91-.42-2-.05-2.92-.37-.79.1-.45.22-.07.34-2.27.18-4.35-.64-6.75.09-4-.33-7.15,0-10.34-.62-1.33.41-2.51.08-3.77.13-.52.4,0,.5-1.28.75a16.09,16.09,0,0,1,2.84.71c.9-.41.2-.3,1.64-.66,1.64-.1,3.19.22,4.9-.2.9.32-1.72.6-2.06.91.85.23,3.71,0,3.27.46,2.46.16,5.08-.43,7.42.25-1.54.25-3,.07-4.55.29a10.17,10.17,0,0,1,2.92.37c.47-.35.82-.35,1.49,0,3-.58,5.65.37,8.56.18,1.47.19-.24.34-.85.5.92.32,2,0,3,.2a4.62,4.62,0,0,0-2.41-1c0-.14.17-.28.45-.42.89,0,1.74.08,2.6.12.39.17-.92.32.64.51,1-.13.79-.27,1.21-.41s1,.12,1.49,0c.84.37-.83.19-.86.5-1.16.21-2.17-.32-3.37,0,11.49.5,23.06.6,34.5,1.32.9-.69,4.56-.29,5.19.23.84-.36-.28-.74.61-1.1,2.17-.15,1.86.53,4.05.3.35.12-.41.22-.82.33,1.85.12,3.8-.26,5.62,0-2.41.89,4.35.55,7.21,1.26,1.53-.15-.1-.34-.64-.51a32,32,0,0,1,4.4.39c.49-.14-.92-.3-.27-.43a8.09,8.09,0,0,1,2.2.19,3.22,3.22,0,0,1,1.6-.49c1.7-.25,1.06.46,3,0,.53.18.14.34-.85.5,4.42.3,3.67.55,9.27.36.26.14.23.29-.46.42,3.59-.46,7,.06,10.51-.22.15.11.3.23-.07.34a18.08,18.08,0,0,0,4.24-.55c1.15.18,1.12.35-.11.51,4.52-.16,8.8.84,13.47,0,1.38.22-.39.4,1,.61-.78.16-1.47-.14-2.28.14,3.53-.1,8-.55,12.37-.11.64-.37-2.88-.3-.59-.69a19.41,19.41,0,0,0,5.1.57c1.23-.53-1.55-.06-2.55-.29a21,21,0,0,1,4.16-.21c0,.29-.42.57-.93.84,3.79-.08,6.65-.68,10.91-.3.29.11-.54.22-.07.34s1.23.09,1.81.27a9.76,9.76,0,0,1,2.35-.48c.09.17.44.34,1.38.52,1.91-.15,3.75,0,5.62,0,.83.23-1.22.29-1.53.15,1.32.54,4.59,0,5.73-.53,1.89.25.12.46-.9.67,2.62,0,5.38-.64,7.93-.33.84.14-1.26.49-1.53.15.38.37,1.79.52,3.62.55-.58,0-2.27.09-.82.33-.76.09-1.45-.21-2.27.14,1.17.33,2.49,0,3.69.21-.44-.23.66-.64,2-.4.43-.16-.61-.08-1.06-.27a22.88,22.88,0,0,0,4.62-.63c1.74.25-.91.45.6.69,1.15-.26,3.05-.24,3.13-.64,3.15.14,6.75.41,8.92.27.07-.2-.31-.4,1.24-.59,1.12.51-1.07.73,2.06.88a11,11,0,0,1-3,.13c.06.44,3.48,0,4.83.14.17-.14-.41-.29.47-.42a8.89,8.89,0,0,1,2.87.54c1.46-.18.54-.39,2-.57,1.12,0,2,.77,4.08.13,1,.18.06.34,1.39.53a8.63,8.63,0,0,1-2.63.05c5.41.9,14.42.18,21.21.49,0,.23-.67.45-1.63.66a36.84,36.84,0,0,1,4.08.13c1-.19.68-.39.5-.59,3.29,0,9.23.9,12.76-.2,1,.4-1.35.29-1.24.58,2.39.05,2.93,0,4.83.14.38-.13,0-.28.46-.42,2.48-.14,6.43.88,7.82.17.84.21.37.4,1.74.62,1.14-.09,2.34-.48,3.38-.05,1.88-.87,6.36.27,9.41-.32-.32.17,1.32.35.64.52,1.91-.17,3.84-.46,5.58.14a10,10,0,0,1,2.31-.31c.08.11.17.23.67.34.4-.26,2.43-.24,1.5,0a20.88,20.88,0,0,1,5.22.06c-.41-.37.59-.39,2-.4.35.11-.42.22-.82.33,1.84.15,3.74,0,5.58.14-1.54.4-1.92-.1-2.71.4a17.73,17.73,0,0,0,3.35.12c.35.15-.69.28-1.21.41-1.37,0-2.62-.59-4.09-.13,1.67-.09.84.59,2.52.45.4.39-1,.41-2.35.49-.62-.21.34-.39.5-.59a4.47,4.47,0,0,0-2.7.39,14.14,14.14,0,0,1-3.69-.21c2.75.11,2.15-.52,4.19-.37.76-.31-2.35-.18.11-.51,1.49-.26-.42.52,1.06.26,2-.34.28-.19-.64-.51a6.26,6.26,0,0,1,1.5,0c-1.56-.33-6.5.12-9.31-.19.68.5-1.44.09-1.61.5a41.55,41.55,0,0,0,5.31-.28c.67,1.13-5.38.72-7.33,1-2.68-.45,0-.85-1.6-1.29-.22.55-2.45-.18-3.8.3,1.18-.08,4.43.15,3.23.63-2-.58-2,.27-4.83-.14-1.47-.27.51-.51-1-.78l-2,.41c.54.12,1.08.23.68.34-3.57.39-7,.19-10.56.4,1,.41,2.22.12,3.31.29-2.15.26-5.94.45-6.68-.25a8.37,8.37,0,0,0,3.06-.3c.48-.32-1.78-.12-1-.44-2.36.06-4.48.72-6-.06a6.05,6.05,0,0,1-2.64,0c0,.14-.86.27-.46.42-2.68-.32-7.52.24-8.88-.44-1.63,0-3.27.16-4.91.2,0-.14.18-.28.47-.42-1.38-.19-1.05.32-2,.41-1.45-.3-.51-.57.18-.85-1.67-.17-3.82,0-4.37-.56-.56.34.81.69-.95,1,2.28.28,1-.73,3.79-.3.42.34-.19.54-1.63.66-2.9.13-5.58-.72-8.5-.51-1-.48,1.29-.27,2.35-.49a13,13,0,0,0-3.77.13c.08.12.17.23.68.35-1,.08-1.33-.21-1.53.15-2-.37-4.35.5-6.29-.32-.31.38-3.47.41-3.73,0-1.37.71-4.89.64-7.18.34-.73.11-.34.23-.82.33-1.89-.3-4.11-.07-4-.64l-2.74.57c-2.48-.31.88-.56-.56-.86a14.49,14.49,0,0,1-4.87,0c-.29.28-1.9.55-2.42.83-1-.35,1.93-.66.22-1-.18.83-5,.73-7.19.35-1.94.14-1.8.65-3.83.46.14-.3,1.62-.63-.64-.51-.34-.26.74-.51,2-.75a1.33,1.33,0,0,0-.74,0l-.71-.18c-1.23.21-.4.44-1.64.66-2,.23-1.57-.45-3.58-.72-1.44.32-2.71-.18-4.13,0a10,10,0,0,0,4.45.22c0,.2.8.4,1.73.61-1.59-.1-1.47.28-3.34-.12-1.7.15.85.35-.85.5-1.54-.43-5-.37-7.75-.51-.5.22,2.15.3,3,.2.38.67-3.28.54-4.94.37-1-.42,2.62,0,1.57-.32-1.81-.46-1.54.29-3.38.05,2.35-.79-5.74.06-8.07-.77-.92.34-3.76.51-5.79.87.34-.75-5.83-.15-6.75.1-.54-.12-1.08-.24-.68-.35-.65.25-2.15-.06-3.8.3-1.08-.64-2.59,0-5.26.11-.51-.2.47-.39-1-.61-4.74.4-7.16,0-12,.21-.5-.23.49-.42-1-.44-.2.68-2.64.26-3.69-.21.68.53-1.83.87-3.88.64-.56-.43,2.35,0,2-.4-.59-.17-1.23-.09-1.81-.28-.6.22.29.43-1.21.41-.42-.14,1-.27.46-.42-2.33-.24-3.14,0-3.06.31-1.89.13.11-.53-1.77-.44.16.41-1.49.54-3.13.64-.57-.51-1.16,0-2.52-.45-.08.36-2,.31-3,.13-.09-.2.8-.09.47-.41-.69.52-6.4-.13-5.76.7-1.32-.26-2.85.48-4.16.2-1-.38,1.28-.24,2.39-.65-1.35-.15-2.75,0-4.09-.13-.82,1.07-5.81.5-7.26.69.18-.32,2-.43,2.75-.57.74.12.36.23-.08.34,1.6.21,1.21-.24,3.06-.3-2.47-.14-3.1,0-5.08-.74-1.57.18.11.4-.5.59-2.11-.64-10.93-.08-14.15-.33-.5.05-3.15.3-2,.57-2,.36-3.61-.39-3.8.3-1.07-.23.21-.45.14-.68a5.54,5.54,0,0,1,1.82.28c1.24-.32-.78-.55,1.63-.66a30.21,30.21,0,0,0-4.58.46c-.09-.12-.17-.23-.68-.35-1.29.28.75.22.25.6-1.15.15-2.21-.17-3.42.22,5.64.47,11.36.57,17.07.69,1.62.19-1,.33.63.52,1.41,0,1-.19,2-.4,1.44.35-1.05.66-2.45,1-3.17-.06-6.6-.86-10.77-.37-1.12,0-2.17-.36-3.3-.3,1,.39.68.34-1.53.16-1.33.15-.08.34-.86.5-2.68-.68-3.42-.19-5.93-.24-1-.18-.06-.34-1.38-.52.08.37-1.14.61-2.7.39-1-.18,2-.32.1-.51a2.79,2.79,0,0,1-1.49,0c-.08.14-.5.27-1.21.41a66,66,0,0,1-7.32-.76c-.78.71-2.44-.2-4.15.21-.72-.33,1.44-.09,2-.41a25.08,25.08,0,0,1-4.08-.13c-.77.07-1.62.53-2.32.32.39.45-.05.39-2,.74,2.88-.07,4,.48,6.33.15,1.31.4-1,.3.25.6,1.57-.23,1.71-.49,1.27-.75a24,24,0,0,0,2.67-.22c0,.56,2.43.3,3.7.21.88.37-1.66.3-2,.74a4.27,4.27,0,0,0,2.31-.31,12.2,12.2,0,0,0,3.63.54c0-.22,1.34-.43,2.38-.65.42.29-.2.57,1.31.87a12.44,12.44,0,0,1,3,0c-.45.19.42.4.24.6,4-.12,8,.07,11.9.3,2.36-.52,4.44.26,6.76-.1,3.76.93,9.68-.42,12.18.73.81-.3,1.52-.08,2.32-.31a19.89,19.89,0,0,0,2.87.54c-1.55.19-2.73-.17-3.45.38.73-.44-.87-.22-2.16-.36-1,.35.45.27,1.42.35a22.7,22.7,0,0,1-5.26.12c-.64-.18,1.75-.26,2.27-.15-.54-.44-4.47,0-6.32-.15.8.33,1.75,0,2.56.28-3.42-.14-4.79.26-7.93.34-1.07-.21,2.53-.37.51-.59l-1.57.32a43.46,43.46,0,0,0-9.39.15c2.24-.45-1.35-.35-3.27-.46-.26.22-1.24.41.29.43-2.71.62-2.93-.37-5.26.11-1-.26-.43-.51-.21-.76a5.17,5.17,0,0,0-2.75.56c-1.58.19-4.36-.6-4.86,0-.67,0-3.13-.27-2.52-.45a33.79,33.79,0,0,1-9,.07,12.63,12.63,0,0,0,3.49-.56c-1.2-.2-2.42-.34-3.62-.55-1.12.09,1,.62-.47.42-.76.44,1.69,0,2.25,0,.21.56-4.24.89-6,.27-2.48-.06-5.2,1-7.58.43l-1.56.32c-1.22-.18.13-.34.11-.51-1.46-.15-3.09.5-4.51.12-.72-.33,1.47-.2,2-.4-4.23.18-8.21.48-10.8-.21a14.16,14.16,0,0,0-3.8.3c.84.15,1,.3.28.43-1.42-.43-5.56.08-8.13-.43a6.11,6.11,0,0,1,2.66-.22c-.69-.3-4.65-.35-6.65-.42-1.8.41,1.29,0,1.78.45-1.31.27-2.49,0-3.8.3.26.14.22.28-.47.41.94.25,1.37.05,1.42.36a9,9,0,0,0-1.53.15c-1.77-.66-2.35-.49-4.68-.81,1.33-.41,2.43.27,3.76-.13-.8-.33-1.71-.12-2.52-.45.71.35-2.78.58-4.23.54-.35-.11.42-.22.82-.33-.91-.42-2-.05-2.91-.37-.67.16,1,.35.63.52-2.67.27-5.19-.19-7.85,0-.1.44,1.91-.05,3,.2.21.09,0,.17.31.26-1.86-.19-2.44.13-4.55.29,0,.48,1.86.34,2.63-.06,1.68.24-1.75.5.64.52C44.11,24.89,41.5,25,43.27,25.38ZM184.56,31.1a12.92,12.92,0,0,1,4.08.13A11.59,11.59,0,0,1,184.56,31.1Zm113.53,4.31c-1.22.37-3.75,0-2,.57a30.93,30.93,0,0,1-6.32-.15,10,10,0,0,0,2.39-.66,5.47,5.47,0,0,0,1.8.28c.52-.11-.26-.23.08-.34C295.37,35.28,296.83,34.84,298.09,35.41Zm849.44-21.13c1.34-.25,1-.6,2.66-.23C1150.18,14.3,1148.5,14.56,1147.53,14.28Zm-1-9.19a18.8,18.8,0,0,0,4.66-.8,3.88,3.88,0,0,0,2.62,0,5.72,5.72,0,0,1,2.07.87c2-.32.7-.67.21-1,3,.21,2.67,1,.81,1.45-2.48-.64-5.34.49-7.89.17-1.28-.37,1.48-.18.86-.5C1148.63,5.4,1146.47,5.42,1146.5,5.09ZM914.78,7.8c-1.44.29-2.73-.1-4.13,0A10.84,10.84,0,0,1,914.78,7.8Zm-117.62.74c-.6-.3-3.12-.24-2.48-.62C795.65,8.32,798.39,8,797.16,8.54Zm-88.84-.81c1,.09,2-.21,3,.21C710.43,8.19,707.79,8.08,708.32,7.73Zm-521-5.4a23.87,23.87,0,0,1-4.8-.31C183.92,2.07,187.28,1.91,187.34,2.33Zm30.54,5.86c-.19.38-6.8.21-5.55-.32C214.11,8.32,216.11,7.71,217.88,8.19ZM86.78,5.56c.42-.14.25-.29,1.22-.42.58.19,1.22.11,1.81.28A5.64,5.64,0,0,1,86.78,5.56Zm171.5,14.88c-3.41,0-4.92,0-7.82-.17A35.12,35.12,0,0,1,258.28,20.44Zm-72-.71c-1.13-.06-4.22,0-4.05-.3C183.33,19.44,186.43,19.31,186.24,19.73Zm-36.82-1a2.74,2.74,0,0,1-2.3.32C146.48,18.82,148.92,18.52,149.42,18.73ZM56.26,24.16c-.77-.12-.44.13-1.18.24-1-.55-2.3.27-3.3-.29C53.14,23.67,56.29,23.87,56.26,24.16Zm52.16,2.7a8.81,8.81,0,0,1-3,0A5.53,5.53,0,0,1,108.42,26.86Zm50.9,3.28c-.17.33-2.54.31-3.72,0A9.67,9.67,0,0,1,159.32,30.14Zm10.82.21c-1.32.19-4.48,0-4.42-.39C167.17,30.2,168.74,29.87,170.14,30.35ZM96.64,12c2.48.08,5-.15,7.46.08A24,24,0,0,1,96.64,12Zm105.1,24.52c-.27.38-2.84.35-4.13,0A8.5,8.5,0,0,1,201.74,36.47Zm-47.93-12a18.66,18.66,0,0,1-3.74,0C151.15,24.2,154.12,24,153.81,24.47ZM97,10.42c-.5-.26-2.94.09-2.17-.36C95.8,10.16,98.15,9.94,97,10.42Zm2.66-.22c.56.49,1.15.12,2.56.28-.64.14.77.29.28.43-1.82-.07-1.26-.37-3,0l-1.07-.27C98.84,10.47,98.66,10.33,99.63,10.2Zm6.85,1.18a11.64,11.64,0,0,1-3.73,0A6.47,6.47,0,0,1,106.48,11.38Zm46,9a8.36,8.36,0,0,1,2.27-.14c-1.73.26-.77,1.08-3.17.81C151,20.65,153.72,20.67,152.44,20.38Zm-34.33-9.13-1.57.33-1.06-.27A5.87,5.87,0,0,1,118.11,11.25ZM96.45,5.83c-.49-.59-1.52,0-3-.2C93.37,5.08,99,5.37,96.45,5.83ZM160.69,20.3c2.35.39,5.41-.39,6.63.42.3-.51,2.88-.47,4.17-.21-3.62.07-3.09.68-6.58,1-1.31-.71-1.36.06-2.13-.54-1.91.11-5.82.45-6.36,0,.32.06,2.36,0,1.53-.15a14.21,14.21,0,0,1-3.7-.21,5.16,5.16,0,0,1,2.95.2C158.41,20.62,160.54,20.76,160.69,20.3Zm38.86,10.62c-.13.43-2.25.3-3.41.22C196.26,30.8,198.43,30.73,199.55,30.92ZM152.72,19l1.43.35a5.26,5.26,0,0,1-2.28.15C153.57,19.38,151,19.18,152.72,19ZM109.35,6.74c-1.21.37-2.16-.42-3.38,0-1.14-.25.24-.6-1.74-.62C106.93,5.6,107.14,6.64,109.35,6.74Zm21,5.07a6.48,6.48,0,0,1-3.41.22C128,12,129.28,11.48,130.33,11.81ZM116.09,8.43c-1.23-.5,2.62-1.06,4.27-.72,0,.32-1.15.54-2,.57C118.4,7.84,116.91,8.11,116.09,8.43Zm67.44,13.48c0-.44-1.45-.17-2.28.15-1,0-1.35-.13-1.42-.36-2.7.39-5.18-.25-7.88.17-1.16-.22.26-.75-1.82-.27-1.24-.27-1.16-1,.89-.67-.43.1-.82.21-.07.33.47-1,4.77-.61,7.29-.85l1.78.45c1.49,0,3.09-.51,4.51-.12-.79.52-4.24.59-6.08.44.34.12-.21.14-.78.16,1.23,0,2.41.41,3.65.38a12.16,12.16,0,0,1,5.7-.36C184,21.32,184.72,21.7,183.53,21.91ZM133,11.59c.7-.17-.9-.35.11-.51.66.39,1.54-.2,2.2.19-1.19.27-.92.56-2.42.83l-1.07-.27ZM239.3,37.48c.51.27-2.08.59-2.67.23C237.53,37.59,238.51,37.1,239.3,37.48Zm-16.72-5.79c-1,.57-4.85-.23-3.34-.12C220.34,31.66,221.53,31.35,222.58,31.69Zm-93-23.29L128,8.73c-.36-.12-1.08-.24-.68-.35C128.06,8.51,128.22,8,129.56,8.4Zm13.78,2c-.74.13-.56.27.28.43l-2,.4c-1.11-.08-2.17-.32-3.27-.46C140,10.76,141.7,10.53,143.34,10.43Zm-13-2.19c.78-.24.52-.5.53-.75.71.17,1.52-.11,2.2.19-3.12.57,2.64.32,1.7.78-1.45-.26-5,.26-5.15-.39Zm19.46,3.45c-.49-.62-2.47-.06-4.06-.3C146.87,10.63,151,11,149.81,11.69Zm2.95.2c1.35.09.32.54,1.42.36.69-.2-.2-.4.49-.59l1.43.35c-.58.14-1.41.27-.47.42a6.29,6.29,0,0,1-2.66.23c.44-.11.82-.22.07-.34-1.4.15-.52.33-1.61.49C149.78,12.48,152.33,12.2,152.76,11.89Zm10,2.32a10.2,10.2,0,0,1-4.83-.14A15.57,15.57,0,0,1,162.73,14.21ZM136,8.22c1.91-.18,3.67.37,5.58.15a18.86,18.86,0,0,1-4.91.2C137,8.46,136.5,8.34,136,8.22Zm57.1,12.86-1.57.33a4.31,4.31,0,0,0-3,0l-1.06-.26A32,32,0,0,1,193.06,21.08ZM144,9c-1.08-.2-2.25,0-3.31-.29C141.69,8.4,144.44,8.62,144,9Zm97.1,23.41c-2,.22-3.95-.19-6-.06C236,31.79,239.3,32.19,241.13,32.4ZM136.32,6.53c-.19-.2.75-.39,1.25-.58a18.49,18.49,0,0,1,3,0c.36.26-.28.51-.53.76a18.83,18.83,0,0,1,5.33-.45c1.47.61,3,.53,5.44.82-1.22.43-5.16,0-7.47-.08.64.15.61.29.29.43-2.24,0-2.85-.18-1.78-.45-1.74.08-7.13.33-8.49-.52C135.12,6.75,134.7,6.43,136.32,6.53Zm18.93,4.2c-.66.42-1.37.65-3.45.39C154.3,11.16,152.76,10.63,155.25,10.73ZM141.33,7.6a21.55,21.55,0,0,1,2.56.28C142.77,8.18,140.14,8,141.33,7.6Zm56.95,13.54a5.5,5.5,0,0,0,1.89-.06l1.77.44c2.6-.38,3.16,0,6-.27-.78.16.47.34-.85.5a14,14,0,0,0-4.48-.05c.54.29.63.57-.93.84a25.73,25.73,0,0,1-3.27-.46c1.18-.27,2.26,0,3.45-.39C201.34,21.34,198.46,21.5,198.28,21.14Zm1,.44a7.65,7.65,0,0,1-3.7-.21A15.17,15.17,0,0,1,199.31,21.58ZM150.88,8.39c1.64.18-1,.32.64.51a7.11,7.11,0,0,1-3,0C148.56,8.65,149.9,8.37,150.88,8.39ZM256.69,34.87a6.78,6.78,0,0,1-3,.13A8.37,8.37,0,0,1,256.69,34.87ZM148.79,7.68c.76.15.35.29,1,.44A4.62,4.62,0,0,1,147.23,8Zm31.85,6.73c.65.14,1,.29,1,.43a15.62,15.62,0,0,1-4.84-.14C178.17,14.33,179.31,14.81,180.64,14.41ZM155,8.52c1.91.34,4-.1,5.93.23-2-.1-4.1.51-6,.11C155.41,8.75,154.63,8.63,155,8.52Zm8.55,2,1.57-.32c.41.2,1.27.41,1,.6C165.29,10.43,164.33,10.81,163.53,10.48ZM153.31,7.56c.53-.22-2.36-.48-.6-.68,1.86,0-.07.36,1.73.61l-1.95.4c-.4-.2-2.62-.13-1.78-.44C151.6,7.37,152.43,7.58,153.31,7.56ZM212,21.72c-1.58-.21-1.48.33-3.38.05C209.59,21.43,212.43,21.25,212,21.72ZM173.55,10.84a31.54,31.54,0,0,1-4.12,0A11.9,11.9,0,0,1,173.55,10.84Zm99.09,24.63a6.33,6.33,0,0,1-2.63.06C270.05,35.2,271.69,35.08,272.64,35.47ZM184.38,12.66a27.3,27.3,0,0,1-4-.3C181.55,12.05,184.53,12.38,184.38,12.66Zm35.83,9.15c1.75,0,3.46.13,5.18.23C223.75,22.38,219.28,22.44,220.21,21.81ZM168.31,5.6c-1.56.3.15.11.68.35-1,.34-1.71-.18-2.63.06,1.14.48,2.43.31,3.62.55.29.15,1.56.74-.5.59.84-.31-1.4-.12-1.78-.45-1.6.5-3-.11-4.51.12a8.52,8.52,0,0,0-3.62-.55c-.64.14.76.29.28.43-3.21-.5-1.26-.83.33-1.52.81.15.17.28.28.42.65-.13,1.21.2,1.85.11-.65-.15-1-.29-1-.44,1.41-.25,2.35.05,1.95-.4a6.44,6.44,0,0,1,2.56.28c-.53.18-1.53.08-1.17.24C165.87,5.4,167.09,5.49,168.31,5.6Zm10.58,3c0-.31,1.3-.2,2.31-.31.56.51,2.75.18,4.41.38-1.81.49,1.61,0,2.13.54-1.66.17-3.19-.23-4.83-.14-3,.46-2.4,1.45-5.48,1.13C179.64,9.93,182.38,8.94,178.89,8.61ZM285.44,35.1c.27.2-2,.38-.5.59,2.07-.23,1.14-.5,2-.74.59.18,1.23.1,1.82.27-1.26.63-2.77.76-4,1.32a27.14,27.14,0,0,0-5.79-.92A30.55,30.55,0,0,1,285.44,35.1ZM229.16,21.91a6.42,6.42,0,0,1-3.41.21C226.91,22,228,22,229.16,21.91ZM159.93,4.58c-.7.16.9.35-.11.51C158,5.17,158.19,4.42,159.93,4.58Zm25.81,5.21-3.13.65a14,14,0,0,1-1.45-.19C180.88,9.87,184,9.54,185.74,9.79Zm46.37,12.32c.94.21,1.86.12,1,.44-.71-.18-1.52.1-2.2-.2ZM207.83,15c1.95.42-1.59.64-2.7.4C206.06,15,206.89,15.27,207.83,15ZM171.15,6.32c.75,0,2.19.38,1,.6C171.21,6.71,170.35,6.5,171.15,6.32Zm63.31,15.31c-.22.05-.41.1,0,.17a5.51,5.51,0,0,1,1.89-.07,10.71,10.71,0,0,1-3.77.13A6.12,6.12,0,0,1,234.46,21.63ZM233.68,20c-1.18-.3-2.55.28-3.73,0C231,19.68,234,19.57,233.68,20ZM160,1c-.76.36,1.5.18,1.13-.07,1,.21.51.4.25.6-1.67-.11-1.36.13-3.73-.05A5.68,5.68,0,0,1,160,1ZM310.71,35.89a9.35,9.35,0,0,1-3,0A4.91,4.91,0,0,1,310.71,35.89ZM230.93,15.38a4.57,4.57,0,0,1-2.6-.11A4.66,4.66,0,0,1,230.93,15.38Zm31.64,7.74c1.67.28-.52.73-1.58.33C262.09,23.23,261.19,23.14,262.57,23.12Zm-25.39-7.24c1.71-.34,5.26-.18,5.54.32-1.51-.5-3.24,0-4.86,0C238.54,16,236.83,16.18,237.18,15.88Zm92.46,20.64a18.08,18.08,0,0,1-4.83-.14C326.4,36.18,329.37,36.05,329.64,36.52ZM192.85,2.82c-.76-.14-3.4-.21-2.88-.55C190.78,2.14,193.36,2.52,192.85,2.82Zm30.32,5.09c1.16.44,2.44.26,3.62.55-1.42.29-2.69-.2-4.19.38-.7-.25-1.48-.05-2.16-.37A14.41,14.41,0,0,0,223.17,7.91Zm51.6,12.37c1.38.28,1.9.54.21.77-1.15-.07-1.44-.52-3.28-.46C272.79,20.2,273.71,20.58,274.77,20.28ZM219.57,3.79a14.88,14.88,0,0,1-4.2.38A10.05,10.05,0,0,1,219.57,3.79ZM250,11.94a4.63,4.63,0,0,1-2.59-.11A4.63,4.63,0,0,1,250,11.94ZM239.48,8.6a9.56,9.56,0,0,1-4.12,0A19.61,19.61,0,0,1,239.48,8.6Zm9.38,1.63c1.92.36,4-.09,6,.07-1.35.6-3.64.32-6.43.35-.42.12-.25.3-1.14.07C247.42,10.55,247.84,10.39,248.86,10.23Zm30.79,6.46a25.66,25.66,0,0,1-5.65.19A23.93,23.93,0,0,1,279.65,16.69ZM228.32,3.12a17.22,17.22,0,0,1-3,.14c.77-.28-.08-.57.93-.84C227.76,2.66,227,2.88,228.32,3.12Zm-6,.28c-.52-.44-1.46-.26-2.87-.54,2.57-.06,4.74-1,6-.28A6.81,6.81,0,0,0,222.27,3.4Zm6.25.49c-.7-.36-3.46.08-2.91-.37a13.63,13.63,0,0,1,4,.3c-.75.13-.56.27.28.43a15.4,15.4,0,0,1-3.76.13C226.76,4.21,229.13,4.22,228.52,3.89Zm25.08,5.2c-1-.18-2,.12-3-.2C251.48,8.62,254.1,8.85,253.6,9.09ZM249.11,9c1.14-.18-1.06-.4.51-.58C251.22,8.62,250.52,9.19,249.11,9Zm8.25,1.71a17.83,17.83,0,0,1,3.05-.31,9.78,9.78,0,0,0,2.91.38,9.57,9.57,0,0,0-2.34.48c-.6-.33-1.07-.47-2.6-.12C257.73,11,257.36,10.89,257.36,10.75Zm57.05,13c-1.11.36-2.69.19-2.73.57l-.72-.18a1.43,1.43,0,0,1-.74,0A8.21,8.21,0,0,1,314.41,23.78Zm45.94,12.57c.94.14,1.87-.07,1.81.28C361.1,37,359.27,36.6,360.35,36.35ZM232,3.5a14.48,14.48,0,0,1-3.3-.29C229.67,2.77,232.33,3.36,232,3.5Zm74.85,17.31a16,16,0,0,1-4.48,0A16,16,0,0,1,306.82,20.81ZM246.4,4.26c-.76-.12-.43.12-1.18.24-1.57-.1-1.56-.6-3.69-.21-.22.29,2.17.23,1,.6a5.3,5.3,0,0,1-2.88-.54C241.75,3.89,245.75,3.72,246.4,4.26Zm49.88,13.37c1.59.14,3.32-.34,4.83.14-1.44.32-2.78.17-4.2.38C296,18,295.67,17.8,296.28,17.63ZM268.41,9.77a7.82,7.82,0,0,1,2.16.36C269.48,10.51,267.28,10,268.41,9.77ZM252,4.4a1.47,1.47,0,0,0-.82.33A8,8,0,0,1,249,4.37,7.51,7.51,0,0,1,252,4.4ZM275.84,10c-1.13,0-2.36.54-3.42.21A11.42,11.42,0,0,1,275.84,10Zm10.51,1.56c-1.54.39-1.93-.1-2.7.39-.65-.15-1-.29-1-.43A7.28,7.28,0,0,1,286.35,11.58Zm-8.17-.26c1.41.37,3.06-.31,4.43.22C281.25,12,278.11,11.75,278.18,11.32ZM257,5.48a4.45,4.45,0,0,1-3-.21A8.36,8.36,0,0,1,257,5.48Zm24,4.94a11.05,11.05,0,0,1-3,.13C278,10.16,280,10.1,281,10.42Zm4.62-.63c-2,.33-2.83.35-3.17.81-1.35,0-.86-.29-1.38-.52a17.94,17.94,0,0,1,3.06-.31c-.48-.09-1.5-.06-1.07-.27a13.78,13.78,0,0,1,4.76.48c-.42.14-.24.28-1.2.41C285.14,10.18,286.12,10,285.61,9.79Zm5.4,1a41.87,41.87,0,0,1-7.5.09C284,10.07,288.51,10.48,291,10.78ZM256.43,2.84c-1.91.13-3.73-.1-5.58-.15A19.23,19.23,0,0,1,256.43,2.84ZM267.08,5.5c-.18.23-.4.66-2,.41A2.72,2.72,0,0,1,267.08,5.5Zm-2.2-2c2,.22-1.56.38-.5.59s2.07-.33,3,0a27,27,0,0,1-6,.1C261.92,3.89,263.93,4.07,264.88,3.53Zm28.9,8.3c2.53-.5,5,.31,3.94.81A10,10,0,0,0,293.78,11.83Zm.6-1.1-1.95.41c-.35-.12-1.08-.24-.68-.35C292.57,11.05,293.62,10.25,294.38,10.73ZM280.32,6.5c1.06.21.11.4-.49.59a11.9,11.9,0,0,1-1.46-.19Zm-5.92-2c.77.32.67.63-.57.93C272.14,5.08,273,4.51,274.4,4.48Zm18.32,5.3c1.17-.38,3,.11,2.91.37C293.72,10.52,294.31,10.06,292.72,9.78Zm-12-5.31a7.92,7.92,0,0,0,1.82.27c-1.86.19-2.18-.16-3.45.39-.49-.54-1.82-.12-3.27-.46C277.54,4.37,279.07,4.79,280.76,4.47Zm10.27,1c-2.24-.61-6.75.12-7.75-.51C285.46,5,291.5,4.51,291,5.43Zm-2.24,0c-.77.17.47.35-.85.5a8.51,8.51,0,0,1-1.82-.27C287.8,5.52,287.18,5.23,288.79,5.4Zm13.12-.11c.8.34,1.75,0,2.56.29a11.54,11.54,0,0,1-3,.13C301.92,5.58,301.52,5.43,301.91,5.29Zm32.38,6c-1.3,0-5.19.37-4.05-.3C331.3,11.33,334.47,10.9,334.29,11.26Zm36.18,9.23c1.68.25-.51.75-1.6.49C370,20.83,369.07,20.65,370.47,20.49Zm-37.21-9.67a6.08,6.08,0,0,1-2.59-.11c1-.14,1-.71,2-.57C332.3,10.36,333.19,10.59,333.26,10.82Zm1.29-.75c1.85.26.07.85-1.25.58C333.37,10.46,333,10.25,334.55,10.07ZM320.1,5.92c1,.5,2.27-.12,3.3.29a38.44,38.44,0,0,1-5.65.19Zm14.59,3.47-1.56.32-1.07-.26A5.87,5.87,0,0,1,334.69,9.39Zm6.36,1.77c2-.41,1.6.3,3.66.38C343.42,11.67,341.09,11.49,341.05,11.16Zm4.76.48,1.42.36c-.85.29-3.53.38-3,0A1.81,1.81,0,0,0,345.81,11.64Zm36.64,8.81a13.56,13.56,0,0,1-2.56-.28c5.25-.05,10.49-.09,15.64.34-1.63.61-2.93-.33-4.52.12.94.22,1.86.13,1,.44-1.65,0-.89-.37-2.49-.62-1.7.41-3.18-.26-4.9.2a9.77,9.77,0,0,1,2.91.37,23.29,23.29,0,0,0-2.31.32c-1.33-.15.44-.66-1.39-.53-1.12.18,1.08.41-.49.59a7.75,7.75,0,0,1-2.21-.2C381.3,21,382.88,20.71,382.45,20.45ZM341.3,10c1.64.49,3.47.11,5.15.39-1.05.33.21.63-2,.74-1.73-.24-.32-.45-.6-.68a24.7,24.7,0,0,0-3.41.22C339.12,10.4,340.11,10.19,341.3,10ZM328.63,6.27a8.82,8.82,0,0,1-3.81.3C326.1,6.44,327.44,6,328.63,6.27Zm26.52,7.17-1.57.32-1.07-.26A4.76,4.76,0,0,1,355.15,13.44Zm11.62-1.91a5.17,5.17,0,0,1,1.85.11c-2.78.41-4-.67-5.43-.83l-2,.4a36.65,36.65,0,0,0-8.53-.34,4.89,4.89,0,0,1-2.42.82c-.06-.66-1.43.21-2.94-.2a38.44,38.44,0,0,0,5.87-1.21c2.26.77,6.69,0,9.73-.07-.37.17-2.43.32-1.6.5,1.42-.23,2.77-.12,4.2-.38-.48-.1-1.5-.06-1.07-.27,1.33.3,4.76-.22,4.8.31-1.79-.25-4.72.37-3.17.81.31-.61,5.14-.22,5.22.06C369.94,11.21,366,10.91,366.77,11.53Zm1.68-.83a6.86,6.86,0,0,1,2.7-.4c-.73.27,1.68.09,2.17.37A22.05,22.05,0,0,1,368.45,10.7ZM328.59,6.44a39.77,39.77,0,0,1,5.58.14C332.37,6.73,329.06,6.92,328.59,6.44Zm14.66,3.13c-.72-.1-1.53.18-2.2-.19C341.7,8.94,344,9.36,343.25,9.57Zm7,.33c-1,.23-3.77.33-3.34-.12C348,9.93,349.2,9.75,350.29,9.9ZM337.55,6.54c-.05.25-2,.42-3,.13A8.21,8.21,0,0,1,337.55,6.54Zm62,14.27c-.37.38-2.25,0-2,.57C395.77,21.13,398.49,20.55,399.58,20.81Zm4.12,0c-.07.38-1.95.24-3.14.65l-1.06-.27A11.55,11.55,0,0,1,403.7,20.77ZM360.35,10.1c-.92.06-3.78.34-3.34-.12A24.69,24.69,0,0,1,360.35,10.1Zm-6.53-2.71a4.73,4.73,0,0,1-2.63.06A4.82,4.82,0,0,1,353.82,7.39Zm21.63,3.81c1,.05,2,0,3,0a6.75,6.75,0,0,1-3.09.48C376,11.55,374.43,11.36,375.45,11.2Zm7.67.85a7.34,7.34,0,0,0,1.81.27l-.78.17c.19,0,.37.11,0,.17-2-.41-.59.36-1.6.49a10.41,10.41,0,0,1-2.56-.28A26.07,26.07,0,0,0,383.12,12.05ZM379,10.48c.46.14,1.45.29,1,.43-1.71-.17-3.55.3-5.19-.23C376.78,10.44,377.78,10.82,379,10.48ZM485.12,37.05c1.3.24.3.45-.88.67a7.21,7.21,0,0,0-1.46-.19C482.79,37.31,484.14,37,485.12,37.05ZM420.54,20.7a10.14,10.14,0,0,1,3.7.22c-1.21.29-1.42.93-3.48.55C421.93,21.14,422.76,20.86,420.54,20.7Zm-28.89-8.3c-1.42,0-1.7-.3-1.39-.53-2.7.38-7.25.15-8.49-.51a37.45,37.45,0,0,0,9-.08c-.52.23-.09.46.6.69.21-.36.35-.39,2-.4.81.15.17.28.27.43.86-.45.85-.14,2.28-.15-1-.36,1.32-.41,2.28-.14,0,.29-1.63.19-2.75.56C392.84,12.15,392.71,11.9,391.65,12.4Zm-26.8-7.6c1.89.37,3.46-.43,4.58-.46,1.51.45-.79.37-1.67.83-.67-.35-1.5,0-2.28.15C364.56,5.13,364.25,5,364.85,4.8Zm26.38,6.07c1.58.17,3.2.19,4.8.3a19.91,19.91,0,0,1-3.42.22C393.33,11.27,389.59,11.3,391.23,10.87ZM378,6.3c0,.23-1.72.64-2.7.4C376.18,6.61,377.16,6.12,378,6.3Zm-1.88-1.72c-.94.31-1.75.09-2.7.4.94.21,1.86.12,1,.43-1.12-.12-4.21,0-4-.47A18.48,18.48,0,0,1,376.11,4.58ZM400,11.81c.58.41,3.23-.19,2.56.28C401.49,12.18,398.79,12.32,400,11.81Zm-7.16-3.22c-1.52.11-3,0-4.52.12C388.49,8.48,392.81,8.17,392.84,8.59ZM379.7,5.3a1.52,1.52,0,0,0-.82.33c-.86-.17-3.67-.11-3.26-.46C376.93,5.43,378.41,4.92,379.7,5.3Zm36,6.52c-2.35.22-6.06.18-9,.24.52.2,1.39.41.25.59-.32-.72-1.55-.19-3.62-.55,1.44-.32,2.54-.31,2.06-.91C407.66,12.15,412.2,11.42,415.71,11.82ZM509.4,37.23c-1.22-.15-2.58.35-3.74,0C506.71,37.06,509.7,36.83,509.4,37.23ZM447.05,20.91a3.22,3.22,0,0,0,2.25,0c1.36.53-2.62,1.1-4.66.79C446.91,21.4,446.79,21.37,447.05,20.91ZM387.13,5.55c-2.28.18-4.48-.06-6.72-.07l1.17-.24C383.4,5.48,385.31,5.31,387.13,5.55Zm34.33,9.13c-1.5,0-5,.08-5.15-.4C417.76,14.51,421.32,14.08,421.46,14.68ZM418.09,13c1.91.39,4,.09,5.9.4a24.44,24.44,0,0,1-7.07-.16A1.3,1.3,0,0,0,418.09,13ZM390.15,5.42c-.64.13.77.29.28.42-1-.18-2,.12-2.94-.2A6.12,6.12,0,0,1,390.15,5.42Zm7,.33a10,10,0,0,1-3.77.13A16.52,16.52,0,0,1,397.19,5.75Zm21.51,6.1c2.2-.37,2.53.05,4,.47-.71.13-1.14.27-1.21.41l-.71-.18C421.57,12.14,420.54,12,418.7,11.85Zm-25-7.33c2,.12,4.05-.23,5.94.24-2,.06-1.45.62-3.13.64-2-.2.2-.78-1.35-.69-.59.19.31.4-1.24.58C392.9,5,393.49,4.77,393.7,4.52Zm8.71,1.29c-.16.17-.58.33-1.6.49-.92-.42-2-.06-2.92-.37l.78-.16C399.73,6.11,400.56,5.7,402.41,5.81Zm28.94,6.35c-1.75,0-6.76.72-6-.07C427.29,12.48,429.44,11.73,431.35,12.16Zm10.9,1.48a11,11,0,0,1-3,.13C439.28,13.52,441.22,13.35,442.25,13.64Zm.57-.93c-2.25-.21-8.06.37-7.74-.51C437.35,12.66,441.8,12.19,442.82,12.71ZM455.43,15a8.17,8.17,0,0,1-3,.14C452.46,14.84,454.38,14.78,455.43,15Zm-2.34-1.3c2,.74,4.2.17,6.26.49-1.34.52-5.42,0-7.86,0C452.58,14,451.69,13.83,453.09,13.67Zm.82-.33c2.1.48,2.53-.61,4.91-.2-2.09.27-1.08.2-2,.57C455.72,13.73,452.7,13.8,453.91,13.34Zm12.65.31a8.87,8.87,0,0,1-3.41.22C463.26,13.56,465.49,13.2,466.56,13.65ZM442.92,7a10.26,10.26,0,0,1-3.77.13A16,16,0,0,1,442.92,7Zm-.68-.35c-.83.25-3.47.14-2.94-.2C440.24,6.69,441.35,6.22,442.24,6.67Zm5.4,1c-.67.17,1,.35.64.52a4.72,4.72,0,0,1-2.63.06C446.88,8.1,445.69,7.51,447.64,7.66Zm0-1.78c-.19.13-1.7.4-1.29.75a5.68,5.68,0,0,1,2.57.28c-1.92.21-3.89.71-5.69.37C446.15,6.9,444.2,5.45,447.65,5.88Zm32.41,9.36c-.74.37-3.23.21-2.59-.11C478.31,15.27,479.26,14.89,480.06,15.24ZM453,7.21a4.73,4.73,0,0,1-2.63.06A4.82,4.82,0,0,1,453,7.21Zm23,6.12c1.77-.06,5.08-.15,5.55.32,1.4-.27,3.87.22,4.18-.38l1.42.35c-1,.31-1.87.08-1.95.41-2.1-.24-3.21-.26-3.8.29-1.57-.18-.25-.34-.64-.51l-2,.4C477,13.7,478.93,13.47,476,13.33ZM489.3,14c2,.52-2.64.84-3.84.46.48-.13.08-.28.47-.42C488.37,14,487.53,14.66,489.3,14Zm4.24-.55c1.78.33-.17.62-1.32.92-.6-.14-1.28.13-1.85-.11C491.83,13.7,492.52,14.05,493.54,13.44Zm8.91,2.05a8.71,8.71,0,0,1-3.37,0A7.26,7.26,0,0,1,502.45,15.49ZM606,36.77c.93-.17,3.76-.31,3.33.12-.94-.22-2.29.09-2.31.31C606.38,37.05,606,36.91,606,36.77ZM522.89,14.36c2.07.52-3.78,1.1-3.45.38C521,15,520.92,14.4,522.89,14.36ZM612,36.66c2-.14,6.06-.41,6.68.24-2.64-.28-1.22.42-2.38.66-1.35-.33-.76-.63-.92-1C614.12,37,612,37.14,612,36.66Zm11.59,0a27.07,27.07,0,0,1-3,0C620.47,36.14,625,36.3,623.59,36.7ZM523.24,7.48a11.42,11.42,0,0,1-3.74,0A8.27,8.27,0,0,1,523.24,7.48ZM530.06,7c1.1-.65,1.79,0,3,0-.87-.46,1-.76,1.71-1,1.76.38-2.36.71-.61,1.09.43-.13.25-.28,1.22-.41.55,0,2.84.32,2.13.54-2.08-.32-10.24,1.17-8.21-.1-1.51,0-5,.33-5.19-.22C525,6.66,529.28,6.61,530.06,7Zm2.42-.82a34.7,34.7,0,0,1-5.65.19A20.72,20.72,0,0,1,532.48,6.22Zm116,29.4c1.59.24,5.33-.49,5.58.15C652.34,35.7,648.93,36.27,648.5,35.62ZM539.27,6c.46.14,1.45.3,1,.43-1.8-.28-2.61-.2-3.41.22C535.81,6.12,537.88,6.1,539.27,6Zm6.89,1c.79.33,1.79-.17,2.56.28C547.63,7.43,545,7.3,546.16,7Zm-2.59-1.9c.92.18,1.25.35.64.52a3.94,3.94,0,0,0-1.45-.19,3.44,3.44,0,0,1-1.14.07ZM667.2,35.66c-.42.13-.25.28-1.21.41a10,10,0,0,0-2.56-.29A8.94,8.94,0,0,1,667.2,35.66ZM559.63,7c-.27.16,1.61.2,1.81.27.47-.14.08-.28.46-.42,2,0,2.55.42,1,.78-2-.1-4,0-5.94-.24C558.41,7.17,559,6.94,559.63,7ZM673.77,36.41l-1.42-.36C673.58,35.67,675.56,36.17,673.77,36.41Zm-104.51-29a8.68,8.68,0,0,1,3.34.12,8.91,8.91,0,0,1-3.37,0C569.44,7.51,569.63,7.45,569.26,7.39ZM690.48,35.23a21.79,21.79,0,0,1,2.56.29c-.58.09.26.6-1.21.41.8-.22-.05-.43-1.07-.27.29.17.26.34-.11.51-.71-.18-1.52.11-2.2-.19C690.36,35.74,688.56,35.47,690.48,35.23ZM580.63,6.67c1.6.18,5.25-.11,5.55.31a31.88,31.88,0,0,0-3.38,0c.58.19,1.22.11,1.81.28-1.06.14-2.7.23-2.73.56C581.12,7.47,580.74,7.06,580.63,6.67ZM697.94,35.32c-.59.19-.22.39-1.25.58C695.86,35.65,696.19,35,697.94,35.32ZM588.38,7.18c1.75.39,1.52.75.88,1.11a7,7,0,0,0-1.45-.18C588.7,7.8,586.44,7.47,588.38,7.18Zm112.83,28.6a4.81,4.81,0,0,1-2.63,0A4.81,4.81,0,0,1,701.21,35.78ZM593.28,7a36,36,0,0,1-6-.07c2.14-.07,2.6-.22,4.16-.21-.22.08-.15.17.32.26A2.78,2.78,0,0,1,593.28,7Zm2.92.37c-.46.14.33.29.28.43a23.76,23.76,0,0,1-6.36,0c1.23-.21.4-.45,1.64-.66C593.22,7.29,594.74,7.16,596.2,7.35ZM710.66,35.29c-1.41.24-2.45.48-2,.74-1.07-.24-2.25,0-3.33-.12,2.21-.53-1-.34.14-.68C707.11,35.57,709,35.12,710.66,35.29ZM599,6.44c.75.16.34.29,1,.44.39-.08.18-.17.42-.25,1.58.22.63.4-.5.59A4.17,4.17,0,0,0,598.51,7c.34.12-.23.23-.82.33l-1.06-.26C598.7,6.75,598.34,6.86,599,6.44Zm5,1.25a23.18,23.18,0,0,1,3.73,0C606.38,8.14,604,8.19,604,7.69Zm8.36-.59a15.87,15.87,0,0,1,3.37,0c-1.08.4-2,.08-3,.14.19.09.69.18.32.26C612.5,7.33,612.41,7.22,612.34,7.1Zm8.45.69c-1.2-.19-2.52.12-3.69-.21C618.17,7.36,621.09,7.38,620.79,7.79ZM620,8a2.73,2.73,0,0,0,1.13-.07c.92.18,1.25.35.64.52-.6-.11-1.24,0-1.84-.11C620.45,8.18,619.67,8.06,620,8Zm8.56.18a19.55,19.55,0,0,1-6,.1C624.63,7.88,626.54,8.28,628.57,8.13Zm1.32-.92c-.85.58-3.18.48-4.94.37A14,14,0,0,1,629.89,7.21ZM639,8.41c.36.15.12.29,1,.44a11.12,11.12,0,0,1-4.87,0C637.08,8.87,638.9,8.64,639,8.41Zm22.29-1c-.93.23,1.15,0,1.42.35-.72.26-3.17,0-2.56-.28C660.9,7.61,660.58,7.27,661.27,7.39Zm154,.5a15.67,15.67,0,0,1,2.91.38,22.73,22.73,0,0,1-4.58.46l-1.07-.27C814.66,8.29,814.32,8.36,815.26,7.89Zm12.23.57c-1.55-.43-3.85.26-3.27-.47C825.08,8.2,827.92,8,827.49,8.46ZM969.68,34.4c-3.56.57,3.63.2-.22,1a5.31,5.31,0,0,0-2.52-.45A3.2,3.2,0,0,1,969.68,34.4Zm-3.95,1a4.19,4.19,0,0,0-1.46-.19c-.57.17.11.79-1.63.67-.26-.21.7-.39-.25-.6,2-.06,1.91-.78,3.91-.81C966.68,34.77,967.39,35.08,965.73,35.38ZM864.23,8a13.7,13.7,0,0,1,3.38,0c0,.29-1.63.19-2.74.57C863.62,8.34,864.93,8.19,864.23,8ZM975.3,34.38c1,.29.29.57.55.85-1-.18-2.05.33-3,0C974,34.78,974.22,34.84,975.3,34.38ZM872,8.35c-1.8-.18-1.43.39-3,.14C868.67,8.29,872.6,7.79,872,8.35ZM976.4,34.48a4.21,4.21,0,0,1,2.23,0,2.86,2.86,0,0,1-1.56.32C977.46,34.71,976.93,34.6,976.4,34.48Zm5.51-27.55c-1.31-.28-2.8.24-4.12,0C979,6.53,982.1,6.49,981.91,6.93Zm6-.11a42.9,42.9,0,0,1-5.57-.14A13.35,13.35,0,0,1,987.91,6.82Zm2.71-.39-1.57.32L988,6.49A5.87,5.87,0,0,1,990.62,6.43Zm118.11,14.39c1.15.29.25.56-.93.83-1.8.21-4.43.17-7.22.52-.36-.12-1.07-.24-.67-.35C1101.81,21.41,1105.74,21.07,1108.73,20.82Zm10.09,0c.61.18.93.35.64.52-2.51.06-5.07.34-7.53.25C1114.23,21.3,1116.51,21.16,1118.82,20.84ZM1058.93,5.31c-.35.34-3.19.66-4.59.46A21.46,21.46,0,0,1,1058.93,5.31Zm71.27,14.81c-3.29.42-6.11.57-7.76,1.27L1121,21C1123.29,20.87,1126,19.77,1130.2,20.12ZM1085.63,2.89a8.53,8.53,0,0,1,1.92-.23c1.84.41-1.38.77,1.24,1.2-1.39.06-2.84.44-4.12,0C1087.1,3.94,1087.87,3.36,1085.63,2.89Zm72.14,17.7c1.06.24-.22.45-.14.68a10.41,10.41,0,0,1-2.56-.28A23.8,23.8,0,0,0,1157.77,20.59Zm-13.83-7a4.93,4.93,0,0,0,2.38-.66c1.57.19.25.35.64.52a2.53,2.53,0,0,1,1.1.1c-1.87.07-3.47,0-2.73.56C1144.41,14.08,1143.82,13.78,1143.94,13.56Zm-13.58-8.22c-.81-.26-1.79.24-2.59-.12C1128.51,4.86,1131,5,1130.36,5.34Zm10.45.11a20,20,0,0,1-5.65.19C1137,5.63,1139,5.15,1140.81,5.45Zm7.43.25a5.92,5.92,0,0,1-3,0A7.51,7.51,0,0,1,1148.24,5.7Zm-.39-1.7c.93.28,1.32.29,1.5,0,1.63.29-1.75.61-2.31.31A1.47,1.47,0,0,0,1147.85,4ZM1214,7.7c-.07.31-2,.5-3.1.48A5.09,5.09,0,0,1,1214,7.7Z" transform="translate(0)" fill="#bea457" fill-rule="evenodd"/><path d="M336.17,4.23c-.48.15,1,.08.32.26,4.28-.78,8.25-.11,12.44-.46a94.68,94.68,0,0,0-10.41-.29c-.4.11.31.23.67.35C338.19,4.11,337.15,4.31,336.17,4.23Z" transform="translate(0)" fill="#bea457" fill-rule="evenodd"/><path d="M78.47,32.22a21.76,21.76,0,0,0,3.77-.12A12,12,0,0,0,78.47,32.22Z" transform="translate(0)" fill="#bea457" fill-rule="evenodd"/><path d="M146.07,30.93c-1,.13-.79.27-1.21.41a6.46,6.46,0,0,0,1.92-.23c.07.11.17.23.67.35C148.43,31.14,147,31.11,146.07,30.93Z" transform="translate(0)" fill="#bea457" fill-rule="evenodd"/><path d="M92.39,17.85c-1.55.09,2.34.08,2.13.53.69-.19.33-.39.49-.59C93.42,17.52,94,18.13,92.39,17.85Z" transform="translate(0)" fill="#bea457" fill-rule="evenodd"/><path d="M115.93,23.21c-.92.16-1,.33-.11.5.05-.22,1-.29,1.92-.23C118.56,23.27,116.34,23.34,115.93,23.21Z" transform="translate(0)" fill="#bea457" fill-rule="evenodd"/><path d="M111.89,21.12c-.12-.14.53-.27-.29-.42-1,.16-1.44.32-1.6.49.71.16,1.54-.21,2.24,0C112.62,21.1,112.1,21.08,111.89,21.12Z" transform="translate(0)" fill="#bea457" fill-rule="evenodd"/><path d="M163.44,33.67c1.27.4,1-.2,1.56-.32,1.1-.19.08.26,1.42.35a17.39,17.39,0,0,1,6-.1c.39-.17.46-.34.85-.5a37.12,37.12,0,0,1-7.85,0C164.52,33.47,163.51,33.38,163.44,33.67Z" transform="translate(0)" fill="#bea457" fill-rule="evenodd"/><path d="M108.59,19.05a120.2,120.2,0,0,0,12-.38c-.52-.17-1.58-.09-1.06-.27-1.61-.17-1,.13-2.67.23.38-.43-5.6-.14-4-.47C112,17.83,109.39,18.64,108.59,19.05Z" transform="translate(0)" fill="#bea457" fill-rule="evenodd"/><path d="M182.61,36.69c1.07.34,5.41.34,7.82.17C187.82,36.82,185.23,36.72,182.61,36.69Z" transform="translate(0)" fill="#bea457" fill-rule="evenodd"/><path d="M61.24,4.34c0,.31-1.28.13-2.35.48a9.32,9.32,0,0,0,3.41-.21C62.73,4.45,61.69,4.52,61.24,4.34Z" transform="translate(0)" fill="#bea457" fill-rule="evenodd"/><path d="M118.29,19.16a21,21,0,0,0,4.16-.21C121.16,18.54,119.68,19.09,118.29,19.16Z" transform="translate(0)" fill="#bea457" fill-rule="evenodd"/><path d="M178.73,32.14c-1.07.13.12.28-.47.42a12.9,12.9,0,0,0,2.63-.06C181.62,32.26,179.18,32.61,178.73,32.14Z" transform="translate(0)" fill="#bea457" fill-rule="evenodd"/><path d="M98.71,9.25c.37-.08-.13-.17-.32-.25.8-.23,1.5,0,2.31-.32a11.87,11.87,0,0,0-4.51.12C97.59,9,98.14,8.79,98.71,9.25Z" transform="translate(0)" fill="#bea457" fill-rule="evenodd"/><path d="M139.45,14.63c2-.21,1.62.2,3.7.21a12.22,12.22,0,0,1,1.64-.66C143.09,14.39,140,14.32,139.45,14.63Z" transform="translate(0)" fill="#bea457" fill-rule="evenodd"/><path d="M220.62,33.88c-.62-.32,2-.13,1.6-.5-.82-.25-1.8.25-2.59-.11.28.36-1.79.5-.22,1a11.05,11.05,0,0,1,3-.14C223.26,33.94,221,34,220.62,33.88Z" transform="translate(0)" fill="#bea457" fill-rule="evenodd"/><path d="M227.27,34.29c1.68.29,3.55-.33,5.18.23,1.26-.31-1-.24-.28-.43C230.53,34.17,228.93,34.1,227.27,34.29Z" transform="translate(0)" fill="#bea457" fill-rule="evenodd"/><path d="M235.19,34c-.68-.15-.27-.28-1-.43a28.9,28.9,0,0,1-6.32-.16c.23.72,3.93.19,5.43.83a5.92,5.92,0,0,1,3.69.21,37.8,37.8,0,0,0,4.24-.55c-.73-.09-1.48-.11-2.2-.2-1.07.13.12.29-.47.42-.38,0-.75,0-1.14.08-.39-.18.93-.33-.64-.52C235.76,33.65,235.36,33.73,235.19,34Z" transform="translate(0)" fill="#bea457" fill-rule="evenodd"/><path d="M137.63.42c-.38.11.13.14.35.09.54.12,1.07.24.67.35a6.53,6.53,0,0,0,1.93-.23C139.61.49,138.61.51,137.63.42Z" transform="translate(0)" fill="#bea457" fill-rule="evenodd"/><path d="M173.33,3.11c-.66.21,4.75.71,6.68.25-.53-.09-3,.2-2.2-.2C176.37,2.94,174.73,3.57,173.33,3.11Z" transform="translate(0)" fill="#bea457" fill-rule="evenodd"/><path d="M192.09,4.59c1.52.17,2.12.81,4.4.39-.3-.67-4.09-.15-3.54-.89C191.24,4.24,193.8,4.44,192.09,4.59Z" transform="translate(0)" fill="#bea457" fill-rule="evenodd"/><path d="M262.9,18c-.85.34,1.4.15,1.82.28.74-.12.4-.36,1.17-.25.4,0,.23-.11,0-.17l-.71-.17c.38.12-1.94.6-1.17.24C263.34,17.85,263.66,18.18,262.9,18Z" transform="translate(0)" fill="#bea457" fill-rule="evenodd"/><path d="M234.1,5.82c0,.31,3.16.25,4.4.39-.52.5,2.46.89,3.52,1.06,0-.48-1-1-1.56-1.46-.44.85-2.35-.16-4.83-.14C235.45,5.88,235.05,6,234.1,5.82Z" transform="translate(0)" fill="#bea457" fill-rule="evenodd"/><path d="M246.07,7.57c.43.35,4.17.23,5.89.4,1.19-.3-2.58-.17-1.38-.52A16.42,16.42,0,0,1,246.07,7.57Z" transform="translate(0)" fill="#bea457" fill-rule="evenodd"/><path d="M242.62,6.17c-1.54.2.11.3.71.18.62.15.63.29.28.42.61.09,1.25,0,1.85.11-.66-.15-1.06-.72,1.18-.24.42-.14-.57-.29-1-.44A7.33,7.33,0,0,1,242.62,6.17Z" transform="translate(0)" fill="#bea457" fill-rule="evenodd"/><path d="M261.57,6.8c-.61-.08-1.26,0-1.86-.1-1.46.18.23.4-1.24.58A23.69,23.69,0,0,0,261.57,6.8Z" transform="translate(0)" fill="#bea457" fill-rule="evenodd"/><path d="M278.78,3.25c-.19.31-.54.1-1.57.33,1.39.21-.91.38,1,.6l1.17-.24c-.66-.23-1.27-.48.82-.33C281.12,3.38,279.05,3.57,278.78,3.25Z" transform="translate(0)" fill="#bea457" fill-rule="evenodd"/><path d="M305.12,9.49c-.95-.11-.22.22.36.09.21.17-.18.34-.85.5,1.19.12,2.89-.47,1.63-.66A2.78,2.78,0,0,1,305.12,9.49Z" transform="translate(0)" fill="#bea457" fill-rule="evenodd"/><path d="M346.16,20.48c.48.08.59,0,.39-.08,1.18-.27,2.15.46,3.38,0-1.15-.44-2.47-.13-3.69-.21C345.89,20.25,346.68,20.37,346.16,20.48Z" transform="translate(0)" fill="#bea457" fill-rule="evenodd"/><path d="M318.83,3.1a13.14,13.14,0,0,0-4.44-.22c1.64.5,3.41.37,5.08.74.91-.59,3.42-.24,5.33-.45C324.43,3.19,319.33,2.62,318.83,3.1Z" transform="translate(0)" fill="#bea457" fill-rule="evenodd"/><path d="M323.55,3.75c2,.08,4.06-.32,6,.06.55-1,5.84.28,8.64-.16,0-.14-.74-.29-.28-.42-1.64.06-3.35.47-4.84-.14a49.48,49.48,0,0,1-7.1,0c-.42.14.57.29,1,.44C325.81,3.68,324.76,3.36,323.55,3.75Z" transform="translate(0)" fill="#bea457" fill-rule="evenodd"/><path d="M319.86,1.75c.36.9,8.89.92,10.73.55C327.13,2.2,322,2.55,319.86,1.75Z" transform="translate(0)" fill="#bea457" fill-rule="evenodd"/><path d="M347.66,3c1.47.12,2.95.18,4.43.22C352.14,2.87,348.93,2.92,347.66,3Z" transform="translate(0)" fill="#bea457" fill-rule="evenodd"/><path d="M367.73,3.55a92.52,92.52,0,0,0,11.51.39c-1.46-.5-3.14,0-3.62-.55-.4.61-3-.13-4.55.29-1.36-.25,1.19-.59-1-.61C370.68,3.53,369.6,3.61,367.73,3.55Z" transform="translate(0)" fill="#bea457" fill-rule="evenodd"/><path d="M367.16,2.7c-.07.46,3.21.11,4.45.22.85-.31-1.4-.12-1.78-.45A4.19,4.19,0,0,1,367.16,2.7Z" transform="translate(0)" fill="#bea457" fill-rule="evenodd"/><path d="M380,4a60.89,60.89,0,0,0,7.78.34C386.76,3.23,382.47,3.8,380,4Z" transform="translate(0)" fill="#bea457" fill-rule="evenodd"/><path d="M420.15,5.07c1.09.09,2.2,0,4.12,0l-1.07-.27C422.12,5.16,421.21,4.77,420.15,5.07Z" transform="translate(0)" fill="#bea457" fill-rule="evenodd"/><path d="M441.69,4l-2.35.49c1.89.14,2-.54,4.16-.21C444.33,4.09,442.1,4.16,441.69,4Z" transform="translate(0)" fill="#bea457" fill-rule="evenodd"/><path d="M463.25,4.61c.5.81,2.3-.4,4,.47a1.52,1.52,0,0,1,.82-.33C466.56,4.35,464.86,4.69,463.25,4.61Z" transform="translate(0)" fill="#bea457" fill-rule="evenodd"/><path d="M498.76,4.74c-.95-.11-.23.23.35.09.63.21-.33.4-.5.59,1.24,0,2.57-.33,3.73,0,1.69-.82,3.6-.26,5.69-.36,1.71-.15-.84-.35.86-.5-2.16.21-4.21-.17-6.4.19-.69-.15-.27-.29-1-.44C501.44,4.62,499.79,4.77,498.76,4.74Z" transform="translate(0)" fill="#bea457" fill-rule="evenodd"/><path d="M559.53,5.67c1.91.4,4.08-.43,6,.07.42-.14-.57-.29-1-.44C562.74,5.8,561.25,5.17,559.53,5.67Z" transform="translate(0)" fill="#bea457" fill-rule="evenodd"/><path d="M598.84,5.51c-.05.32,4.69.4,4.83.14A48.25,48.25,0,0,1,598.84,5.51Z" transform="translate(0)" fill="#bea457" fill-rule="evenodd"/><path d="M635.79,7.62c.61-.22.52-.45.89-.67a10.64,10.64,0,0,0-3,.13c.68.3,1.5,0,2.24,0C636.55,7.29,633.47,7.26,635.79,7.62Z" transform="translate(0)" fill="#bea457" fill-rule="evenodd"/><path d="M780,6.74c-.32.46,2.68.14,3.65.38.4,0,.23-.11,0-.17l-.7-.18A12.35,12.35,0,0,1,780,6.74Z" transform="translate(0)" fill="#bea457" fill-rule="evenodd"/><path d="M907.23,37.88c2.09.08,4.23,0,6.32.15,1-.49,3.7-.23,5.65-.19.25-.08,0-.17.43-.25-.37-.06-.19-.12,0-.17C915.48,37.74,911.41,37.52,907.23,37.88Z" transform="translate(0)" fill="#bea457" fill-rule="evenodd"/><path d="M998.23,4.05c2-.2-.37-.46,1.64-.66-.36-.06-.75,0-1.1-.1l-.79.16C999.91,3.67,996.31,3.83,998.23,4.05Z" transform="translate(0)" fill="#bea457" fill-rule="evenodd"/><path d="M1014.94,4.66c2,.5-.12-.66,1.95-.4.74-.3-1.63-.33-2.24,0C1015.5,4.38,1015.68,4.53,1014.94,4.66Z" transform="translate(0)" fill="#bea457" fill-rule="evenodd"/></g></g></svg>