<svg xmlns="http://www.w3.org/2000/svg" width="721" height="70"><g stroke="rgba(71,71,71,0.2)" stroke-width="3"><g fill="#e7e1db"><g transform="translate(26 26)"><circle cx="9.5" cy="9.5" r="9.5" stroke="none"/><circle cx="9.5" cy="9.5" r="8" fill="none"/></g><g transform="translate(56 26)"><circle cx="9.5" cy="9.5" r="9.5" stroke="none"/><circle cx="9.5" cy="9.5" r="8" fill="none"/></g><g transform="translate(86 26)"><circle cx="9.5" cy="9.5" r="9.5" stroke="none"/><circle cx="9.5" cy="9.5" r="8" fill="none"/></g></g><g fill="none"><path d="M20 0h691a10 10 0 0 1 10 10v60H0V20A20 20 0 0 1 20 0Z" stroke="none"/><path d="M20 1.5h691a8.5 8.5 0 0 1 8.5 8.5v57a1.5 1.5 0 0 1-1.5 1.5H3A1.5 1.5 0 0 1 1.5 67V20A18.5 18.5 0 0 1 20 1.5Z"/></g></g></svg>