<svg xmlns="http://www.w3.org/2000/svg" width="50" height="50"><path d="M25 50a25 25 0 1 1 25-25 25.028 25.028 0 0 1-25 25Zm13.468-16.789a.76.76 0 0 0-.333-.953l-5.068-2.926a.778.778 0 0 0-1.058.283 4.762 4.762 0 0 1-3.129 2.4 4.6 4.6 0 0 1-3.775-.848 35.348 35.348 0 0 1-6.27-6.27 4.6 4.6 0 0 1-.848-3.775 4.762 4.762 0 0 1 2.4-3.129.775.775 0 0 0 .283-1.057l-2.926-5.068a.76.76 0 0 0-.661-.39.8.8 0 0 0-.292.056l-.061.024a24.366 24.366 0 0 0-4.043 1.835c-1.233 1.233-1.527 3.1-.871 5.546 1.977 7.377 11.871 17.271 19.248 19.248 2.446.655 4.313.362 5.547-.872a24.407 24.407 0 0 0 1.834-4.04Zm2.408.945-.024.062c-.951 2.421-1.68 4.192-2.412 4.924a6.88 6.88 0 0 1-5.048 1.968 11.587 11.587 0 0 1-3-.426C22.16 38.477 11.523 27.84 9.317 19.606c-1.136-4.239.212-6.715 1.542-8.045.732-.732 2.5-1.462 4.925-2.413l.061-.024a3.34 3.34 0 0 1 4.138 1.448l2.926 5.068a3.364 3.364 0 0 1-1.23 4.59 2.248 2.248 0 0 0-1.158 1.408 2.023 2.023 0 0 0 .383 1.7 32.966 32.966 0 0 0 5.753 5.762 2.023 2.023 0 0 0 1.7.383 2.249 2.249 0 0 0 1.408-1.158 3.364 3.364 0 0 1 4.59-1.23l5.068 2.926a3.341 3.341 0 0 1 1.448 4.138Z" fill="#d2c7b5" fill-rule="evenodd"/></svg>