<svg xmlns="http://www.w3.org/2000/svg" width="100.016" height="113.497" viewBox="0 0 100.016 113.497">
  <g id="down-arrow" transform="translate(-27.988 -21.254)">
    <path id="Path_110" data-name="Path 110" d="M111.24,53.84C108.61,38.15,101.14,25,84.65,21.66c-12.42-2.49-21.94,6.87-28.13,17.11a10.37,10.37,0,0,0-6-.63c-12.9,2.41-18.6,20.06-21.09,31A56.09,56.09,0,0,0,29,92.38c.22,1.13,2.15.88,2-.28C29.62,79.34,33.12,66.32,38.87,55c2.49-4.9,6.19-10.45,11.7-12.17a5.64,5.64,0,0,1,3.66.08c-.93,1.8-1.75,3.58-2.47,5.29C45.85,62.27,39.6,82.11,45.6,97,49.93,107.76,65,110.61,71,99.91s2.7-25.83.19-36.92c-1.28-5.64-4.48-15.26-9.81-20.79C68.64,27,80.3,17.52,96.51,30.56,106.72,38.77,108.08,56,109,67.92c.93,12.7.78,25.54,1,38.27a2,2,0,0,0,4,0c.3-17.28.1-35.28-2.76-52.35Zm-46.73,5.7c2.34,7.63,2,17.22,1.6,25.09-.21,4.3-.63,9.78-3.77,13.05C56.4,103.86,52.18,89.34,52,86c-.52-9.17,1.82-25.35,7.15-38.82,2.76,4.06,4.54,9.67,5.36,12.36Z" fill="#d2c7b5"/>
    <path id="Path_111" data-name="Path 111" d="M127.89,102.77a3.21,3.21,0,0,0-4-2.25c-4.83,2-6.26,7.35-8.54,11.76a79.251,79.251,0,0,1-6.33,10.44c-2.93-6.22-5.73-12.56-9.44-18.28-2.06-3.18-7.74-1.2-6.36,2.67,3.11,8.72,7.22,17.21,11.21,25.56,1.18,2.47,4.89,2.72,6.68.86A70.19,70.19,0,0,0,122,118.16c2.45-4.58,6.76-10.04,5.89-15.39Z" fill="#d2c7b5"/>
  </g>
</svg>
