<svg xmlns="http://www.w3.org/2000/svg" viewBox="0 0 300 300"><g id="Layer_2" data-name="Layer 2"><g id="Layer_1-2" data-name="Layer 1"><g id="Group_10" data-name="Group 10"><circle id="Ellipse_7" data-name="Ellipse 7" cx="150" cy="150" r="150" fill="#f8f0e1"/><path id="Path_78" data-name="Path 78" d="M268.37,91.29h0Q219.11,86.15,169.82,81T71.25,70.76c-5.57-.58-9,3.76-7.74,9.65Q70.16,110.2,76.79,140t13.28,59.56c1.32,5.89,5.59,10.7,9.52,10.7H220.21v7.58a2,2,0,0,1-2.23,1.78H109.43a2.29,2.29,0,0,0-2.08,2.24v6.66a2.28,2.28,0,0,0,2.08,2.21H228.66a2.26,2.26,0,0,0,2.08-2.21V210.23h7.66c3.91,0,8.24-4,9.63-9q7-25,14-50t14-50C277.36,96.38,273.94,91.86,268.37,91.29ZM108.29,190.56h-.46c-1.82,0-3.7-2.15-4.15-4.68q-4.08-22.71-8.15-45.4T87.4,95c-.45-2.53,1.11-4.42,3.43-4.2l.61.07h0a6.07,6.07,0,0,1,5,5q3.63,22.55,7.2,45.1t7.23,45.08C111.25,188.56,110.12,190.6,108.29,190.56Zm23.76-1.45h-.48c-1.83,0-3.55-2.09-3.83-4.57q-2.51-22.15-5-44.3t-5-44.34a3.42,3.42,0,0,1,2.69-4,3.49,3.49,0,0,1,1.07-.05l.61.06h0a5.49,5.49,0,0,1,4.67,4.86q2,22,4.11,44l4.11,44C135.19,187.18,133.87,189.15,132.05,189.11Zm24.08.53h-.46c-1.82,0-3.41-2-3.52-4.46L150.26,142q-.94-21.61-1.91-43.24a3.68,3.68,0,0,1,3.36-4,3.46,3.46,0,0,1,.72,0l.61.06a5,5,0,0,1,4.37,4.73q.48,21.48,1,42.91t1,42.89C159.42,187.76,158,189.68,156.13,189.64ZM188,102.41q-1.09,20.91-2.13,41.8T183.75,186c-.11,2.33-1.69,4.2-3.52,4.16l-.47,0c-1.83,0-3.26-2-3.2-4.32q.58-21.06,1.21-42.12T179,101.57a4,4,0,0,1,4-3.87l.37,0,.61.06h0a4.48,4.48,0,0,1,4,4.63Zm30.67,2.84q-2.62,20.37-5.26,40.71t-5.26,40.68c-.3,2.27-2.05,4.1-3.85,4.06l-.5,0c-1.8,0-3.11-1.94-2.87-4.23q2.15-20.5,4.35-41l4.32-41a4.33,4.33,0,0,1,4.72-3.75l.63,0h0a4.08,4.08,0,0,1,3.73,4.39c0,.05,0,.1,0,.15Zm30.4,4q-4.2,19.8-8.39,39.6t-8.36,39.6c-.47,2.2-2.35,4-4.18,3.94l-.48,0c-1.8,0-2.93-1.88-2.52-4.1,2.5-13.3,4.95-26.61,7.44-39.92l7.47-39.92a4.68,4.68,0,0,1,5-3.66l.61.06h0a3.68,3.68,0,0,1,3.49,3.85,3.72,3.72,0,0,1-.08.57Z" fill="#21d0c3"/><path id="Path_79" data-name="Path 79" d="M271.48,99.68l-7.13,24.71-18.07-1.8q1.41-6.68,2.83-13.35a3.66,3.66,0,0,0-2.82-4.35,3.81,3.81,0,0,0-.59-.08l-.61-.07a4.69,4.69,0,0,0-5,3.67q-1.25,6.66-2.5,13.32l-20.75-2.06,1.86-14.42a4.06,4.06,0,0,0-3.56-4.52l-.16,0-.63-.06a4.34,4.34,0,0,0-4.71,3.76l-1.53,14.39-20.82-2.07q.38-7.16.74-14.32a4.47,4.47,0,0,0-4-4.64l-.61,0A4,4,0,0,0,179,101.2c0,.12,0,.24,0,.37l-.42,14.3-20.84-2.07q-.16-7.11-.32-14.24A5,5,0,0,0,153,94.82l-.61,0A3.68,3.68,0,0,0,148.36,98a3.36,3.36,0,0,0,0,.71q.3,7.11.62,14.2l-20.92-2.08q-.65-7-1.31-14.11a5.49,5.49,0,0,0-4.67-4.86l-.61-.06a3.43,3.43,0,0,0-3.8,3,3.51,3.51,0,0,0,0,1.07q.8,7,1.6,14.08l-21-2.08q-1-6-1.93-12a6.07,6.07,0,0,0-5-5l-.6-.07C88.51,90.62,87,92.51,87.4,95q1.08,6,2.15,12l-14.94-1.49L63.51,80.41l208,19.27Z" fill="#15bdb2"/><path id="Path_80" data-name="Path 80" d="M279.56,88.31l-259-24.82-.1-35.87a4.13,4.13,0,0,0-4-4.11l-6.95-.18a3.91,3.91,0,0,0-4,3.79v.11l.13,47.32a4.14,4.14,0,0,0,4,4.12h.3a4.34,4.34,0,0,0,1.33.34l266.3,25.52a4.52,4.52,0,0,0,4.89-3.9l.92-7.54a4.27,4.27,0,0,0-3.69-4.78Z" fill="#21d0c3"/><circle id="Ellipse_8" data-name="Ellipse 8" cx="242.33" cy="224.53" r="52.15" fill="#fff"/><path id="Path_81" data-name="Path 81" d="M242.33,177.94a46.59,46.59,0,1,1-46.59,46.59h0A46.59,46.59,0,0,1,242.33,177.94Z" fill="#fa0"/><path id="Path_82" data-name="Path 82" d="M253.6,194.27l3.45-4.63,8.13,4.68-2.29,5.32a32.66,32.66,0,0,1,4.32,4.32l5.32-2.29,4.68,8.13-4.63,3.45a31.82,31.82,0,0,1,1.58,5.91l5.74.68v9.37l-5.74.68a32.4,32.4,0,0,1-1.58,5.91l4.63,3.45-4.68,8.13-5.32-2.29a32.66,32.66,0,0,1-4.32,4.32l2.29,5.32-8.13,4.68-3.45-4.63a31.26,31.26,0,0,1-5.91,1.58l-.68,5.75h-9.37l-.68-5.75a30.86,30.86,0,0,1-5.91-1.58l-3.45,4.63-8.13-4.68,2.29-5.32a32.66,32.66,0,0,1-4.32-4.32l-5.32,2.29-4.68-8.12,4.63-3.46a30.86,30.86,0,0,1-1.58-5.91l-5.75-.68v-9.37l5.75-.68a30.86,30.86,0,0,1,1.58-5.91l-4.63-3.45,4.68-8.13,5.32,2.29a32.66,32.66,0,0,1,4.32-4.32l-2.29-5.32,8.13-4.68,3.45,4.63a30.86,30.86,0,0,1,5.91-1.58l.68-5.74H247l.68,5.74a32,32,0,0,1,5.91,1.58ZM242.32,212a12.56,12.56,0,1,1-12.56,12.56h0A12.57,12.57,0,0,1,242.32,212h0Z" fill="#fff"/><circle id="Ellipse_9" data-name="Ellipse 9" cx="242.33" cy="224.53" r="17.56" fill="#efd47c"/><path id="Path_83" data-name="Path 83" d="M242.33,212a12.56,12.56,0,1,1-12.56,12.56h0A12.56,12.56,0,0,1,242.33,212Z" fill="#fa0"/></g></g></g></svg>