<svg height="512" viewBox="0 0 53 60" width="512" xmlns="http://www.w3.org/2000/svg"><g id="004---Online-Shopping" fill="none"><path id="Path" d="m10.246 51.471c-.2242747.0003879-.42136995-.1486096-.48215212-.3644912-.06078217-.2158815.0296209-.4458251.22115212-.5625088l6.051-3.69-7.879 4.546c-.23508655.127347-.52875831.0472199-.66659082-.1818764-.13783251-.2290964-.071048-.5260868.15159082-.6741236l20.764-13.014-23.806 13.742c-.23560872.1297647-.5316571.04988-.67000668-.1807924-.13834959-.2306723-.06941665-.5294607.15600668-.6762076l21.643-13.455-22.841 13.186c-.23701856.1320316-.53608427.0509486-.6739531-.1827228-.13786884-.2336714-.06422739-.5346559.1659531-.6782772l1.089-.654-1.03.594c-.23620749.133071-.53543293.0536509-.67455995-.1790411-.13912701-.2326919-.06746125-.5338687.16155995-.6789589l22.574-13.989-22.221 12.827c-.23546673.1225198-.52563259.0396943-.66094465-.1886614-.13531207-.2283558-.0686058-.5226457.15194465-.6703386l13.651-8.317-13.142 7.587c-.23560872.1297647-.5316571.04988-.67000668-.1807924-.13834959-.2306723-.06941665-.5294607.15600668-.6762076l24.34-15.151-23.826 13.756c-.23638246.1285498-.53210687.0469768-.6691568-.184581-.13704993-.2315579-.06627089-.5300498.1601568-.675419l11.886-7.224-11.378 6.57c-.23628449.1306359-.5336041.0500916-.67163931-.181948s-.06692381-.5317553.16063931-.677052l18.233-11.191-17.722 10.231c-.23583577.1260453-.52910097.0442222-.66561588-.1857118-.13651492-.2299339-.06795177-.5265795.15561588-.6732882l14.767-9.011-14.258 8.232c-.23649337.126689-.53082268.0441496-.66695642-.1870361s-.06554462-.5286074.15995642-.6739639l4.591-2.77-4.084 2.357c-.23560872.1297647-.5316571.04988-.67000668-.1807924-.13834959-.2306723-.06941665-.5294607.15600668-.6762076l20.559-12.8-20.045 11.571c-.2353357.1240261-.52657993.04207-.66269982-.1864836-.13611989-.2285535-.06945065-.5236725.15169982-.6715164l11.519-7.07-11.009 6.356c-.23560872.1297647-.5316571.04988-.67000668-.1807924-.13834959-.2306723-.06941665-.5294607.15600668-.6762076l15.076-9.4-14.562 8.407c-.23508655.127347-.52875831.0472199-.66659082-.1818764-.13783251-.2290964-.071048-.5260868.15159082-.6741236l13.681-8.578-13.167 7.6c-.23620749.133071-.53543293.0536509-.67455995-.1790411-.13912701-.2326919-.06746125-.5338687.16155995-.6789589l7.368-4.569-6.855 3.96c-.23665402.1424895-.54401053.066154-.6865-.1705s-.06615402-.5440105.1705-.6865l9.287-5.843-8.771 5.064c-.23617349.1361818-.537908.0580681-.67833183-.1756081-.14042384-.2336761-.06777083-.5367718.16333183-.6813919l5.7-3.569-5.186 2.991c-.23365564.130691-.52879264.0541466-.66947868-.1736308s-.0769932-.5259521.14447868-.6763692l11.651-7.708-11.126 6.424c-.23551248.13196-.53324972.0531389-.67262044-.1780652-.13937073-.2312042-.07004227-.5312938.15662044-.6779348l1.768-1.117-1.252.723c-.23354514.1328438-.53032442.0573638-.6720248-.1709163s-.07765459-.5277351.1450248-.6780837l7.11-4.735-6.584 3.8c-.23424781.1308833-.53004345.0535271-.67022619-.1752769-.14018273-.228804-.07476503-.527467.14822619-.6767231l2.049-1.334-1.53.883c-.23120434.1356861-.52827755.0648879-.67343292-.160492-.14515538-.2253799-.0867349-.525133.13243292-.679508l6.008-4.29-5.465 3.162c-.22852334.1282497-.51729518.0583047-.66180513-.1602995-.14450995-.2186041-.09572494-.5116937.11180513-.6717005l4.519-3.4-3.969 2.283c-.22885881.1292299-.51870095.0592157-.66333262-.1602346-.14463167-.2194502-.09467421-.513414.11433262-.6727654l1.815-1.359-1.266.731c-.219385.1342545-.50483439.0801688-.65990028-.1250351-.1550659-.2052038-.12915517-.4945743.05990028-.6689649l2.167-2.087-1.572.908c-.19176788.1141164-.43594151.0873403-.59842143-.0656229-.16247992-.1529633-.20392698-.3950786-.10157857-.5933771l.78-1.546c-.23059432.01171167-.43922042-.1359943-.50478166-.35738226-.06556124-.22138795.02899415-.45887728.22878166-.57461774l1.192-.68c.19156883-.11355187.43514433-.08672261.59740539.06580278.16226105.15252539.20409116.39397741.10259461.59219722l-.739 1.454 3.665-2.112c.219385-.13425453.50483439-.08016882.65990028.12503505.1550659.20520387.12915517.4945743-.05990028.66896495l-2.17 2.082 4.989-2.876c.2288588-.12922991.518701-.05921567.6633326.16023456.1446317.21945024.0946742.51341403-.1143326.67276544l-1.815 1.355 3.798-2.188c.2292793-.13565759.5246567-.0677215.6716308.15447347.1469742.22219497.0939218.52060505-.1206308.67852653l-4.519 3.4 7.337-4.237c.2312043-.13568612.5282776-.06488787.6734329.16049201.1451554.22537988.0867349.525133-.1324329.67950799l-6.007 4.289 8.884-5.129c.2342478-.13088329.5300435-.05352709.6702262.17527691.1401827.22880401.074765.52746697-.1482262.67672309l-2.057 1.336 3.8-2.191c.2335451-.1328438.5303244-.05736382.6720248.17091629s.0776546.52773513-.1450248.67808371l-7.108 4.735 9.672-5.584c.2355125-.13195996.5332497-.0531389.6726204.17806525.1393708.23120415.0700423.53129378-.1566204.67793475l-1.773 1.116 3.417-1.973c.2336556-.13069104.5287926-.05414659.6694787.17363081.140686.22777741.0769932.52595205-.1444787.67636919l-11.654 7.71 14.826-8.56c.2361735-.13618181.537908-.05806811.6783318.17560806.1404239.23367616.0677709.53677186-.1633318.68139194l-5.685 3.563 7.656-4.421c.236654-.1427656.5442344-.06665401.687.17000001.1427656.23665401.066654.54423438-.17.68699999l-9.294 5.852 11.612-6.7c.2369302-.14193716.5440628-.06493013.686.17200001.1419372.23693015.0649301.5440628-.172.68599999l-7.375 4.561 9.4-5.429c.236654-.14248944.5440105-.06615398.6865.17050002.1424894.236654.066154.5440105-.1705.68649998l-13.675 8.578 16.343-9.435c.2356087-.12976469.5316571-.04987998.6700067.18079237.1383496.23067236.0694166.52946069-.1560067.67620763l-15.073 9.4 17.763-10.258c.2374824-.14138488.5446151-.06348243.686.17400001s.0634824.54461509-.174.68599999l-11.526 7.072 13.739-7.932c.2361735-.13618181.537908-.05806811.6783318.17560806.1404239.23367616.0677709.53677186-.1633318.68139194l-20.557 12.8 23.215-13.4c.2370186-.13203157.5360843-.0509486.6739531.18272279s.0642274.53465591-.1659531.67827721l-4.594 2.769 4.82-2.783c.2369888-.13504713.5384839-.05523499.6776156.17937913.1391316.23461413.0645535.53744647-.1676156.68062087l-14.745 9 14.235-8.222c.2362845-.1306359.5336041-.0500916.6716393.181948s.0669238.5317553-.1606393.677052l-18.251 11.202 17.74-10.242c.2377586-.1405565.5444435-.0617586.685.176.1405564.2377586.0617586.5444435-.176.685l-11.86 7.207 11.351-6.553c.2356087-.1297647.5316571-.04988.6700067.1807924.1383496.2306723.0694166.5294607-.1560067.6762076l-24.351 15.158 23.837-13.763c.1538028-.0909241.3444299-.0928886.5000739-.0051535.155644.0877352.2526589.2518408.2545.4305.0018412.1786592-.0917711.3447294-.2455739.4356535l-13.639 8.309 13.13-7.581c.2362075-.133071.5354329-.0536509.6745599.1790411.1391271.2326919.0674613.5338687-.1615599.6789589l-22.568 13.988 22.055-12.734c.2370186-.1320316.5360843-.0509486.6739531.1827228s.0642274.5346559-.1659531.6782772l-1.109.667.6-.347c.2362075-.133071.5354329-.0536509.6745599.1790411.1391271.2326919.0674613.5338687-.1615599.6789589l-21.647 13.461 21.136-12.2c.2361735-.1361818.537908-.0580681.6783318.1756081.1404239.2336761.0677709.5367718-.1633318.6813919l-20.759 13.01 20.244-11.685c.2369888-.1350471.5384839-.055235.6776156.1793791.1391316.2346142.0645535.5374465-.1676156.6806209l-6.044 3.685 5.534-3.195c.234481-.1270728.5274228-.0477401.6657366.1802909.1383139.2280309.0733058.5244809-.1477366.6737091l-18.761 11.97 18.243-10.532c.2372063-.1413849.5441151-.0637063.6855.1735s.0637063.5441151-.1735.6855l-6 3.7 5.49-3.169c.2357179-.1278172.530297-.0469384.667702.1833224.137405.2302607.0687118.5279174-.155702.6746776l-3.97 2.45 3.458-2c.2342478-.1308833.5300435-.0535271.6702262.1752769s.074765.527467-.1482262.6767231l-13.545 8.808 13.019-7.516c.2335451-.1328438.5303244-.0573638.6720248.1709163s.0776546.5277351-.1450248.6780837l-12.5 8.335 11.977-6.915c.2329673-.1327691.5291919-.0581284.6714287.1691822.1422368.2273105.0798406.5263539-.1414287.6778178l-10.216 6.931 9.684-5.591c.2329673-.1327691.5291919-.0581284.6714287.1691822.1422368.2273105.0798406.5263539-.1414287.6778178l-6.884 4.66 6.354-3.668c.2328603-.1351428.5309189-.0616362.6742423.1662803.1433233.2279164.080443.5283964-.1422423.6797197l-4.761 3.255 4.229-2.441c.2304184-.1322364.5240189-.0611893.6684864.1617642.1444674.2229535.0893536.5199576-.1254864.6762358l-4.564 3.3 4.021-2.321c.2295527-.1314921.521805-.0614183.6667704.1598726.1449654.2212908.0924688.5172061-.1197704.6751274l-2.618 1.939 2.071-1.2c.2257586-.1294404.5130594-.0640705.6605892.1503047.1475298.2143751.1059565.5060712-.0955892.6706953l-2 1.622 1.436-.828c.2184203-.1276802.4977941-.0720852.6506935.1294872s.1311343.4855915-.0506935.6615128l-1.222 1.193.485-.28c.1549945-.0985297.351531-.1041539.5119064-.0146489.1603754.0895049.2587712.2597296.2562855.4433739s-.1054527.3511436-.2681919.436275l-3.965 2.286c-.2184203.1276802-.4977941.0720852-.6506935-.1294872s-.1311343-.4855915.0506935-.6615128l1.223-1.189-3.43 1.98c-.2257586.1294404-.5130594.0640705-.6605892-.1503047-.1475298-.2143751-.1059565-.5060712.0955892-.6706953l2-1.621-4.231 2.442c-.2295527.1314921-.521805.0614183-.6667704-.1598726-.1449654-.2212908-.0924688-.5172061.1197704-.6751274l2.62-1.938-4.805 2.773c-.2304184.1322364-.5240189.0611893-.6684864-.1617642-.1444674-.2229535-.0893536-.5199576.1254864-.6762358l4.562-3.3-7.169 4.138c-.2321092.1290838-.5246372.0541763-.6661393-.170578-.1415021-.2247542-.0825963-.5209195.1341393-.674422l4.758-3.255-7.1 4.1c-.2325262.1307666-.5267591.0559509-.6685809-.1700024s-.0812744-.5234503.1375809-.6759976l6.88-4.658-9.535 5.5c-.2322377.1273115-.5234633.0514462-.664069-.1729923-.1406056-.2244384-.0818101-.5195841.134069-.6730077l10.211-6.92-13.463 7.77c-.2327769.1270897-.524286.0503218-.6642741-.174934-.139988-.2252559-.0797468-.5206233.1372741-.673066l12.509-8.339-15.915 9.187c-.2334572.1253051-.5241289.0467367-.6626677-.1791186-.1385388-.2258554-.0768365-.5205686.1406677-.6718814l13.535-8.8-16.721 9.651c-.2357179.1278172-.530297.0469384-.667702-.1833224-.137405-.2302607-.0687118-.5279174.155702-.6746776l3.984-2.458-5.745 3.316c-.2362075.133071-.5354329.0536509-.6745599-.1790411-.1391271-.2326919-.0674613-.5338687.1615599-.6789589l6.009-3.7-7.905 4.558c-.2348642.1312813-.531504.0531604-.6712412-.1767732-.1397372-.2299337-.0724576-.5292187.1522412-.6772268l18.76-11.971-22.211 12.825c-.0767866.0459723-.1645049.070492-.254.071z" fill="#ced2dc"/><path id="Path" d="m2.961 9.5c-.21651021.00306029-.41038622-.13359051-.48029249-.33852745-.06990626-.20493694.0000454-.43158229.17329249-.56147255l4.477-3.471-4.851 2.805c-.22200994.12471092-.50228117.0626525-.65089262-.1441224-.14861146-.20677491-.11808544-.4922068.07089262-.6628776l3.619-3.227-3.04 1.753c-.2256098.13119678-.5141774.06680355-.66260926-.14785982-.14843186-.21466336-.10679385-.50738169.09560926-.67214018l.47-.386c-.21484753.06534432-.44690423-.02056581-.56740722-.21006084-.120503-.18949504-.09988758-.4360835.05040722-.60293916l.845-.934c-.1814029-.06653344-.30823494-.23163227-.32576675-.42405458-.01753181-.19242232.07737485-.37772401.24376675-.47594542l1.933-1.125c.21314304-.12417796.48499952-.07435434.64025207.11734012.15525255.19169447.14750256.46797019-.01825207.65065988l-.462.514 2.355-1.357c.22517188-.12814755.51093281-.06306634.65840563.14994995.14747281.21301629.10780098.50339711-.09140563.66905005l-.41.337 2-1.156c.22197649-.12818296.50493512-.06773868.65516368.13995295.15022856.20769162.11906179.49535068-.07216368.66604705l-3.616 3.227 6.987-4.033c.2277686-.13271241.5194462-.06579338.6665848.15293332.1471386.21872669.0991876.51411564-.1095848.67506668l-4.477 3.472 7.448-4.3c.228997-.12751419.5175965-.05654882.6613452.16262192s.0938504.51214843-.1143452.67137808l-3.786 2.812 6.324-3.646c.2262036-.12844093.5131028-.06198425.6597948.15283334.1466919.21481759.1041677.50622684-.0977948.67016666l-4.79 3.821 8.049-4.644c.2299138-.13282353.5235501-.06277315.6687427.15953646.1451926.2223096.0912979.51933596-.1227427.67646354l-3.552 2.61 5.974-3.446c.2329673-.1327691.5291919-.0581284.6714287.16918215.1422368.22731056.0798406.52635392-.1414287.67781785l-.206.139 1.709-.986c.2285788-.13297291.5211739-.06496595.667677.15518608.1465031.22015204.0962484.51631292-.114677.67581392l-4.212 3.205 7-4.039c.2274132-.12734818.5145055-.05864002.6596263.15786459.1451209.21650461.0995839.50817086-.1046263.67013541l-4.412 3.405 7.332-4.23c.2285788-.13297291.5211739-.06496595.667677.15518608.1465031.22015204.0962484.51631292-.114677.67581392l-4.173 3.169 6.933-4c.2325262-.13076655.5267591-.05595091.6685809.17000241s.0812744.52345026-.1375809.67599759l-.55.374 2.115-1.22c.2285788-.13297291.5211739-.06496595.667677.15518608.1465031.22015204.0962484.51631292-.114677.67581392l-4.191 3.187 6.965-4.018c.2280542-.12904158.517047-.0601323.6623353.15793143.1452882.21806373.0975826.5113034-.1093353.67206857l-4.29 3.288 7.132-4.118c.2290632-.13219787.5214568-.06314799.6671806.15755725.1457237.22070524.094369.51671981-.1171806.67544275l-3.947 2.959 6.043-3.492c.2280542-.12904158.517047-.0601323.6623353.15793143.1452882.21806373.0975826.5113034-.1093353.67206857l-3.868 2.962 4.554-2.629c.2263606-.13092511.5153721-.06531659.6630162.15051137.1476442.21582796.1040467.5089685-.1000162.67248863l-3.008 2.424 2.912-1.682c.2272986-.13364321.5193131-.06780785.6672772.15043919.1479641.21824703.1010173.51388666-.1072772.67556081l-.831.656.279-.16c.2024537-.1163469.4584788-.07707387.6167505.09460659s.1766405.43004808.0442495.62239341l-1.216 1.76.567-.328c.23893-.13584515.5427102-.05337078.6801373.18465285.137427.23802363.0569695.54234426-.1801373.68134715l-2.492 1.435c-.2024537.1163469-.4584788.07707387-.6167505-.09460659s-.1766405-.43004808-.0442495-.62239341l1.212-1.756-4.3 2.48c-.2269806.13265766-.5179234.06687643-.6657567-.15052545-.1478333-.21740187-.1020535-.51215448.1047567-.67447455l.83-.657-2.559 1.483c-.2265186.13366606-.5178659.06898822-.6665473-.14797061s-.103858-.51201368.1025473-.67502939l3.009-2.423-5.625 3.248c-.2280542.12904158-.517047.0601323-.6623353-.15793143-.1452882-.21806373-.0975826-.5113034.1093353-.67206857l3.867-2.959-6.568 3.791c-.2288588.12922991-.518701.05921567-.6633326-.16023456-.1446317-.21945024-.0946742-.51341403.1143326-.67276544l3.946-2.962-6.573 3.797c-.228242.1318458-.5196375.06386204-.6659708-.15537372-.1463332-.21923576-.0973404-.51441845.1119708-.67462628l4.287-3.284-7.133 4.116c-.2283835.12999717-.5184238.06101556-.6638282-.15788129s-.0965443-.51299637.1118282-.67311871l4.192-3.191-6.97 4.024c-.2325262.13076655-.5267591.05595091-.6685809-.17000241s-.0812744-.52345026.1375809-.67599759l.551-.376-2.12 1.223c-.2285788.13297291-.5211739.06496595-.667677-.15518608-.1465031-.22015204-.0962484-.51631292.114677-.67581392l4.173-3.171-6.936 4c-.2275891.12988968-.5168511.06203201-.6629348-.15551719-.1460838-.21754919-.0994243-.51097732.1069348-.67248281l4.41-3.4-7.337 4.234c-.2285788.13297291-.5211739.06496595-.667677-.15518608-.1465031-.22015204-.0962484-.51631292.114677-.67581392l4.213-3.209-7 4.042c-.2329673.1327691-.5291919.0581284-.6714287-.16918215-.1422368-.22731056-.0798406-.52635392.1414287-.67781785l.2-.138-1.701.987c-.2299138.13282353-.5235501.06277315-.6687427-.15953646-.1451926-.2223096-.0912979-.51933596.1227427-.67646354l3.546-2.614-5.976 3.451c-.22666814.13175582-.51661365.0660514-.66434159-.15054615s-.10306194-.51052002.10234159-.67345385l4.785-3.821-8.047 4.648c-.22819429.12734837-.51596639.05749287-.66037808-.16030407-.14441168-.21779694-.09674814-.51006523.10937808-.67069593l3.787-2.815-6.325 3.648c-.07600837.0438886-.16223051.06699614-.25.067z" fill="#00a5dc"/><path id="Path" d="m13.383 28.5c-.2152152 0-.4062846-.137715-.4743416-.3418861-.0680571-.2041711.0021694-.4289848.1743416-.5581139l5.172-3.853-6.975 4.024c-.2317427.1353654-.5290201.0636298-.6735243-.1625272-.1445041-.2261571-.084687-.5260601.1355243-.6794728l2.673-1.879-2.136 1.233c-.2322938.1351768-.5298928.0625367-.6737842-.164462-.1438914-.2269988-.0825928-.5271392.1387842-.679538l.372-.259c-.2185511.0391968-.4367709-.0704304-.5357917-.2691661-.0990208-.1987356-.0551189-.438966.1077917-.5898339l2.851-2.65-2.26 1.3c-.2197017.1368532-.5075279.0834076-.6634543-.1231949s-.128398-.4980515.0634543-.6718051l.663-.633-.068.039c-.1956024.1127798-.4425185.0804758-.6025242-.0788281-.1600057-.159304-.1933947-.4060757-.0814758-.6021719l.42-.735c-.203745-.0412194-.3607334-.2042006-.3942946-.4093462s.0633066-.4096568.2432946-.5136538l1.128-.651c.1956493-.1137094.4432793-.081839.6037604.077705s.1938012.4069831.0812396.603295l-.3.519 2.078-1.2c.2197017-.1368532.5075279-.0834076.6634543.1231949s.128398.4980515-.0634543.6718051l-.665.634 2.479-1.421c.2206356-.1300292.503851-.072325.6560244.1336626s.1241014.4936554-.0650244.6663374l-2.855 2.646 5.979-3.446c.23158-.1294027.5239091-.0554223.6660571.1685604.142148.2239828.0846277.5199909-.1310571.6744396l-.079.055 1.557-.9c.2317427-.1353654.5290201-.0636298.6735243.1625272.1445041.2261571.084687.5260601-.1355243.6794728l-2.668 1.876 4.709-2.716c.229416-.1334891.5231565-.0644561.6690977.1572468.1459412.221703.0932171.5188044-.1200977.6767532l-5.173 3.854 8.119-4.688c.228924-.1342308.5228351-.0662362.6695479.1548961s.0951128.5183603-.1175479.6771039l-5.46 4.139 8.609-4.971c.2301583-.1366689.5271246-.067833.6736831.1561577s.0907153.5236721-.1266831.6798423l-4.965 3.661 7.789-4.5c.234721-.145527.542973-.073221.6885.1615s.073221.542973-.1615.6885l-.259.172 1.769-1.019c.229416-.1334891.5231565-.0644561.6690977.1572468.1459412.221703.0932171.5188044-.1200977.6767532l-5.168 3.852 8.117-4.686c.2322938-.1351768.5298928-.0625367.6737842.164462.1438914.2269988.0825928.5271392-.1387842.679538l-2.916 2.019 3.754-2.167c.2305507-.1302945.5227069-.0582293.6662193.1643342.1435123.2225634.0886.5184238-.1252193.6746658l-3.309 2.376 2.847-1.643c.2269587-.1282325.5143539-.0605795.6602778.1554298.145924.2160093.1014061.5078844-.1022778.6705702l-2.95 2.306 2.4-1.385c.2190652-.1318893.5023394-.0772423.6566242.1266708s.1298566.4913741-.0566242.6663292l-2.171 2.1 1.581-.913c.2118048-.1229211.4814696-.0743461.6370693.114756.1555997.189102.1513375.4630737-.0100693.647244l-.6.685c.1799932-.0901818.3965159-.0636171.5493705.0674011s.212222.3409308.1506295.5325989l-.2.616c.1488268.0930217.2379852.2572636.2349138.4327429-.0030714.1754794-.0979229.3365006-.2499138.4242571l-.5.288c-.1798815.1042782-.4055236.0863516-.5666833-.0450214-.1611596-.1313729-.2241982-.3487708-.1583167-.5459786l.08-.237-1.438.83c-.2115312.1216183-.4799523.0727945-.6351088-.1155214-.1551565-.188316-.1517294-.4611197.0081088-.6454786l.6-.683-2.507 1.447c-.2190652.1318893-.5023394.0772423-.6566242-.1266708s-.1298566-.4913741.0566242-.6663292l2.17-2.094-5.008 2.89c-.227445.1317107-.5180356.064845-.6650404-.1530278-.1470048-.2178727-.1002333-.512366.1070404-.6739722l2.949-2.31-5.438 3.14c-.2308022.1338179-.5260112.0628564-.670779-.1612399s-.0880924-.5223777.128779-.6777601l3.316-2.38-5.581 3.222c-.2327682.1379387-.5330334.0656905-.677577-.1630348s-.0809181-.5309351.143577-.6819652l2.911-2.016-4.963 2.863c-.229416.1334891-.5231565.0644561-.6690977-.1572468-.1459412-.221703-.0932171-.5188044.1200977-.6767532l5.167-3.852-8.121 4.689c-.2335451.1328438-.5303244.0573638-.6720248-.1709163s-.0776546-.5277351.1450248-.6780837l.262-.175-1.776 1.026c-.2295527.1314921-.521805.0614183-.6667704-.1598726-.1449654-.2212908-.0924688-.5172061.1197704-.6751274l4.965-3.662-7.794 4.5c-.2283835.1299972-.5184238.0610156-.6638282-.1578813-.1454044-.2188968-.0965443-.5129964.1118282-.6731187l5.46-4.14-8.615 4.975c-.075814.0445881-.1620483.0683888-.25.069z" fill="#f49100"/><path id="Path" d="m12.992 59.471c-.2238015.0001026-.4204126-.1485273-.4813425-.363875-.0609299-.2153478.0286636-.4449556.2193425-.562125l1.6-.985-3.19 1.84c-.2343611.1288923-.5286543.0505227-.6678755-.1778537-.1392213-.2283764-.0740613-.5258734.1478755-.6751463l16.716-10.719-19.264 11.121c-.23583577.1260453-.52910097.0442222-.66561588-.1857118-.13651492-.2299339-.06795177-.5265795.15561588-.6732882l1.515-.924-1.62.936c-.23665401.1424894-.54401051.066154-.68649997-.1705s-.06615402-.5440105.17049997-.6865l14.581-9.131-14.17 8.186c-.23637787.1427656-.54373439.0668779-.6865-.1695s-.06687787-.5437344.1695-.6865l15.836-9.96-15.183 8.761c-.23583577.1260453-.52910097.0442222-.66561588-.1857118-.13651492-.2299339-.06795177-.5265795.15561588-.6732882l5.289-3.24-4.685 2.7c-.23693016.1422133-.54428668.0654302-.6865-.1715s-.06543016-.5442867.1715-.6865l12.515-7.8-11.882 6.866c-.23508655.127347-.52875831.0472199-.66659082-.1818764-.13783251-.2290964-.071048-.5260868.15159082-.6741236l15.018-9.441-14.369 8.3c-.2372063.141661-.54433895.0642063-.68599998-.173s-.06420631-.544339.17299998-.686l6.313-3.9-5.7 3.292c-.23571786.1278172-.53029699.0469384-.66770199-.1833224-.13740501-.2302607-.06871185-.5279174.15570199-.6746776l.873-.537-.279.162c-.23665401.1424894-.54401051.066154-.68649996-.1705-.14248946-.236654-.06615403-.5440105.17049996-.6865l5.351-3.337-4.738 2.737c-.23551248.13196-.53324972.0531389-.67262044-.1780652-.13937073-.2312042-.07004227-.5312938.15662044-.6779348l5.856-3.691-5.238 3.024c-.23400272.1389988-.53620161.0652981-.67993859-.1658244-.14373699-.2311225-.07620784-.5347601.15193859-.6831756l11.124-7.43-10.446 6.03c-.23296731.1327691-.52919188.0581284-.67142871-.1691822-.14223683-.2273105-.07984054-.5263539.14142871-.6778178l8.6-5.823-7.934 4.581c-.23186034.1330617-.52737097.0602043-.67080661-.1653857-.14343565-.22559-.08404925-.5240996.13480661-.6776143l6.939-4.831-6.265 3.618c-.23018285.1290216-.52100516.0569569-.66431246-.1646141-.1433073-.2215711-.08976142-.5163656.12231246-.6733859l5.188-3.745-4.512 2.605c-.22710024.1265913-.51332263.0580067-.65838639-.1577626s-.100553-.506709.10238639-.6692374l3.962-3.078-3.27 1.887c-.22321504.1246833-.50453204.0608811-.65211813-.1478993-.14758608-.2087803-.11388673-.4952664.07811813-.6641007l2.339-2-1.641.947c-.21864041.1261203-.49699538.0695057-.649-.132-.15199673-.202043-.12924807-.4857573.053-.661l.854-.823-.156.091c-.17771767.1029262-.40029957.0867131-.56122602-.0408802-.16092646-.1275932-.22746551-.3406146-.16777398-.5371198l.375-1.248c-.08674274-.0450937-.15836275-.1146277-.206-.2-.0666188-.1149293-.08476389-.2516448-.05043057-.3799727.03433332-.1283278.11832247-.2377179.23343057-.3040273l.52-.3c.17753786-.1026213.399737-.0864357.56052919.0408305.1607922.1272663.22757561.339809.16847081.5361695l-.28.931 2.616-1.51c.2190652-.1318893.5023394-.0772423.6566242.1266708s.1298566.4913741-.0566242.6663292l-.854.822 2.8-1.617c.2236156-.1271011.5071788-.0638125.6555296.1463081s.1130835.4985123-.0815296.6666919l-2.337 2 4.87-2.813c.2277686-.1327124.5194462-.0657934.6665848.1529333s.0991876.5141157-.1095848.6750667l-3.967 3.089 6.774-3.911c.2308022-.1338179.5260112-.0628564.670779.1612399s.0880924.5223777-.128779.6777601l-5.178 3.732 7.922-4.574c.2318603-.1330617.527371-.0602043.6708066.1653857.1434357.22559.0840493.5240996-.1348066.6776143l-6.943 4.834 9.836-5.679c.2329673-.1327691.5291919-.0581284.6714287.1691822.1422368.2273105.0798406.5263539-.1414287.6778178l-8.605 5.822 11.561-6.674c.2335451-.1328438.5303244-.0573638.6720248.1709163s.0776546.5277351-.1450248.6780837l-11.123 7.43 14.346-8.282c.2355125-.13196.5332497-.0531389.6726204.1780652.1393708.2312042.0700423.5312938-.1566204.6779348l-5.859 3.693 7.882-4.551c.2369302-.1419372.5440628-.0649302.686.172s.0649302.5440628-.172.686l-5.339 3.328 7.252-4.188c.2374824-.1413849.5446151-.0634824.686.174s.0634824.5446151-.174.686l-.887.543 2.433-1.4c.2362075-.133071.5354329-.0536509.6745599.1790411.1391271.2326919.0674613.5338687-.1615599.6789589l-6.32 3.9 8.2-4.731c.2361735-.1361818.537908-.0580681.6783318.1756081.1404239.2336761.0677709.5367718-.1633318.6813919l-15.015 9.441 14.618-8.441c.2369302-.1419372.5440628-.0649302.686.172s.0649302.5440628-.172.686l-12.512 7.79 12.109-6.991c.2374824-.1411088.5443912-.0629824.6855.1745s.0629824.5443912-.1745.6855l-5.322 3.26 4.9-2.827c.2363779-.1427656.5437344-.0668779.6865.1695s.0668779.5437344-.1695.6865l-15.831 9.955 15.438-8.912c.2355125-.13196.5332497-.0531389.6726204.1780652.1393708.2312042.0700423.5312938-.1566204.6779348l-14.578 9.128 14.182-8.192c.2369888-.1350471.5384839-.055235.6776156.1793791.1391316.2346142.0645535.5374465-.1676156.6806209l-1.529.932 1.1-.633c.2343611-.1288923.5286543-.0505227.6678755.1778537.1392213.2283764.0740613.5258734-.1478755.6751463l-16.717 10.725 16.337-9.432c.2362845-.1306359.5336041-.0500916.6716393.181948s.0669238.5317553-.1606393.677052l-1.608.988 1.175-.678c.2347034-.1364868.5354374-.0607325.6774741.1706544.1420368.2313868.073465.5338394-.1544741.6813456l-13.64 8.894 13.257-7.654c.2361017-.1433179.5436821-.0681017.687.168s.0681017.5436821-.168.687l-7.307 4.658 6.891-3.979c.2358256-.1438702.5436298-.0693256.6875.1665s.0693256.5436298-.1665.6875l-6.368 4.1 5.948-3.433c.2349709-.1292146.5300387-.050062.6687925.179405.1387537.2294671.0717837.5275361-.1517925.675595l-1.026.649.587-.338c.234023-.1252853.5251579-.0458598.6631351.1809119.1379772.2267718.0746978.5218373-.1441351.6720881l-1.062.679.622-.358c.230817-.1267753.5204005-.0527915.6621232.1691615.1417226.221953.0869993.5157856-.1251232.6718385l-7.079 4.966 6.672-3.851c.2306836-.128482.5215078-.0554404.6641078.1667933s.0878131.5170425-.1251078.6732067l-4.639 3.282 4.213-2.432c.2325262-.1307666.5267591-.0559509.6685809.1700024s.0812744.5234503-.1375809.6759976l-.44.3c.2288736-.1198672.5113797-.0456222.6517463.1712844s.0923625.5050344-.1107463.6647156l-2.683 2.063 2.236-1.29c.2223898-.1269737.5047663-.065395.6540994.1426415.1493332.2080365.1173442.4952735-.0740994.6653585l-1.991 1.752 1.523-.878c.2208144-.1342809.5075757-.0781561.6614736.1294633s.1242133.4983097-.0684736.6705367l-.475.447c.2411529-.1104223.5265667-.0133301.6503601.2212397.1237934.2345699.042886.5249867-.1843601.6617603l-3.691 2.126c-.2207276.1320893-.5056598.0751513-.6586724-.1316224-.1530126-.2067738-.124171-.4959044.0666724-.6683776l.47-.442-2.147 1.242c-.2220099.1247109-.5022812.0626525-.6508926-.1441224-.1486115-.2067749-.1180855-.4922068.0708926-.6628776l1.991-1.754-4.437 2.561c-.2279124.1308241-.5182022.0628918-.6643976-.1554793-.1461953-.2183711-.0983971-.512647.1093976-.6735207l2.676-2.057-5 2.887c-.2321092.1290838-.5246372.0541763-.6661393-.170578-.1415021-.2247542-.0825963-.5209195.1341393-.674422l.448-.3-1.995 1.144c-.2309306.1317312-.5245674.0597083-.6683337-.1639283-.1437664-.2236366-.0873821-.520673.1283337-.6760717l4.636-3.283-7.141 4.123c-.2310609.1298083-.523268.0567757-.6660866-.1664779-.1428185-.2232536-.086628-.5191613.1280866-.6745221l7.084-4.97-10.066 5.811c-.234023.1252853-.5251579.0458598-.6631351-.1809119-.1379772-.2267718-.0746978-.5218373.1441351-.6720881l1.062-.68-2.655 1.533c-.2354379.13455-.5352149.0569022-.6757281-.1750261-.1405133-.2319283-.0705395-.5335888.1577281-.6799739l1.017-.643-2.6 1.5c-.2343611.1288923-.5286543.0505227-.6678755-.1778537-.1392213-.2283764-.0740613-.5258734.1478755-.6751463l6.374-4.1-8.578 4.951c-.2348642.1312813-.531504.0531604-.6712412-.1767732-.1397372-.2299337-.0724576-.5292187.1522412-.6772268l7.313-4.663-9.557 5.517c-.2341443.133112-.5316521.0568382-.672871-.1725078-.1412189-.2293459-.075396-.5293391.148871-.6784922l13.637-8.889-16.876 9.74c-.0756184.0452887-.1618652.0697828-.25.071z" fill="#ffc306"/><path id="Path" d="m18.919 35.113c-.1988826.0001568-.378948-.1175718-.4585728-.2998194-.0796249-.1822476-.0436675-.3943575.0915728-.5401806l.348-.373-.423.244c-.1989828.111356-.4480993.0739815-.6056441-.0908637-.1575449-.1648451-.1836047-.415398-.0633559-.6091363l.63-.969c-.2136175.0459274-.4325865-.0504512-.543-.239-.1375532-.2386555-.0561721-.5436114.182-.682l1.637-.946c.2003414-.1157653.4539423-.0789488.6130948.0890058s.1822771.4231685.0559052.6169942l-.6.929 1.488-.858c.2139383-.1227586.4854345-.0711644.6394281.1215147.1539936.1926792.1444708.4688702-.0224281.6504853l-.344.37.151-.086c.1549945-.0985297.351531-.1041539.5119064-.0146489.1603754.0895049.2587712.2597296.2562855.4433739s-.1054527.3511436-.2681919.436275l-3.018 1.743c-.0784406.0447472-.1677402.0668991-.258.064z" fill="#f49100"/><path id="Path" d="m34.048 35.46c-.1812977-.0000878-.3483439-.0983078-.4365661-.2566926-.0882221-.1583847-.0837965-.3521165.0115661-.5063074l.661-1.07-1.609.929c-.19117.1124463-.4335684.0855195-.5954002-.06614s-.2044163-.3918024-.1045998-.58986l.8-1.6-.2.115c-.2374252.1242009-.5305531.0391619-.6646466-.1928199-.1340935-.2319817-.0614797-.5284321.1646466-.6721801l1.637-.946c.19117-.1124463.4335684-.0855195.5954002.06614s.2044163.3918024.1045998.58986l-.8 1.6 1.888-1.091c.1975087-.1169559.4496014-.0821273.608.084.1596639.1642706.1872712.4160328.067.611l-.671 1.086c.2432279-.0835861.5101919.0309793.617182.2648587.1069902.2338794.0191032.5107745-.203182.6401413l-1.624.938c-.0748324.0432161-.159588.0663-.246.067z" fill="#f49100"/><path id="Path" d="m11.03 25.723c-.2094807-.0003301-.3965479-.1312086-.4686561-.3278877s-.0139686-.4174576.1456561-.5531123l.326-.277c-.2001363-.0003794-.3807649-.1200648-.4591294-.3042215-.0783646-.1841567-.0393655-.3973007.0991294-.5417785l.612-.638c-.1991468.1142571-.450514.0782028-.6095162-.0874245s-.1847708-.4182562-.0624838-.6125755l.574-.9c-.1820334.0576717-.3810197.0066288-.512816-.1315447-.1317963-.1381736-.1733866-.339348-.107184-.5184553l.259-.7c-.0658169-.0427302-.1203586-.1007023-.159-.169-.1380647-.2391402-.0561341-.5449248.183-.683l.528-.3c.1825532-.1055747.4117198-.0852629.5728579.0507745.1611382.1360374.219601.3585503.1461421.5562255l-.112.3.46-.266c.1991468-.1142571.450514-.0782028.6095162.0874245s.1847708.4182562.0624838.6125755l-.559.877 1.283-.741c.2154812-.1230022.4885691-.0693794.6415393.1259712.1529702.1953505.1395447.4733291-.0315393.6530288l-.612.638 1.2-.7c.2238916-.1275836.5080784-.0641108.6564103.1466086.148332.2107193.1122202.4996603-.0834103.6673914l-2.049 1.741c0 .008.01.016.014.024.0667019.114808.0849993.2514322.0508574.3797457-.0341419.1283134-.1179189.2377776-.2328574.3042543l-2.115 1.22c-.0758031.044382-.1621615.067526-.25.067z" fill="#ffc306"/><path id="Path" d="m42.266 25.509c-.1603219-.0000132-.3109142-.0769044-.4049401-.2067591-.0940259-.1298546-.1200803-.296922-.0700599-.4492409l.3-.9-.914.528c-.1991468.1142571-.450514.0782028-.6095162-.0874245s-.1847708-.4182562-.0624838-.6125755l.96-1.515-1.876 1.083c-.2172386.126835-.4948838.0725262-.6483206-.1268149-.1534369-.1993411-.1348847-.481639.0433206-.6591851l.786-.788-1.319.762c-.2394154.1380712-.5454288.0559154-.6835-.1835-.1380711-.2394154-.0559154-.5454288.1835-.6835l4.584-2.646c.2167987-.1191224.4881174-.0618073.638215.1348206s.1338516.473458-.038215.6511794l-.785.787.37-.213c.1991468-.1142571.450514-.0782028.6095162.0874245s.1847708.4182562.0624838.6125755l-.959 1.516.287-.166c.1794663-.102905.4037726-.084661.5642504.0458934.1604778.1305545.223983.3464555.1597496.5431066l-.358 1.093c.1989449.047646.348798.2116768.3783145.414107.0295165.2024303-.0672582.402422-.2443145.504893l-.7.407c-.0769906.0450349-.1648134.0682007-.254.067z" fill="#ffc306"/><path id="Path" d="m39.939 27.492c-.1662969-.000103-.3216599-.0828786-.4145056-.2208436-.0928456-.1379651-.1110221-.3130624-.0484944-.4671564l.576-1.421-1.772 1.023c-.19933.1182962-.4538286.0840869-.6148454-.0826464-.1610168-.1667334-.1863301-.4222702-.0611546-.6173536l.641-1.048c-.1638907.0781047-.3572408.0612347-.5051285-.044073-.1478878-.1053077-.2270728-.2825041-.2068715-.462927l.161-1.438c-.039511-.0344195-.0732697-.07493-.1-.12-.1382327-.2388784-.0567713-.5445824.182-.683l.224-.13c.1632583-.0942748.3656644-.0887075.5234936.0143991s.2442468.286222.2235064.4736009l-.113 1.011.809-.468c.1980688-.1148467.4488378-.080487.6087146.0834045.1598768.1638914.188008.4154353.0682854.6105955l-.641 1.047 1.329-.767c.1849137-.1065261.4170559-.08395.5779793.056209.1609233.140159.2151536.3670043.1350207.564791l-.576 1.421 1.505-.87c.1503589-.0867135.3349317-.0892448.487612-.0066874.1526803.0825575.2516219.238391.261388.4116874l.045.774.473-.273c.23893-.1358451.5427102-.0533708.6801373.1846528.137427.2380237.0569695.5423443-.1801373.6813472l-1.175.679c-.1503589.0867135-.3349317.0892448-.487612.0066874-.1526803-.0825575-.2516219-.238391-.261388-.4116874l-.045-.774-2.063 1.191c-.0743508.0449676-.1591368.069783-.246.072z" fill="#fca316"/><path id="Path" d="m11.569 27.47c-.2000746.0000381-.380909-.1191971-.459696-.303106s-.0403555-.3970781.097696-.541894l2.469-2.593c-.106461-.0402485-.1953325-.1167276-.251-.216-.1382327-.2388784-.0567713-.5445824.182-.683l2.115-1.22c.2150358-.1228992.4876397-.0698481.6408929.1247234.1532532.1945714.1409636.4720174-.0288929.6522766l-2.011 2.11 1.411-.815c.1881601-.1050237.42244-.0776841.5813618.0678429.1589217.1455269.2067311.3765004.1186382.5731571l-.534 1.174c.2399023-.0455943.477644.0887717.5623279.3178145.0846839.2290427-.0084666.4857494-.2203279.6071855l-1.179.68c-.188416.1090283-.4257214.0836224-.5867866-.0628213-.1610653-.1464437-.2088725-.3802679-.1182134-.5781787l.516-1.125-3.055 1.761c-.0757164.0449383-.1619569.0690856-.25.07z" fill="#fca316"/><g fill="#262626"><path id="Shape" d="m1.276 42.409c-.15200116 1.8856084-.15200116 3.7803916 0 5.666.525 3.05 2.563 3.261 5.045 3.274-.429 3.535-.45 7.428 2.415 8.011 1.819.371 4.141 0 5.982 0h29.974c.011 0 .027-.005.039-.006.1140789-.001333.2274483-.0181534.337-.05 3-.841 3.056-4.519 2.644-8 3.283-.233 4.924-1.443 5.012-5.282.148-6.4 0-12.817 0-19.217v-20.275c0-3.466-.557-5.691-4.451-5.88-12.983-.632-26.14 0-39.14 0-3.221 0-7.106-.578-7.857 3.544s0 9.064 0 13.223zm43.762 16.231h-28.538c-3.138 0-8.1 1.3-8.722-2.717-.21085884-1.575022-.25276353-3.1680707-.125-4.752.4-.207.682-.521.032-.521.251-3.337.9-6.824 1.1-9.814.3-4.471.906-9.041.911-13.526.376.008.77.05 1.068.05h4.684c.1626067.0368349.3313933.0368349.494 0h3.258c.017 1.245.057 2.446.061 3.532-1.1062386.2293982-1.9211527 1.1722063-1.988 2.3-.014 3.17 5.3 2.434 5.448-.388-.0357082-1.0919296-.9001116-1.9754358-1.991-2.035-.006-.984-.065-2.157-.1-3.411h12.748c-.042 1.276-.1 2.482-.11 3.521-1.1150992.224255-1.935599 1.1769738-1.992 2.313.012 3.176 5.3 2.447 5.448-.388-.0368247-1.0910052-.8982773-1.9745575-1.988-2.039.005-1.037.045-2.2.067-3.407h2.636c.1832246.0481355.3757754.0481355.559 0h4.13c.6254789-.0895325 1.2605211-.0895325 1.886 0 .1057847.0477267.2143089.0891329.325.124.592 1.086.238 4.228.313 5.35.218 3.2666667.4363333 6.5333333.655 9.8.069 1.041.7 4.673.983 8.226-.368.207-.6.494.022.494h.014c.238 3.448.092 6.704-1.288 7.288zm-33.3-38.5c.0067725-.0097607.0141187-.0191105.022-.028l2.126 1.277c.425.254.852.5 1.274.764-.205.129-.4.29-.6.428-.9606667.6866667-1.922 1.3733333-2.884 2.06-.132-1.464-.443-3.725.06-4.497zm15.207-.585h5.663c.6859225 2.2935222.9545163 4.6915599.793 7.08h-12.79c-.1586609-2.4404485.1028029-4.8900225.773-7.242 1.881.072 3.754.166 5.559.166zm-5.034-1.332c.966-1.739 2.609-2.843 5.376-2.658 1.9126917.0168512 3.6815994 1.0184763 4.68 2.65-1.71.11-3.382.222-4.908.222-1.626.004-3.373-.107-5.15-.21zm16.815 5.1c1.242.886 2.4833333 1.7726667 3.724 2.66.0249217.021794.0520718.0408996.081.057l.833.6h-4.64zm3.54-3.089c.452.743.24 2.627.1 4.067l-3.287-2.348 3.083-1.853c.038.048.069.084.102.138zm-4.74 1.447c-.1620897.0944721-.2533871.2754995-.233.462 0 .017-.015.03-.015.047v4.45h-2.465c.10495-2.3827877-.1396456-4.7681003-.726-7.08h5.627c.561 0 1.022-.071 1.42-.041zm-18.326 4.958h-2.476v-4.8c.0019952-.0095637.0019952-.0194363 0-.029v-.006c0-.107-.1-.165-.254-.187l-3.411-2.048c.2783826.0235194.5584071.0194999.836-.012 2.0455166-.2195603 4.1045492-.286412 6.16-.2-.6745161 2.3656062-.9632206 4.8244905-.855 7.282zm-8.35-.519c.411.019.886-.2.886-.6v-.035l3.542-2.53v3.681h-5.156zm8.617 5.309c.2417572.1336426.5302719.1534139.788.054.62508.3433442 1.0156419.997851 1.021 1.711-.047.86-.621 1.854-1.6 1.29-.5914517-.351657-.9527979-.9899085-.95-1.678-.0189587-.5589405.2640774-1.0849063.741-1.377zm14 0c.2408109.1302272.5265647.1484979.782.05.6253944.3432965 1.0166039.9976068 1.023 1.711-.047.857-.623 1.849-1.6 1.288-.5911345-.3510012-.9524938-.9885151-.95-1.676-.0188663-.5588241.2682149-1.0835426.749-1.369zm14.156 19.161c-.229-1.7-.529-3.292-.6-4.425-.43-6.4293333-.8596667-12.8586667-1.289-19.288-.0038748-.0596209-.0254637-.1167268-.062-.164-.0258558-.0456812-.0597302-.0863305-.1-.12l-1.82-1.3c.043-2.091.617-4.538-.452-5.908.3-.332-.2-.609-.69-.591-.2886539-.1634349-.6005874-.2818011-.925-.351-2.6876555-.4626889-5.4246256-.5686036-8.14-.315-1.073-2.209-3.01-3.711-6.473-3.67s-5.407 1.529-6.506 3.7c-2.707098-.2270414-5.4315986-.1310326-8.116.286-.563657.0902002-1.0866888.3492752-1.5.743-.208.113-.333.231-.252.286-1.059 1.471-.424 4.1-.424 6.147 0 .013.007.021.008.033l-1.532 1.1c-.234.076-.449.194-.46.361-.43066667 6.4526667-.862 12.9056667-1.294 19.359-.064.971-.344 2.481-.57 4.132-2.086-.188-3.407-.977-3.692-3.51-.0919998-1.6874136-.0919998-3.3785864 0-5.066v-32.548h48.822c-.038 2.68-.28 5.419-.28 7.936v21.1c0 4.06 1.694 11.464-3.653 12.073zm-39.929-49.24h34.864c3.3 0 8.032-1.093 8.718 3.209.191924 1.31116282.2851859 2.63487944.2792886 3.96h-48.8312886v-1.719c0-3.769 1.101-5.45 4.97-5.45z"/><path id="Path" d="m5.526 5.281h1c.36038311.00376938.71490141-.09134529 1.025-.275.211-.14.219-.287-.077-.287h-1c-.36038311-.00376938-.71490141.09134529-1.025.275-.211.14-.219.287.077.287z"/><path id="Path" d="m10.932 5.516h1c.307 0 .764-.237.8-.575.041-.376-.389-.457-.665-.457h-1c-.307 0-.764.237-.8.575-.041.376.389.457.665.457z"/><path id="Path" d="m15.529 5.293h1c.3609727.00855781.7167878-.08690478 1.025-.275.207-.143.218-.311-.083-.311h-1c-.3609727-.00855781-.7167878.08690478-1.025.275-.207.143-.218.311.083.311z"/><path id="Path" d="m46.716 5.4h1c.3627101.02465688.7163002-.12054781.957-.393.169-.285-.143-.415-.389-.415h-1c-.3627101-.02465688-.7163002.12054781-.957.393-.169.289.143.415.389.415z"/></g></g></svg>