<svg xmlns="http://www.w3.org/2000/svg" width="130.214" height="123.331" viewBox="0 0 130.214 123.331"><g transform="translate(12.974 41.254)"><path d="M16.138,39.151A9.13,9.13,0,0,0,25.323,31.9c1.127-6.356-5.3-11.188-11.642-7.837-3.18,1.681-6.364,5.2-6.3,8.686C7.447,36.909,12.238,39.151,16.138,39.151ZM13.4,36.738l.958-.958,1.4,1.4a9.238,9.238,0,0,1-2.36-.444Zm5.683-.081a7.751,7.751,0,0,1-2,.462l-2.031-2.031L17,33.137a.472.472,0,0,0,.114.277l1.349,1.349-.844.844a.489.489,0,0,0,.692.692l.844-.844.787.787A6.815,6.815,0,0,1,19.08,36.657Zm1.691-.964-.928-.928,1.286-1.286a.472.472,0,0,0,.13-.317l.964.964c.014.014.035.008.049.02a7.207,7.207,0,0,1-1.5,1.546Zm2.572-6.3-.433-.433.25-.25a5.93,5.93,0,0,1,.183.684Zm-8.751-3.6c2.673-1.414,6.456-1.272,8.181,2-.047.022-.1.02-.142.059l-.411.411-.737-.737a.489.489,0,0,0-.692.692l.737.737-.521.521a.489.489,0,0,0,.692.692l.521-.521,1.245,1.245a5.613,5.613,0,0,1-.065.667,6.213,6.213,0,0,1-.608,1.75l-2.535-2.533a.489.489,0,0,0-.692.692l1.19,1.19a.477.477,0,0,0-.315.13l-1.286,1.284L17.8,32.726a.482.482,0,0,0-.277-.116l.5-.5a.489.489,0,0,0-.692-.692L14.356,34.4l-.232-.232a.489.489,0,0,0-.692.692l.232.232-1.278,1.278c-1.658-.745-3.027-1.843-3.058-3.652-.045-2.568,2.641-5.538,5.264-6.924Z" transform="translate(-7.377 -22.968)" fill="#474747"/></g><g transform="translate(0 0)"><path d="M13.788,64.506c1.693,14.948.5,12.8.867,25.874.267,10.175,2.574,23.742,12.053,30.59,6.785,4.893,15.51,4.916,22.517,4.934l38.78.118c5.467,0,12.271,0,17.278-4.216,4.761-3.988,6.588-10.639,7.931-16.562a284.633,284.633,0,0,0,5.235-31.536,50.213,50.213,0,0,0,.328-7.622,20.821,20.821,0,0,0,5.078-1.819.007.007,0,0,1,0,0c8.716-4.645,10.975-16.731-.36-21.219-3.41-1.325-7.16-1.544-11.241-1.913A66.34,66.34,0,0,0,108.7,35.5c-.466-.68-.922-1.345-1.351-1.994C98.92,20.729,85.1,5.167,79.5,3.207c-5.648-2.018-13.113,1.8-7.613,13a137.7,137.7,0,0,0,14.44,23.207c-12.983-.633-26.332-.846-39.766-.635a137.228,137.228,0,0,0,13.97-22.572c5.559-11.333-2.1-14.96-7.611-13C47.843,4.977,37.6,16.914,34.284,20.98A203.926,203.926,0,0,0,20.99,39.674c-4.482.273-9.53.836-13.734,3.475C2.652,46.034-.7,52.41,1.918,57.684c2.277,4.555,7.766,6.1,11.87,6.822Zm33.327,59.382c-.014.014-.008.035-.02.051-1.215-.012-2.462-.045-3.731-.108l1.99-1.99,1.9,1.9Zm-15.534-2.45.138-.138.348.348C31.9,121.583,31.741,121.509,31.58,121.438Zm3.487,1.219.761-.761,1.2,1.2C36.372,122.968,35.717,122.828,35.068,122.657Zm4.073.8.989-.989,1.241,1.243C40.63,123.644,39.886,123.55,39.141,123.452Zm9.7.5-.2-.2,1.581-1.581,1.795,1.792-2.781-.008-.393,0Zm22.413-.165.234.234-.468,0Zm-1.009-.421c.01.01.024.006.035.014l-.637.637L66.018,124l2.431-2.431Zm-10.5.61-.2-.2,1.933-1.933L63.625,124l-3.884-.012s0-.008,0-.01Zm-1.784,0-4.124-.012,2.258-2.258,2.067,2.069Zm21.671-2.912c.022.041.016.087.051.122L81.485,123l-1.048,1.048-2.5-.008a.466.466,0,0,0-.055-.56l-.338-.338Zm21.557-1.758-2.242,2.242a.43.43,0,0,0-.077.189l-1.953-1.953,2.376-2.376Zm-1.207-2.588,1.656-1.656,1.9,1.9-1.656,1.656Zm-.177,5.955-.356-.356a.484.484,0,0,0,.189-.077L101.872,120l1.082,1.082a14.07,14.07,0,0,1-3.158,1.593Zm-1.021.36a25.662,25.662,0,0,1-5.06.844.455.455,0,0,0,.26-.8l-.181-.181,2.423-2.423Zm-5.491.739a.477.477,0,0,0,.287.12c-.279.022-.553.051-.836.067l.368-.368Zm-1.821.075c-.045.045-.045.108-.067.163q-1.4.046-2.861.051a.474.474,0,0,0-.033-.61l-.553-.553,2.232-2.232,2.232,2.232Zm-3.731.22-.95,0,.474-.474Zm-1.731-.6a.47.47,0,0,0-.039.6l-2.757-.008c.006-.006.014,0,.02-.008a.489.489,0,0,0,0-.692L82.867,123l1.9-1.9,1.8,1.8Zm-3.467.58s.01,0,.014.006l-.734,0,.362-.362Zm-5.473-.01-.407,0,.2-.2Zm26.965-3.725c-.085.071-.181.122-.269.191l-1.194-1.2,1.656-1.656.722.722a.489.489,0,0,0,.692-.692l-.722-.722,2.712-2.712.016.016a.489.489,0,0,0,.692-.692l-1.455-1.455,2.531-2.531a.476.476,0,0,0,.118-.283c.041.01.073.049.116.049a.488.488,0,0,0,.346-.834l-1.768-1.768,2.185-2.183.779.779c-1.261,5.475-2.995,11.481-7.158,14.967Zm7.408-16.094-.34-.34.521-.521C111.55,103.643,111.5,103.932,111.432,104.217Zm.706-3.367a.451.451,0,0,0-.1-.24l-1.044-1.044,1.786-1.786c-.2,1.027-.429,2.045-.643,3.07Zm1.53-8.539c.031.031.077.026.112.047-.169.956-.338,1.913-.517,2.865l-1.31-1.31,1.658-1.658ZM116.5,73.5c-.421,3.874-.952,7.742-1.534,11.6l-.832.832L114,85.8a.489.489,0,1,0-.692.692l.134.134-1.188,1.188a.489.489,0,0,0,.692.692l1.188-1.188.431.431c-.155.968-.313,1.933-.478,2.9a.467.467,0,0,0-.383.128l-.1.1-.757-.757a.489.489,0,1,0-.692.692l.757.757-3.058,3.058a.489.489,0,0,0,.692.692l.708-.708,1.79,1.79c-.022.122-.043.244-.065.364a.473.473,0,0,0-.6.037l-2.081,2.081-.708-.708a.489.489,0,1,0-.692.692l.708.708-.9.9a.489.489,0,1,0,.692.692l.9-.9,1.044,1.044a.491.491,0,0,0,.692,0c.008-.006,0-.018.01-.026l-.159.759a.459.459,0,0,0-.439.1l-1.05,1.05-1.379-1.379a.489.489,0,0,0-.692.692l1.379,1.379-2.248,2.248a.456.456,0,0,0-.472.09.461.461,0,0,0-.092.472l-.2.2a.489.489,0,1,0,.692.692l.134-.134,1.377,1.377c-.065.024-.136.026-.187.077l-2.531,2.531-1.379-1.379a.489.489,0,1,0-.692.692l1.381,1.382-1.284,1.284a.489.489,0,1,0,.692.692l1.284-1.284.747.747-2.712,2.712-1.9-1.9.7-.7a.489.489,0,1,0-.692-.692l-.7.7-.09-.094a.489.489,0,1,0-.692.692l.085.085-1.656,1.656-.134-.134a.489.489,0,0,0-.692.692l.134.134L96.216,119.1l-1.475-1.475a.489.489,0,0,0-.692.692l1.475,1.475L93.1,122.211l-2.232-2.232,5.837-5.837a.489.489,0,0,0-.692-.692l-5.837,5.837-.326-.326a.489.489,0,0,0-.692.692l.326.326-2.232,2.232-1.8-1.8,3.245-3.245a.489.489,0,1,0-.692-.692l-3.241,3.245-.085-.085a.489.489,0,0,0-.692.692l.085.085-1.9,1.9L80.366,120.5c-.035-.035-.081-.028-.122-.051l1.339-1.339a.489.489,0,0,0-.692-.692l-4.035,4.035-1.284-1.284a.489.489,0,0,0-.692.692l1.284,1.284-.8.8c-.024.024-.018.059-.035.085l-2.47-.008c-.008-.008,0-.02-.012-.028l-.9-.9,3.9-3.9a.489.489,0,0,0-.692-.692l-3.9,3.9-.468-.468a.475.475,0,0,0-.619-.031l-1.023-1.023,2.073-2.071a.489.489,0,0,0-.692-.692l-2.073,2.071-.846-.846a.489.489,0,0,0-.692.692l.846.846-2.934,2.934-2.663-2.663,2.016-2.016a.489.489,0,0,0-.692-.692l-2.016,2.016-.737-.737a.489.489,0,0,0-.692.692l.737.737-1.933,1.933-2.067-2.069,1.768-1.768a.489.489,0,1,0-.692-.692l-1.768,1.768-.871-.871a.489.489,0,0,0-.692.692l.871.871-2.474,2.474L50.9,121.473l1.17-1.17a.489.489,0,0,0-.692-.692l-1.17,1.17-.9-.9a.489.489,0,0,0-.692.692l.9.9-1.581,1.581-1.9-1.9.254-.254a.489.489,0,1,0-.692-.692l-.254.254-.2-.2a.489.489,0,0,0-.692.692l.2.2-2.232,2.232-1.607-1.607.737-.737a.489.489,0,1,0-.692-.692l-.737.737-.657-.657a.489.489,0,1,0-.692.692l.655.655L38.2,123a.467.467,0,0,0-.079-.191L36.51,121.2l.952-.952a.489.489,0,0,0-.692-.692l-.952.952L34.811,119.5a.489.489,0,1,0-.692.692l1.007,1.007-1.068,1.068L32.4,120.608l.551-.551a.489.489,0,0,0-.692-.692l-.551.551-.466-.466a.489.489,0,0,0-.692.692l.466.466-.411.411a19.019,19.019,0,0,1-2.763-1.634C19.008,113,16.85,100.061,16.6,90.327c-.352-12.3.783-11.994-.82-25.477,29.748,4.578,62.3,2.13,91.643,2.13a66.161,66.161,0,0,0,9.424-.509,47.9,47.9,0,0,1-.338,7.03ZM92.572,36.18l2.212,2.212-1.333,1.333c-.018.018-.012.045-.026.063-.45-.024-.9-.053-1.347-.077a.462.462,0,0,0-.106-.435l-1.247-1.247Zm2.964-2.3,1.876,1.876L95.473,37.7l-2.212-2.212L95.52,33.23A.485.485,0,0,0,95.536,33.885Zm4.252,6.277c-.1-.006-.2-.016-.3-.022l1.148-1.148,1.335,1.335c-.73-.053-1.455-.116-2.187-.165Zm-1.351-.348a.463.463,0,0,0-.106.256c-1.213-.079-2.423-.138-3.636-.21l.777-.777.671.671a.489.489,0,1,0,.692-.692l-.671-.671L98.1,36.453,99.951,38.3Zm-7.477-.169c-.584-.031-1.168-.073-1.752-.1l.826-.826Zm18.954,1.284c-2.134-.181-4.291-.33-6.442-.488l-2.14-2.14,1.8-1.8,1.711,1.711-.787.787a.489.489,0,0,0,.692.692l.787-.787,1.015,1.015a.489.489,0,1,0,.692-.692l-1.015-1.015,1.158-1.158c.865,1.268,1.74,2.555,2.527,3.878Zm-3.086-4.7-1.29,1.29-1.711-1.711,1.461-1.461a.459.459,0,0,0,.1-.236c.106.161.226.315.332.476C106.071,35.122,106.45,35.676,106.828,36.229ZM78.846,5.049c4.667,1.636,17.475,15.6,26.13,28.48a.473.473,0,0,0-.383.128l-1.461,1.461-1.2-1.2a.489.489,0,1,0-.692.692l1.2,1.2-1.8,1.8-1.847-1.847,1.609-1.609a.489.489,0,0,0-.692-.692L98.1,35.073,96.224,33.2a.481.481,0,0,0-.655-.014l.108-.108a.489.489,0,1,0-.692-.692l-2.466,2.466a.434.434,0,0,0-.592.592l-1.9,1.9-.879-.877a.489.489,0,0,0-.692.692l.879.877-.879.879c-.02.02-.014.049-.031.071a135.659,135.659,0,0,1-14.8-23.634C68.85,5.6,74.976,3.671,78.846,5.049ZM28.561,37l1.666,1.668-.515.515c-.016.016-.01.041-.024.059-.366.016-.724.028-1.095.045-.429.018-.881.043-1.314.061a.459.459,0,0,0-.09-.476l-.25-.25Zm12.6-3.445,2.165,2.165-1.622,1.622-2.165-2.165Zm6.722-.462-1.951-1.953,2.12-2.12,1.559,1.561a.477.477,0,0,0,.287.12c-.643.966-1.27,1.943-1.935,2.889a.458.458,0,0,0-.079-.5Zm-1.013.368.324.324a.425.425,0,0,0,.6.037c-.7,1-1.441,1.965-2.171,2.94a.443.443,0,0,0-.092-.218l-.824-.824L46.8,33.623C46.848,33.578,46.848,33.515,46.872,33.458Zm-2.031,3.774a.486.486,0,0,0,.332.138c-.36.474-.7.968-1.06,1.436-.3,0-.614.014-.92.02l-.8-.8,1.622-1.622ZM41.566,38.86l.14-.14.134.134C41.749,38.858,41.658,38.858,41.566,38.86Zm-.549-.83-.863.863c-.277.006-.545.01-.822.018-1.194.031-2.415.071-3.636.11l3.156-3.156Zm-6.053,1.011c-1.152.039-2.33.083-3.51.13a.456.456,0,0,0,.087-.437l1.78-1.78L34.9,38.532a.457.457,0,0,0,.063.509Zm-8.635.348-.169.008.087-.087ZM35.8,22.215C38.746,18.6,49,6.644,53.562,5.047c3.929-1.384,9.978.592,5.207,10.3a135.839,135.839,0,0,1-8.413,14.665c-.022-.041-.016-.09-.051-.122l-1.559-1.561,0,0a.489.489,0,0,0-.692-.692l0,0-.425-.425a.489.489,0,1,0-.692.692l.425.425-2.12,2.12-.153-.153a.489.489,0,0,0-.692.692l.153.153-1.424,1.424a.489.489,0,0,0,.692.692l1.424-1.424,1.036,1.036c-.057.024-.12.022-.167.069L44.02,35.026l-2.165-2.165.218-.218a.489.489,0,1,0-.692-.692l-.23.23a.472.472,0,0,0-.667.667l-1.632,1.632-.743-.743a.489.489,0,1,0-.692.692l.743.743L35.54,37.791l-1.53-1.53,3.63-3.63a.489.489,0,0,0-.692-.692l-3.63,3.63-.108-.108a.489.489,0,1,0-.692.692l.108.108-1.711,1.711L29.249,36.3l2.763-2.763a.489.489,0,0,0-.692-.692l-5.076,5.076-.289-.289a.489.489,0,0,0-.692.692l.289.289-.743.743c-.028.028-.022.069-.041.1-.472.022-.924.041-1.4.065A194.759,194.759,0,0,1,35.8,22.215ZM8.294,44.8c4.568-2.869,9.835-3.63,36.32-4.053,14.053-.269,28.92-.071,43.693.7,4.971.238,29.483,1.475,34.474,3.412,9.945,3.947,7.2,13.919.157,17.675a19.661,19.661,0,0,1-5.361,1.819c-3.738.739-87.04,3.2-102.634-1.622-1.955-.417-8.934-1.231-11.278-5.927-2.126-4.287.745-9.571,4.629-12Z" transform="translate(-1 -2.691)" fill="#474747"/></g><g transform="translate(98.906 43.093)"><path d="M55.246,39.36a9.968,9.968,0,0,0,3.668.678,11.2,11.2,0,0,0,4.853-1.115c3.182-1.542,3.882-3.727,3.908-5.286.061-3.483-3.127-7.005-6.3-8.684a8.409,8.409,0,0,0-8.183-.039,7.721,7.721,0,0,0-3.461,7.874,8.989,8.989,0,0,0,5.518,6.572Zm.46-1.941.816-.818,1.4,1.4a7.676,7.676,0,0,1-1.957-.462C55.877,37.506,55.8,37.458,55.706,37.419Zm2.806-2.8,1.357,1.355-1.3,1.3-1.355-1.357Zm.647,3.447,1.4-1.4,1,1A9.222,9.222,0,0,1,59.159,38.062Zm3.2-3.249.651.651-.9.9a.491.491,0,0,0-.138.334l-.726-.726,1.078-1.078c.024-.022.018-.055.035-.079Zm.553,2.35c-.112.053-.232.077-.346.126l-.1-.1a.488.488,0,0,0,.334-.138l.9-.9.031.031a.443.443,0,0,0,.623.028,6.616,6.616,0,0,1-1.443.95ZM54.192,26.589a5.673,5.673,0,0,1,2.912-.755,7.194,7.194,0,0,1,3.353.848,11.868,11.868,0,0,1,4.252,3.89.469.469,0,0,0-.291.12l-.537.537-.966-.968a.489.489,0,1,0-.692.692l.966.966-.4.395a.489.489,0,0,0,.692.692l.395-.395.645.645a.489.489,0,1,0,.692-.692l-.645-.645.537-.537c.012-.012.008-.031.018-.045a5.029,5.029,0,0,1,.59,2.265,3.427,3.427,0,0,1-1.268,2.523.475.475,0,0,0-.026-.629l-.031-.031.8-.8a.489.489,0,0,0-.692-.692l-.8.8L62.123,33.2a.489.489,0,0,0-.692.692l.281.281c-.024.016-.057.01-.079.033l-1.078,1.078-1.365-1.365a.477.477,0,0,0-.326-.134c-.022-.051-.02-.108-.061-.149a.489.489,0,0,0-.692,0L56.52,35.224l-.132-.132a.489.489,0,1,0-.692.692l.132.132L54.8,36.941a6.883,6.883,0,0,1-3.156-4.488,5.833,5.833,0,0,1,2.545-5.864Z" transform="translate(-49.612 -23.871)" fill="#474747"/></g><g transform="translate(58.027 71.483)"><path d="M31.557,40.565a12.622,12.622,0,0,0-1.841,5.957,55.084,55.084,0,0,0,.033,9.453,56.487,56.487,0,0,1,.09,8.606c-.472,5.158,2.187,14.122,8.537,11.447,2.794-1.172,3.489-4.521,3.77-6.94a104.412,104.412,0,0,0,.067-23.428c-1.093-9.917-7.992-8.958-10.655-5.095Zm5.876-.553-.647.647-.834-.834A2.387,2.387,0,0,1,37.432,40.012Zm-2.521.153.663.665L34.09,42.315l-.8-.8a4.724,4.724,0,0,1,1.622-1.351ZM32.124,69l.293.293-.193.193c-.037-.161-.065-.324-.1-.486Zm-.3-4.987c.031-.439.061-.879.075-1.318.059-.024.126-.024.175-.073l.848-.848L33.951,62.8l-1.668,1.668Zm.085-2.608c0-.216,0-.431,0-.645l.324.324Zm-.2-5.32.645.645-.574.576c-.024-.407-.047-.816-.071-1.221Zm-.222-4.633.9.9-.836.836C31.526,52.608,31.5,52.03,31.489,51.453Zm.157-4.562.863.863-.993.991c.028-.619.067-1.237.13-1.854ZM40.2,68.863c-.354,3.066-1.176,4.771-2.582,5.363-2.678,1.123-4.2-.912-5.084-3.664l.576-.576.537.537a.489.489,0,0,0,.692-.692l-.537-.537,1.864-1.864a.489.489,0,0,0-.692-.692L33.111,68.6,31.86,67.351c-.039-.35-.065-.678-.079-1l.5-.5,1.1,1.1a.489.489,0,0,0,.692-.692l-1.1-1.1,2.081-2.081a.488.488,0,0,0-.348-.834c-.022-.041-.016-.09-.051-.124L33.62,61.078l1.192-1.192a.489.489,0,0,0-.692-.692l-1.192,1.192-1.05-1.05c-.01-.285-.02-.57-.033-.852a.459.459,0,0,0,.234-.1l.973-.971.694.694a.489.489,0,0,0,.692-.692l-.694-.694,1.268-1.266a.489.489,0,0,0-.692-.692l-1.268,1.266L31.63,54.61l-.018-.311c.315,0,1.237-1.036,1.471-1.268l.193.193a.489.489,0,0,0,.692-.692l-.193-.193.36-.36a.489.489,0,0,0-.692-.692l-.36.36L31.5,50.061v-.047a.461.461,0,0,0,.216-.09L33.2,48.431l.486.486a.489.489,0,1,0,.692-.692l-.486-.486,1.986-1.986a.489.489,0,0,0-.692-.692l-1.984,1.984-1.4-1.4a10.586,10.586,0,0,1,.977-3.28l.621.621-.973.973a.489.489,0,0,0,.692.692l1-1a.491.491,0,0,0,.246.1.485.485,0,0,0,.346-.142.469.469,0,0,0,.041-.592l.757-.757a.457.457,0,0,0,.1.246.491.491,0,0,0,.692,0l1.961-1.961c.008-.008,0-.02.012-.028,1.034.934,1.7,2.72,1.99,5.341A102.691,102.691,0,0,1,40.2,68.863Z" transform="translate(-29.52 -37.825)" fill="#474747"/></g><g transform="translate(81.685 71.489)"><path d="M49.244,37.989a5.783,5.783,0,0,0-6.061,2.574,12.812,12.812,0,0,0-1.841,5.957,55.452,55.452,0,0,0,.033,9.449,56.537,56.537,0,0,1,.09,8.61c-.478,5.215,2.208,14.1,8.539,11.447,2.791-1.174,3.487-4.523,3.768-6.94a104.412,104.412,0,0,0,.067-23.428C53.352,41.27,51.807,38.691,49.244,37.989Zm-3.886,3.025A4.449,4.449,0,0,1,47,39.968l.053.053-1.345,1.345Zm-1.821,19.75.423-.423,1.329,1.329a.484.484,0,0,0-.189.077l-1.611,1.611c.043-.867.061-1.731.049-2.594Zm-.34-7.137c-.061-1.2-.09-2.411-.079-3.622l2.114,2.116-1.772,1.772Zm.085-6.893c.047-.435.1-.877.175-1.314l1.31,1.31-1.6,1.6C43.2,47.8,43.226,47.262,43.282,46.733ZM51.826,68.86c-.354,3.068-1.174,4.771-2.58,5.363-3.125,1.316-4.743-1.762-5.463-5.066L44,68.943l.442.442a.489.489,0,0,0,.692-.692l-.442-.441L46.035,66.9a.489.489,0,0,0-.692-.692L44,67.56,43.439,67a13.06,13.06,0,0,1-.033-2.179l.02-.02.905.905a.489.489,0,1,0,.692-.692l-.905-.905,1.672-1.672a.474.474,0,0,0,.033-.612.465.465,0,0,0,.222-.092.489.489,0,0,0,0-.692l-1.394-1.394,2.905-2.905a.489.489,0,0,0-.692-.692l-2.9,2.9-.492-.492q-.061-1.318-.142-2.614l-.024-.417.161-.161,1.51,1.51a.489.489,0,1,0,.692-.692l-1.51-1.51L47.2,51.533a.489.489,0,0,0-.692-.692l-.584.584-2.236-2.236,1.772-1.772,1.025,1.025a.489.489,0,0,0,.692-.692l-1.025-1.025.647-.647a.489.489,0,0,0-.692-.692l-.647.647L43.7,44.276a7.91,7.91,0,0,1,1.04-2.5l.283.283-.653.653a.489.489,0,0,0,.692.692l.653-.653,1.544,1.542a.489.489,0,0,0,.692-.692L46.4,42.056l1.343-1.343,1.369,1.371a.489.489,0,0,0,.692-.692l-1.6-1.6a2.547,2.547,0,0,1,.519.081c5.294,1.447,3.729,23.546,3.1,28.983Z" transform="translate(-41.148 -37.828)" fill="#474747"/></g><g transform="translate(34.459 71.484)"><path d="M19.972,40.565a12.622,12.622,0,0,0-1.841,5.957c-.675,6.169.667,12.138.122,18.059-.25,2.73.566,8.771,3.654,11.036,2.3,1.679,7.691,1.76,8.651-6.529a104.412,104.412,0,0,0,.067-23.428C29.539,35.782,22.658,36.675,19.972,40.565Zm3.168-.3.6.6-1.882,1.882-.555-.555c.1-.171.171-.354.283-.517A4.75,4.75,0,0,1,23.14,40.268ZM19.982,53.58l.065.065-.059.059C19.987,53.664,19.985,53.623,19.982,53.58Zm-.053-1.434c-.018-.592-.024-1.184-.024-1.78l1.133-1.133,1.709,1.711-2.01,2.012Zm-.012-3.172c.01-.271.041-.537.057-.808l.374.376Zm8.7,19.888c-.354,3.066-1.176,4.771-2.582,5.363a2.848,2.848,0,0,1-2.973-.185c-2.317-1.7-3.084-6.865-2.863-9.28.022-.25.026-.5.043-.749l.368-.368.517.517a.489.489,0,1,0,.692-.692l-.517-.517,1.766-1.766a.489.489,0,0,0-.692-.692L20.609,62.26l-.283-.283c.012-.942-.006-1.88-.043-2.812l.069-.069.789.791a.489.489,0,0,0,.692-.692l-.789-.791,1.719-1.719a.489.489,0,1,0-.692-.692l-1.719,1.719-.138-.14c-.035-.619-.12-2.094-.149-2.564l.673-.675,1.072,1.072a.489.489,0,1,0,.692-.692l-1.072-1.072,2.175-2.175c.022-.022.016-.057.035-.083.059-.024.126-.024.173-.071a.489.489,0,0,0,0-.692l-2.081-2.083,1.9-1.9a.489.489,0,0,0-.692-.692l-1.9,1.9-.977-.977c0-.047,0-.094.01-.138a14.618,14.618,0,0,1,.777-3.609l.313.313L21,43.6a.489.489,0,0,0,.692.692l.169-.169L23.633,45.9a.489.489,0,1,0,.692-.692l-1.776-1.776,1.882-1.882,1.381,1.381a.489.489,0,0,0,.692-.692l-2.366-2.366c3.054-.716,4.21,2.887,4.549,5.994a102.465,102.465,0,0,1-.071,22.993Z" transform="translate(-17.936 -37.825)" fill="#474747"/></g></svg>