<svg id="Layer_1" data-name="Layer 1" xmlns="http://www.w3.org/2000/svg" viewBox="0 0 138.75 97.58"><path id="s-top" d="M96.87,42.69a3.52,3.52,0,0,1,.15.42A19.67,19.67,0,0,1,106.69,41a35,35,0,0,1,12.88,2.52,57.29,57.29,0,0,1,12.88,7.25l8.94-12.62a56.2,56.2,0,0,0-15.64-8.87A54.64,54.64,0,0,0,107,26.21a40.11,40.11,0,0,0-13,2,31.74,31.74,0,0,0-5,2.15l.12.13a36.66,36.66,0,0,1,7.8,12.16Z" transform="translate(-5.62 -26.21)"/><path id="s-btm" d="M142.4,85a22.33,22.33,0,0,0-5.77-7.74A33.37,33.37,0,0,0,127,71.61a107.9,107.9,0,0,0-13.25-4.21q-6.78-1.61-11.2-3.1c-1.22-.42-2.33-.83-3.34-1.28a37.35,37.35,0,0,1-2,8.47,40,40,0,0,1-3.46,7.19,107.37,107.37,0,0,0,12.53,3.63,91.38,91.38,0,0,1,10.8,3,25.33,25.33,0,0,1,6.52,3.25,9.81,9.81,0,0,1,3.26,3.74,11.36,11.36,0,0,1,.88,4.53v.27a10.18,10.18,0,0,1-4.54,8.68Q118.75,109,111,109a38.67,38.67,0,0,1-16-3.18c-1.13-.51-2.28-1.09-3.41-1.71l13.85,19.44c1.7.14,3.41.21,5.14.21a47.15,47.15,0,0,0,13.67-1.88A30.46,30.46,0,0,0,135,116.34a25.29,25.29,0,0,0,6.91-8.94,27.42,27.42,0,0,0,2.51-11.93v-.28A24.94,24.94,0,0,0,142.4,85Z" transform="translate(-5.62 -26.21)"/><path id="r" d="M77.67,100.74,67.52,86.51a35.44,35.44,0,0,0,9.15-3.86,28.47,28.47,0,0,0,7.11-6.1c.53-.64,1-1.3,1.49-2a29,29,0,0,0,3.18-6.29,30.55,30.55,0,0,0,1.7-10.51V57.5a30.66,30.66,0,0,0-2-11.37A27.24,27.24,0,0,0,82.3,37c-.3-.29-.6-.57-.92-.85a32.66,32.66,0,0,0-10.6-6.14,46.82,46.82,0,0,0-15.87-2.5H5.62L16.37,42.6H53.5q9.38,0,14.55,4c3.44,2.67,5.16,6.57,5.16,11.76v.28A14.16,14.16,0,0,1,67.9,70.3q-5.31,4.29-14.27,4.3H39.27l34.2,47.83H93.12L92,120.9Z" transform="translate(-5.62 -26.21)"/></svg>