<svg xmlns="http://www.w3.org/2000/svg" width="100" height="100"><path d="M85.352 0h-70.7A14.666 14.666 0 0 0 0 14.648v70.7A14.666 14.666 0 0 0 14.648 100h70.7A14.666 14.666 0 0 0 100 85.352v-70.7A14.666 14.666 0 0 0 85.352 0ZM50.2 76.172A26.367 26.367 0 1 1 76.563 49.8 26.4 26.4 0 0 1 50.2 76.172ZM79.492 29.3a8.789 8.789 0 1 1 8.789-8.789 8.8 8.8 0 0 1-8.789 8.789Zm0 0" fill="#474747"/><path d="M79.492 17.578a2.93 2.93 0 1 0 2.93 2.93 2.931 2.931 0 0 0-2.93-2.93ZM50.195 29.297a20.508 20.508 0 1 0 20.508 20.508 20.533 20.533 0 0 0-20.508-20.508Zm0 0" fill="#474747"/></svg>