<?xml version="1.0" encoding="utf-8"?>
<!-- Generator: Adobe Illustrator 26.0.1, SVG Export Plug-In . SVG Version: 6.00 Build 0)  -->
<svg version="1.1" id="Capa_1" xmlns="http://www.w3.org/2000/svg" xmlns:xlink="http://www.w3.org/1999/xlink" x="0px" y="0px"
	 viewBox="0 0 37.1 60" style="enable-background:new 0 0 37.1 60;" xml:space="preserve">
<style type="text/css">
	.st0{fill:#7B6C79;}
	.st1{fill:#665E68;}
	.st2{fill:#FEE17D;}
	.st3{fill:#FFCE65;}
</style>
<g>
	<g>
		<path class="st0" d="M31.3,30.1l-3.6-4.3l0,0L1.1,54.6h0l0,0L4.8,59c0.2,0.1,0.5,0.2,0.7-0.1l25.8-28.2
			C31.4,30.6,31.4,30.3,31.3,30.1z"/>
		<path class="st1" d="M6.3,56.2c-0.7-0.9-0.7-2.1,0.1-2.9L29.5,28l-1.9-2.2l0,0L1.1,54.6h0l0,0L4.8,59c0.2,0.1,0.5,0.2,0.7-0.1
			l1.7-1.8L6.3,56.2z"/>
		<path class="st0" d="M36.2,5.5l-3.7-4.4c0.1,0.2-0.3,0.4-0.4,0.5L18.5,24.9c-0.2,0.3,0,0.8,0.4,0.8l6-0.1L36.2,6
			C36.3,5.8,36.3,5.6,36.2,5.5L36.2,5.5z"/>
		<path class="st1" d="M22.4,24.9L34.7,3.8l-2.2-2.7c0.1,0.2-0.3,0.4-0.4,0.5L18.5,24.9c-0.2,0.3,0,0.8,0.4,0.8l3.7-0.1
			C22.4,25.5,22.3,25.2,22.4,24.9L22.4,24.9z"/>
		<path class="st1" d="M11.4,25.3H3.2c-0.1,0-0.3,0.2-0.4,0.1l3.6,4.3c0.1,0.1,0.2,0.2,0.4,0.2h3.6l1.4-3.9
			C12,25.7,11.8,25.3,11.4,25.3L11.4,25.3z"/>
		<path class="st2" d="M32.5,1.7c0.2-0.3,0-0.8-0.4-0.8H13.6c-0.2,0-0.4,0.1-0.5,0.3L2.7,24.9c-0.1,0.3,0.1,0.7,0.5,0.7h8
			c0.4,0,0.6,0.4,0.5,0.7L0.9,54.1c-0.2,0.5,0.5,0.9,0.8,0.5l25.8-28.2c0.3-0.3,0.1-0.8-0.4-0.8h-7.6c-0.4,0-0.6-0.4-0.4-0.8
			L32.5,1.7z"/>
		<g>
			<g>
				<path class="st3" d="M3.2,25.6h5.2c-0.4,0-0.6-0.4-0.5-0.7L18.3,1.2c0.1-0.2,0.3-0.3,0.5-0.3h-5.2c-0.2,0-0.4,0.1-0.5,0.3
					L2.7,24.9C2.6,25.2,2.8,25.6,3.2,25.6z"/>
				<path class="st3" d="M16.9,26.2c0.1-0.3-0.1-0.7-0.5-0.7h-5.2c0.4,0,0.6,0.4,0.5,0.7L0.9,54.1c-0.2,0.5,0.5,0.9,0.8,0.5L9,46.7
					L16.9,26.2z"/>
			</g>
		</g>
	</g>
	<g>
		<path d="M0.4,55.2l3.6,4.3c0.4,0.5,1.4,0.7,2,0l12.3-13.4c0.3-0.4,0.3-0.9-0.1-1.2c-0.4-0.3-0.9-0.3-1.2,0.1L5.1,58l-2.5-3
			l25.3-27.6l2.5,3L19.9,41.9c-0.3,0.4-0.3,0.9,0.1,1.2c0.4,0.3,0.9,0.3,1.2-0.1l10.7-11.7c0.5-0.5,0.5-1.3,0-1.8l-3.6-4.2
			c-0.3-0.4-0.7-0.6-1.2-0.6h-0.8L36.9,6.4c0.3-0.5,0.2-1.2-0.1-1.5l-3.6-4.3C32.9,0.2,32.5,0,32.1,0h-8.8c-0.5,0-0.9,0.4-0.9,0.9
			s0.4,0.9,0.9,0.9h8.2c-0.6,1.1-12.4,21.6-13,22.6c-0.5,0.9,0.1,2.1,1.2,2.1h6.7C25.1,27.8,3.6,51.2,2.4,52.5
			c0.1-0.3,9.7-25.2,10-26c0.3-0.9-0.3-1.9-1.3-1.9H3.7l10-22.9h5.3c0.5,0,0.9-0.4,0.9-0.9S19.6,0,19.1,0h-5.6c-0.5,0-1,0.3-1.3,0.8
			L1.9,24.5C1.7,25,1.8,25.5,2.1,26l3.6,4.3c0.3,0.4,0.7,0.6,1.1,0.6H9l-8.9,23C-0.1,54.3,0,54.9,0.4,55.2L0.4,55.2z M24.4,24.7
			h-4.1C20.7,23.9,32,4.3,32.8,2.9l2.5,2.9L24.4,24.7z M7,29l-2.2-2.6h5.8l-1,2.6H7z"/>
	</g>
</g>
</svg>
