<svg xmlns="http://www.w3.org/2000/svg" width="50" height="50"><path d="M25 50a25 25 0 1 1 25-25 25.028 25.028 0 0 1-25 25Zm.005-10.511c5.127-4.381 10.065-11.613 10.065-17.672a10.071 10.071 0 1 0-20.142 0c.001 6.326 5.081 13.412 10.077 17.672ZM25 9.159a12.671 12.671 0 0 1 12.657 12.658c0 7.531-6.141 15.833-11.847 20.36a1.293 1.293 0 0 1-1.607 0 37.656 37.656 0 0 1-7.94-8.83c-2.564-4-3.92-7.986-3.92-11.53A12.671 12.671 0 0 1 25 9.159Zm0 17.161a4.5 4.5 0 1 1 4.5-4.5 4.509 4.509 0 0 1-4.5 4.5Zm7.09-4.5A7.09 7.09 0 1 1 25 14.727a7.1 7.1 0 0 1 7.09 7.09Z" fill="#d2c7b5" fill-rule="evenodd"/></svg>