<svg xmlns="http://www.w3.org/2000/svg" width="537.748" height="97.57" viewBox="0 0 537.748 97.57"><g transform="translate(-139.252 -16.215)"><g transform="translate(139.252 16.215)"><path d="M356.854,16.478a3.039,3.039,0,0,1,.15.416,19.691,19.691,0,0,1,9.674-2.128,34.919,34.919,0,0,1,12.877,2.522,57.237,57.237,0,0,1,12.877,7.248l8.943-12.619A55.939,55.939,0,0,0,385.731,3.05,54.488,54.488,0,0,0,366.944,0a40,40,0,0,0-12.989,2.032,32.679,32.679,0,0,0-5.015,2.149l.112.131a36.582,36.582,0,0,1,7.8,12.165Z" transform="translate(-265.61)" fill="#f9b429"/><path d="M410.9,176.039a22.336,22.336,0,0,0-5.779-7.737,33.158,33.158,0,0,0-9.581-5.61,107.924,107.924,0,0,0-13.254-4.217c-4.516-1.072-8.263-2.106-11.2-3.1-1.223-.416-2.333-.829-3.343-1.28a36.893,36.893,0,0,1-1.958,8.471,39.663,39.663,0,0,1-3.463,7.191,108.033,108.033,0,0,0,12.537,3.635,92.026,92.026,0,0,1,10.8,2.992,25.514,25.514,0,0,1,6.515,3.257,9.744,9.744,0,0,1,3.257,3.733,11.255,11.255,0,0,1,.886,4.537v.265a10.176,10.176,0,0,1-4.537,8.678q-4.537,3.26-12.272,3.255a38.635,38.635,0,0,1-15.983-3.181c-1.13-.509-2.278-1.091-3.408-1.712l13.851,19.446c1.693.131,3.408.205,5.139.205a47,47,0,0,0,13.667-1.882,30.286,30.286,0,0,0,10.672-5.571,25.245,25.245,0,0,0,6.909-8.941,27.476,27.476,0,0,0,2.51-11.921v-.284A24.883,24.883,0,0,0,410.9,176.039Z" transform="translate(-274.12 -117.292)" fill="#f9b429"/><path d="M72.041,78.79,61.894,64.559A35.583,35.583,0,0,0,71.046,60.7a28.521,28.521,0,0,0,7.114-6.1c.528-.638,1.017-1.3,1.488-1.975a28.984,28.984,0,0,0,3.181-6.288,30.732,30.732,0,0,0,1.7-10.508v-.282a30.685,30.685,0,0,0-2.035-11.37,27.356,27.356,0,0,0-5.817-9.091c-.3-.284-.6-.566-.922-.848A32.742,32.742,0,0,0,65.152,8.1,46.832,46.832,0,0,0,49.283,5.6H0L10.746,20.645H47.872c6.25,0,11.107,1.356,14.551,4.029s5.161,6.574,5.161,11.761v.282a14.171,14.171,0,0,1-5.309,11.632q-5.309,4.294-14.269,4.3H33.641l34.2,47.829H87.5L86.406,98.95Z" transform="translate(0 -4.263)" fill="#f9b429"/></g><text transform="translate(299 62)" fill="#fff" font-size="40" font-family="Montserrat-Regular, Montserrat" letter-spacing="0.05em"><tspan x="0" y="0">ROY SHEPPARD</tspan></text><text transform="translate(360 101)" fill="#fffefe" font-size="30" font-family="Montserrat-Regular, Montserrat"><tspan x="-60.72" y="0">DIGITAL</tspan></text><circle cx="7.5" cy="7.5" r="7.5" transform="translate(662 48)" fill="#f9b429"/></g></svg>