<svg xmlns="http://www.w3.org/2000/svg" viewBox="0 0 537.75 97.58"><g id="Layer_2" data-name="Layer 2"><g id="Layer_1-2" data-name="Layer 1"><g id="logo"><g id="initials"><path id="s-top" d="M91.24,16.48a3.52,3.52,0,0,1,.15.42,19.79,19.79,0,0,1,9.68-2.13A35.12,35.12,0,0,1,114,17.29a57.45,57.45,0,0,1,12.87,7.25l9-12.62a56,56,0,0,0-15.65-8.86A54.09,54.09,0,0,0,101.33,0a39.73,39.73,0,0,0-13,2,31.74,31.74,0,0,0-5,2.15l.11.13a36.34,36.34,0,0,1,7.8,12.16Z" fill="#f9b429"/><path id="s-btm" d="M136.78,58.75A22.23,22.23,0,0,0,131,51a32.74,32.74,0,0,0-9.58-5.61,108,108,0,0,0-13.25-4.22c-4.52-1.07-8.27-2.11-11.2-3.1-1.23-.42-2.34-.83-3.35-1.28a36.81,36.81,0,0,1-2,8.47,39,39,0,0,1-3.47,7.19,109,109,0,0,0,12.54,3.64,90,90,0,0,1,10.8,3,25.43,25.43,0,0,1,6.51,3.25,9.72,9.72,0,0,1,3.26,3.74,11.2,11.2,0,0,1,.89,4.53v.27a10.18,10.18,0,0,1-4.54,8.68c-3,2.17-7.12,3.26-12.27,3.25a38.56,38.56,0,0,1-16-3.18c-1.13-.51-2.27-1.09-3.4-1.71L99.85,97.38c1.69.13,3.41.2,5.14.2a47.08,47.08,0,0,0,13.66-1.88,30.42,30.42,0,0,0,10.68-5.57,25.27,25.27,0,0,0,6.9-8.94,27.4,27.4,0,0,0,2.51-11.92V69A24.8,24.8,0,0,0,136.78,58.75Z" fill="#f9b429"/><path id="r" d="M72,74.53,61.89,60.3a35.5,35.5,0,0,0,9.16-3.86,28.44,28.44,0,0,0,7.11-6.1c.53-.64,1-1.3,1.49-2a29,29,0,0,0,3.18-6.29,30.79,30.79,0,0,0,1.7-10.51v-.28a30.51,30.51,0,0,0-2-11.37,27.22,27.22,0,0,0-5.81-9.09c-.3-.29-.6-.57-.93-.85a32.73,32.73,0,0,0-10.6-6.14,47,47,0,0,0-15.87-2.5H0L10.75,16.39H47.87q9.38,0,14.55,4c3.45,2.67,5.16,6.57,5.16,11.76v.28a14.18,14.18,0,0,1-5.3,11.63Q57,48.38,48,48.39H33.64l34.2,47.83H87.5l-1.09-1.53Z" fill="#f9b429"/></g><g id="roy_sheppard" data-name="roy sheppard" style="isolation:isolate"><text transform="translate(159.75 45.79)" font-size="40" fill="#fff" font-family="Montserrat-Regular, Montserrat" letter-spacing="0.05em" style="isolation:isolate">R<tspan x="30.92" y="0" letter-spacing="0.02em">O</tspan><tspan x="65.28" y="0">Y SHE</tspan><tspan x="195.04" y="0" letter-spacing="0.04em">P</tspan><tspan x="225.36" y="0" letter-spacing="0em">P</tspan><tspan x="254.28" y="0">ARD</tspan></text></g><g id="digital" style="isolation:isolate"><text transform="translate(160.03 84.79)" font-size="30" fill="#fffefe" font-family="Montserrat-Regular, Montserrat" style="isolation:isolate">DIGI<tspan x="66.09" y="0" letter-spacing="-0.03em">T</tspan><tspan x="82.26" y="0">AL</tspan></text></g><circle id="dot" cx="530.25" cy="39.29" r="7.5" fill="#f9b429"/></g></g></g></svg>