<svg xmlns="http://www.w3.org/2000/svg" viewBox="0 0 361.58 200.02"><g id="Layer_2" data-name="Layer 2"><g id="Layer_1-2" data-name="Layer 1"><g id="Layer_2-2" data-name="Layer 2"><g id="Layer_1-3" data-name="Layer 1"><path id="Path_111" data-name="Path 111" d="M209.21,94c0,.09.07.18.11.27C209.28,94.16,209.24,94.07,209.21,94Z" fill="none"/><path id="Path_112" data-name="Path 112" d="M110.83,176.69l.59.63Z" fill="none"/><path id="Path_113" data-name="Path 113" d="M23,87.54h0a2.94,2.94,0,0,0,2.46-2.24A2.94,2.94,0,0,1,23,87.54Z" fill="none"/><path id="Path_114" data-name="Path 114" d="M209.07,93.47c-.28-1.19-.26-2.83.19-3.35h0C208.81,90.64,208.79,92.28,209.07,93.47Z" fill="none"/><path id="Path_115" data-name="Path 115" d="M49.82,55.45l-1,.92h0Z" fill="none"/><path id="Path_116" data-name="Path 116" d="M46.13,59.86c1.33-.73,1.63-2.25,2.51-3.31l0,0C47.76,57.63,47.45,59.14,46.13,59.86Z" fill="none"/><path id="Path_117" data-name="Path 117" d="M251.49,154.44c0,.12-.05.25-.07.37C251.44,154.69,251.46,154.56,251.49,154.44Z" fill="none"/><path id="Path_118" data-name="Path 118" d="M21.84,90A2.75,2.75,0,0,0,23,87.58v0A2.73,2.73,0,0,1,21.84,90Z" fill="none"/><path id="Path_119" data-name="Path 119" d="M24.69,85.24,23,87.54h0Z" fill="none"/><path id="Path_120" data-name="Path 120" d="M48.84,56.37h0a3,3,0,0,0,2-1.72A3,3,0,0,1,48.84,56.37Z" fill="none"/><path id="Path_121" data-name="Path 121" d="M250.69,160.11h0c1.07-1.54.54-3.27.68-4.92C251.23,156.84,251.76,158.57,250.69,160.11Z" fill="none"/><path id="Path_123" data-name="Path 123" d="M48.78,56.39h0l0,0Z" fill="#fff"/><path id="Path_124" data-name="Path 124" d="M6.25,113c.21,0,.48.21.59.13.44-.33.88-.71.26-1.53Z" fill="none"/><path id="Path_125" data-name="Path 125" d="M2,121.19a4.35,4.35,0,0,0-1.65,5.18c.16-2,1.46-2.51,3-3A1.62,1.62,0,0,1,2,121.19Z" fill="none"/><path id="Path_126" data-name="Path 126" d="M10.46,105.3a6.61,6.61,0,0,1-.49,1c-.52.75-.39,1.11.65,1.5l.65-1.22-.7-.1-.16-.32,1.78-1.1C11.52,104.36,10.83,104.46,10.46,105.3Z" fill="none"/><path id="Path_127" data-name="Path 127" d="M11.9,104.19c.44-.22,1-.34,1-.55.16-.94.69-1.28,1.75-1.21l-1.22-1C13.29,102.64,11.56,102.62,11.9,104.19Z" fill="none"/><path id="Path_128" data-name="Path 128" d="M45.1,61.08c.25-.36.4-.95.74-1.09l.29-.13c1.33-.73,1.63-2.25,2.51-3.31l.16-.14h0l0,0a3,3,0,0,0,2-1.72.68.68,0,0,0,0-.14l-1,.93-1,.92h-.06l-.16.19c-.76.69-1.52,1.36-2.26,2.07a23.37,23.37,0,0,0-2,2.09c-.22.27-.18.76-.26,1.15l.35.09C44.66,61.68,44.89,61.39,45.1,61.08Z" fill="none"/><path id="Path_129" data-name="Path 129" d="M29,79.18c-1.47,2-2.9,4-4.35,6.07L23,87.55h0v.07a1.65,1.65,0,0,1-.18.41c-1,1.21-2,2.36-2.89,3.64-1.68,2.49-3.25,5-4.87,7.58-.25.37-.61.67-.84,1a1.2,1.2,0,0,0-.13.74c0,.08.4.21.54.15a1.44,1.44,0,0,0,.51-.53c.1-.16,0-.42.13-.57.9-1.37,1.83-2.72,2.72-4.09s1.87-2.92,2.79-4.38c.3-.49.45-1.21.88-1.45l.19-.12A2.75,2.75,0,0,0,23,87.58v0h0a2.92,2.92,0,0,0,2.46-2.24l.06-.26a1.35,1.35,0,0,1,.32-.63,15.45,15.45,0,0,0,1.88-2.11c.8-1.37,2.35-2.22,2.62-3.93a2.91,2.91,0,0,1,.39-.79l.24.23-.34-.63C30.07,77.88,29.52,78.51,29,79.18Z" fill="none"/><path id="Path_130" data-name="Path 130" d="M66.13,42.35,66,42.06a5.84,5.84,0,0,0-1.16.63c-.11.1.07.54.16,1Z" fill="none"/><path id="Path_131" data-name="Path 131" d="M50.46,71.89a3.47,3.47,0,0,0-.94.89.77.77,0,0,0,.08.72c.68.33,1.4.57,2.1.83l.11-.33c-.26-.56-.49-1.14-.79-1.68C50.91,72.13,50.52,71.85,50.46,71.89Z" fill="none"/><path id="Path_132" data-name="Path 132" d="M53.52,51.78l-.36-.4L51.39,53l.25.3Z" fill="none"/><path id="Path_133" data-name="Path 133" d="M7.65,111.08c.78-.28,1-.88.82-2.08Z" fill="none"/><path id="Path_134" data-name="Path 134" d="M361.15,19.72c-.19-1.48-.24-3.12-1.59-4.25-.21-.17-.14-.7-.14-1.07s.21-.78.08-1.05c-.83-1.68-1.75-3.34-2.65-5A6,6,0,0,0,356,7.17a25.63,25.63,0,0,0-2.08-2.09c-1.2-1-2.53-1.92-3.69-3a6.73,6.73,0,0,0-4.29-2c-2.63-.18-5.16.06-7.33,1.74a11.41,11.41,0,0,0-2.11,2,23,23,0,0,0-3.57,6.79c-1.19,3.58-2.43,7.13-2.72,11-.19,2.48-.75,4.93-1.15,7.38-.54,3.29-1.27,6.56-1.58,9.87a71.78,71.78,0,0,0-.12,9.16c.16,4.41.49,8.82.79,13.22a11.58,11.58,0,0,0,.39,1.84c.5,2.18,1,4.36,1.51,6.55.4,1.8.69,3.62,1.16,5.39.41,1.57,1,3.08,1.46,4.64.69,2.5,1.27,5,1.94,7.53.54,2.08,1.09,4.16,1.72,6.21.27.88,1,1.69,1.06,2.55a13.76,13.76,0,0,0,1.62,5.41,3,3,0,0,1,.23,3.07,34.24,34.24,0,0,1-2.48,4.55,54.13,54.13,0,0,1-4.86,5,25,25,0,0,1-2.43,1.92c-1.39,1-2.81,2-4.21,3a6.27,6.27,0,0,0-1,.83,2.44,2.44,0,0,1-3.22.11c-.94-.86-.61-2-.87-3-.42-1.64-.13-3.08,1.52-4a1.3,1.3,0,0,0,.55-.61,3.81,3.81,0,0,1,3.13-2.31,3.67,3.67,0,0,0,2.86-2,2.7,2.7,0,0,1,.95-1c1.28-.93,1.29-.92,1.58-2.24.15-.66-.09-1.13-.78-.92a25.2,25.2,0,0,0-3.65,1.4c-1.13.55-1.89,1.8-3.35,1.76s-2.72,0-4.07-.11c-2.17-.08-4.35-.22-6.52-.26-.57,0-1.14.3-1.72.35-2.16.21-4.34.36-6.5.6a3.63,3.63,0,0,1-2.69-.48,1.08,1.08,0,0,0-1.82.56c-.54,1.78-.94,3.61-1.46,5.4a19.82,19.82,0,0,1-1.26,3.64,4.28,4.28,0,0,1-4.94,1.92.8.8,0,0,1-.42-.39c-.76-1.63-1.45-3.28-1-5.15a2.72,2.72,0,0,0,0-.64h-.72q0-.63,0-1.26c.05-.42,0-1,.29-1.19.77-.48.73-1.18.8-1.9.09-1,.27-2,.28-3.07a1.57,1.57,0,0,0-.55-1.12c-1.25-.94-2.75-.1-3,1.62a7,7,0,0,1-.26,1.74c-.73,1.72-1.52,3.42-2.32,5.11a6.29,6.29,0,0,1-.74,1l-.37-.22c.07-.29.13-.58.21-.87s.37-.82.25-1c-.73-.81.48-1.88-.4-2.64,0,0,.17-.23.18-.36a2.38,2.38,0,0,0-.05-1.07,7.64,7.64,0,0,0-1.08-1.66c-1.38-1.61-2.25-1.82-3.61-.87a10.8,10.8,0,0,0-4.27,6.51,34.37,34.37,0,0,0-.6,6.38c-.14,2.3-.79,2.86-3,3.35-1.17.26-2.93.09-3.08,2.06,0,.08-.21.17-.34.21a30.88,30.88,0,0,1-3,1c-1.73.39-2.38,1.4-1.92,3.18,2.2-1,4.37-2,6.58-2.88a29.31,29.31,0,0,0,3.42-1.18,4.88,4.88,0,0,1,5-.29l.1,0a15.14,15.14,0,0,0,2-.26c.08,0,0-.68,0-1,0-.1.11-.19.11-.29.08-1.08,1-1.22,1.72-1.67.89-.57,2.41-.73,1.78-2.45-.05-.14.35-.48.58-.68.74-.64,1.54-1.21,2.23-1.91a4.48,4.48,0,0,0,.59-1.35c1.11,1.46.08,3.3,1.36,4.6V115.9l.4,0c.11.91.22,1.82.31,2.72s.11,2.05,1.11,2.42a17.14,17.14,0,0,0,3.57.73c.31,0,.67-.26,1.08-.44l-.73-.8c0-.11,0-.21,0-.32.58,0,1.16-.09,1.74-.1.34,0,.71.17,1,.07,1-.35,1.25,0,1.25,1,0,1.37.84,2.13,2,1.94.53-.08.9-.23.88-1-.05-1.29.19-2.59.23-3.89s-.06-2.7,0-4.05c0-1.14.21-2.27.35-3.4a.45.45,0,0,1,.27-.3,18.52,18.52,0,0,1,3.07-.67c1.73-.12,3.46.54,5.2,0a8.19,8.19,0,0,1,1.84-.28c1-.07,2.19-.4,3.08-.06,1.23.48,2.36-.07,3.52.18.3.07.61.09.91.13a3.44,3.44,0,0,1-.32,1.1c-.49.62-1.09,1.17-1.62,1.77-1.2,1.36-1.14,3.17-1,4.67a8,8,0,0,0,1.88,4.29,4.51,4.51,0,0,0,5.79,1.1c.7-.37,1.41-.75,2.09-1.17a12.46,12.46,0,0,0,1.67-1.21,15.83,15.83,0,0,0,2.61-2.49c.58-.82,1.46-1.05,2.09-1.65a54.06,54.06,0,0,0,4.42-4.54c1-1.16,2.43-1.93,2.81-3.56,0-.18.5-.38.76-.38s.44.29.55.51c.19.41.26.87.44,1.28.67,1.58,1.44,3.14,2.06,4.7a24.73,24.73,0,0,0,1.82,3.73c1.53,2.54,2.93,5.13,4.36,7.72a19,19,0,0,1,.84,2c.66,1.56,1.29,3.14,2,4.65a10.48,10.48,0,0,0,1.59,2.3,1.94,1.94,0,0,0,1.38.63,1.51,1.51,0,0,0,1-1,2.34,2.34,0,0,0-.21-1.56c-.64-1.19-1.55-2.27-.69-3.75.13-.22,0-.88-.18-1a3.45,3.45,0,0,1-2.09-3.2.42.42,0,0,0-.11-.18c-.83-1.16-1.16-2.66-2.49-3.52-.42-.28-.52-1-.79-1.55a6.53,6.53,0,0,0-.7-1.09,10.7,10.7,0,0,1-1.5-1.84,84.57,84.57,0,0,1-4.78-11.51,6.56,6.56,0,0,1,.19-4.35c.59-1.62,1.06-3.29,1.62-4.92.81-2.33,1.66-4.63,2.46-7,.48-1.4.93-2.81,1.32-4.24.95-3.44,1.86-6.89,2.78-10.34.49-1.84,1-3.68,1.43-5.52.41-1.68.68-3.38,1.14-5s1.13-3.5,1.67-5.27A35,35,0,0,1,357.42,54c1.5-3.32,1.94-6.88,2.66-10.37a82.88,82.88,0,0,0,1.19-9.18c.22-2.45.33-4.91.31-7.37a60.65,60.65,0,0,0-.43-7.38Z" fill="none"/><path id="Path_135" data-name="Path 135" d="M263.94,121.19c1.79-2,3.19-4,2.8-6.85-.1-.73.44-1.54.67-2.3a1.4,1.4,0,0,0,.1-.57c-.13-1-.26-2-.43-2.93a3,3,0,0,0-.37-1c-.26-.48-.62-.9-.85-1.39-.68-1.44-4-3.51-5.75-2.65-1.12.55-2.25,1.07-3.4,1.57-.63.27-1.35.8-1.88.66-1.36-.35-1.18.72-1.44,1.32a3.77,3.77,0,0,0-.13,1.35,13.68,13.68,0,0,1-2,6.13A15.35,15.35,0,0,1,248,118a16.45,16.45,0,0,1-2.17,1.46l-.36-.26c.23-.53.44-1.07.68-1.59.36-.75,1.2-1.39.45-2.38-.09-.11.08-.41.13-.64l.56.21c.55-.63,1.07-1.19,1.57-1.78a1.13,1.13,0,0,0,.21-.35c.39-.93.76-1.85,1.15-2.79l-1,0c.35-.46.58-.72.76-1a1.53,1.53,0,0,0,.32-.79,6,6,0,0,0-2.47-4.82,4,4,0,0,0-4.93.07c-.39.33-.59.88-1,1.21a2.48,2.48,0,0,1-1.27.66c-1.1.06-1.9.39-2.14,1.56-.36,1.75-.6,3.53-1.12,5.23-.93,3-2.12,6-4.74,8a3.73,3.73,0,0,0-.44.45,2.78,2.78,0,0,1-3.56.23.94.94,0,0,1-.1-.8,9.37,9.37,0,0,1,1-1.95c.63-.9,1.63-1.51,2.09-2.58.13-.3.46-.51.63-.81s.27-.78.47-1.13a4.19,4.19,0,0,0,.7-3.26,11.55,11.55,0,0,0-1.3-3.75c-1.32-2-3.61-2.42-5.36-.79a6.77,6.77,0,0,0-1.91,5.75,1.5,1.5,0,0,1-.24.71c-.11.24-.37.45-.39.69-.18,2-.61,4-.05,6a.87.87,0,0,1-.15.73c-.42.42-3.51.45-4,.07a5.94,5.94,0,0,1-2.52-3.7c-.19-.89.31-2.24-.94-2.53a11.14,11.14,0,0,0,.13-1.52c-.06-2-.17-3.92-.25-5.88,0-1.09,0-2.2-.13-3.28a1.14,1.14,0,0,0-1.62-1c-1.31.47-2.59,1-3.15,2.51a1.17,1.17,0,0,1-1.94.5,11.65,11.65,0,0,0,.76-2.35c.14-1.27,0-2.57.13-3.86,0-.53,0-.83-.55-1s-.82-.58-.29-1.12a3.6,3.6,0,0,0,0-3.73c.05.91.09,1.55.12,2.21a1.05,1.05,0,0,1-.42-.51,2.18,2.18,0,0,1-.11-.27c0-.1-.07-.21-.09-.31a1.17,1.17,0,0,1,0-.2c-.28-1.18-.26-2.82.19-3.34,0,.14.1.29.14.43a2.57,2.57,0,0,0-.12-1.32c-.33-1.06-.8-2.1.34-3a1.43,1.43,0,0,0,.21-1.11c-.86-.39-.28-.92-.13-1.29a1.87,1.87,0,0,0-.42-2.11l-.24-.26c-.49-.59-.42-.93.34-1.45a5.93,5.93,0,0,1,.58-4.27,5.44,5.44,0,0,1,.39-.55c-1.15-.67-1.13-.77-.63-1.86a4.7,4.7,0,0,0,.19-1.57,5.7,5.7,0,0,1,0-.71c.21-1.26.49-2.51.7-3.78s.39-2.65.61-4.14a1.12,1.12,0,0,0,1.83-.75,6.1,6.1,0,0,0-.34-2.34c-.07-.35-.34-.7-.33-1,0-1.13.86-2.18.27-3.4a11.66,11.66,0,0,1-.42-1.79c-.14-.47-.33-1.26-.58-1.28a2.11,2.11,0,0,0-1.67.41c-1.66,2.19-3.21,4.45-4.75,6.72-.35.5-.48,1.15-.8,1.67-.41.71-1,1.33-1.36,2.05-.65,1.27-1.15,2.61-1.81,3.88-.49.94-1.21,1.77-1.69,2.72-1.12,2.2-2.15,4.45-3.24,6.67a28.69,28.69,0,0,0-2.22,4.48c-.44,1.55-1.85,2.35-2.34,3.89a46.67,46.67,0,0,1-2.48-4.36c-.37-.7-.58-1.74-1.16-2-1-.46-.94-1-.85-1.8a1.27,1.27,0,0,0-.15-.81,11.5,11.5,0,0,1-1.31-4.11,5.77,5.77,0,0,0-.22-.58c-.54-1.74-1.16-3.47-1.61-5.23s-.81-3.74-1.12-5.63a12,12,0,0,1,0-2.54c.07-1.1.26-2.2.34-3.3.06-.84-.27-1.68.32-2.5a8.68,8.68,0,0,0,.69-1.65c.21-.5.34-1.2.73-1.44,1.4-.85,2.9-1.55,4.37-2.3a5.46,5.46,0,0,1,1.21-.54,1.37,1.37,0,0,1,1,.08c.73.59,1.44.33,2.17.11.29-.08.57-.21.87-.27.55-.14,1.11-.25,1.71-.38l2,.45c1.25.29,2.84.15,2.83,2.16a.77.77,0,0,0,.51.53,1.05,1.05,0,0,0,.69-.35,7.45,7.45,0,0,0,.75-.95,2.92,2.92,0,0,0,.3-2.15l-.27,0-.47,1.09-.23,0a1.31,1.31,0,0,1,0-.48c.31-.94-.15-1.44-1-1.79a12,12,0,0,0-5.86-1c-1,.08-1.88.51-2.85.58a14.09,14.09,0,0,0-7.41,3A9.84,9.84,0,0,0,182.13,50a14.24,14.24,0,0,0-1.88,7c0,.85-.25,1.73-.17,2.58a36,36,0,0,0,.73,4c.21,1,.61,1.92.8,2.91.79,4.06,1.64,8.09,3.59,11.8.47.88,1,1.76,1.42,2.65.93,1.75,1.85,3.51,2.77,5.26a3.5,3.5,0,0,1-.26,3.91,57.64,57.64,0,0,0-3,5.21c-.83,1.57-1.5,3.24-2.3,4.84a52.38,52.38,0,0,1-2.72,5.13,14.62,14.62,0,0,0-2,4.39,12.53,12.53,0,0,1-1.14,2.61c-1,2.06-2.46,4-2.24,6.47a1.78,1.78,0,0,1-.11.61,15.74,15.74,0,0,0-.71,7,8,8,0,0,0,3.53,5.19,31.91,31.91,0,0,0,4.43,2.17,3.57,3.57,0,0,0,2.93.13c1.37-.51,2.74-1,4.06-1.47.27.29.55.86.88.89.81.06,2-1.21,2.22-2.06a1.47,1.47,0,0,1,.15-.58c.63-.81,1.29-1.59,1.93-2.4.14-.18.37-.51.31-.61-.47-.73.09-.87.54-1.13a1.13,1.13,0,0,0,.54-.6c.31-1.57,1.93-2.63,1.65-4.42,0-.16.22-.4.38-.56a3.59,3.59,0,0,0,.54-3.19.85.85,0,0,1,.14-.77c.87-.64.65-1.43.44-2.26-.08-.31-.18-.78,0-1,1.17-1.23.87-2.8,1.06-4.25a2.63,2.63,0,0,0-.15-.78,6.41,6.41,0,0,1-.31-1.91,4,4,0,0,0-1.13-3.58.81.81,0,0,1-.11-.72,1.78,1.78,0,0,0-.16-2,3.5,3.5,0,0,1-.47-1.36,3.73,3.73,0,0,0-1.14-2.5A10.61,10.61,0,0,1,196,95.35c.71-.61.71-.61.07-1.35a.91.91,0,0,1-.2-.24,35.68,35.68,0,0,0-2-4,2.88,2.88,0,0,1-.21-3c.41-.89.71-1.83,1.12-2.92a3.85,3.85,0,0,0,.66-.8c.38-.75.61-1.58,1-2.31.68-1.18,1.46-2.31,2.19-3.47.38-.6,1-1.19,1-1.82a4.32,4.32,0,0,1,1-2.09,9,9,0,0,0,.93-1.95,4.31,4.31,0,0,0,0-1.43,3.25,3.25,0,0,0-.12-.54c.2,0,.47-.07.62,0s.21.4.39.79c.26-.5.46-.81.6-1.16a4.75,4.75,0,0,1,.37-1.12c.66-.89,1.53-1.71.52-2.67,2.54-2.12,3.41-5.16,5.18-7.91.06,0,.44.21.54.48a10.44,10.44,0,0,1,.71,2.39,6.78,6.78,0,0,1-.06,2.54c-.53,2-1.31,3.87-1.82,5.84-.42,1.63-.63,3.33-.89,5a44.71,44.71,0,0,0-.8,5.34c-.11,2.28.06,4.58.11,6.86,0,1.27,0,2.55.12,3.82s.28,2.27.36,3.4c.12,1.91.21,3.81.29,5.71.09,2.54.23,5.08.24,7.61s0,5-.21,7.47c-.11,1.43-1.16,2.7-.85,4.25,0,.16-.19.36-.26.56a3,3,0,0,0-.22.9c.07,2,0,4,.82,5.91.45,1,.76,1.2,1.59.86.12-.66.21-1.17.3-1.7l-.6-.39,1.44-3.9c-.84-.47-1.14-.82-.15-1.32.22-.12.32-.94.15-1.26a1.57,1.57,0,0,1,.39-2.3c.16-.16.14-.55.12-.84-.06-1.21-1.39-2.59.49-3.54.05,0,0-.19,0-.29l-.71-.49c-.14-1,2.94-.53.83-2.18l2.68-2.22.29.21v8c1.31-.5,1.35.13,1.3,1s0,1.6.09,2.4c.11,2.06,1.38,3.39,3,4.43a6.43,6.43,0,0,0,2.13.83c1.15.26,2.33.39,3.5.58,0-.12,0-.24,0-.35l.67-1.17.35.15c0,.32-.07.65-.08.8a7.21,7.21,0,0,1,1.1.31,24.72,24.72,0,0,0,3.44,1.58,4.05,4.05,0,0,0,2.16-.46,2.24,2.24,0,0,0,1-.88c.07-.11-.39-.56-.6-.85s-.42-.46-.38-.65.36-.35.59-.46a2.47,2.47,0,0,1,.6-.13c.88-.18,1.17.11.9,1a9.61,9.61,0,0,0-.57,1.34c-.22,1.63-.25,3.29-.56,4.89-.54,2.85-.21,5.76-.91,8.63-.43,1.76-.09,3.74,0,5.61.08,2.17.32,4.33.36,6.49a61,61,0,0,0,.59,7.76,44.83,44.83,0,0,0,1.48,6.88,4,4,0,0,0,1,1.64,1.49,1.49,0,0,0,1.25.13c.2-.06.29-.62.36-1,.21-1,.33-2,.6-3a15.7,15.7,0,0,1,.84-2c.17-.44.29-.9.45-1.37-.86-.51-.57-1.35-.44-2.14s.29-1.49.35-2.23c.08-1-.42-2.06.3-3,.1-.13,0-.4,0-.61,0-.61.05-1.23,0-1.84-.05-1.18.52-2.46-.42-3.36.18-.61.61-1.43.42-1.61-.86-.84-.17-1.24.14-1.5a8.83,8.83,0,0,1,0-1.26c.06-.4.33-.82.29-1.2-.39-3.05.67-6.19-.51-9.2a.5.5,0,0,1,.16-.46,2.64,2.64,0,0,0,.61-2.43c-.11-1.67.38-2.3,2-2.74a3.58,3.58,0,0,0,1.33-.75c.66-.55,1.24-1.19,1.82-1.77.22-.57.44-1.72.73-1.74,1.26-.09.32,1.13.82,1.75a6.11,6.11,0,0,0,.85-.42,10,10,0,0,1,1.71-1.32,5.08,5.08,0,0,0,2.64-1.91.45.45,0,0,1,.2-.16l.29-.12.19-.08a.31.31,0,0,0,.05.1c0,.11.1.21.14.31a.9.9,0,0,1,.08.21.44.44,0,0,1,0,.2c-.16,1.76-.45,3.51-.56,5.27-.24,4.27-.38,8.55-.62,12.81-.11,1.87-.28,3.74-.5,5.59-.16,1.27-.56,2.51-.68,3.79-.14,1.47-.11,3-.15,4.45a4.91,4.91,0,0,0,.13.75c.55-1.1.26-2.38,1.52-3.35a5.85,5.85,0,0,1,0,1.29c-.5,1.66-1,3.3-1.48,4.62-.5.63-1,1-1.09,1.44-.21,1-.2,2.09-.33,3.14s-.4,2.29-.53,3.44,2,2.68,3.11,2.12c.21-.1.32-.41.44-.65.32-.61.6-1.24.94-1.84.26-.44.59-.83.92-1.3-1.07-.44-1.07-.44-.08-3.55-1-.92-.8-2.58.53-4.08a14.93,14.93,0,0,1-.59-2.18c-.1-.75-.15-1.52.71-2,.14-.07.21-.4.21-.6,0-.77-.1-1.53-.15-2.29,0-.53-.05-1.05-.08-1.67l-1.15.6c.2-.48.24-.88.45-1,.81-.48.59-1.24.62-1.93.07-1.3.12-2.6.13-3.89,0-.24-.08-.62-.25-.7-.75-.39-.46-.79-.1-1.24s.67-1.14-.11-1.68a.77.77,0,0,1-.09-.76c.91-1.26,1.31-2.51.19-3.87-.07-.09,0-.33.06-.49.29-1.18.59-2.35.84-3.54a7.5,7.5,0,0,0,.33-2.24,14.67,14.67,0,0,1,.2-4.76,61.44,61.44,0,0,0,1-6.34,25.21,25.21,0,0,0,.05-2.61c0-.7,0-1.39.07-2.09s.33-.88,1-.66l-.24.9.3.11.91-2.23.6.85a2.36,2.36,0,0,1,2.8-.08,6.88,6.88,0,0,1,3.1,8.78,1.22,1.22,0,0,1-.29.42c-1.32,1.4-1.95,3.33-3.72,4.43a41.47,41.47,0,0,0-3.19,2.78,3.83,3.83,0,0,0-1.79,3.92c.13.76.59,1,1.08,1a2.69,2.69,0,0,0,1.79-.69,11.54,11.54,0,0,0,1.17-2.51,1,1,0,0,1,.29-.41A25.75,25.75,0,0,0,263.94,121.19Z" fill="none"/><path id="Path_136" data-name="Path 136" d="M122.52,115.66a1.48,1.48,0,0,0-1.3-.7,2.6,2.6,0,0,0-1.37,1.36c-.54,1.57-.6,3.36-1.36,4.79-1.06,2-2,4.06-3.86,5.61a15.76,15.76,0,0,1-8.44,3.38c-.16,0-.41-.19-.55-.36-.54-.62-1-1.29-1.61-2a3.6,3.6,0,0,0,.25-.83,24,24,0,0,0,.13-2.68c0-.67-.21-1.34-.24-2a9.3,9.3,0,0,1,.07-1.9,3.3,3.3,0,0,1,.48-1c-.38,0-.76-.09-1.14-.15,0,0-.07-.11,0-.06.42-.5.78-1,1.2-1.41a6,6,0,0,1,1-.63c.21-.13.58-.25.59-.4s-.11-.74-.29-.8a4.82,4.82,0,0,0-2-.39,6,6,0,0,0-3.78,1.83c-1.39,1.6-3.23,1.73-5.14,1.54a1.47,1.47,0,0,1-1-.5c-1.37-2.05-3.5-2-5.52-1.86-3.17.28-6,1.76-8.82,3.1a1.55,1.55,0,0,0-.33.24,12.28,12.28,0,0,0-4.54,8.22,1,1,0,0,0,0,.52c.58,1.33,1.15,2.67,1.81,4,.15.32.62.47,1,.69L78,133c-.21-.53-.42-1.06-.62-1.6a3.21,3.21,0,0,1-.21-.75,8.65,8.65,0,0,1-.1-.89c-.09-.32.13-.64.24-1,.3-.92.5-1.88.84-2.78.45-1.17,1.23-2.26.68-3.64a2.07,2.07,0,0,0,.46-.38,2.11,2.11,0,0,1,2.54-.88,4,4,0,0,0,1.32-.06l0-.17-1-.26c.91-1,1.39-1,1.81.21.47-.62.92-1.24,1.38-1.86.85.38,1.64,1,2.45.07a.5.5,0,0,1,.39-.08l3.14.6q-.09.6-.12,1.2a17,17,0,0,0,.05,3.27c.2,1.22-.66,2.46.12,3.66.12.18,0,.61-.19.86-.75,1.35-1.49,2.71-2.33,4a2.9,2.9,0,0,1-1.48,1.31c-1.91.39-3.87.56-5.82.84a3.56,3.56,0,0,0-.7.29c.15.2.27.5.47.57.94.3,1.88.53,2.74.76l.68-1.48a10.72,10.72,0,0,1,3,.47,1,1,0,0,0,1.53-.48A8.49,8.49,0,0,1,92,131.7c.08-.06.09-.24.13-.37l-.94-.45a8.34,8.34,0,0,0,.82-1c.39-.72,1.17-1.41.26-2.32-.08-.08.17-.55.33-.8s.67-.61.71-1a17.91,17.91,0,0,0,.09-2.93,16,16,0,0,0-.34-2.07c.79-.47,1.17-.35,1.42.35l2.31.18a.51.51,0,0,0,.3-.06c.89-.61,1.79-1.22,2.66-1.86,1.53-1.13,2-1.06,2.91.17-.57,2.66-1.43,5-1.48,7.43a5.81,5.81,0,0,0,3,5.07,2.38,2.38,0,0,0,3-.31,1.24,1.24,0,0,1,.73-.18l4.58-.24s.1-.07.2-.15l-1-.66c1.59-.67,2.9-1.25,4.24-1.73.12-.05.58.44.65.74a6.94,6.94,0,0,1-.3,3.09c-.28,1.28-.13,2.64-.28,3.95-.19,1.61-.51,3.2-.74,4.81q-.44,3-.82,6.08c-.24,1.86-.45,3.71-.67,5.56-.08.74-.14,1.48-.2,2.22,0,.28,0,.56,0,.84-.82,4.33-1.71,8.65-2.45,13a17.48,17.48,0,0,1-1.79,5.93c-.55,1-.48,2.27-.68,3.43s-.36,2.39-.66,3.55a40.88,40.88,0,0,0-1.15,4,6.26,6.26,0,0,1-.57,2.45c-.69,1.22-.61,1.25-1.94.55a6.1,6.1,0,0,0,0,1.13c0,.07.39.09.61.11a2.29,2.29,0,0,1,.64,0,.62.62,0,0,1,0,.53c-.16.19-.47.45-.64.4-1.24-.31-1.09.42-1,1.17a2.44,2.44,0,0,1,.1.71c-.16,1.49-.44,3-.45,4.46a3.72,3.72,0,0,0,.73,2.35c.63.68.92-.45,1.42-.68,1.68-.8,1.22-2.51,2-3.94l-1.83.55-.27-.23c2.93-1.29,2.66-3.71,2.39-6.12l.91-.13V189l-1.31-.3c.31-.38.47-.73.75-.88,1.27-.69,1.44-1.91,1.67-3.14.2-1.05-.11-2.18.76-3.11.48-.5.1-.93-.54-.92.51-.44,1.24-.77,1.43-1.29a19,19,0,0,0,.8-3.57c0-.28-.3-.63-.45-.94.13-.34.47-.79.37-1.09-.28-.82.3-1.17.66-1.69a8.36,8.36,0,0,0,.95-1.67c.53-1.38-.61-3,.69-4.3.08-.08,0-.34,0-.51a4.72,4.72,0,0,1,.67-3.8c.39-.62.47-1.23-.43-1.59a.93.93,0,0,1-.47-.75c.12-.63.22-1.5.66-1.81,1.56-1.09,1.27-2.44.88-3.91a1.5,1.5,0,0,1,.13-.81,16.2,16.2,0,0,0,1-2.84A17.19,17.19,0,0,0,117,147a1.64,1.64,0,0,1,.1-.49c.35-1.37.7-2.72,1-3.83l-1.17-.89c1.24-.32,1.45-.86,1.58-2.26.25-2.6.66-5.19,1-7.79.07-.6.67-1.34-.33-1.81a2.43,2.43,0,0,1,.22-1c.17-.4.63-.79.6-1.15a25.76,25.76,0,0,0-.51-2.87c.9-.42.84-.43,1.1-1.53.2-.84.65-1.61.87-2.45a5.06,5.06,0,0,0-.1-1.32c0-.36,0-1,.06-1,1.16-.29,1-.84.52-1.32C122.18,116.62,122.64,116,122.52,115.66Z" fill="none"/><path id="Path_137" data-name="Path 137" d="M34.1,72.56c-1,1.13-1.82,2.32-2.72,3.5l.27.27c.32-.34.63-.68,1-1a9,9,0,0,1,.9-.84,14.51,14.51,0,0,0,1.68-1.31c.18-.2,0-.72,0-1.09C34.83,72.24,34.33,72.28,34.1,72.56Z" fill="none"/><path id="Path_138" data-name="Path 138" d="M42.26,64.1l-.36-.38c-.79.79-1.6,1.55-2.35,2.36s-1.21,1.5-1.83,2.23c-.78.89-1.58,1.75-2.37,2.63l.33.29C38.55,69.49,39.77,66.2,42.26,64.1Z" fill="none"/><path id="Path_139" data-name="Path 139" d="M45.45,97.58l1.71.16a8.51,8.51,0,0,0-.87-1.11c-.4-.36-.64-.69-.13-1.1s.61-.93.07-1.48c-.07-.08.12-.58.3-.7s.52,0,.77,0c0-.35-.07-.68-.1-1l-.84-.29c.12-.62.42-1.2.29-1.68-.21-.86.08-1.08.7-1,0-.61-.23-1.35,0-1.76a1.89,1.89,0,0,0,.14-1.95,2.21,2.21,0,0,1-.08-1c.12-1,.31-2,.42-3a2.46,2.46,0,0,0-.2-.82,2.88,2.88,0,0,0-.82.49,1.35,1.35,0,0,0-.28.86c.18,2.72-.76,5.27-1.18,7.89-.53,3.42-1.12,6.82-1.71,10.23-.26,1.53-.66,3-.88,4.58s-.32,3.4-.53,5.1c-.34,2.85-.79,5.68-1.08,8.53-.35,3.42-.57,6.85-.88,10.27a10.15,10.15,0,0,1-.55,3.24,7.19,7.19,0,0,0-.75,2.61,12.41,12.41,0,0,1-.74,3.62,13.76,13.76,0,0,1-2,3c-.4.53-.43,1,0,1.37s1,.38,1.26-.29c.33-.85.6-1.72.88-2.58.18-.55.3-1.12.53-1.64s.65-1.05.87-1.62c.16-.4,0-.91.21-1.31.6-1.44,1.27-2.84,1.92-4.26H41.7c-.11-.39-.4-.82-.32-1.16a7.17,7.17,0,0,1,1.07-3c1-1.14.47-2.51,1.23-3.71l-1.42.3a18.71,18.71,0,0,1,.64-2.58c.21-.49.32-.78-.15-1.16a.8.8,0,0,1-.22-.69c0-.16.37-.25.58-.36s.4-.15.6-.21c-.77-.61-.84-1-.42-1.72a.75.75,0,0,0,0-.59,1.52,1.52,0,0,1,.16-1.75c.3-.41.58-.83.84-1.27l-.8-.5c1.15-.82,1.14-.81.77-2.27a1.09,1.09,0,0,1,.11-.77.85.85,0,0,0-.42-1.43,10,10,0,0,0,1.32-1.77c.16-.34-.15-.89-.22-1.35s-.34-1.47-.21-1.52c1-.45.51-.77.1-1.3-.12-.16.2-1,.47-1.05.91-.34,1.16-.88.68-1.72A13.77,13.77,0,0,1,45.45,97.58Z" fill="none"/><path id="Path_140" data-name="Path 140" d="M76.22,84.51c.07-.23.36-.4.55-.6a29.88,29.88,0,0,0,2.37-2.68c.81-1.17,1.4-2.51,2.2-3.69.21-.33.85-.37,1.38-.58-.8-2.28,1-3.4,2.44-4.61-.13-.48-.48-1.1-.31-1.33s.87-.41,1.22-.55c-.2-.26-.58-.56-.53-.72a8.17,8.17,0,0,1,1.22-3,4.48,4.48,0,0,0,1-3.49c0-.57-.45-1.07-.29-1.47A26.42,26.42,0,0,1,89,59L87.64,57.1l1.65-.17-1.72-1.56,1.06-.24c0-1.37,0-2.63,0-3.88a1.81,1.81,0,0,0-.36-.84c-.66-1-1.29-2.13-2-3.11-1.22-1.56-2-3.43-3.88-4.52-2-1.19-4-2.49-6.36-2.69a29.86,29.86,0,0,0-4.23,0,13.67,13.67,0,0,0-2.61.5c-.19,0-.3.42-.45.63.27,0,.62.14.79,0,.49-.35.78-.28,1.25.1a2.57,2.57,0,0,0,1.55.41c.87,0,1.74-.24,2.62-.3a1,1,0,0,1,.79.35c.49,1.26,1.28.84,1.82.56.84.72,1.62,1.31,2.32,2,1.24,1.18,2.46,2.39,3.62,3.64a12,12,0,0,1,1.09,1.75A8.93,8.93,0,0,1,86,52.1a26.14,26.14,0,0,1,.5,4.75c0,.95-.27,1.91-.31,2.87a20.69,20.69,0,0,1-1.25,7.43c-.33.77-.57,1.58-.86,2.37a12.24,12.24,0,0,1-.83,2.22c-1.68,2.7-3.42,5.36-5.16,8-1,1.53-2,3.07-3.08,4.52a12.45,12.45,0,0,1-2.36,2.34c-1.75,1.35-2.5,3.47-4.16,4.93-3,2.62-5.72,5.53-8.5,8.37-2,2.09-4,4.26-6,6.39-.21.22-.5.36-.73.57-2,1.78-4,3.51-5.93,5.38A2.12,2.12,0,0,0,48,115.4c.27.14.7,0,1,0-.1-.27-.21-.54-.3-.81s-.23-.42-.17-.51.33-.17.51-.24l1.1-.37-.74-.91a3.76,3.76,0,0,0-.28-.32c.16-.19.25-.42.42-.5,2.32-1.14,3.66-3.36,5.48-5,1-.94,1.92-2,2.93-3,.44-.43,1-.73,1.46-1.14,1.18-1,2.36-2.09,3.48-3.2,1.34-1.33,2.62-2.72,3.93-4.08,1.44-1.51,2.85-3,4.33-4.51a6,6,0,0,1,1.46-.8,1.06,1.06,0,0,0,.21-.25l-.8-.46c.32-.36.47-.55.63-.72C73.92,87.26,75.62,86.37,76.22,84.51Z" fill="none"/><path id="Path_141" data-name="Path 141" d="M66.59,130a16.76,16.76,0,0,0-2.78-1.69c-2.28-1.17-3.9-3.12-5.72-4.82a25.78,25.78,0,0,1-2-2.57c-1.41-1.7-2.86-3.36-4.2-4.94-.33.24-.77.59-1.24.9a.91.91,0,0,0-.28,1.43,22.36,22.36,0,0,0,1.63,2c.46.55,1.3.9.83,1.89-.06.13.21.49.4.68.93,1,1.88,1.9,2.82,2.84s1.71,1.7,2.59,2.52A34.76,34.76,0,0,0,61.78,131a9.06,9.06,0,0,0,2.21.8,2.73,2.73,0,0,1,1,.56c.37.39.64.53,1.14.19a17.2,17.2,0,0,1,1.69-.92A8.93,8.93,0,0,0,66.59,130Z" fill="none"/><path id="Path_142" data-name="Path 142" d="M263.94,121.19c1.79-2,3.19-4,2.8-6.85-.1-.73.44-1.54.67-2.3a1.4,1.4,0,0,0,.1-.57c-.13-1-.26-2-.43-2.93a3.27,3.27,0,0,0-.36-1c-.27-.48-.63-.9-.86-1.39-.68-1.44-4-3.51-5.75-2.65-1.12.55-2.25,1.07-3.4,1.57-.63.27-1.35.8-1.88.66-1.36-.35-1.18.72-1.44,1.32a3.77,3.77,0,0,0-.13,1.35,13.68,13.68,0,0,1-2,6.13A15.12,15.12,0,0,1,248,118a16.45,16.45,0,0,1-2.17,1.46l-.36-.26c.23-.53.44-1.07.68-1.59.36-.75,1.2-1.39.45-2.38-.09-.11.08-.41.13-.64l.56.21c.55-.63,1.07-1.19,1.57-1.78a1.13,1.13,0,0,0,.21-.35c.39-.93.76-1.85,1.15-2.79l-1,0c.35-.46.58-.72.76-1a1.53,1.53,0,0,0,.32-.79,6,6,0,0,0-2.47-4.82,4,4,0,0,0-4.93.07c-.39.33-.59.88-1,1.21a2.41,2.41,0,0,1-1.26.66c-1.1.06-1.9.39-2.14,1.56-.36,1.75-.6,3.53-1.12,5.23-.93,3-2.12,6-4.74,8a3.73,3.73,0,0,0-.44.45,2.78,2.78,0,0,1-3.56.23.94.94,0,0,1-.1-.8,9.37,9.37,0,0,1,1-1.95c.63-.9,1.63-1.51,2.09-2.58.13-.3.46-.51.63-.81s.27-.78.47-1.13a4.15,4.15,0,0,0,.7-3.26,11.55,11.55,0,0,0-1.3-3.75c-1.32-2-3.61-2.42-5.36-.79a6.81,6.81,0,0,0-1.91,5.75,1.5,1.5,0,0,1-.24.71c-.11.24-.37.45-.39.69-.18,2-.61,4-.05,6a.87.87,0,0,1-.15.73c-.41.42-3.51.45-4,.07a5.94,5.94,0,0,1-2.52-3.7c-.19-.89.31-2.24-.94-2.53a13,13,0,0,0,.14-1.52c-.07-2-.18-3.92-.26-5.88,0-1.09,0-2.2-.13-3.28a1.13,1.13,0,0,0-1.62-1c-1.31.47-2.59,1-3.15,2.51a1.17,1.17,0,0,1-1.94.5,11.65,11.65,0,0,0,.76-2.35c.15-1.27,0-2.57.13-3.86,0-.53,0-.83-.55-1s-.82-.58-.29-1.12a3.6,3.6,0,0,0,0-3.73c.05.91.09,1.55.12,2.21a1.05,1.05,0,0,1-.42-.51,2.18,2.18,0,0,1-.11-.27l-.09-.31a1.17,1.17,0,0,1,0-.2c-.28-1.18-.26-2.82.19-3.34h0l.15.43a2.68,2.68,0,0,0-.13-1.32c-.33-1.06-.8-2.1.34-3a1.43,1.43,0,0,0,.21-1.11c-.86-.39-.28-.92-.13-1.29a1.87,1.87,0,0,0-.41-2.11,2.94,2.94,0,0,1-.25-.26c-.48-.59-.42-.93.34-1.45a5.93,5.93,0,0,1,.58-4.27,5.44,5.44,0,0,1,.39-.55c-1.15-.67-1.13-.77-.63-1.86a4.7,4.7,0,0,0,.19-1.57,5.7,5.7,0,0,1,0-.71c.21-1.26.49-2.51.7-3.78s.39-2.65.61-4.14a1.12,1.12,0,0,0,1.83-.75,6.1,6.1,0,0,0-.34-2.34c-.07-.35-.34-.7-.33-1,0-1.13.86-2.18.27-3.4a11.66,11.66,0,0,1-.42-1.79c-.14-.47-.33-1.26-.58-1.28a2.12,2.12,0,0,0-1.67.41c-1.66,2.19-3.21,4.45-4.75,6.72-.35.5-.48,1.15-.8,1.67-.41.71-1,1.33-1.36,2.05-.65,1.27-1.15,2.61-1.81,3.88-.49.94-1.21,1.77-1.69,2.72-1.12,2.2-2.15,4.45-3.24,6.67a28.69,28.69,0,0,0-2.22,4.48c-.44,1.55-1.85,2.35-2.33,3.89a44.61,44.61,0,0,1-2.49-4.36c-.37-.7-.58-1.74-1.16-2-1-.46-.94-1-.85-1.8a1.27,1.27,0,0,0-.15-.81,11.7,11.7,0,0,1-1.31-4.11,4.07,4.07,0,0,0-.22-.58c-.54-1.74-1.16-3.47-1.61-5.23s-.81-3.74-1.12-5.63a12,12,0,0,1,0-2.54c.07-1.1.26-2.2.34-3.3.07-.84-.27-1.68.32-2.5a8.68,8.68,0,0,0,.69-1.65c.21-.5.34-1.2.73-1.44,1.4-.85,2.9-1.55,4.37-2.3a5.53,5.53,0,0,1,1.22-.54,1.35,1.35,0,0,1,1,.08c.73.59,1.44.33,2.17.11.29-.08.58-.21.87-.27.55-.14,1.11-.25,1.71-.38l2,.45c1.25.29,2.84.15,2.83,2.16a.77.77,0,0,0,.51.53,1.05,1.05,0,0,0,.69-.35,7.45,7.45,0,0,0,.75-.95,2.92,2.92,0,0,0,.3-2.15l-.27,0-.47,1.09-.23,0a1.31,1.31,0,0,1,0-.48c.31-.94-.15-1.44-1-1.79a12,12,0,0,0-5.86-1c-1,.08-1.88.51-2.85.58a14.09,14.09,0,0,0-7.41,3A9.84,9.84,0,0,0,182.13,50a14.24,14.24,0,0,0-1.88,7c.05.85-.25,1.73-.17,2.58a36,36,0,0,0,.73,4c.21,1,.61,1.92.81,2.91.78,4.06,1.63,8.09,3.58,11.8.47.88,1,1.76,1.42,2.65.93,1.75,1.85,3.51,2.77,5.26a3.5,3.5,0,0,1-.26,3.91,57.64,57.64,0,0,0-3,5.21c-.83,1.57-1.5,3.24-2.3,4.84a52.38,52.38,0,0,1-2.72,5.13,14.62,14.62,0,0,0-2,4.39,12.53,12.53,0,0,1-1.14,2.61c-1,2.06-2.46,4-2.24,6.47a1.78,1.78,0,0,1-.11.61,15.74,15.74,0,0,0-.71,7,8,8,0,0,0,3.53,5.19,31.91,31.91,0,0,0,4.43,2.17,3.57,3.57,0,0,0,2.93.13c1.37-.51,2.74-1,4.06-1.47.27.29.55.86.88.89.81.06,2-1.21,2.22-2.06a1.47,1.47,0,0,1,.15-.58c.63-.81,1.29-1.59,1.93-2.4.14-.18.37-.51.31-.61-.47-.73.09-.87.54-1.13a1.13,1.13,0,0,0,.54-.6c.31-1.57,1.93-2.63,1.65-4.42,0-.16.22-.4.38-.56a3.59,3.59,0,0,0,.54-3.19.85.85,0,0,1,.14-.77c.87-.64.65-1.43.44-2.26-.08-.31-.18-.78,0-1,1.17-1.23.87-2.8,1.07-4.25a3,3,0,0,0-.16-.78,6.41,6.41,0,0,1-.31-1.91,4,4,0,0,0-1.13-3.58.81.81,0,0,1-.11-.72,1.78,1.78,0,0,0-.16-2,3.67,3.67,0,0,1-.47-1.36,3.73,3.73,0,0,0-1.14-2.5A10.61,10.61,0,0,1,196,95.35c.71-.61.71-.61.07-1.35a.91.91,0,0,1-.2-.24,35.68,35.68,0,0,0-2-4,2.88,2.88,0,0,1-.21-3c.41-.89.71-1.83,1.12-2.92a3.85,3.85,0,0,0,.66-.8c.38-.75.61-1.58,1-2.31.68-1.18,1.46-2.31,2.19-3.47.38-.6,1-1.19,1-1.82a4.42,4.42,0,0,1,1-2.09,9,9,0,0,0,.93-1.95,4.31,4.31,0,0,0,0-1.43,2.5,2.5,0,0,0-.13-.54c.21,0,.48-.07.63,0s.21.4.39.79c.26-.5.46-.81.6-1.16a4.75,4.75,0,0,1,.37-1.12c.66-.89,1.52-1.71.52-2.67,2.54-2.12,3.41-5.16,5.18-7.91.06,0,.44.21.54.48a10.44,10.44,0,0,1,.71,2.39,6.78,6.78,0,0,1-.06,2.54c-.53,2-1.31,3.87-1.82,5.84-.42,1.63-.63,3.33-.89,5a44.71,44.71,0,0,0-.8,5.34c-.11,2.28.06,4.58.11,6.86,0,1.27,0,2.55.12,3.82s.28,2.27.36,3.4q.18,2.86.28,5.71c.1,2.54.24,5.08.25,7.61s0,5-.21,7.47c-.11,1.43-1.16,2.7-.85,4.25,0,.16-.19.36-.26.56a3,3,0,0,0-.22.9c.07,2,0,4,.82,5.91.45,1,.76,1.2,1.59.86.12-.66.21-1.17.3-1.7l-.6-.39,1.44-3.9c-.84-.47-1.14-.82-.15-1.32.22-.12.32-.94.15-1.26a1.56,1.56,0,0,1,.39-2.3c.16-.16.14-.55.12-.84-.06-1.21-1.39-2.59.49-3.54.05,0,0-.19,0-.29l-.71-.49c-.14-1,2.94-.53.83-2.18l2.68-2.22.29.21v8c1.31-.5,1.35.13,1.3,1a21.4,21.4,0,0,0,.09,2.4c.11,2.06,1.38,3.39,3,4.43a6.43,6.43,0,0,0,2.13.83c1.15.26,2.33.39,3.5.58,0-.12,0-.24,0-.35l.67-1.17.35.15c0,.32-.07.65-.08.8a7.21,7.21,0,0,1,1.1.31,24.72,24.72,0,0,0,3.44,1.58,4.05,4.05,0,0,0,2.16-.46,2.24,2.24,0,0,0,1-.88c.07-.11-.39-.56-.6-.85s-.42-.46-.39-.65.37-.35.59-.46a2.66,2.66,0,0,1,.61-.13c.88-.18,1.17.11.89,1a9.54,9.54,0,0,0-.56,1.34c-.22,1.63-.25,3.29-.56,4.89-.54,2.85-.21,5.76-.91,8.63-.43,1.76-.09,3.74,0,5.61.09,2.17.33,4.33.37,6.49a61,61,0,0,0,.59,7.76,44.83,44.83,0,0,0,1.48,6.88,4,4,0,0,0,1,1.64,1.49,1.49,0,0,0,1.25.13c.2-.06.28-.62.36-1,.21-1,.33-2,.6-3a17.28,17.28,0,0,1,.83-2c.18-.44.3-.9.45-1.37-.86-.51-.56-1.35-.43-2.14s.29-1.49.35-2.23c.08-1-.42-2.06.3-3,.1-.13,0-.4,0-.61,0-.61.05-1.23,0-1.84-.05-1.18.52-2.46-.42-3.36.18-.61.61-1.43.42-1.61-.86-.84-.17-1.24.14-1.5a8.83,8.83,0,0,1,0-1.26c.06-.4.33-.82.28-1.2-.38-3.05.68-6.19-.51-9.2a.54.54,0,0,1,.17-.46,2.64,2.64,0,0,0,.61-2.43c-.11-1.67.38-2.3,2-2.74a3.66,3.66,0,0,0,1.33-.75c.65-.55,1.24-1.19,1.82-1.77.22-.57.44-1.72.73-1.74,1.26-.09.32,1.13.82,1.75a6.11,6.11,0,0,0,.85-.42,10,10,0,0,1,1.71-1.32,5,5,0,0,0,2.63-1.91.54.54,0,0,1,.21-.16,1.78,1.78,0,0,1,.29-.12l.19-.08a1,1,0,0,0,0,.1c.05.11.11.21.15.31a1.8,1.8,0,0,1,.08.21.65.65,0,0,1,0,.2c-.16,1.76-.45,3.51-.56,5.27-.24,4.27-.38,8.55-.62,12.81-.11,1.87-.28,3.74-.5,5.59-.16,1.27-.56,2.51-.68,3.79-.15,1.47-.12,3-.15,4.45a4.91,4.91,0,0,0,.13.75c.55-1.1.26-2.38,1.52-3.35a5.16,5.16,0,0,1,0,1.29c-.5,1.66-1,3.3-1.47,4.62-.5.63-1,1-1.09,1.44-.21,1-.2,2.09-.34,3.14s-.39,2.29-.52,3.44,2,2.68,3.11,2.12c.21-.1.32-.41.44-.65.32-.61.6-1.24.94-1.84.26-.44.59-.83.92-1.3-1.07-.44-1.07-.44-.08-3.55-1-.92-.8-2.58.53-4.08a14.93,14.93,0,0,1-.59-2.18c-.1-.75-.15-1.52.71-2,.14-.07.2-.4.2-.6,0-.77-.09-1.53-.14-2.29,0-.53-.05-1.05-.08-1.67l-1.16.6c.21-.48.25-.88.46-1,.81-.48.58-1.24.62-1.93.07-1.3.11-2.6.13-3.89,0-.24-.09-.62-.25-.7-.76-.39-.46-.79-.1-1.24s.66-1.14-.11-1.68a.77.77,0,0,1-.09-.76c.91-1.26,1.31-2.51.19-3.87-.07-.09,0-.33.06-.49.28-1.18.59-2.35.84-3.54a7.85,7.85,0,0,0,.34-2.24,14.39,14.39,0,0,1,.19-4.76,58.84,58.84,0,0,0,1-6.34,25.21,25.21,0,0,0,.05-2.61c0-.7,0-1.39.07-2.09s.33-.88,1-.66c-.09.34-.16.63-.24.9l.3.11c.3-.72.59-1.44.91-2.23l.6.85a2.36,2.36,0,0,1,2.8-.08,6.9,6.9,0,0,1,3.11,8.78,1.37,1.37,0,0,1-.29.42c-1.33,1.4-2,3.33-3.73,4.43a41.47,41.47,0,0,0-3.19,2.78,3.85,3.85,0,0,0-1.79,3.92c.13.76.6,1,1.08,1a2.7,2.7,0,0,0,1.8-.69,12,12,0,0,0,1.16-2.51,1.22,1.22,0,0,1,.29-.41A25.75,25.75,0,0,0,263.94,121.19Zm-65.67-9.69c-.29,1-.52,1.66-.67,2.33-.27,1.15-.47,2.3-.71,3.46a34.51,34.51,0,0,1-4.46,11.61c-1.25,2-3.2,2.51-5.23,2.72a13.4,13.4,0,0,1-3.72-.33,5.21,5.21,0,0,1-3.43-1.89c-.6-.8-1.57-1.35-2.05-2.2s-1.51-1.65-.83-2.88a.46.46,0,0,0-.11-.37c-1,0-.26-.9-.86-1.36l.63.07c.12-1,.26-1.92.36-2.87s.07-1.65.18-2.47c.14-1.08.32-2.17,1.81-2.39l-.55-.71,1.92-1.82c-1.08-.77-1.34-1.29-.34-1.84.17-.09.08-.56.21-.81a17.29,17.29,0,0,1,1.08-1.86c.3-.44.91-.79,1-1.25.29-1.48,1.36-2.42,2.16-3.55.53-.75,1.25-1.43.14-2.39.72-.19,1.52,0,1.37-1,0-.25.53-.58.81-.88a3.35,3.35,0,0,0,.63-.68c.71-1.59,1.38-3.2,2.07-4.8,0-.06,0-.18.07-.18,1.18,0,1-1.17,1.48-1.75l.26-.31C195.56,97.48,198.3,104.26,198.27,111.5Zm28,5.64c.08-1,.18-2.06.23-3.07a1.58,1.58,0,0,0-.22-.54,2.77,2.77,0,0,1,1.3-3.6,2,2,0,0,0,.43-.29,3.72,3.72,0,0,0,.4-.49c-.29-.18-.59-.26-.67-.44a1,1,0,0,1,0-.85c.42-.47,2.13.12,2.4.71,1.07,2.3.05,4.26-1.09,6.14-.62,1-1.21,2.21-2.77,2.43Zm10.38,17.35c-.09,1.94-.08,3.89-.16,5.83-.05,1.29-.19,2.58-.29,3.88a9.84,9.84,0,0,0-.15,1.33c.11,1.73.32,3.47.37,5.2a19,19,0,0,1-.35,2.35c-.07.83,0,1.66-.06,2.48-.05.65-.26,1.28-.3,1.93,0,.49.13,1,.13,1.47a3.51,3.51,0,0,1-.22.89c-.27-.17-.69-.27-.8-.51-.33-.76-.53-1.58-.81-2.36a11.49,11.49,0,0,1-.32-6.79,14.59,14.59,0,0,0-.11-2.86c0-1.77.13-3.53.17-5.3,0-.48-.16-.95-.18-1.44a3.68,3.68,0,0,1,.06-1.82c1-1.73.79-3.62,1-5.47s.29-3.72.56-5.56c.21-1.42-.09-2.94.77-4.25.1-.15-.18-.5-.19-.76a2.44,2.44,0,0,1,.18-.93.66.66,0,0,1,.52-.17,4.35,4.35,0,0,1,.36.79l-.36.06c.18,2.55.42,5.1.5,7.65.05,1.45-.22,2.91-.28,4.36Zm7.95-19.56a13.22,13.22,0,0,1-3.2,5.52c-.47.46-.91,1-1.36,1.46-.56-4.43-.24-8.65,1.95-12.58-.66-.53-.49-1.28.25-1.79a5.52,5.52,0,0,0,1.68-1.72,1,1,0,0,1,1.42-.59,3.49,3.49,0,0,1,1.36,5.44,16.13,16.13,0,0,0-2.11,4.26Zm6.86,39.51a2.41,2.41,0,0,0-.07.37c0,.13,0,.25-.05.38-.14,1.65.38,3.39-.68,4.92h0c-1.15-1.14-1.21-2.55-.07-4.55a13.68,13.68,0,0,1,1-1.49,2.29,2.29,0,0,0-.12.37Z"/><path id="Path_143" data-name="Path 143" d="M252.07,118.21l.19-.08a.3.3,0,0,0,0,.1.3.3,0,0,1,0-.1Z"/><path id="Path_144" data-name="Path 144" d="M252.52,118.75a1,1,0,0,0-.07-.21A1,1,0,0,1,252.52,118.75Z"/><path id="Path_145" data-name="Path 145" d="M209.06,93.47l.06.2Z"/><path id="Path_146" data-name="Path 146" d="M209.38,80c-.76.53-.84.87-.34,1.46-.49-.59-.42-.93.34-1.46a5.89,5.89,0,0,1,.58-4.27A6,6,0,0,0,209.38,80Z"/><path id="Path_147" data-name="Path 147" d="M252.07,118.21l-.29.11Z"/><path id="Path_148" data-name="Path 148" d="M209.26,90.12c.05.14.1.28.14.43C209.36,90.4,209.31,90.26,209.26,90.12Z"/><path id="Path_149" data-name="Path 149" d="M361.15,19.72c-.19-1.48-.24-3.12-1.59-4.25-.21-.17-.14-.7-.14-1.07s.21-.78.08-1.05c-.83-1.68-1.75-3.34-2.65-5A6.49,6.49,0,0,0,356,7.17a27.34,27.34,0,0,0-2.08-2.09c-1.2-1-2.53-1.92-3.69-3a6.73,6.73,0,0,0-4.29-2c-2.63-.18-5.16.06-7.33,1.74a11.41,11.41,0,0,0-2.11,2,23,23,0,0,0-3.57,6.79c-1.19,3.58-2.43,7.13-2.72,11-.19,2.48-.75,4.93-1.15,7.38-.54,3.29-1.27,6.56-1.58,9.87a71.78,71.78,0,0,0-.12,9.16c.16,4.41.49,8.82.79,13.22a11.58,11.58,0,0,0,.39,1.84c.5,2.18,1,4.36,1.51,6.55.4,1.8.69,3.62,1.16,5.39.41,1.57,1,3.08,1.46,4.64.69,2.5,1.27,5,1.94,7.53.54,2.08,1.09,4.16,1.72,6.21.27.88,1,1.69,1.06,2.55a13.76,13.76,0,0,0,1.62,5.41,3,3,0,0,1,.23,3.07,34.24,34.24,0,0,1-2.48,4.55,54.13,54.13,0,0,1-4.86,5,25,25,0,0,1-2.43,1.92c-1.39,1-2.81,2-4.21,3a6.27,6.27,0,0,0-1,.83,2.44,2.44,0,0,1-3.22.11c-.94-.86-.61-2-.87-3-.42-1.64-.13-3.08,1.52-4a1.3,1.3,0,0,0,.55-.61,3.81,3.81,0,0,1,3.13-2.31,3.67,3.67,0,0,0,2.86-2,2.7,2.7,0,0,1,.95-1c1.28-.93,1.29-.92,1.58-2.24.15-.66-.09-1.13-.78-.92a25.2,25.2,0,0,0-3.65,1.4c-1.13.55-1.89,1.8-3.35,1.76s-2.72,0-4.07-.11c-2.17-.08-4.35-.22-6.52-.26-.57,0-1.14.3-1.72.35-2.16.21-4.34.36-6.5.6a3.63,3.63,0,0,1-2.69-.48,1.08,1.08,0,0,0-1.82.56c-.54,1.78-.94,3.61-1.46,5.4a19.82,19.82,0,0,1-1.26,3.64,4.28,4.28,0,0,1-4.94,1.92.8.8,0,0,1-.42-.39c-.76-1.63-1.45-3.28-1-5.15a2.72,2.72,0,0,0,0-.64h-.72q0-.63,0-1.26c.05-.42,0-1,.29-1.19.77-.48.73-1.18.8-1.9.09-1,.27-2,.28-3.07a1.57,1.57,0,0,0-.55-1.12c-1.25-.94-2.75-.1-3,1.62a7,7,0,0,1-.26,1.74c-.73,1.72-1.52,3.42-2.32,5.11a6.29,6.29,0,0,1-.74,1l-.37-.22c.07-.29.13-.58.21-.87s.37-.82.25-1c-.73-.81.48-1.88-.4-2.64,0,0,.17-.23.18-.36a2.38,2.38,0,0,0-.05-1.07,7.64,7.64,0,0,0-1.08-1.66c-1.38-1.61-2.25-1.82-3.61-.87a10.8,10.8,0,0,0-4.27,6.51,34.37,34.37,0,0,0-.6,6.38c-.14,2.3-.79,2.86-3,3.35-1.17.26-2.93.09-3.08,2.06,0,.08-.21.17-.34.21a30.88,30.88,0,0,1-3,1c-1.73.39-2.38,1.4-1.92,3.18,2.2-1,4.37-2,6.58-2.88a29.31,29.31,0,0,0,3.42-1.18,4.88,4.88,0,0,1,5-.29l.1,0a15.14,15.14,0,0,0,2-.26c.08,0,0-.68,0-1,0-.1.11-.19.11-.29.08-1.08,1-1.22,1.72-1.67.89-.57,2.41-.73,1.78-2.45-.05-.14.35-.48.58-.68.74-.64,1.54-1.21,2.23-1.91a4.48,4.48,0,0,0,.59-1.35c1.11,1.46.08,3.3,1.36,4.6V115.9l.4,0c.11.91.22,1.82.31,2.72s.11,2.05,1.11,2.42a17.14,17.14,0,0,0,3.57.73c.31,0,.67-.26,1.08-.44l-.73-.8,0-.32c.58,0,1.16-.09,1.74-.1.34,0,.71.17,1,.07,1-.35,1.25,0,1.25,1,0,1.37.84,2.13,2,1.94.53-.08.9-.23.88-1-.05-1.29.19-2.59.23-3.89s-.07-2.7,0-4.05c0-1.14.21-2.27.35-3.4a.45.45,0,0,1,.27-.3,18.52,18.52,0,0,1,3.07-.67c1.73-.12,3.46.54,5.2,0a8.19,8.19,0,0,1,1.84-.28c1-.07,2.19-.4,3.08-.06,1.23.48,2.36-.07,3.52.18.3.07.61.09.91.13a3.44,3.44,0,0,1-.32,1.1c-.49.62-1.09,1.17-1.62,1.77-1.2,1.36-1.14,3.17-1,4.67a8,8,0,0,0,1.88,4.29,4.51,4.51,0,0,0,5.79,1.1c.7-.37,1.41-.75,2.09-1.17a12.46,12.46,0,0,0,1.67-1.21,15.83,15.83,0,0,0,2.61-2.49c.58-.82,1.46-1.05,2.09-1.65a54.06,54.06,0,0,0,4.42-4.54c1-1.16,2.43-1.93,2.81-3.56,0-.18.5-.38.76-.38s.44.29.55.51c.19.41.26.87.44,1.28.67,1.58,1.44,3.14,2,4.7a25.78,25.78,0,0,0,1.83,3.73c1.52,2.54,2.93,5.13,4.36,7.72a19,19,0,0,1,.84,2c.66,1.56,1.28,3.14,2,4.65a10.15,10.15,0,0,0,1.59,2.3,1.94,1.94,0,0,0,1.38.63,1.51,1.51,0,0,0,1-1,2.34,2.34,0,0,0-.21-1.56c-.64-1.19-1.56-2.27-.69-3.75.13-.22,0-.88-.18-1a3.45,3.45,0,0,1-2.09-3.2.42.42,0,0,0-.11-.18c-.83-1.16-1.16-2.66-2.49-3.52-.42-.28-.52-1-.79-1.55a7.23,7.23,0,0,0-.7-1.09,10.7,10.7,0,0,1-1.5-1.84,84.57,84.57,0,0,1-4.78-11.51,6.5,6.5,0,0,1,.19-4.35c.59-1.62,1.06-3.29,1.62-4.92.8-2.33,1.66-4.63,2.46-7,.48-1.4.93-2.81,1.32-4.24.95-3.44,1.86-6.89,2.78-10.34.49-1.84,1-3.68,1.43-5.52.4-1.68.68-3.38,1.14-5s1.13-3.5,1.67-5.27A35,35,0,0,1,357.42,54c1.5-3.32,1.94-6.88,2.66-10.37a80.55,80.55,0,0,0,1.18-9.18,72.55,72.55,0,0,0,.32-7.37,60.65,60.65,0,0,0-.43-7.38ZM330,105.21l.15.3L328,106.58l-.16-.32ZM278.08,117c-.16.16-.47.18-.8.29,0-1,0-1.92,0-2.8,0-.65-.16-1.3-.15-1.94a2.26,2.26,0,0,1,.28-1.25c.42-.61.7-1.12-.2-1.74.83-.25.87-1.47,2-1,.13.05.42-.44.67-.6.45-.27.94-.49,1.42-.73a7.18,7.18,0,0,0,.47,1.19c.75,1.31.08,2.48-.3,3.68a8.92,8.92,0,0,0-.18,1c0,.21,0,.47-.11.6-1,1.12-2,2.23-3.09,3.32Zm2.86.94c-.5.11-.93.57-1.42.8a3.09,3.09,0,0,1-.92.07l5.15-4.55a1.24,1.24,0,0,1,.19.21c-.92,1.23-1.1,3.07-3,3.47ZM358.73,34.9c-.26,2.61-.63,5.21-1.06,7.8-.3,1.75-.8,3.47-1.2,5.2,0,.14-.14.28-.12.4.42,2.13-1,3.92-1.1,6a16,16,0,0,1-1.18,4c-.64,1.9-1.34,3.78-2,5.69-.3.86-.57,1.74-.79,2.62A44,44,0,0,0,350,72.26a27.33,27.33,0,0,1-2.14,6.59c-.48,1.27-.58,2.69-1.09,4-.7,1.73-.32,3.71-1.44,5.34-.37.55-.25,1.42-.47,2.1-.84,2.52-1.73,5-2.63,7.54a11.69,11.69,0,0,1-.67,1.32c-.28-.26-.46-.35-.51-.49-.83-2.64-1.7-5.28-2.47-8-1.14-4-2.23-7.94-3.31-11.92a24.62,24.62,0,0,0-.56-2.74c-1.38-3.38-1.61-7-2.2-10.51-.18-1.08-.71-2.09-1-3.17a15.21,15.21,0,0,1-.18-2.15c-.06-.62-.13-1.27-1.16-1.3,0-2.32.05-4.62,0-6.93-.06-1.82-.34-3.63-.35-5.45a19.64,19.64,0,0,1,.49-3.11l-1.11-.45c1.16-.68,1-1.75,1.06-2.79.13-2.53.25-5.07.52-7.59.18-1.64.66-3.25,1-4.89.12-.64,0-1.32.16-1.94,1.13-4.87,1.75-9.87,3.92-14.44a22.59,22.59,0,0,0,.95-2.65,2.13,2.13,0,0,0,.18-.7c0-1.53.17-1.82,1.63-2.34l.6-.19c1-.33,1.15-.78.68-1.69A8.17,8.17,0,0,1,344,2.93a5.93,5.93,0,0,0,1.88,0,4.39,4.39,0,0,1,3.83,1.64c1,1,2.22,1.69,3.1,2.73,1.25,1.49,2.29,3.17,3.4,4.77.08.11,0,.3.11.4,2.06,2.64,2,5.87,2.55,9,.35,1.9.07,3.78.37,5.63.42,2.67-.24,5.24-.5,7.85Z"/><path id="Path_150" data-name="Path 150" d="M122.52,115.66a1.48,1.48,0,0,0-1.3-.7,2.6,2.6,0,0,0-1.37,1.36c-.54,1.57-.6,3.36-1.36,4.79-1.06,2-2,4.06-3.86,5.61a15.76,15.76,0,0,1-8.44,3.38c-.16,0-.41-.19-.55-.36-.54-.62-1-1.29-1.61-2a3.6,3.6,0,0,0,.25-.83,24,24,0,0,0,.13-2.68c0-.67-.21-1.34-.24-2a9.3,9.3,0,0,1,.07-1.9,3.3,3.3,0,0,1,.48-1c-.38,0-.76-.09-1.14-.15,0,0-.07-.11,0-.06.42-.5.78-1,1.2-1.41a6,6,0,0,1,1-.63c.21-.13.58-.25.59-.4s-.11-.74-.29-.8a4.82,4.82,0,0,0-2-.39,6,6,0,0,0-3.78,1.83c-1.39,1.6-3.23,1.73-5.14,1.54a1.47,1.47,0,0,1-1-.5c-1.37-2.05-3.5-2-5.52-1.86-3.17.28-6,1.76-8.82,3.1a2.62,2.62,0,0,0-.34.24,12.31,12.31,0,0,0-4.53,8.22,1,1,0,0,0,0,.52c.58,1.33,1.15,2.67,1.8,4,.16.32.63.47,1,.69L78,133l-.63-1.6a4.61,4.61,0,0,1-.21-.75c-.05-.29-.06-.59-.09-.89s.13-.64.24-1c.3-.92.49-1.88.84-2.78.45-1.17,1.22-2.26.68-3.64a2,2,0,0,0,.45-.38,2.13,2.13,0,0,1,2.55-.88A3.9,3.9,0,0,0,83.1,121l0-.17-1-.26c.9-1,1.39-1,1.81.21.47-.62.92-1.24,1.38-1.86.85.38,1.64,1,2.45.07a.49.49,0,0,1,.39-.08l3.14.6q-.09.6-.12,1.2a17.83,17.83,0,0,0,0,3.27c.21,1.22-.65,2.46.13,3.66.12.18,0,.61-.19.86-.76,1.35-1.49,2.71-2.33,4a2.9,2.9,0,0,1-1.48,1.31c-1.91.39-3.88.56-5.82.84a3.56,3.56,0,0,0-.7.29c.15.2.27.5.47.57.94.3,1.88.53,2.74.76l.68-1.48a10.72,10.72,0,0,1,3,.47,1,1,0,0,0,1.53-.48A8.49,8.49,0,0,1,92,131.7c.08-.06.08-.24.13-.37l-.94-.45a7.43,7.43,0,0,0,.81-1c.4-.72,1.18-1.41.27-2.32-.08-.08.17-.55.33-.8s.66-.61.71-1a16.86,16.86,0,0,0,.08-2.93,14.41,14.41,0,0,0-.34-2.07c.8-.47,1.17-.35,1.43.35l2.31.18a.52.52,0,0,0,.3-.06c.89-.61,1.79-1.22,2.66-1.86,1.53-1.13,2-1.06,2.9.17-.56,2.66-1.42,5-1.47,7.43a5.79,5.79,0,0,0,3,5.07,2.38,2.38,0,0,0,3-.31,1.22,1.22,0,0,1,.73-.18c1.52-.09,3-.16,4.58-.24,0,0,.1-.07.2-.15l-1-.66c1.6-.67,2.9-1.25,4.24-1.73.12-.05.59.44.66.74a6.94,6.94,0,0,1-.3,3.09c-.29,1.28-.13,2.64-.29,3.95-.18,1.61-.5,3.2-.74,4.81-.29,2-.55,4.06-.81,6.08-.24,1.86-.45,3.71-.67,5.56q-.12,1.11-.21,2.22a7.85,7.85,0,0,1,0,.84c-.82,4.33-1.71,8.65-2.45,13a17.28,17.28,0,0,1-1.8,5.93c-.54,1-.47,2.27-.67,3.43s-.37,2.39-.66,3.55a36,36,0,0,0-1.15,4,6.26,6.26,0,0,1-.57,2.45c-.69,1.22-.61,1.25-1.95.55a7.11,7.11,0,0,0,0,1.13c0,.07.39.09.6.11a2.36,2.36,0,0,1,.65,0,.62.62,0,0,1,0,.53c-.16.19-.47.45-.65.4-1.23-.31-1.08.42-.94,1.17a2.82,2.82,0,0,1,.09.71c-.15,1.49-.43,3-.44,4.46a3.72,3.72,0,0,0,.73,2.35c.62.68.92-.45,1.41-.68,1.69-.8,1.22-2.51,2-3.94l-1.83.55-.27-.23c2.93-1.29,2.66-3.71,2.39-6.12l.91-.13V189l-1.31-.3c.31-.38.47-.73.75-.88,1.27-.69,1.44-1.91,1.67-3.14.2-1.05-.11-2.18.76-3.11.47-.5.1-.93-.55-.92.52-.44,1.25-.77,1.44-1.29a18.23,18.23,0,0,0,.79-3.57c0-.28-.29-.63-.45-.94.13-.34.48-.79.38-1.09-.28-.82.3-1.17.65-1.69a8.41,8.41,0,0,0,1-1.67c.53-1.38-.62-3,.69-4.3.08-.08,0-.34,0-.51a4.77,4.77,0,0,1,.68-3.8c.39-.62.47-1.23-.43-1.59a.94.94,0,0,1-.48-.75c.13-.63.23-1.5.66-1.81,1.56-1.09,1.28-2.44.89-3.91a1.41,1.41,0,0,1,.13-.81,15.37,15.37,0,0,0,1-2.84A17.18,17.18,0,0,0,117,147a1.63,1.63,0,0,1,.09-.49c.35-1.37.71-2.72,1-3.83l-1.16-.89c1.24-.32,1.45-.86,1.58-2.26.25-2.6.66-5.19.95-7.79.07-.6.67-1.34-.32-1.81a2.43,2.43,0,0,1,.22-1c.17-.4.63-.79.6-1.15a25.76,25.76,0,0,0-.51-2.87c.9-.42.83-.43,1.09-1.53.21-.84.66-1.61.88-2.45a5.08,5.08,0,0,0-.11-1.32c0-.36,0-1,.06-1,1.17-.29,1-.84.52-1.32C122.18,116.62,122.64,116,122.52,115.66Zm-12.09,62.28-.35-.41.75-.83h0l.6.62Z"/><path id="Path_151" data-name="Path 151" d="M76.22,84.51c.07-.23.36-.4.55-.6a29.88,29.88,0,0,0,2.37-2.68c.81-1.17,1.4-2.51,2.2-3.69.21-.33.85-.37,1.38-.58-.8-2.28,1-3.4,2.44-4.61-.13-.48-.48-1.1-.31-1.33s.87-.41,1.22-.55c-.2-.26-.58-.56-.53-.72a8.17,8.17,0,0,1,1.22-3,4.48,4.48,0,0,0,1-3.49c0-.57-.45-1.07-.29-1.47A26.42,26.42,0,0,1,89,59L87.64,57.1l1.65-.17-1.72-1.56,1.06-.24c0-1.37,0-2.63,0-3.88a1.81,1.81,0,0,0-.36-.84c-.66-1-1.29-2.13-2-3.11-1.22-1.56-2-3.43-3.88-4.52-2-1.19-4-2.49-6.36-2.69a29.86,29.86,0,0,0-4.23,0,13.67,13.67,0,0,0-2.61.5c-.19,0-.3.42-.45.63.27,0,.62.14.79,0,.49-.35.78-.28,1.25.1a2.57,2.57,0,0,0,1.55.41c.87,0,1.74-.24,2.62-.3a1,1,0,0,1,.79.35c.49,1.26,1.28.84,1.82.56.84.72,1.62,1.31,2.32,2,1.24,1.18,2.46,2.39,3.62,3.64a12,12,0,0,1,1.09,1.75A8.93,8.93,0,0,1,86,52.1a26.14,26.14,0,0,1,.5,4.75c0,.95-.27,1.91-.31,2.87a20.69,20.69,0,0,1-1.25,7.43c-.33.77-.57,1.58-.86,2.37a12.24,12.24,0,0,1-.83,2.22c-1.68,2.7-3.42,5.36-5.16,8-1,1.53-2,3.07-3.08,4.52a12.45,12.45,0,0,1-2.36,2.34c-1.75,1.35-2.5,3.47-4.16,4.93-3,2.62-5.72,5.53-8.5,8.37-2,2.09-4,4.26-6,6.39-.21.22-.5.36-.73.57-2,1.78-4,3.51-5.93,5.38A2.12,2.12,0,0,0,48,115.4c.27.14.7,0,1,0-.1-.27-.21-.54-.3-.81s-.23-.42-.17-.51.33-.17.51-.24l1.1-.37-.74-.91a3.76,3.76,0,0,0-.28-.32c.16-.19.25-.42.42-.5,2.32-1.14,3.66-3.36,5.48-5,1-.94,1.92-2,2.93-3,.44-.43,1-.73,1.46-1.14,1.18-1,2.36-2.09,3.48-3.2,1.34-1.33,2.62-2.72,3.93-4.08,1.44-1.51,2.85-3,4.33-4.51a6,6,0,0,1,1.46-.8,1.06,1.06,0,0,0,.21-.25l-.8-.46c.32-.36.47-.55.63-.72C73.92,87.26,75.62,86.37,76.22,84.51Z"/><path id="Path_152" data-name="Path 152" d="M45.45,97.58l1.71.16a8.51,8.51,0,0,0-.87-1.11c-.4-.36-.64-.69-.13-1.1s.61-.93.07-1.48c-.07-.08.12-.58.3-.7s.52,0,.77,0c0-.35-.07-.68-.1-1l-.84-.29c.12-.62.42-1.2.29-1.68-.21-.86.08-1.08.7-1,0-.61-.23-1.35,0-1.76a1.89,1.89,0,0,0,.14-1.95,2.21,2.21,0,0,1-.08-1c.12-1,.31-2,.42-3a2.46,2.46,0,0,0-.2-.82,2.88,2.88,0,0,0-.82.49,1.35,1.35,0,0,0-.28.86c.18,2.72-.76,5.27-1.18,7.89-.53,3.42-1.12,6.82-1.71,10.23-.26,1.53-.66,3-.88,4.58s-.32,3.4-.53,5.1c-.34,2.85-.79,5.68-1.08,8.53-.35,3.42-.57,6.85-.88,10.27a10.15,10.15,0,0,1-.55,3.24,7.19,7.19,0,0,0-.75,2.61,12.41,12.41,0,0,1-.74,3.62,13.76,13.76,0,0,1-2,3c-.4.53-.43,1,0,1.37s1,.38,1.26-.29c.33-.85.6-1.72.88-2.58.18-.55.3-1.12.53-1.64s.65-1.05.87-1.62c.16-.4,0-.91.21-1.31.6-1.44,1.27-2.84,1.92-4.26H41.7c-.11-.39-.4-.82-.32-1.16a7.17,7.17,0,0,1,1.07-3c1-1.14.47-2.51,1.23-3.71l-1.42.3a18.71,18.71,0,0,1,.64-2.58c.21-.49.32-.78-.15-1.16a.8.8,0,0,1-.22-.69c0-.16.37-.25.58-.36s.4-.15.6-.21c-.77-.61-.84-1-.42-1.72a.75.75,0,0,0,0-.59,1.52,1.52,0,0,1,.16-1.75c.3-.41.58-.83.84-1.27l-.8-.5c1.15-.82,1.14-.81.77-2.27a1.09,1.09,0,0,1,.11-.77.85.85,0,0,0-.42-1.43,10,10,0,0,0,1.32-1.77c.16-.34-.15-.89-.22-1.35s-.34-1.47-.21-1.52c1-.45.51-.77.1-1.3-.12-.16.2-1,.47-1.05.91-.34,1.16-.88.68-1.72A13.77,13.77,0,0,1,45.45,97.58Z"/><path id="Path_153" data-name="Path 153" d="M66.59,130a16.76,16.76,0,0,0-2.78-1.69c-2.28-1.17-3.9-3.12-5.72-4.82a25.78,25.78,0,0,1-2-2.57c-1.41-1.7-2.86-3.36-4.2-4.94-.33.24-.77.59-1.24.9a.91.91,0,0,0-.28,1.43,24.12,24.12,0,0,0,1.62,2c.47.55,1.31.9.84,1.89-.06.13.21.49.4.68.92,1,1.88,1.9,2.82,2.84s1.71,1.7,2.59,2.52A33.47,33.47,0,0,0,61.78,131a8.91,8.91,0,0,0,2.21.8,2.61,2.61,0,0,1,1,.56c.38.39.65.53,1.15.19a18.26,18.26,0,0,1,1.68-.92A8.46,8.46,0,0,0,66.59,130Z"/><path id="Path_154" data-name="Path 154" d="M23,87.61a1.38,1.38,0,0,1-.18.41c-1,1.22-2,2.37-2.89,3.65-1.67,2.49-3.25,5-4.87,7.57-.24.38-.6.68-.84,1.05a1.17,1.17,0,0,0-.13.74c0,.07.4.21.54.14a1.3,1.3,0,0,0,.51-.53c.1-.16,0-.42.13-.57.9-1.37,1.83-2.72,2.72-4.08s1.87-2.92,2.79-4.39c.31-.48.45-1.2.88-1.44l.19-.12A2.7,2.7,0,0,0,23,87.61Z"/><path id="Path_155" data-name="Path 155" d="M23,87.55h0v0l0,0h0Z"/><path id="Path_156" data-name="Path 156" d="M23,87.55h0v0Z"/><path id="Path_158" data-name="Path 158" d="M29,79.18c-1.47,2-2.9,4-4.35,6.06L23,87.55a2.94,2.94,0,0,0,2.46-2.24,2.16,2.16,0,0,0,.05-.27,1.43,1.43,0,0,1,.33-.62,15,15,0,0,0,1.88-2.12c.79-1.36,2.35-2.21,2.62-3.92a3,3,0,0,1,.39-.8l.24.24-.34-.63C30.07,77.88,29.52,78.51,29,79.18Z"/><path id="Path_164" data-name="Path 164" d="M42.26,64.1l-.36-.38c-.79.79-1.6,1.55-2.35,2.36s-1.21,1.5-1.83,2.23c-.78.89-1.58,1.75-2.37,2.63l.33.29C38.55,69.49,39.77,66.2,42.26,64.1Z"/><path id="Path_165" data-name="Path 165" d="M2,121.19a4.35,4.35,0,0,0-1.65,5.18c.16-2,1.46-2.51,3-3A1.62,1.62,0,0,1,2,121.19Z"/><path id="Path_166" data-name="Path 166" d="M34.1,72.56c-1,1.13-1.82,2.32-2.72,3.5l.27.27c.32-.34.63-.68,1-1a9,9,0,0,1,.9-.84,14.51,14.51,0,0,0,1.68-1.31c.18-.2,0-.72,0-1.09C34.83,72.24,34.33,72.28,34.1,72.56Z"/><path id="Path_167" data-name="Path 167" d="M45.1,61.08c.25-.36.4-.95.74-1.09l.29-.13c1.32-.72,1.63-2.23,2.49-3.28-.76.68-1.53,1.36-2.26,2.06a22.11,22.11,0,0,0-2,2.1c-.22.27-.19.76-.26,1.15l.34.08C44.66,61.68,44.89,61.39,45.1,61.08Z"/><path id="Path_168" data-name="Path 168" d="M48.8,56.41h0l-.13.15Z"/><path id="Path_169" data-name="Path 169" d="M48.78,56.39h0l-.16.19,0,0A1.83,1.83,0,0,1,48.78,56.39Z"/><path id="Path_170" data-name="Path 170" d="M50.46,71.89a3.47,3.47,0,0,0-.94.89.77.77,0,0,0,.08.72c.68.33,1.4.57,2.1.83l.11-.33c-.26-.56-.49-1.14-.79-1.68C50.91,72.13,50.52,71.85,50.46,71.89Z"/><path id="Path_171" data-name="Path 171" d="M10.46,105.3a6.61,6.61,0,0,1-.49,1c-.52.75-.39,1.11.65,1.5l.65-1.22-.7-.1-.16-.32,1.78-1.1C11.52,104.36,10.83,104.46,10.46,105.3Z"/><path id="Path_172" data-name="Path 172" d="M11.9,104.19c.44-.22,1-.34,1-.55.16-.94.69-1.28,1.75-1.21l-1.22-1C13.29,102.64,11.56,102.62,11.9,104.19Z"/><path id="Path_173" data-name="Path 173" d="M6.25,113c.21,0,.48.21.59.13.44-.33.88-.71.26-1.53Z"/><path id="Path_174" data-name="Path 174" d="M66.13,42.35,66,42.06a5.84,5.84,0,0,0-1.16.63c-.11.1.07.54.16,1Z"/><path id="Path_175" data-name="Path 175" d="M53.52,51.78l-.36-.4L51.39,53l.25.3Z"/><path id="Path_176" data-name="Path 176" d="M50.79,54.66l0-.14-1,.93-1,.92A3,3,0,0,0,50.79,54.66Z"/><path id="Path_178" data-name="Path 178" d="M48.83,56.38h0l0,0h0Z"/><path id="Path_179" data-name="Path 179" d="M48.8,56.41h0l0,0h0Z"/><path id="Path_180" data-name="Path 180" d="M48.8,56.41l0,0h0l0,0Z"/><path id="Path_181" data-name="Path 181" d="M48.8,56.41Z"/><path id="Path_182" data-name="Path 182" d="M7.65,111.08c.78-.28,1-.88.82-2.08Z"/><path id="Path_188" data-name="Path 188" d="M250.63,155.55c-1.14,2-1.08,3.42.07,4.56h0C249.55,159,249.49,157.56,250.63,155.55Z" fill="#fff"/><path id="Path_193" data-name="Path 193" d="M110.08,177.53l.35.41,1-.61-.6-.63Z" fill="#fff"/><path id="Path_194" data-name="Path 194" d="M110.83,176.69l-.75.84Z" fill="#fff"/></g></g></g></g></svg>