<svg xmlns="http://www.w3.org/2000/svg" width="100" height="100"><path d="M94.497 5.5A18.057 18.057 0 0 0 81.251 0h-62.5A18.063 18.063 0 0 0 5.497 5.5a18.062 18.062 0 0 0-5.5 13.25v62.5a18.063 18.063 0 0 0 5.5 13.25A18.061 18.061 0 0 0 18.75 100h62.5a18.783 18.783 0 0 0 18.747-18.751V18.75a18.063 18.063 0 0 0-5.5-13.25Zm-18 32.976a17.262 17.262 0 0 1 .066 1.758 39.394 39.394 0 0 1-6.479 21.517 41.034 41.034 0 0 1-7.843 8.919 35.211 35.211 0 0 1-10.938 6.184 39.8 39.8 0 0 1-13.671 2.313 38.369 38.369 0 0 1-20.963-6.119 26.382 26.382 0 0 0 3.255.195 27.011 27.011 0 0 0 16.993-5.86 12.972 12.972 0 0 1-7.91-2.734 13.9 13.9 0 0 1-4.851-6.77 18.332 18.332 0 0 0 2.538.259 12.726 12.726 0 0 0 3.32-.52 13.677 13.677 0 0 1-8.007-4.718 13 13 0 0 1-3.256-8.691v-.13a16.144 16.144 0 0 0 6.51 1.692 12.9 12.9 0 0 1-5.924-11.395 13.54 13.54 0 0 1 1.888-6.9 38.753 38.753 0 0 0 12.5 10.091A38.708 38.708 0 0 0 49.48 41.8a12.566 12.566 0 0 1-.325-3.125A13.672 13.672 0 0 1 62.826 25a13 13 0 0 1 9.962 4.3 27.2 27.2 0 0 0 8.725-3.32 13.294 13.294 0 0 1-6.054 7.617 28.983 28.983 0 0 0 7.876-2.214 26.588 26.588 0 0 1-6.838 7.094Z" fill="#474747"/></svg>