<svg xmlns="http://www.w3.org/2000/svg" width="130.254" height="128.34" viewBox="0 0 130.254 128.34"><g transform="translate(0 0)"><path d="M126,30.387c6.747-6.814,8.073-12.486-2.568-21.14-11.675-9.559-17.359-8.006-25.542.56C90.75,17.246,90.2,17.824,82.8,25.478a1.058,1.058,0,0,0-.106.13C77.539,30.957,73.68,35,67.7,41.2c-.72-.724-3.023-3.074-3.679-3.74a1.023,1.023,0,0,0-.293-.7,1.009,1.009,0,0,0-.678-.291C51.2,24.416,40.764,13.425,30.05,1.787a1.021,1.021,0,0,0-1.381-.106A159.032,159.032,0,0,0,2.607,27.852a1.017,1.017,0,0,0,.069,1.337C15.655,42.556,28.99,55.932,41.517,68.44c-.761.787-29.746,30.857-28.926,30.2-1.565,4.124-3.158,8.191-4.749,12.261a1,1,0,0,0-.25.647c-3.75,9.589-5.382,13.835-6.533,16.873a1.018,1.018,0,0,0,1.156,1.357c6.537-1.353,31.457-6.586,31.457-6.586C34.2,123.053,64.617,92.209,65,91.82c11.664,11.646,24.077,24.1,36.159,36.572a1.015,1.015,0,0,0,1.329.114c9.013-6.57,17.567-15.239,26.922-27.284a1.016,1.016,0,0,0-.126-1.381C116.5,88.39,103.857,76.646,91.7,64.921,108.848,47.7,120.17,36.253,126,30.387ZM84.789,26.351c2.769-2.865,5.524-5.715,8.277-8.58C99.651,23.232,110.42,35.046,114.2,39.4q-3.906,3.934-7.831,7.868C87.594,29.917,86.559,29.246,84.789,26.351ZM99.36,11.213c7.42-7.766,11.943-9.266,22.786-.391,3.8,3.095,7.6,6.84,6.954,11.162v.006c-.4,2.777-2.7,5.1-4.543,6.962-2.989,3.009-5.959,6-8.928,9.009C110,31.533,101.017,21.791,94.471,16.312ZM39.02,63.067V61.2h3.5v2.283h-1.4a.509.509,0,0,0,0,1.017h1.4v2.067C41.366,65.417,40.184,64.231,39.02,63.067ZM35.72,59.3V57.728H38v2.456H36.774a.473.473,0,0,0-.4.24c-.264-.267-.527-.527-.791-.791A.506.506,0,0,0,35.72,59.3ZM34.7,58.75l-1.023-1.023H34.7ZM38,61.2v.848l-.848-.848ZM59.165,48.524h1.5l-1.5,1.556Zm-2.6,4.267v-.966h.93C57.179,52.145,56.87,52.469,56.56,52.79ZM52.416,57.1l-1.587,1.652V56.166h1.587Zm-2.6,2.71q-1.489,1.547-2.977,3.1V59.118h2.977ZM43.535,64.5H45.3q-.882.919-1.768,1.839ZM29.2,3.864c1.15,1.247,2.307,2.478,3.459,3.719l-3.762,3.762a1.017,1.017,0,0,0,1.438,1.438l3.709-3.709q1.151,1.236,2.3,2.472L34.988,12.9a1.017,1.017,0,0,0,1.438,1.438l1.3-1.3c.72.769,1.443,1.532,2.165,2.3L38.418,16.81a1.017,1.017,0,1,0,1.438,1.438l1.434-1.432q1.038,1.1,2.077,2.193l-1.316,1.316a1.017,1.017,0,0,0,1.438,1.438l1.278-1.278c.621.653,1.241,1.314,1.862,1.965l-3.316,3.316a1.017,1.017,0,1,0,1.438,1.438l3.28-3.28c.781.816,1.561,1.615,2.342,2.427l-.966.966a1.017,1.017,0,0,0,1.438,1.438l.94-.94q1.1,1.138,2.191,2.271L52.837,31.23a1.017,1.017,0,0,0,1.438,1.438l1.113-1.113c.7.722,1.4,1.451,2.1,2.169l-1.019,1.019a1.017,1.017,0,0,0,1.438,1.438l1.007-1.007c.822.84,1.642,1.67,2.464,2.507L58.3,40.758A1.017,1.017,0,0,0,59.741,42.2L62.8,39.132c.787.8,1.577,1.611,2.364,2.407l-.773.773a1,1,0,0,0,.6,1.713q-1.8,1.88-3.609,3.756a.474.474,0,0,0-.409-.267H58.656a.509.509,0,0,0-.509.509c0,.065.047.11.069.167-.022.057-.069.1-.069.167v2.584a.5.5,0,0,0-.3-.126H56.56v-.423a.509.509,0,0,0-1.017,0v.415h-.185a.509.509,0,1,0,0,1.017h.185v1.923c0,.028.024.045.031.071q-.693.723-1.388,1.443a.493.493,0,0,0-.273-.112h-.478V53.132a.509.509,0,0,0-1.017,0v2.016h-1.75c-.043,0-.071.037-.112.047a.484.484,0,0,0-.236-.1.509.509,0,0,0-.509.509v2.5H46.835v-.423a.509.509,0,1,0-1.017,0V58.1H44.764a.509.509,0,0,0,0,1.017h1.054v4.366H43.535V61.2h1.418a.509.509,0,1,0,0-1.017H43.535V56.955a.509.509,0,1,0-1.017,0v3.231h-3.5V57.7a.5.5,0,0,0,.431-.476.509.509,0,0,0-.509-.509H35.72v-.364a.509.509,0,1,0-1.017,0v.364H32.668c-9.2-9.221-18.639-18.757-27.913-28.3A157.179,157.179,0,0,1,29.2,3.864ZM22.243,123,9.85,111.352c1.337-3.422,2.671-6.851,3.992-10.309,5.3,6.812,10.9,14.177,17.512,20.568-2.96.614-5.9,1.231-8.844,1.849a1.01,1.01,0,0,0-.267-.464Zm-6.024,1.6a.487.487,0,0,0,.287.118c-.38.079-.765.159-1.145.24a.493.493,0,0,0-.114-.275l-1.066-1.066,2.785-2.785,1.274,1.2a.476.476,0,0,0-.283.118l-1.736,1.736a.5.5,0,0,0,0,.718Zm-3.994,1.013-.022-.022,1.255-1.255.844.844Zm-4.558.954-1.184-1.184,2.037-2.037,2.354,2.354c0,.065.049.12.075.181l-3.282.686Zm-3.08-1.642.458.458L4,126.419C4.2,125.916,4.393,125.422,4.587,124.921Zm1.54-3.97L7.8,122.624l-2.037,2.037-.775-.775q.571-1.471,1.139-2.934ZM9.059,113.4l2.553,2.4-2.625,2.625-.887-.889a.493.493,0,0,0-.633-.037c.132-.338,1.552-4,1.591-4.1Zm3.294,3.095,3.868,3.636-2.763,2.763-2.244-2.244,1.436-1.436a.509.509,0,0,0-.72-.72l-1.436,1.436-.785-.787Zm-3.113,6.13,1.255-1.255,2.244,2.244-1.255,1.255Zm.535-1.976L8.519,121.9l-.855-.855a.47.47,0,0,0,.228-.094l1.1-1.1ZM5.765,126.1l.714.714-1.8.378Zm1.51-8.1a.478.478,0,0,0,.106.256l.889.887-1.1,1.1a.462.462,0,0,0-.094.228l-.549-.549C6.778,119.277,7.024,118.634,7.274,118Zm9.528,6.655c.045-.022.1-.018.136-.057l1.736-1.736a.506.506,0,0,0,.128-.307l1.463,1.375-3.463.724Zm16.584-3.841c-6.775-6.4-12.517-14.045-18.5-21.744,6.993-7.259,46.6-48.45,53.561-55.7,4.987-5.17,9.021-9.39,14.922-15.514,1.984,3.032,3.082,3.774,21.565,20.865Q97.244,56.46,89.521,64.225C74.666,79.234,67.714,86.2,61,92.97a.486.486,0,0,0-.116-.281l-1.1-1.1,1-1a.509.509,0,0,0-.72-.72l-1,1-1.713-1.715a.509.509,0,0,0-.72.72l1.715,1.715L54.731,95.2l-1.9-1.9c-.01-.01-.024-.006-.035-.014a.494.494,0,0,0-.033-.641.508.508,0,0,0-.72,0l-8.413,8.413a.509.509,0,0,0,.72.72l2.8-2.8,3.591,3.591a.509.509,0,0,0,.72-.72l-3.591-3.591,4.242-4.242v0l1.9,1.9-3.158,3.158a.509.509,0,0,0,.72.72l3.158-3.158,1.322,1.322c-5.821,5.87-14.11,14.238-22.668,22.851ZM56.772,97.234l-1.32-1.32L59.063,92.3l1.1,1.1a.487.487,0,0,0,.285.118ZM71.1,95.041h3.3l.1,3.4C73.358,97.3,72.237,96.176,71.1,95.041Zm30.9,31.3c-8.761-9.034-17.685-18.051-26.364-26.753h5.188a.509.509,0,0,0,0-1.017h-5.3l-.108-3.526h2.4a.509.509,0,0,0,0-1.017H75.387l-.055-1.78a.491.491,0,0,0-.525-.492.509.509,0,0,0-.492.525l.053,1.748H70.28c-.055,0-.092.043-.14.059l-3.121-3.123A1.5,1.5,0,0,0,67.6,90.5h2.378v2.193a.509.509,0,0,0,1.017,0V90.5h2.387a.509.509,0,0,0,0-1.017H71V87.511a.509.509,0,0,0-1.017,0V89.48H67.391c-.041,0-.069.035-.108.045,1.213-1.219,2.415-2.435,3.626-3.654.067.031.122.083.2.083h4.985a.46.46,0,0,0,.769,0h.663a.509.509,0,1,0,0-1.017h-.537V81.521a.509.509,0,1,0-1.017,0v3.416H71.838q4.111-4.138,8.212-8.275h.464v3.526h-2.8a.509.509,0,1,0,0,1.017h2.92a.455.455,0,0,0,.769,0h.234a.509.509,0,1,0,0-1.017h-.11V76.662h2.287v.547a.509.509,0,0,0,1.017,0V76.54a.455.455,0,0,0,0-.769v-2.3a.509.509,0,0,0-1.017,0v2.177H81.407a.466.466,0,0,0-.212-.136q1.886-1.9,3.774-3.8h2.362v2.667a.509.509,0,0,0,1.017,0V71.71h1.6a.509.509,0,0,0,0-1.017h-1.6v-.73a.509.509,0,0,0-1.017,0v.73H85.981q2.139-2.161,4.285-4.319c.8.773,1.622,1.546,2.429,2.319l-.956.958a1.017,1.017,0,0,0,1.438,1.438l.991-.991q1.138,1.09,2.283,2.179l-1.28,1.28A1.017,1.017,0,0,0,96.61,75l1.314-1.314c.73.694,1.457,1.386,2.191,2.079L98.8,77.069a1.017,1.017,0,1,0,1.438,1.438l1.355-1.355c.655.619,1.316,1.235,1.976,1.851l-3.508,3.508A1.017,1.017,0,0,0,101.5,83.95l3.554-3.554c.822.769,1.636,1.54,2.462,2.309l-1.361,1.359A1.017,1.017,0,0,0,107.6,85.5l1.412-1.41c.787.73,1.583,1.457,2.372,2.185a1.01,1.01,0,0,0-.287.191l-1.5,1.5a1.017,1.017,0,0,0,1.438,1.438l1.5-1.5a.993.993,0,0,0,.228-.358c.769.708,1.534,1.416,2.305,2.122-.026.022-.059.031-.085.057l-1.758,1.758a1.017,1.017,0,1,0,1.438,1.438l1.758-1.758a.882.882,0,0,0,.1-.155q1.648,1.508,3.3,3.007a.97.97,0,0,0-.452.246l-1.506,1.5a1.017,1.017,0,0,0,1.438,1.438l1.506-1.5a.981.981,0,0,0,.265-.551c2.051,1.86,4.1,3.725,6.159,5.571-8.767,11.186-16.816,19.361-25.227,25.614Z" transform="translate(-0.991 -1.461)" fill="#474747"/></g><g transform="translate(14.802 15.872)"><path d="M23.408,15.813a9.484,9.484,0,0,0-7-6.283c-.507-.389-3.335-.431-3.79.385A7.324,7.324,0,0,0,8.773,13.9c-2.238,5.75,3.261,12.145,9.965,10.289,3.786-1.044,5.89-4.336,4.669-8.372ZM18.2,22.225c-4.946,1.365-9.213-3.259-7.528-7.591,2.149-5.524,9.316-3.107,10.792,1.768.881,2.928-.566,5.078-3.264,5.823Z" transform="translate(-8.266 -9.262)" fill="#474747"/></g><g transform="translate(119.999 96.416)"><path d="M60.267,52.088a1.018,1.018,0,0,0,1.438,0l1.506-1.5a1.017,1.017,0,1,0-1.438-1.438l-1.506,1.5A1.018,1.018,0,0,0,60.267,52.088Z" transform="translate(-59.97 -48.849)" fill="#474747"/></g><g transform="translate(93.738 47.67)"><path d="M48.653,29.187l-1.084,1.084a.509.509,0,1,0,.72.72l1.084-1.084.848.848a.509.509,0,1,0,.72-.72l-.848-.848,2.077-2.077.205.205a.509.509,0,0,0,.72-.72l-.309-.309a.507.507,0,0,0-.509-.509l-.737-.737a.509.509,0,0,0-.72.72l.633.633L49.377,28.47l-1.445-1.445a.509.509,0,1,0-.72.72Z" transform="translate(-47.063 -24.89)" fill="#474747"/></g><g transform="translate(28.063 101.431)"><path d="M31.452,52.627,30.178,53.9l-2.437-2.437a.509.509,0,0,0-.72.72l2.437,2.437-3.972,3.972L23.68,56.786,24.862,55.6a.509.509,0,0,0-.72-.72L22.923,56.1a.463.463,0,0,0-.645.645L18.721,60.3l-.543-.543a.509.509,0,0,0-.72.72l.543.543-3.068,3.068a.509.509,0,0,0,.72.72l3.068-3.068,2.165,2.167.859.859a.509.509,0,0,0,.72-.72l-.5-.5,3.52-3.52.348.346a.509.509,0,1,0,.72-.72l-.348-.346,3.972-3.972.525.525a.509.509,0,0,0,.72-.72l-.525-.525,1.274-1.274a.509.509,0,1,0-.72-.718Zm-10.2,10.2-1.807-1.807,3.52-3.52,1.807,1.807Z" transform="translate(-14.784 -51.313)" fill="#474747"/></g><g transform="translate(59.457 70.759)"><path d="M31.081,50.1l1.174-1.174,2.739,2.739a.509.509,0,1,0,.72-.72l-2.739-2.739,5.866-5.866.995.995-3.52,3.52a.509.509,0,0,0,.72.72l3.52-3.52.867.867a.509.509,0,0,0,.72-.72l-.867-.867,3.266-3.266a.472.472,0,0,0,.665-.022.5.5,0,0,0,.022-.665l1.593-1.593a.509.509,0,0,0-.72-.72l-1.577,1.577L42.27,36.388a.509.509,0,0,0-.72.72l2.256,2.256-3.249,3.249-1.03-1.03a.487.487,0,0,0-.049-.6.508.508,0,0,0-.72,0l-6.537,6.537a.465.465,0,0,0-.647.647l-1.211,1.211a.508.508,0,1,0,.718.718Z" transform="translate(-30.213 -36.238)" fill="#474747"/></g><g transform="translate(75.329 58.132)"><path d="M38.886,42.809l2.979-2.979,1.086,1.086a.509.509,0,0,0,.72-.72L42.585,39.11,45.8,35.893a.485.485,0,0,0,.124-.3l.9.9-.362.362a.509.509,0,0,0,.72.72L51.7,33.067l.094.094a.509.509,0,0,0,.72-.72l-.094-.094.307-.307a.509.509,0,0,0-.72-.72l-.307.307-1.445-1.445a.509.509,0,0,0-.72.72l1.445,1.445-3.43,3.43-3.068-3.068a.509.509,0,1,0-.72.72l1.622,1.624a.5.5,0,0,0-.3.124L41.826,38.43a.465.465,0,0,0-.647.647l-3.015,3.015a.508.508,0,0,0,0,.72.515.515,0,0,0,.722,0Z" transform="translate(-38.015 -30.033)" fill="#474747"/></g><g transform="translate(85.797 50.999)"><path d="M44.027,33.266l2.527-2.527,2.606,2.606a.509.509,0,1,0,.72-.72l-2.606-2.606L49.9,27.4a.509.509,0,1,0-.72-.72L46.2,29.657h0v0l-2.885,2.885a.509.509,0,0,0,.718.722Z" transform="translate(-43.16 -26.527)" fill="#474747"/></g></svg>