<?xml version="1.0" encoding="UTF-8"?>
<svg xmlns="http://www.w3.org/2000/svg" id="Icons" viewBox="0 0 60 60" width="512" height="512"><path d="M16.087,59.47a.5.5,0,0,1-.262-.926l6.108-3.756L13.94,59.4a.5.5,0,0,1-.516-.855L30.629,47.714,10.383,59.4a.5.5,0,0,1-.517-.855l20.847-13.13L6.488,59.4a.5.5,0,0,1-.509-.86l8.912-5.417L4.041,59.389a.5.5,0,0,1-.512-.859L20.868,47.891,2.262,58.633a.5.5,0,0,1-.512-.859L20.709,46.145,1.408,57.287A.5.5,0,0,1,.9,56.426l2.156-1.294L1.28,56.156a.5.5,0,0,1-.509-.86l10.041-6.073-9.533,5.5a.5.5,0,0,1-.508-.861L8.5,49.2,1.279,53.369a.5.5,0,0,1-.51-.859L18.4,41.734,1.279,51.621a.5.5,0,0,1-.512-.858L22.937,37.1,1.278,49.607a.5.5,0,0,1-.513-.857L26.634,32.669,1.278,47.308a.5.5,0,0,1-.513-.858L25.692,30.992,1.278,45.088a.5.5,0,0,1-.51-.859l18.341-11.22L1.277,43.3a.5.5,0,0,1-.509-.861l12.9-7.831L1.277,41.768a.5.5,0,0,1-.51-.86L18.594,30.013l-17.317,10a.5.5,0,0,1-.511-.859L20.225,27.207,1.276,38.146a.5.5,0,0,1-.512-.858l19.5-12.045L1.276,36.2a.5.5,0,0,1-.514-.856L20.314,23.154,1.275,34.146a.5.5,0,0,1-.511-.859L10.98,27.016l-9.7,5.6a.5.5,0,0,1-.511-.858l7.792-4.783-7.281,4.2a.5.5,0,0,1-.512-.859L8.734,25.4,1.275,29.705a.5.5,0,0,1-.517-.855l12.533-7.922L1.274,27.865a.5.5,0,0,1-.523-.85l14.66-9.592L1.274,25.584a.5.5,0,0,1-.516-.855l4.908-3.088L1.274,24.176a.5.5,0,0,1-.522-.853l8-5.185L1.273,22.454A.5.5,0,0,1,.755,21.6L2.9,20.24l-1.622.936a.5.5,0,0,1-.521-.853L3.9,18.287,1.273,19.8a.5.5,0,0,1-.542-.839l7.618-5.471L1.272,17.577a.5.5,0,0,1-.535-.843l3.37-2.344L1.272,16.025a.5.5,0,0,1-.548-.834l3.261-2.426L1.272,14.331a.5.5,0,0,1-.564-.821l2.32-1.882L1.271,12.643a.5.5,0,0,1-.608-.782l1.549-1.59-.941.543a.5.5,0,0,1-.671-.7l.585-.923A.494.494,0,0,1,.9,8.963a.5.5,0,0,1,.183-.684L2.263,7.6a.5.5,0,0,1,.672.7l-.4.634L4.846,7.6a.5.5,0,0,1,.608.781L3.9,9.968,8.013,7.6a.5.5,0,0,1,.564.821L6.257,10.3l4.682-2.7a.5.5,0,0,1,.549.834L8.225,10.857,13.875,7.6a.5.5,0,0,1,.535.842l-3.369,2.345L16.564,7.6a.5.5,0,0,1,.542.839L9.494,13.9,20.418,7.594a.5.5,0,0,1,.521.852L17.78,10.491l5.02-2.9a.5.5,0,0,1,.518.854L21.181,9.806l3.833-2.212a.5.5,0,0,1,.522.852l-7.992,5.182L28,7.593a.5.5,0,0,1,.517.855l-4.921,3.1,6.844-3.952a.5.5,0,0,1,.524.85L16.3,18.036,34.391,7.592a.5.5,0,0,1,.517.855L22.381,16.365l15.2-8.774a.5.5,0,0,1,.513.858l-7.987,4.93L40.133,7.591a.5.5,0,0,1,.512.858l-7.783,4.778L42.627,7.59a.5.5,0,0,1,.512.858L32.91,14.728,45.273,7.59a.5.5,0,0,1,.515.856L26.242,20.636l22.6-13.047a.5.5,0,0,1,.513.858L29.846,20.5,51.905,7.763a.5.5,0,0,1,.512.858L32.976,20.554,52.72,9.155a.5.5,0,0,1,.51.86L35.4,20.91l17.317-10a.5.5,0,0,1,.509.86L40.3,19.619,52.72,12.45a.5.5,0,0,1,.51.86l-18.312,11.2,17.8-10.278a.5.5,0,0,1,.513.858L28.293,30.557l24.427-14.1a.5.5,0,0,1,.513.858L27.364,33.393,52.72,18.754a.5.5,0,0,1,.512.858L31.07,33.267l21.65-12.5a.5.5,0,0,1,.51.859L35.6,32.4,52.72,22.516a.5.5,0,0,1,.509.86l-7.762,4.685,7.253-4.188a.5.5,0,0,1,.509.86L43.206,30.8,52.72,25.3a.5.5,0,0,1,.508.861l-2.17,1.3,1.662-.959a.5.5,0,0,1,.511.858L34.283,38.991,52.72,28.347a.5.5,0,0,1,.511.858L35.893,39.845,52.72,30.13a.5.5,0,0,1,.509.86l-8.916,5.419,8.407-4.852a.5.5,0,0,1,.516.855L32.385,45.546,52.72,33.806a.5.5,0,0,1,.516.855l-17.2,10.832L52.72,35.859a.5.5,0,0,1,.511.859L47.12,40.476l5.6-3.233a.5.5,0,0,1,.515.857L42.493,44.836l10.227-5.9a.5.5,0,0,1,.523.851l-14.9,9.744,14.379-8.3a.5.5,0,0,1,.525.85L41.13,50.058l11.59-6.692a.5.5,0,0,1,.519.854l-5.6,3.589,5.077-2.931a.5.5,0,0,1,.524.851L46.912,49.89l5.808-3.353a.5.5,0,0,1,.528.848l-5.574,3.741,5.046-2.913a.5.5,0,0,1,.544.837L46.8,53.74l5.92-3.417a.5.5,0,0,1,.559.825L48.29,55.087l4.43-2.557a.5.5,0,0,1,.591.8l-3.23,3.007,2.639-1.523a.5.5,0,0,1,.625.764L52.083,57l.372-.214a.5.5,0,1,1,.5.865L49.927,59.4a.5.5,0,0,1-.625-.763l1.26-1.426L46.771,59.4a.5.5,0,0,1-.591-.8L49.409,55.6,42.815,59.4a.5.5,0,0,1-.559-.825l4.988-3.938L38.993,59.4a.5.5,0,0,1-.544-.837l6.466-4.692L35.337,59.4a.5.5,0,0,1-.528-.847l5.573-3.741L32.435,59.4a.5.5,0,0,1-.525-.85l6.332-4.161L29.561,59.4a.5.5,0,0,1-.52-.853l5.6-3.588L26.942,59.4a.5.5,0,0,1-.525-.85l12.113-7.98-15.3,8.83a.5.5,0,0,1-.523-.851l14.9-9.742L19.263,59.4a.5.5,0,0,1-.516-.856L29.5,51.8,16.337,59.4A.5.5,0,0,1,16.087,59.47Z" fill="#d4e7e8"/><path d="M23.867,54.584a.5.5,0,0,1-.326-.879l.3-.263-1.038.6a.5.5,0,0,1-.593-.8l2.554-2.407-3.422,1.976a.5.5,0,0,1-.564-.823l1.657-1.335-1.906,1.1a.5.5,0,0,1-.552-.831l.308-.234L20,50.857a.5.5,0,0,1-.562-.823l1.1-.877-1.027.593a.5.5,0,0,1-.582-.807l1.694-1.5-1.388.8a.5.5,0,0,1-.591-.8l1.09-1.021a.49.49,0,0,1-.211-.2.5.5,0,0,1,.183-.683l2.57-1.483a.5.5,0,0,1,.592.8L22.5,45.2l1.893-1.092a.5.5,0,0,1,.582.807l-1.693,1.5,2.567-1.482a.5.5,0,0,1,.561.824l-1.108.883,1.472-.849a.5.5,0,0,1,.551.831l-.3.228.5-.29a.5.5,0,0,1,.564.823l-1.658,1.337,1.552-.9a.5.5,0,0,1,.593.8l-2.553,2.407,1.911-1.1a.5.5,0,0,1,.576.811l-.93.8a.5.5,0,0,1,.11.913l-3.571,2.062A.491.491,0,0,1,23.867,54.584Z" fill="#2e454c"/><path d="M3.862,9.5a.5.5,0,0,1-.313-.89L8.4,4.7,1.28,8.813A.5.5,0,0,1,.709,8l4.383-3.68L1.28,6.518a.5.5,0,0,1-.555-.829L1.357,5.2l-.077.044a.5.5,0,0,1-.659-.72L1.959,2.613l-.1.055a.5.5,0,0,1-.5-.865L3.411.62a.5.5,0,0,1,.66.72L2.732,3.253,7.331.6a.5.5,0,0,1,.556.828l-.634.489L9.535.6a.5.5,0,0,1,.571.815L5.723,5.094,13.511.6a.5.5,0,0,1,.563.822L9.218,5.329,17.414.6a.5.5,0,0,1,.548.834L14.183,4.241,20.493.6a.5.5,0,0,1,.531.845l-.5.342L22.58.6a.5.5,0,0,1,.546.836L19.635,4,25.52.6a.5.5,0,0,1,.553.83L21.793,4.7,28.9.6a.5.5,0,0,1,.537.841L27.3,2.94,31.362.6a.5.5,0,0,1,.554.83L27.654,4.685,34.734.6a.5.5,0,0,1,.533.845l-.7.475L36.858.6a.5.5,0,0,1,.546.835l-3.537,2.6L39.821.6a.5.5,0,0,1,.551.832l-4,3.009L43.027.6a.5.5,0,0,1,.563.822L38.781,5.28,46.892.6a.5.5,0,0,1,.545.836L44.054,3.907,49.783.6a.5.5,0,0,1,.552.831l-4.092,3.1L51.73,1.36a.5.5,0,0,1,.566.821L48.34,5.394l4.3-2.484a.5.5,0,0,1,.555.828l-1.419,1.1.947-.546a.5.5,0,0,1,.6.785l-1.573,1.58.979-.565a.5.5,0,0,1,.721.6l-.451,1.272a.5.5,0,0,1,.242.933l-.882.509a.5.5,0,0,1-.72-.6l.415-1.169L48.992,9.4a.5.5,0,0,1-.6-.785l1.573-1.58-4.1,2.367a.5.5,0,0,1-.555-.828l1.421-1.1L43.386,9.408a.5.5,0,0,1-.566-.82l3.957-3.214L39.786,9.41a.5.5,0,0,1-.552-.831l4.092-3.1L36.518,9.412a.5.5,0,0,1-.545-.836L39.354,6.1,33.62,9.414a.5.5,0,0,1-.562-.822l4.81-3.862L29.751,9.416a.5.5,0,0,1-.551-.832l4-3.01L26.542,9.418A.5.5,0,0,1,26,8.583l3.536-2.6L23.576,9.42a.5.5,0,0,1-.532-.846l.7-.475L21.45,9.421a.5.5,0,0,1-.554-.83l4.262-3.257L18.075,9.423a.5.5,0,0,1-.537-.842l2.134-1.5-4.06,2.344a.5.5,0,0,1-.553-.83l4.279-3.274L12.227,9.427a.5.5,0,0,1-.546-.836l3.5-2.566-5.894,3.4a.5.5,0,0,1-.531-.846l.495-.337L7.194,9.43A.5.5,0,0,1,6.646,8.6l3.783-2.811L4.112,9.431A.491.491,0,0,1,3.862,9.5Z" fill="#4184a9"/><path d="M10.546,29.47a.5.5,0,0,1-.267-.923l2.46-1.555L8.564,29.4a.5.5,0,0,1-.517-.854L11.588,26.3,7,28.946a.5.5,0,0,1-.524-.85l7.5-4.924L6.294,27.606a.5.5,0,0,1-.52-.853L7.884,25.4l-1.6.926a.5.5,0,0,1-.526-.849l4.607-3.061L6.28,24.773a.5.5,0,0,1-.548-.834L12.651,18.8,6.28,22.479a.5.5,0,0,1-.54-.839l2.665-1.9L6.28,20.971a.5.5,0,0,1-.544-.837l1.312-.955-.768.442a.5.5,0,0,1-.6-.791l2.427-2.362L6.28,17.523a.5.5,0,0,1-.672-.7l.864-1.357a.5.5,0,0,1-.405-.908L7.726,13.6a.5.5,0,0,1,.671.7l-.85,1.337,3.534-2.04a.5.5,0,0,1,.6.791L9.251,16.752,14.716,13.6a.5.5,0,0,1,.544.837l-1.309.953,3.1-1.79a.5.5,0,0,1,.54.84l-2.665,1.895L19.666,13.6a.5.5,0,0,1,.548.834L13.3,19.568,23.639,13.6a.5.5,0,0,1,.526.848L19.56,17.507,26.331,13.6a.5.5,0,0,1,.52.853l-2.116,1.355L28.56,13.6a.5.5,0,0,1,.524.85l-7.5,4.923,10-5.773a.5.5,0,0,1,.517.854l-3.549,2.255L33.941,13.6a.5.5,0,0,1,.517.855L32,16.008l4.175-2.41a.5.5,0,0,1,.519.854L32.137,17.36,38.655,13.6a.5.5,0,0,1,.518.855l-2.838,1.8L40.928,13.6a.5.5,0,0,1,.522.851l-6.97,4.526L43.8,13.6a.5.5,0,0,1,.531.845L33.61,21.727l13.35-7.706a.5.5,0,0,1,.53.846l-9.878,6.689L47.721,15.72a.5.5,0,0,1,.535.843l-8.615,5.983,7.457-4.3a.5.5,0,0,1,.538.841l-5.574,3.93,1.479-.854a.5.5,0,0,1,.585.8l-4.449,4.007a.488.488,0,0,1,.18.181.5.5,0,0,1-.182.683L36.957,29.4a.5.5,0,0,1-.585-.8l3.55-3.2-6.93,4a.5.5,0,0,1-.538-.84l5.573-3.93L29.765,29.4a.5.5,0,0,1-.536-.843l8.618-5.984L26.02,29.4a.5.5,0,0,1-.531-.846l9.881-6.691L22.314,29.4a.5.5,0,0,1-.531-.845L32.5,21.274,18.418,29.4a.5.5,0,0,1-.522-.851l6.969-4.526L15.551,29.4a.5.5,0,0,1-.518-.855l2.838-1.8L13.278,29.4a.5.5,0,0,1-.519-.854l4.555-2.908L10.8,29.4A.5.5,0,0,1,10.546,29.47Z" fill="#4ab591"/><path d="M7.515,40.47a.5.5,0,0,1-.3-.9l1.307-.985L6.367,39.827a.5.5,0,0,1-.583-.806l2.4-2.142-1.9,1.1a.5.5,0,0,1-.586-.8l.463-.42a.506.506,0,0,1-.475-.125.5.5,0,0,1-.091-.6l.451-.832a.5.5,0,0,1-.209-.93l1.161-.67a.5.5,0,0,1,.69.671l-.37.681L9.657,33.6a.5.5,0,0,1,.586.8l-.4.365L11.863,33.6a.5.5,0,0,1,.583.8l-2.395,2.143,5.01-2.892a.5.5,0,0,1,.55.832l-1.3.985,1.413-.816a.5.5,0,0,1,.568.819l-1.282,1.057.714-.412a.5.5,0,0,1,.647.736l-1.094,1.43.447-.257a.5.5,0,0,1,.5.866L13.606,40.4a.5.5,0,0,1-.647-.736l1.094-1.43L10.3,40.4a.5.5,0,0,1-.569-.818l1.283-1.058L7.765,40.4A.493.493,0,0,1,7.515,40.47Z" fill="#85aaaf"/><path d="M39.187,40.47a.5.5,0,0,1-.293-.905l.466-.34-1,.578a.5.5,0,0,1-.568-.819l2.065-1.7a.49.49,0,0,1-.43-.192.5.5,0,0,1,.037-.656l1.658-1.7a.5.5,0,0,1,.218-.608l.926-.534a.5.5,0,0,1,.607.782l-.145.149L44.34,33.6a.5.5,0,0,1,.568.818l-1.831,1.508,3.951-2.28a.5.5,0,0,1,.544.836l-.472.345.609-.351a.5.5,0,0,1,.561.824l-1.079.856.529-.3a.5.5,0,0,1,.643.741l-1.3,1.65.654-.377a.5.5,0,0,1,.5.865l-2.9,1.673a.5.5,0,0,1-.643-.741l1.3-1.65L41.833,40.4a.5.5,0,0,1-.561-.824l1.082-.858L39.437,40.4A.493.493,0,0,1,39.187,40.47Z" fill="#85aaaf"/><path d="M24.843,40.47a.5.5,0,0,1-.306-.9l1.086-.837-2.747,1.585a.5.5,0,0,1-.591-.8l3.073-2.864L22.28,38.436a.5.5,0,0,1-.6-.792l1.2-1.162-.6.346a.5.5,0,0,1-.694-.661l.5-.966a.5.5,0,0,1-.249-.933L23,33.6a.5.5,0,0,1,.694.662l-.438.854L25.877,33.6a.5.5,0,0,1,.6.792l-1.2,1.161L28.661,33.6a.5.5,0,0,1,.591.8l-3.073,2.866,5.431-3.136a.5.5,0,0,1,.556.828l-1.25.964a.491.491,0,0,1,.463.154.5.5,0,0,1,.039.625L29.633,39.23a.682.682,0,0,1,.043.062.5.5,0,0,1-.184.684l-.742.427a.5.5,0,0,1-.658-.721l1.2-1.7-4.2,2.423A.493.493,0,0,1,24.843,40.47Z" fill="#85aaaf"/><path d="M26.841,47.094a.5.5,0,0,1-.294-.905l5.649-4.1L25.941,45.7a.5.5,0,0,1-.526-.849L29.713,42,26.131,44.07a.5.5,0,0,1-.527-.849l7.887-5.229-5.625,3.247a.5.5,0,0,1-.528-.847l10.9-7.312-7.793,4.5a.5.5,0,0,1-.521-.852l6.1-3.943-3.4,1.964a.5.5,0,0,1-.52-.853l4.8-3.083-2.009,1.16a.5.5,0,0,1-.531-.847l10.93-7.388-6.417,3.7a.5.5,0,0,1-.524-.85l5.212-3.423-1.4.81a.5.5,0,0,1-.539-.841l8.223-5.83-1.824,1.052a.5.5,0,0,1-.536-.842L52.03,14.35a.3.3,0,0,1-.024-.038.5.5,0,0,1,.182-.683l5.124-2.957a.5.5,0,0,1,.536.843l-.147.1.939-.542a.5.5,0,0,1,.539.841l-8.226,5.832,7.2-4.159a.5.5,0,0,1,.525.85l-5.213,3.423,3.549-2.049a.5.5,0,0,1,.53.847L46.622,24.046l8.1-4.675a.5.5,0,0,1,.52.854l-4.812,3.09,2.442-1.41a.5.5,0,0,1,.522.853l-6.1,3.942L50.6,24.787a.5.5,0,0,1,.528.848L40.236,32.942l6.75-3.9a.5.5,0,0,1,.675.169.5.5,0,0,1-.148.681l-7.888,5.229,3.81-2.2a.5.5,0,0,1,.526.849l-4.3,2.843.294-.169a.5.5,0,0,1,.544.837l-6.154,4.472h0a.5.5,0,0,1,.25.932l-7.51,4.336A.493.493,0,0,1,26.841,47.094Z" fill="#35718a"/><path d="M31.027,44.541a.5.5,0,0,1-.4-.8l1.422-1.856-2.212,1.276a.5.5,0,0,1-.634-.753L30.5,40.861l-1.94,1.119a.5.5,0,0,1-.633-.753l1.284-1.533-.481.278a.5.5,0,0,1-.63-.758l1.428-1.672a.5.5,0,0,1,.233-.564l.568-.329a.5.5,0,0,1,.63.758l-.208.243.412-.237a.5.5,0,0,1,.633.754L30.51,39.7l1.931-1.115a.5.5,0,0,1,.634.753l-1.29,1.542,1.94-1.119a.5.5,0,0,1,.646.736l-1.423,1.857,1.591-.916a.5.5,0,1,1,.5.865l-3.762,2.171A.489.489,0,0,1,31.027,44.541Z" fill="#d4e7e8"/><path d="M19.606,55.387a.5.5,0,0,1-.36-.847l.936-.971L17.8,54.943a.5.5,0,0,1-.62-.768l1.209-1.334-2.557,1.475a.5.5,0,0,1-.573-.813l.078-.067-.007,0a.5.5,0,0,1-.585-.8L17.7,49.98a.506.506,0,0,1,.027-.3l.668-1.585a.5.5,0,0,1,.238-.544l.134-.077a.5.5,0,0,1,.711.628l-.279.66a.509.509,0,0,1,.459.2.5.5,0,0,1-.069.666l-.629.564.675-.388a.5.5,0,0,1,.573.813l-.081.07.53-.306a.5.5,0,0,1,.62.768l-1.209,1.333,2.69-1.551a.5.5,0,0,1,.61.779l-.936.971L24.3,51.6a.5.5,0,0,1,.71.628l-.528,1.244.926-.534a.5.5,0,1,1,.5.865l-2.219,1.281a.5.5,0,0,1-.71-.628l.528-1.244-3.654,2.108A.49.49,0,0,1,19.606,55.387Z" fill="#e78dd3"/><path d="M53.63,12.281C53.867,7.329,55,.832,48.783.542c-8.4-.392-16.921,0-25.334,0-6.23,0-13.344-.985-19.512,0C-1.4,1.394.409,9.8.409,13.67V43.392c0,3.308-1.943,13.824,2.108,15.725,1.473.691,3.688.341,5.236.341H47.444c7.984.94,6.374-5.356,6.147-10.846v-25.9c3.027-3.687,7.652-9.886,5.579-11.912C58.069,9.719,55.873,10.713,53.63,12.281ZM1.591,4.883C2.823-.5,11.362,1.458,15.549,1.458H43.79C49.9.826,53.047.779,52.712,8.519H1.407A13.722,13.722,0,0,1,1.591,4.883ZM49.369,58.542c-14.209.2-28.562-.136-42.813,0-5.887,0-4.965-4.739-4.965-9.217-.1-13.292.211-26.552-.128-39.844H52.671c-.08,1.408-.215,2.72-.25,3.7-1.493,1.157-2.92,2.45-3.971,3.433-.7-4.749-6.68-3.145-10.819-3.145H11.88c-1.393,0-3.74-.419-5.036.362-2.19,1.321-1.365,5.253-1.365,7.289,0,1.975-.957,6.661,1.11,8.055,1.439.971,4.564.366,6.106.366H35.53q-1.85,2.115-3.58,4.319c-1.293-.888-4.1-.356-5.356-.356-1.493,0-4.4-.612-5.055,1.223a9.326,9.326,0,0,0-.1,2.934c-.62,4.251,3.112,2.53,5.775,2.845a26.209,26.209,0,0,0-2.066,3.581,5.31,5.31,0,0,0-6.39,2.932.577.577,0,0,0-.163.361,19.686,19.686,0,0,1-1.118,2.745c-.688,1.076-2.034,1.453-2.652,2.471a1.19,1.19,0,0,0,.5,1.87c2.813,1.713,7.262,1.451,10.287-.276.2.073.431-.1.553-.342a5.32,5.32,0,0,0,2.3-6.641,17.905,17.905,0,0,0,3.049-2.044.542.542,0,0,0,.369-.266c2.07-1.562,4.068-3.236,6-5,.925,1.181,3.1.7,4.526.7,1.351,0,4.871.7,5.775-.718a5.031,5.031,0,0,0,.267-2.554c.381-3.3-.251-4.38-3.978-4,2.865-3.062,5.246-5.99,7.931-9.2V52.639C52.409,55.21,52.885,57.765,49.369,58.542ZM36.478,28.464H15.067c-2.279,0-7.4,1.168-8.546-1.674-.583-1.445,0-4.33,0-5.875,0-1.334-.494-3.7,0-4.9,1.04-2.534,5.739-1.474,7.808-1.474H40.792c2.8,0,6.516-.921,6.672,3.005A150.841,150.841,0,0,0,36.478,28.464ZM31.691,43.9l-3.475-3.215q1.021-1.566,2.127-3.081L34.6,41.541Q33.17,42.757,31.691,43.9Zm-5.737,8.9c-1.38-3.092-6.766-1.207-6.442-5.287A4.258,4.258,0,0,1,25.1,45.321a2.575,2.575,0,0,0,2.253,2.019A4.272,4.272,0,0,1,25.954,52.8Zm-7.118-3.391c.752,2.955,4.8,1.8,6.223,3.979a8.228,8.228,0,0,1-3.7,1.034c-1.158.036-5.591-.136-5.233-1.628.1-.4,1.4-1.159,1.746-1.607A7.587,7.587,0,0,0,18.836,49.411Zm9.857-3.325a1.568,1.568,0,0,1-.687.223.313.313,0,0,0-.3,0c-2.694-.7-1.224-3.1-.137-4.629l3.174,2.937C30.069,45.115,29.388,45.612,28.693,46.086Zm-.832-6.573c-4.512.1-5.829.99-5.3-4.345.3-1.211,2.83-.667,3.884-.667.95,0,3.786-.491,4.772.3Q29.45,37.109,27.861,39.513ZM43.3,34.583c1.1-.044,3.741-.456,4.245.545a7.132,7.132,0,0,1,0,2.149c0,.771.309,1.8-.568,2.132-.995.372-2.941,0-3.987,0-.779,0-3.431.428-4.3-.258Q41.061,36.939,43.3,34.583Zm9.463-12.46a.43.43,0,0,0-.353.455A141.072,141.072,0,0,1,43.07,33.417a.471.471,0,0,0-.39.416c-1.5,1.575-3.032,3.124-4.618,4.619a.6.6,0,0,0-.489.447q-1.035.963-2.1,1.894l-4.458-4.126c.384-.513.781-1.017,1.176-1.523a.779.779,0,0,0,.278-.358A203.459,203.459,0,0,1,47.648,18.159c.408.226,1.021-.306.855-.812A45.592,45.592,0,0,1,52.57,13.91c.615.415,1.163-.013,1.03-.71C61.468,8.731,57.633,16.179,52.762,22.123Z" fill="#262626"/><path d="M14.763,40.546c1.9-.23,1.789-1.953,1.751-3.477,0-1.332.413-3.183-1.244-3.6a18.618,18.618,0,0,0-4.122-.02c-2.709-.025-6.17-.925-5.662,3.085,0,1.229-.473,3.379.992,3.918C9.141,40.937,12.049,40.351,14.763,40.546ZM8.552,39.454c-1.078,0-1.832.151-2.038-1.143-.11-.69-.314-3.094.182-3.578.481-.469,1.952-.187,2.594-.187h4.158c1.174,0,1.863-.05,2.038,1.286.086.657.357,3.331-.435,3.622Z" fill="#262626"/><path d="M5.074,5.6c.551-.018,1.493.2,1.373-.651-.09-.778-.977-.49-1.521-.539C4.337,4.5,4.475,5.618,5.074,5.6Z" fill="#262626"/><path d="M10.046,5.589h1c.643,0,.481-1.178-.092-1.178h-1C9.311,4.411,9.473,5.589,10.046,5.589Z" fill="#262626"/><path d="M15.1,5.591h1c.584-.122.391-1.229-.206-1.182h-1C14.313,4.531,14.506,5.638,15.1,5.591Z" fill="#262626"/><path d="M42.942,5.459h6c.685,0,.9-.918.116-.918h-6C42.373,4.541,42.156,5.459,42.942,5.459Z" fill="#262626"/></svg>
