<svg xmlns="http://www.w3.org/2000/svg" viewBox="0 0 300 300.01"><g id="Layer_2" data-name="Layer 2"><g id="Layer_1-2" data-name="Layer 1"><g id="Group_14" data-name="Group 14"><circle id="Ellipse_10" data-name="Ellipse 10" cx="150" cy="150.01" r="150" fill="#f8f0e1"/><ellipse id="Ellipse_11" data-name="Ellipse 11" cx="150" cy="247.07" rx="106.81" ry="8.42" fill="#ebd7b1"/><path id="Path_84" data-name="Path 84" d="M38.66,39.4H261.34a13.35,13.35,0,0,1,13.3,13.3V189.88H25.36V52.7A13.34,13.34,0,0,1,38.66,39.4Z" fill="#666"/><path id="Path_85" data-name="Path 85" d="M34.39,180.84H265.61V52.7a4.32,4.32,0,0,0-4.27-4.27H38.66a4.31,4.31,0,0,0-4.27,4.27V180.84Z" fill="#21d0c3"/><path id="Path_86" data-name="Path 86" d="M274.64,189.88v14.54c0,7.32-6.6,13.3-14.66,13.3H40c-8.06,0-14.66-6-14.66-13.3V189.88Z" fill="#fff"/><path id="Path_87" data-name="Path 87" d="M50.35,103.29a46.74,46.74,0,0,1,44.77,33.32A30.91,30.91,0,0,1,113,160.31a22.13,22.13,0,0,1,18.78,4.08,15.6,15.6,0,0,1,17.87-12.94l.38.06A15.6,15.6,0,0,1,168.18,164c0,.13,0,.26.07.38A22.13,22.13,0,0,1,187,160.31a30.89,30.89,0,0,1,17.86-23.7,46.75,46.75,0,0,1,58.22-31.35c.84.25,1.67.52,2.5.82v74.76H159.79v0l-.08,0H140.29l-.07,0v0H34.39V106.08a47,47,0,0,1,16-2.8Z" fill="#ecf0f1"/><g id="Group_11" data-name="Group 11"><path id="Path_88" data-name="Path 88" d="M50.35,106a46.74,46.74,0,0,1,44.77,33.32A30.91,30.91,0,0,1,113,163.06a22.13,22.13,0,0,1,18.78,4.08,15.6,15.6,0,0,1,17.88-12.93l.37.06a15.6,15.6,0,0,1,18.18,12.49c0,.13,0,.25.07.38A22.09,22.09,0,0,1,187,163.07a30.87,30.87,0,0,1,17.86-23.7A46.75,46.75,0,0,1,263.11,108c.84.25,1.67.53,2.5.83v72H34.39v-72a46.49,46.49,0,0,1,16-2.8Z" fill="#fff"/><path id="Path_89" data-name="Path 89" d="M174.68,77.59c.4-.43-2.15,7.3-4.13,10.2a58.41,58.41,0,0,1-4.65,5.75l.68-3.15-7.31,6.89.13-2.72a62,62,0,0,1-6.55,3.68c-3.42,1.63-3.5,1.56-2.12-2a61,61,0,0,1,3.2-6.8l-2.7.33,6.33-7.8-3.1.91a58.68,58.68,0,0,1,5.4-5.06c2.74-2.19,10.27-5.29,9.87-4.86l2.38,2.4,2.56,2.2h0Z" fill="#fff"/></g><g id="Group_12" data-name="Group 12"><path id="Path_90" data-name="Path 90" d="M193.2,65.13l3.87,14.3L178.9,100,180,75.29Z" fill="#fa0"/><path id="Path_91" data-name="Path 91" d="M180.8,53.61,166.26,50.8,147.09,70.42l24.56-2.91,9.15-13.9Z" fill="#fa0"/></g><path id="Path_92" data-name="Path 92" d="M179.31,79.13l-5.73-5.33-5.72-5.32c11-12.9,25-70.95,74.23-68.38C250.56,47.91,190.44,68.41,179.31,79.13Z" fill="#f9674e"/><path id="Path_93" data-name="Path 93" d="M241.52,20.45c-7.3-3.19-15.57-11-19.07-17.84A52.93,52.93,0,0,1,242.09.1a48.16,48.16,0,0,1-.57,20.35Z" fill="#fa0"/><rect id="Rectangle_20" data-name="Rectangle 20" x="169.07" y="67.77" width="5.6" height="15.68" transform="translate(-0.52 150.03) rotate(-47.1)" fill="#666"/><circle id="Ellipse_12" data-name="Ellipse 12" cx="216.7" cy="28.54" r="8.82" fill="#fff"/><circle id="Ellipse_13" data-name="Ellipse 13" cx="216.7" cy="28.54" r="7.24" fill="#21d0c3"/><g id="Group_13" data-name="Group 13"><path id="Path_94" data-name="Path 94" d="M147.39,87.15c-9.06,6.53-24.9,51.8,11.16,75.78,0,0-27.54-32.07-1.54-62.84C152.42,102.07,143.92,109.57,147.39,87.15Z" fill="#fff"/><circle id="Ellipse_14" data-name="Ellipse 14" cx="127.68" cy="150.84" r="5.25" fill="#fff"/><circle id="Ellipse_15" data-name="Ellipse 15" cx="151.56" cy="140.96" r="1.67" fill="#fff"/><circle id="Ellipse_16" data-name="Ellipse 16" cx="131.18" cy="135.42" r="2.28" fill="#fff"/><circle id="Ellipse_17" data-name="Ellipse 17" cx="170.97" cy="155.01" r="2.27" fill="#fff"/></g><circle id="Ellipse_18" data-name="Ellipse 18" cx="150" cy="203.22" r="4.58" fill="#b6b6b8"/><path id="Path_95" data-name="Path 95" d="M178.75,238.65l21.15,6.78H100.1l17.07-6.78V217.73h61.58Z" fill="#c2c2c4"/><path id="Path_96" data-name="Path 96" d="M178.75,238.65l-61.59-20.92h61.59Z" fill="#b0b0b0"/><path id="Path_97" data-name="Path 97" d="M117.16,238.65h61.59l21.15,6.78v2.92H100.1v-2.92Z" fill="#ecf0f1"/></g></g></g></svg>