<svg xmlns="http://www.w3.org/2000/svg" width="130.18" height="112.001" viewBox="0 0 130.18 112.001"><g transform="translate(0 0)"><path d="M109.918,5.836,30.1,5.48C6.33,5.275.424,12.03,1.052,28.817c.871,23.005.83,46.108,1.788,69.331.647,15.73,6.993,19.329,22.967,19.329.608,0,76.462-.128,77.071-.128,18.519-.039,26.043-3.811,26.509-21.654l1.78-68.353c.458-17.628-6.519-21.439-21.249-21.506Zm-7.044,109.478c-.608,0-76.462.128-77.071.128-16.912,0-20.4-4.562-20.928-17.378-.916-22.033-.9-43.549-1.693-66.477L129,32.27l-1.65,63.374C126.935,111.656,121.179,115.28,102.874,115.314Zm26.259-88.023-.077,2.944L3.114,29.552c-.57-15.473,3.08-22.23,26.975-22.037l79.822.356C123.354,7.936,129.568,10.612,129.133,27.291Z" transform="translate(-1.008 -5.476)" fill="#474747"/></g><g transform="translate(13.019 7.702)"><path d="M7.869,13c-1.058.779-.09,3.455.834,4.525,3.408,3.943,9.019.72,8.753-3.544C17.094,8.25,8.76,7.519,7.869,13Zm1.693,1.931a1.018,1.018,0,0,0,.315-.924c-.584-3.349,5.3-3.86,5.548.1.2,3.209-4.826,4.714-5.864.822Z" transform="translate(-7.407 -9.261)" fill="#474747"/></g><g transform="translate(28.583 7.702)"><path d="M15.615,13c-1.713,1.261.718,6.315,4.558,6.315a5.2,5.2,0,0,0,5.03-5.335C24.84,8.25,16.508,7.519,15.615,13Zm1.693,1.931a1.018,1.018,0,0,0,.315-.924c-.584-3.349,5.3-3.86,5.548.1a2.972,2.972,0,0,1-5.864.822Z" transform="translate(-15.057 -9.261)" fill="#474747"/></g><g transform="translate(45.392 7.675)"><path d="M30.26,9.618a4.633,4.633,0,0,0-6.431,3.4c-1.536,1.141.527,6.2,4.44,6.311l.122,0a5.194,5.194,0,0,0,5.028-5.335A5.182,5.182,0,0,0,30.26,9.618Zm-1.935,7.672a3.188,3.188,0,0,1-2.8-2.35,1.012,1.012,0,0,0,.315-.922A2.539,2.539,0,0,1,29.491,11.5a3.142,3.142,0,0,1,1.894,2.617A3.144,3.144,0,0,1,28.325,17.291Z" transform="translate(-23.318 -9.248)" fill="#474747"/></g><g transform="translate(61.544 6.667)"><path d="M75.272,9.307C72.389,8.119,41.554,9.2,39.52,9.266c-2.673.073-6.716.187-7.913,3.394C29.89,17.277,34.8,19.771,39.68,19.9a227.3,227.3,0,0,0,32-1.424C80.411,17.464,79.561,11.079,75.272,9.307ZM58.429,10.892l0,0,0,0s.006,0,.008,0Zm-6.853,1.955c-.008.008,0,.02-.012.028-.022-.039-.016-.087-.051-.122l-1.742-1.742c1.2-.022,2.38-.039,3.579-.055l.057.057Zm-6-.616-1.068-1.068q1.1-.034,2.2-.061Zm-10.206-.409a7.249,7.249,0,0,1,1.086-.273l-.68.68Zm36.074,4.633a224.291,224.291,0,0,1-31.709,1.412,12.281,12.281,0,0,1-4.206-.881.469.469,0,0,0-.045-.448l.785-.785a.509.509,0,1,0-.72-.72l-.761.761-1.471-1.471a2.429,2.429,0,0,1,1.08-2.037l.665.665a.5.5,0,0,0,.008.7.491.491,0,0,0,.7.008l1.152,1.152a.509.509,0,0,0,.72-.72l-1.145-1.145L37.837,11.6l2.183,2.183a.491.491,0,0,0,.035.637.456.456,0,0,0,.637.035l.031.031a.509.509,0,0,0,.72-.72l-.006-.006L43.09,12.1a.509.509,0,1,0-.72-.72l-1.654,1.654-1.727-1.727c.2-.006.4-.014.586-.018,2.539-.075,3.556-.1,3.556-.1s.006.035.02.047l1.709,1.709a.5.5,0,0,0,.01.7.51.51,0,0,0,.72,0l.02-.02a.431.431,0,0,0,.6-.051.487.487,0,0,0,.051-.6l1.835-1.835c.024-.024.018-.063.039-.092.081,0,.163-.006.246-.006L50.8,13.466a.51.51,0,0,0,.72,0c.008-.008,0-.02.012-.028.022.039.016.087.051.122a.51.51,0,0,0,.72,0l1.831-1.833,1.414,1.416a.509.509,0,1,0,.72-.72l-1.489-1.491q1.117-.015,2.23-.028l.7.7-.887.887a.509.509,0,0,0,.72.72l.887-.887,1.044,1.044a.509.509,0,0,0,.72-.72l-1.044-1.044.743-.743c.09,0,.857-.012.934-.012l.281.281-.328.328a.509.509,0,0,0,.72.72l.328-.328.442.442a.509.509,0,1,0,.72-.72l-.442-.442.305-.307c7.955-.087,9.925-.362,11.65.35,2.531,1.066,3.3,4.551-3.064,5.28Z" transform="translate(-31.257 -8.752)" fill="#474747"/></g><g transform="translate(80.559 45.147)"><path d="M54.058,33.193c-2.035-1.418-7.813-8.454-11.561-4.153-1.707,1.963-1.455,5.359.588,7.9,3.05,3.8,8.971,5.489,10.02,9.933,1.349,5.742-6.185,9.894-9.548,13.192a9.705,9.705,0,0,0-2.759,4.26c-.824,3.1,1.019,6.2,4.26,6.2,3.058,0,5.3-1.965,15.113-8.68,3.752-2.57,7.2-5.215,8.263-9.323C71.008,42.5,57.893,35.872,54.058,33.193Zm.993,16.788.879.879a.475.475,0,0,0-.539.075l-1.032,1.032a9.987,9.987,0,0,0,.692-1.986Zm-7.8,9.571c.02.033.014.073.043.1l-1.076,1.076-.165-.165c.395-.346.789-.684,1.2-1.013Zm-3.025,2.777c.228-.262.476-.531.759-.808.1-.1.21-.183.309-.277l.2.2-1.076,1.076Zm-.629.81,1.284,1.284L43.34,65.958l-.639-.639a3.642,3.642,0,0,1,.063-.468,5.558,5.558,0,0,1,.828-1.713ZM66.459,52.013c-.881,3.426-4.022,5.809-7.438,8.149-9.087,6.218-13.734,10.285-15.835,7.388l.153-.153.165.165a.509.509,0,0,0,.72-.72l-.165-.165,1.536-1.536.1.1a.509.509,0,1,0,.72-.72l-.1-.1.411-.411a.509.509,0,0,0-.72-.72l-.411.411-.46-.46,1.076-1.076,1.357,1.357a.509.509,0,1,0,.72-.72l-1.357-1.357,1.076-1.076.926.926a.509.509,0,0,0,.72-.72l-1.644-1.644.1-.081c.861-.688,1.725-1.414,2.566-2.175l.922.922-1.233,1.237a.509.509,0,1,0,.72.72L52.337,58.3a.46.46,0,0,0,.645-.031.492.492,0,0,0,.031-.645l.842-.842a.509.509,0,1,0-.72-.72l-.82.82-.9-.9a7.169,7.169,0,0,0,1.1-1.17c.055.018.1.065.159.065a.507.507,0,0,0,.36-.149l.82-.82.529.529a.509.509,0,0,0,.72-.72l-.529-.529,1.538-1.538a.489.489,0,0,0,.039-.625.455.455,0,0,0,.635-.035.508.508,0,0,0,0-.72L55.25,48.735a7.551,7.551,0,0,0-.165-2.33c-1.278-5.428-7.557-7.186-10.413-10.743-1.554-1.933-1.542-4.25-.639-5.29,2.169-2.492,6.718,2.989,8.861,4.486,4.173,2.916,15.723,8.775,13.565,17.154Z" transform="translate(-40.603 -27.665)" fill="#474747"/></g><g transform="translate(21.013 45.223)"><path d="M29.692,54.106c-2.214-2.33-3.225-5.048-2.7-7.272,1.052-4.452,6.94-6.1,10.02-9.933,2.043-2.541,2.3-5.937.588-7.9-1.42-1.636-3.748-1.733-6.232-.252-2.075,1.241-3.436,3.086-5.327,4.4-3.394,2.37-16.985,9.176-14.372,19.325,1.377,5.359,6.069,7.825,17.666,15.758,2.643,1.811,5.982,3.282,8.478,1.3A5.066,5.066,0,0,0,39.3,64.288c-1.135-4.244-6.407-6.814-9.609-10.181ZM25.34,37.063l-.614-.614q.909-.58,1.8-1.182l.3.3Zm-4.5,1.953.34.34-1.7,1.705-.572-.572c.354-.3.71-.6,1.07-.867.279-.21.578-.4.867-.606Zm-5.176,4.948,1.432,1.43L15.13,47.356l-.9-.9a13.57,13.57,0,0,1,1.432-2.488ZM13.684,52.11l.431.431-.208.208c-.079-.212-.163-.419-.224-.639ZM36.54,67.942c-1.54,1.229-4.144-.069-6.061-1.384C19.759,59.225,16.2,57.217,14.353,53.74l.48-.48.83.83a.509.509,0,0,0,.72-.72l-.83-.83,3.058-3.06a.509.509,0,1,0-.72-.72l-3.058,3.06-1.406-1.406a8.51,8.51,0,0,1,.421-2.9l.562.562-.065.065a.509.509,0,1,0,.72.72l.065-.065.832.832a.509.509,0,0,0,.72-.72l-.832-.832,2.057-2.057c.012,0,.022.014.035.014a.507.507,0,0,0,.36-.149.493.493,0,0,0,.134-.393l1.438-1.438a.509.509,0,1,0-.72-.72l-1.343,1.343-1.53-1.53a19.648,19.648,0,0,1,1.856-1.98l.612.612-.236.236a.509.509,0,0,0,.72.72l.236-.236.112.112a.509.509,0,0,0,.72-.72l-.112-.112,1.7-1.705.818.818a.509.509,0,1,0,.72-.72l-1.748-1.748c.722-.482,1.451-.952,2.171-1.41l.765.765-.492.492a.509.509,0,0,0,.72.72l2.737-2.739a.49.49,0,0,0,.6-.769l-.09-.09a.478.478,0,0,0-.11-.265.493.493,0,0,0-.264-.11l-.342-.342c.476-.346.932-.724,1.375-1.119a.5.5,0,0,0,.134.326.51.51,0,0,0,.72,0l.236-.236.409.409a.509.509,0,1,0,.72-.72l-.409-.409,1.237-1.237,1.129,1.129a.509.509,0,0,0,.72-.72l-1.223-1.223a.482.482,0,0,0-.1-.326c.026-.016.053-.043.079-.059a4.583,4.583,0,0,1,2.258-.755,1.777,1.777,0,0,1,1.4.594c.9,1.04.914,3.355-.639,5.29-2.824,3.518-9.141,5.343-10.413,10.743-.692,2.936.478,6.269,3.207,9.139,3.215,3.379,8.208,5.911,9.113,9.3a3.072,3.072,0,0,1-.793,3.137Z" transform="translate(-11.336 -27.703)" fill="#474747"/></g><g transform="translate(51.229 35.459)"><path d="M50.519,22.986c-2.315-.488-4.4,1.225-5.9,4.789-1.709,4.063-3.589,8.142-5.406,12.086-1.957,4.244-3.98,8.631-5.8,13.032A120.078,120.078,0,0,0,28.7,66.1c-.124.429-.324,1.017-.555,1.707-1.593,4.7-2.877,9.078-1.1,11.054,2.83,3.146,7,.3,9.436-3.1,2.794-3.894,2.9-5.135,16.417-44.143a11,11,0,0,0,.861-4.58,4.443,4.443,0,0,0-3.241-4.055Zm-.838,1.988-1.856,1.858-.267-.267A3.1,3.1,0,0,1,49.681,24.973ZM47.015,27.46l.09.09-.269.271C46.9,27.7,46.948,27.584,47.015,27.46Zm-2.106,4.724L46.128,33.4l-3.182,3.182c.667-1.459,1.312-2.922,1.963-4.4Zm-4.661,10.3.922.922-2.47,2.47Q39.472,44.17,40.248,42.487Zm-4.5,10.134.22.22-.555.555C35.516,53.138,35.636,52.88,35.744,52.622ZM30.207,68.064l.633.633-1.261,1.261c.181-.56.356-1.084.494-1.491C30.122,68.323,30.161,68.2,30.207,68.064ZM50.977,30.955C37.6,69.535,37.461,70.909,34.828,74.579c-1.457,2.035-4.456,4.818-6.206,2.979l.342-.342a.489.489,0,0,0,.692-.01.5.5,0,0,0,.01-.692L31.477,74.7a.509.509,0,1,0-.72-.72l-1.8,1.8-.667-.665a22.261,22.261,0,0,1,.682-3.174c.033-.02.073-.014.1-.043l.291-.291.95.95a.509.509,0,1,0,.72-.72l-.95-.95,1.556-1.556c.031.006.053.035.083.035a.51.51,0,0,0,.36-.149.478.478,0,0,0,.114-.442l2.016-2.016a.509.509,0,0,0-.72-.72l-1.935,1.935-1-1c.031-.1.073-.224.1-.313.21-.737.446-1.487.68-2.238,0,0,.008,0,.012,0l.942-.942.537.537a.509.509,0,0,0,.72-.72l-.537-.537,2.525-2.525a.509.509,0,1,0-.72-.72l-2.525,2.525-.128-.128c.462-1.355.96-2.747,1.518-4.2L34.863,58.9a.509.509,0,1,0,.72-.72l-1.5-1.5c.11-.279.232-.576.346-.861l2.256-2.256.547.547a.509.509,0,0,0,.72-.72l-.547-.547L38.834,51.4a.509.509,0,0,0-.72-.72l-1.432,1.432-.5-.5c.553-1.294,1.1-2.588,1.681-3.874l1.312,1.31a.509.509,0,0,0,.72-.72l-1.107-1.1,3.135-3.135a.442.442,0,0,0,.612-.045.49.49,0,0,0,.045-.612L44.814,41.2a.509.509,0,0,0-.72-.72l-2.206,2.206L40.7,41.494c.12-.258.24-.527.358-.783.366-.793.737-1.611,1.1-2.417a.5.5,0,0,0,.212.087.535.535,0,0,0,.2-.081l1.28,1.278a.509.509,0,1,0,.72-.72l-1.231-1.231,4.6-4.6a.509.509,0,1,0-.72-.72l-.374.374-1.5-1.5c.3-.686.606-1.367.9-2.055a.508.508,0,0,0,.718,0l.861-.861.649.649a.509.509,0,1,0,.72-.72l-.651-.651,2.09-2.09a.468.468,0,0,0,.081-.2,2.859,2.859,0,0,1,1.019,1.963,9.271,9.271,0,0,1-.757,3.74Z" transform="translate(-26.187 -22.904)" fill="#474747"/></g></svg>