<svg xmlns="http://www.w3.org/2000/svg" viewBox="0 0 287.11 300.01"><g id="Layer_2" data-name="Layer 2"><g id="Layer_1-2" data-name="Layer 1"><circle id="Ellipse_5" data-name="Ellipse 5" cx="143.55" cy="156.45" r="143.55" fill="#f8f0e1"/><path id="Path_50" data-name="Path 50" d="M29.83,244.05a143.59,143.59,0,0,0,189.87,34.1V78.72H29.83Z" fill="#d9eafc"/><path id="Path_51" data-name="Path 51" d="M41.45,78.72H29.83V244.05a145.12,145.12,0,0,0,11.62,13.28Z" fill="#c3ddf4"/><rect id="Rectangle_16" data-name="Rectangle 16" x="29.83" y="21.04" width="189.86" height="58.27" fill="#02af8e"/><rect id="Rectangle_17" data-name="Rectangle 17" x="29.83" y="21.04" width="11.63" height="58.27" fill="#0f9390"/><path id="Path_52" data-name="Path 52" d="M214.1,0H35.43a5.62,5.62,0,0,0-5.6,5.6v16H219.7V5.6A5.62,5.62,0,0,0,214.1,0Z" fill="#1a2b63"/><path id="Path_53" data-name="Path 53" d="M197.45,173.34a2.1,2.1,0,0,1-2.09,2.09H111.62a2.1,2.1,0,0,1-2.09-2.09v-56.1a2.09,2.09,0,0,1,2.09-2.09h83.73a2.1,2.1,0,0,1,2.1,2.09Z" fill="#52bbef"/><path id="Path_54" data-name="Path 54" d="M121.16,173.34v-56.1a2.08,2.08,0,0,1,2.09-2.09H111.62a2.09,2.09,0,0,0-2.09,2.09v56.1a2.1,2.1,0,0,0,2.09,2.09h11.63A2.09,2.09,0,0,1,121.16,173.34Z" fill="#1e99d6"/><path id="Path_55" data-name="Path 55" d="M177.37,147.92a1.71,1.71,0,0,0-2.4-.3,2.13,2.13,0,0,0-.3.3l-10.88,12.91a1.71,1.71,0,0,1-2.4.31,1.77,1.77,0,0,1-.3-.31l-20.55-24.37a1.7,1.7,0,0,0-2.39-.3,1.77,1.77,0,0,0-.31.3l-28.32,33.61v3.27a2.1,2.1,0,0,0,2.1,2.09h83.73a2.1,2.1,0,0,0,2.1-2.09v-1.59Z" fill="#02af8e"/><circle id="Ellipse_6" data-name="Ellipse 6" cx="184.76" cy="126.9" r="6.28" fill="#ffd00d"/><g id="Group_4-2" data-name="Group 4-2"><path id="Path_56" data-name="Path 56" d="M194.52,193.05H114.14a4.4,4.4,0,0,1,0-8.79h80.38a4.4,4.4,0,0,1,0,8.79Z" fill="#1e99d6"/><path id="Path_57" data-name="Path 57" d="M194.52,208.07H114.14a4.4,4.4,0,0,1,0-8.79h80.38a4.4,4.4,0,0,1,0,8.79Z" fill="#1e99d6"/><path id="Path_58" data-name="Path 58" d="M194.52,223.08H114.14a4.39,4.39,0,0,1,0-8.78h80.38a4.39,4.39,0,1,1,.14,8.78Z" fill="#1e99d6"/><path id="Path_59" data-name="Path 59" d="M194.52,238.11H114.14a4.4,4.4,0,0,1,0-8.79h80.38a4.4,4.4,0,0,1,.14,8.79Z" fill="#1e99d6"/><path id="Path_60" data-name="Path 60" d="M154.49,253.13H114.14a4.4,4.4,0,0,1,0-8.79h40.35a4.4,4.4,0,0,1,0,8.79Z" fill="#1e99d6"/><path id="Path_61" data-name="Path 61" d="M154.49,107.81H114.14a4.4,4.4,0,0,1,0-8.79h40.35a4.4,4.4,0,0,1,0,8.79Z" fill="#1e99d6"/></g><g id="Group_5" data-name="Group 5"><path id="Path_62" data-name="Path 62" d="M50.81,222.58a2.93,2.93,0,0,1,2.93-2.93H92.68a2.94,2.94,0,0,1,2.93,2.93V250a2.94,2.94,0,0,1-2.93,2.93H53.74A2.93,2.93,0,0,1,50.81,250Z" fill="#eef6ff"/><path id="Path_63" data-name="Path 63" d="M50.81,182.71a2.93,2.93,0,0,1,2.93-2.93H92.68a2.94,2.94,0,0,1,2.93,2.93v27.43a2.94,2.94,0,0,1-2.93,2.92H53.74a2.93,2.93,0,0,1-2.93-2.92Z" fill="#eef6ff"/></g><g id="Group_6" data-name="Group 6"><path id="Path_64" data-name="Path 64" d="M50.81,142.84a2.94,2.94,0,0,1,2.93-2.93H92.68a3,3,0,0,1,2.93,2.93v27.43a3,3,0,0,1-2.93,2.93H53.74a2.94,2.94,0,0,1-2.93-2.93Z" fill="#ffdd8d"/><path id="Path_65" data-name="Path 65" d="M50.81,103a2.93,2.93,0,0,1,2.93-2.93H92.68A2.94,2.94,0,0,1,95.61,103V130.4a3,3,0,0,1-2.93,2.93H53.74a2.93,2.93,0,0,1-2.93-2.93Z" fill="#ffdd8d"/></g><g id="Group_7" data-name="Group 7"><path id="Path_66" data-name="Path 66" d="M62.43,250V222.58a2.94,2.94,0,0,1,2.93-2.93H53.74a2.93,2.93,0,0,0-2.93,2.93V250a2.93,2.93,0,0,0,2.93,2.93H65.36A2.94,2.94,0,0,1,62.43,250Z" fill="#c3ddf4"/><path id="Path_67" data-name="Path 67" d="M62.43,210.14V182.71a2.94,2.94,0,0,1,2.93-2.93H53.74a2.93,2.93,0,0,0-2.93,2.93v27.43a2.93,2.93,0,0,0,2.93,2.92H65.36A2.94,2.94,0,0,1,62.43,210.14Z" fill="#c3ddf4"/></g><g id="Group_8" data-name="Group 8"><path id="Path_68" data-name="Path 68" d="M62.43,170.27V142.84a3,3,0,0,1,2.93-2.93H53.74a2.94,2.94,0,0,0-2.93,2.93v27.43a2.94,2.94,0,0,0,2.93,2.93H65.36A3,3,0,0,1,62.43,170.27Z" fill="#ff9f60"/><path id="Path_69" data-name="Path 69" d="M62.43,130.4V103a2.94,2.94,0,0,1,2.93-2.93H53.74A2.93,2.93,0,0,0,50.81,103V130.4a2.93,2.93,0,0,0,2.93,2.93H65.36A3,3,0,0,1,62.43,130.4Z" fill="#ff9f60"/></g><g id="Group_9" data-name="Group 9"><path id="Path_70" data-name="Path 70" d="M174.59,61.86H74.94a4.4,4.4,0,1,1,0-8.79h99.65a4.4,4.4,0,0,1,0,8.79Z" fill="#fff"/><path id="Path_71" data-name="Path 71" d="M149.52,45.32H100a4.4,4.4,0,1,1-.13-8.79h49.65a4.4,4.4,0,1,1,.14,8.79Z" fill="#fff"/></g><path id="Path_72" data-name="Path 72" d="M43.27,15.32A4.52,4.52,0,1,1,46.48,14,4.6,4.6,0,0,1,43.27,15.32Z" fill="#fe3745"/><path id="Path_73" data-name="Path 73" d="M58.16,15.32A4.52,4.52,0,1,1,61.37,14,4.53,4.53,0,0,1,58.16,15.32Z" fill="#ffd00d"/><path id="Path_74" data-name="Path 74" d="M73,15.32A4.52,4.52,0,1,1,76.24,14,4.52,4.52,0,0,1,73,15.32Z" fill="#37c47a"/><path id="Path_75" data-name="Path 75" d="M230.42,224.17a12.12,12.12,0,0,0,12.09,12.09h1.21a12.12,12.12,0,0,0,12.09-12.09v-7.86H230.42Z" fill="#f87eab"/><path id="Path_76" data-name="Path 76" d="M254.49,29.83,244.44,9.12c-.73-1.5-1.92-1.5-2.64,0L231.74,29.83a15.57,15.57,0,0,0-1.32,5.74v5.7h25.39v-5.7A15.57,15.57,0,0,0,254.49,29.83Z" fill="#ffe2b8"/><rect id="Rectangle_18" data-name="Rectangle 18" x="230.42" y="40.66" width="25.4" height="176.26" fill="#ffaf10"/><rect id="Rectangle_19" data-name="Rectangle 19" x="230.42" y="40.66" width="11.63" height="176.26" fill="#ff9518"/><path id="Path_77" data-name="Path 77" d="M241.8,9.12,236.17,20.7h13.9L244.44,9.12C243.71,7.62,242.52,7.62,241.8,9.12Z" fill="#293d7c"/></g></g></svg>