<svg id="icons" height="512" viewBox="0 0 60 60" width="512" xmlns="http://www.w3.org/2000/svg"><path d="m8.461 59.47a.5.5 0 0 1 -.258-.929l3.365-2.025-5 2.886a.5.5 0 0 1 -.508-.86l11.733-7.105-13.772 7.951a.5.5 0 0 1 -.511-.86l20.995-12.828-22.305 12.877a.5.5 0 0 1 -.512-.858l27.774-17.134-28.154 16.255a.5.5 0 0 1 -.508-.861l13.31-8.03-12.83 7.407a.5.5 0 0 1 -.507-.856l2.044-1.223-1.538.888a.5.5 0 0 1 -.507-.865l2.7-1.612-2.193 1.261a.5.5 0 0 1 -.509-.859l21.562-13.134-21.053 12.154a.5.5 0 0 1 -.51-.859l23.955-14.645-23.446 13.537a.5.5 0 0 1 -.51-.86l22.132-13.492-21.622 12.483a.5.5 0 0 1 -.508-.86l16.423-9.939-15.915 9.188a.5.5 0 0 1 -.51-.859l24.421-14.942-23.912 13.806a.5.5 0 0 1 -.508-.86l16.025-9.7-15.517 8.958a.5.5 0 0 1 -.511-.858l24.369-15-23.858 13.773a.5.5 0 0 1 -.513-.857l23.492-14.553-22.98 13.267a.5.5 0 0 1 -.508-.86l8.369-5.078-7.861 4.542a.5.5 0 0 1 -.509-.86l7.952-4.832-7.443 4.3a.5.5 0 0 1 -.512-.858l15.159-9.381-14.648 8.453a.5.5 0 0 1 -.517-.855l18.884-11.981-18.367 10.603a.5.5 0 0 1 -.514-.856l12.084-7.558-11.57 6.683a.5.5 0 0 1 -.517-.856l11.911-7.529-11.395 6.574a.5.5 0 0 1 -.521-.852l12.614-8.147-12.093 6.982a.5.5 0 0 1 -.527-.849l12.5-8.319-11.974 6.911a.5.5 0 0 1 -.518-.855l3.682-2.343-3.164 1.826a.5.5 0 0 1 -.528-.843l7.52-5.038-6.992 4.031a.5.5 0 0 1 -.521-.852l1.376-.891-.856.493a.5.5 0 0 1 -.525-.85l1.468-.967-.943.544a.5.5 0 0 1 -.527-.849l.7-.469-.175.1a.5.5 0 0 1 -.561-.823l4.544-3.62-3.983 2.3a.5.5 0 0 1 -.561-.823l1.868-1.486-1.306.753a.5.5 0 0 1 -.617-.773l1.541-1.67-.924.534a.5.5 0 0 1 -.663-.715l.519-.759a.491.491 0 0 1 -.227-.207.5.5 0 0 1 .183-.684l1.18-.679a.5.5 0 0 1 .663.716l-.251.366 1.875-1.082a.5.5 0 0 1 .617.772l-1.542 1.665 4.229-2.437a.5.5 0 0 1 .561.823l-1.862 1.477 4-2.309a.5.5 0 0 1 .561.823l-4.543 3.626 7.7-4.444a.5.5 0 0 1 .527.848l-.7.466 2.279-1.31a.5.5 0 0 1 .525.85l-1.47.969 3.151-1.819a.5.5 0 0 1 .521.852l-1.389.9 3.036-1.752a.5.5 0 0 1 .528.847l-7.514 5.035 10.19-5.883a.5.5 0 0 1 .519.854l-3.674 2.336 5.535-3.195a.5.5 0 0 1 .527.848l-12.5 8.321 15.884-9.17a.5.5 0 0 1 .522.852l-12.624 8.155 15.6-9a.5.5 0 0 1 .518.855l-11.9 7.521 14.51-8.377a.5.5 0 0 1 .515.856l-12.087 7.552 14.575-8.415a.5.5 0 0 1 .518.854l-18.883 11.981 22.233-12.836a.5.5 0 0 1 .513.857l-15.156 9.38 17.734-10.238a.5.5 0 0 1 .51.86l-7.966 4.84 9.874-5.7a.5.5 0 0 1 .509.86l-8.383 5.081 10.292-5.941a.5.5 0 0 1 .514.857l-23.474 14.541 26.673-15.4a.5.5 0 0 1 .512.858l-24.388 15.014 26.693-15.409a.5.5 0 0 1 .509.86l-16.016 9.689 16.027-9.25a.5.5 0 0 1 .51.859l-24.412 14.936 23.9-13.8a.5.5 0 0 1 .509.86l-16.424 9.94 15.917-9.189a.5.5 0 0 1 .51.859l-22.13 13.493 21.62-12.484a.5.5 0 0 1 .51.86l-23.962 14.649 23.452-13.54a.5.5 0 0 1 .509.859l-21.561 13.134 21.052-12.154a.5.5 0 0 1 .507.861l-2.694 1.607 2.187-1.261a.5.5 0 0 1 .507.861l-2.064 1.234 1.557-.9a.5.5 0 0 1 .508.86l-13.277 8.016 12.769-7.372a.5.5 0 0 1 .512.858l-27.777 17.134 27.265-15.741a.5.5 0 0 1 .51.859l-21 12.831 20.49-11.827a.5.5 0 0 1 .509.861l-11.752 7.116 11.243-6.49a.5.5 0 0 1 .508.861l-3.376 2.031 2.868-1.655a.5.5 0 0 1 .513.857l-21.022 13.076 20.509-11.84a.5.5 0 0 1 .516.855l-20.766 13.067 20.25-11.691a.5.5 0 0 1 .517.856l-18.273 11.553 17.756-10.251a.5.5 0 0 1 .519.854l-16.886 10.8 16.367-9.45a.5.5 0 0 1 .519.853l-13.539 8.666 13.02-7.518a.5.5 0 0 1 .514.856l-5.195 3.246 4.681-2.7a.5.5 0 0 1 .527.849l-12.537 8.337 12.01-6.933a.5.5 0 0 1 .53.846l-10.375 7.036 9.845-5.684a.5.5 0 0 1 .518.855l-.713.454.2-.112a.5.5 0 0 1 .535.843l-6.642 4.615 6.107-3.524a.5.5 0 0 1 .552.83l-6.227 4.745 5.675-3.276a.5.5 0 0 1 .538.842l-1.152.81.614-.353a.5.5 0 0 1 .555.828l-1.732 1.327 1.172-.676a.5.5 0 0 1 .621.768l-1.859 2.055 1.146-.66a.5.5 0 1 1 .5.865l-3.9 2.248a.5.5 0 0 1 -.621-.767l1.858-2.056-4.886 2.823a.5.5 0 0 1 -.556-.828l1.727-1.333-3.743 2.161a.5.5 0 0 1 -.538-.841l1.153-.812-2.865 1.653a.5.5 0 0 1 -.553-.83l6.228-4.744-9.657 5.574a.5.5 0 0 1 -.535-.842l6.643-4.617-9.457 5.459a.5.5 0 0 1 -.519-.854l.708-.451-2.262 1.3a.5.5 0 0 1 -.531-.846l10.378-7.025-13.648 7.876a.5.5 0 0 1 -.528-.848l12.537-8.339-15.915 9.187a.5.5 0 0 1 -.514-.856l5.207-3.253-7.119 4.109a.5.5 0 0 1 -.52-.853l13.538-8.663-16.483 9.516a.5.5 0 0 1 -.52-.853l16.885-10.8-20.181 11.653a.5.5 0 0 1 -.517-.855l18.278-11.556-21.5 12.411a.5.5 0 0 1 -.516-.855l20.767-13.066-24.116 13.921a.5.5 0 0 1 -.514-.857l21.017-13.07-24.127 13.927a.5.5 0 0 1 -.25.07z" fill="#e1efff"/><path d="m3.933 9.5a.5.5 0 0 1 -.315-.889l4.891-3.956-7.229 4.173a.5.5 0 0 1 -.551-.828l3.308-2.5-2.757 1.586a.5.5 0 0 1 -.58-.809l2.6-2.277-2.02 1.163a.5.5 0 0 1 -.656-.724l1.286-1.8-.048.027a.5.5 0 0 1 -.5-.865l2.049-1.181a.5.5 0 0 1 .656.724l-1.286 1.8 4.409-2.544a.5.5 0 0 1 .581.808l-2.6 2.278 5.349-3.086a.5.5 0 0 1 .551.831l-3.309 2.5 5.775-3.331a.5.5 0 0 1 .565.821l-4.892 3.953 8.274-4.774a.5.5 0 0 1 .535.843l-1.365.943 3.095-1.786a.5.5 0 0 1 .547.835l-3.63 2.678 6.087-3.513a.5.5 0 0 1 .564.821l-4.89 3.957 8.273-4.778a.5.5 0 0 1 .53.846l-.122.083 1.615-.929a.5.5 0 0 1 .534.844l-1.277.88 2.988-1.724a.5.5 0 0 1 .538.84l-2.3 1.624 4.269-2.464a.5.5 0 0 1 .547.834l-3.722 2.76 6.228-3.594a.5.5 0 0 1 .536.842l-1.73 1.205 3.547-2.047a.5.5 0 0 1 .55.833l-3.931 2.947 6.548-3.78a.5.5 0 0 1 .54.84l-2.556 1.814 4.602-2.654a.5.5 0 0 1 .564.821l-4.886 3.955 8.279-4.776a.5.5 0 0 1 .55.832l-3.958 2.968 6.59-3.8a.5.5 0 0 1 .555.829l-4.31 3.307 7.167-4.136a.5.5 0 0 1 .55.832l-4.006 3.015 5.727-3.306a.5.5 0 0 1 .555.829l-3.643 2.8 4.113-2.37a.5.5 0 0 1 .543.838l-.639.464.331-.191a.5.5 0 0 1 .6.787l-2.335 2.32 1.749-1.01a.5.5 0 0 1 .66.72l-.759 1.081.11-.063a.5.5 0 1 1 .5.865l-2.066 1.189a.5.5 0 0 1 -.659-.719l.757-1.08-3.121 1.799a.5.5 0 0 1 -.6-.787l2.333-2.313-5.385 3.107a.5.5 0 0 1 -.543-.838l.643-.469-2.26 1.3a.5.5 0 0 1 -.555-.829l3.64-2.8-6.292 3.639a.5.5 0 0 1 -.551-.832l4.012-3.021-6.678 3.854a.5.5 0 0 1 -.555-.829l4.31-3.308-7.171 4.139a.5.5 0 0 1 -.55-.832l3.957-2.972-6.591 3.806a.5.5 0 0 1 -.564-.821l4.885-3.957-8.281 4.78a.5.5 0 0 1 -.54-.84l2.556-1.816-4.6 2.657a.5.5 0 0 1 -.55-.833l3.934-2.949-6.556 3.784a.5.5 0 0 1 -.536-.843l1.727-1.2-3.547 2.044a.5.5 0 0 1 -.548-.834l3.725-2.763-6.234 3.6a.5.5 0 0 1 -.538-.841l2.3-1.625-4.271 2.466a.5.5 0 0 1 -.534-.845l1.277-.88-2.99 1.726a.5.5 0 0 1 -.531-.847l.115-.077-1.605.926a.5.5 0 0 1 -.564-.822l4.891-3.958-8.282 4.782a.5.5 0 0 1 -.547-.835l3.63-2.679-6.089 3.515a.5.5 0 0 1 -.534-.844l1.365-.943-3.1 1.788a.494.494 0 0 1 -.247.069z" fill="#3596bc"/><path d="m18.065 32.293a.5.5 0 0 1 -.411-.785l1.025-1.478-1.7.982a.5.5 0 0 1 -.668-.707l1.118-1.7-1.809 1.041a.5.5 0 0 1 -.62-.766l.635-.712-.942.543a.5.5 0 0 1 -.651-.731l1-1.35-1.539.888a.5.5 0 0 1 -.626-.762l.689-.788-1.019.588a.5.5 0 0 1 -.623-.766l.631-.707-.936.54a.5.5 0 0 1 -.561-.823l1.394-1.112-1.734 1a.5.5 0 0 1 -.545-.835l2.959-2.164-2.845 1.642a.5.5 0 0 1 -.542-.838l2.564-1.847-.228.131a.5.5 0 0 1 -.584-.8l5.175-4.648-.013-.021a.5.5 0 0 1 .183-.683l1.765-1.025a.5.5 0 0 1 .584.8l-3.464 3.12 4.688-2.707a.5.5 0 0 1 .542.838l-2.565 1.849 2.278-1.314a.5.5 0 0 1 .545.836l-3.266 2.387a.5.5 0 0 1 .367.888l-3.011 2.4a.548.548 0 0 1 .085.082.5.5 0 0 1 -.015.649l-.632.709.937-.541a.5.5 0 0 1 .626.761l-.69.789 1.02-.588a.5.5 0 0 1 .651.73l-1 1.35 1.538-.888a.5.5 0 0 1 .623.766l-.635.714.942-.544a.5.5 0 0 1 .668.707l-1.117 1.7 1.807-1.044a.5.5 0 0 1 .661.718l-1.024 1.478.932-.538a.5.5 0 0 1 .5.865l-2.864 1.654a.5.5 0 0 1 -.253.067z" fill="#ec9f1b"/><path d="m40.738 32.4a.5.5 0 0 1 -.316-.886l1.811-1.484-2.433 1.408a.5.5 0 0 1 -.554-.831l4.235-3.232-4.133 2.385a.5.5 0 0 1 -.559-.826l4.6-3.612a.5.5 0 0 1 -.539-.811l2.255-2.394-.684.395a.5.5 0 0 1 -.61-.781l.328-.336-.528.3a.5.5 0 0 1 -.627-.76l.7-.81-1.041.6a.5.5 0 0 1 -.665-.712l1.1-1.638-1.751 1.025a.5.5 0 0 1 -.654-.727l1.027-1.42-1.593.919a.5.5 0 0 1 -.636-.75l.844-1.03-1 .577a.5.5 0 0 1 -.626-.762l.609-.7a.5.5 0 0 1 -.054-.893l1.756-1.014a.5.5 0 0 1 .626.761l-.2.23.763-.441a.5.5 0 0 1 .637.75l-.846 1.032 1.258-.726a.5.5 0 0 1 .655.727l-1.03 1.416 1.593-.919a.493.493 0 0 1 .615.091.5.5 0 0 1 .05.621l-1.1 1.637 1.762-1.016a.5.5 0 0 1 .627.76l-.7.81 1.041-.6a.5.5 0 0 1 .609.781l-.327.337.528-.3a.5.5 0 0 1 .614.775l-2.258 2.394 3.045-1.758a.5.5 0 0 1 .559.826l-4.564 3.579 4.759-2.747a.5.5 0 0 1 .554.83l-4.234 3.232 1.012-.584a.5.5 0 0 1 .566.819l-3.652 2.991a.483.483 0 0 1 .068.092.5.5 0 0 1 -.182.683l-2.86 1.651a.489.489 0 0 1 -.25.066z" fill="#ec9f1b"/><path d="m27.567 33.251a.5.5 0 0 1 -.387-.815l1.509-1.86-2.39 1.38a.5.5 0 0 1 -.606-.784l2.694-2.727-1.628.94a.5.5 0 0 1 -.593-.8l2.2-2.076-1.133.653a.5.5 0 0 1 -.586-.8l1.8-1.634-.792.457a.5.5 0 0 1 -.587-.8l1.872-1.71-.852.492a.5.5 0 0 1 -.575-.812l1.082-.926-.154.088a.5.5 0 0 1 -.592-.8l2.2-2.069-1.128.651a.5.5 0 0 1 -.581-.808l1.321-1.165-.362.209a.5.5 0 0 1 -.6-.794l.882-.844a.5.5 0 0 1 -.581-.759l.611-.837a.487.487 0 0 1 -.261-.22.5.5 0 0 1 .182-.683l1.368-.79a.5.5 0 0 1 .655.728l-.352.48 1.454-.838a.5.5 0 0 1 .6.793l-.861.825 1.106-.639a.5.5 0 0 1 .581.808l-1.324 1.168.5-.291a.5.5 0 0 1 .593.8l-2.2 2.069 1.128-.651a.5.5 0 0 1 .575.813l-1.082.926.154-.088a.5.5 0 0 1 .587.8l-1.872 1.71.858-.495a.5.5 0 0 1 .586.8l-1.8 1.635.792-.457a.5.5 0 0 1 .593.8l-2.2 2.076 1.133-.653a.5.5 0 0 1 .605.784l-2.692 2.725 1.523-.879a.5.5 0 0 1 .638.748l-1.511 1.861.359-.207a.5.5 0 1 1 .5.865l-2.7 1.561a.5.5 0 0 1 -.259.066z" fill="#ec9f1b"/><g fill="#262626"><path d="m59.448 9.027a.428.428 0 0 0 0-.452c-.172-2.338.673-5.234-1.054-7.151-1.44-1.472-4.189-1.024-6.039-1.024h-43.993c-7.905-.709-8.104 1.381-7.81 8.573a.426.426 0 0 0 0 .451v44.331c0 2.763.115 5.172 3.389 5.833 16.653.026 33.329 0 49.99.009 6.13 0 5.517-4.223 5.517-9.15zm-58-4.85c.981-3.266 3.835-2.577 6.197-2.577h40.289c6.44-.286 11.59-1.675 10.618 6.872h-57.216a12.837 12.837 0 0 1 .112-4.295zm52.573 54.223c-16.576.9-33.384-.431-49.993 0-3.588-.754-2.58-5.2-2.58-7.638-.033-13.746.064-27.49-.035-41.235h57.139v37.473c0 4.715 1.61 10.839-4.531 11.4z"/><path d="m19.249 32.536a2.849 2.849 0 0 0 1.685-4.223c-1.619-1.855-3.507-3.534-5.217-5.328 2.238-1.992 7.237-5.609 5.106-8.444-2.679-3.733-7.7 4.2-9.854 5.914-3.324 3.62 1.206 6.373 3.772 8.953 1.059 1.068 2.705 3.544 4.508 3.128zm-1.682-1.857c-9.239-9.508-9.155-6.161.124-15.553 1.794-.863 3.1.251 2.388 2-6.887 7.956-7.788 3.582.08 11.9 1.219 2.254-1.537 2.213-2.592 1.653z"/><path d="m45.212 16.491c-1.153-1.16-2.633-3.436-4.561-2.883-2.287.657-2.567 2.993-1.241 4.56 1.547 1.732 3.337 3.312 4.965 4.963-1.506 2.035-3.97 3.439-5.426 5.462-.913 1.862.393 4.5 2.8 3.8 2.054-.6 4.063-3.676 5.475-5.1 6.222-4.793 2.295-6.883-2.012-10.802zm1.915 9.609c-1.654 1.576-3.206 3.359-4.86 4.887-1.216.609-3.393-.232-2.334-2.2 8.185-8.64 6.483-3.476.235-11.537-.658-1.237.041-3.079 1.773-2.374 1.588 1.438 3.143 3.094 4.635 4.662 2.999 2.314 3.683 4.034.551 6.562z"/><path d="m28.227 33.4c1.968.145 2.429-1.091 2.783-2.719.78-3 1.3-6.089 1.953-9.118.56-2.616 3.415-9.048-1.528-8.979-3.718.052-3.712 7.767-4.262 10.337-.306 3.179-4.267 9.91 1.054 10.479zm-.04-9.627c.446-2.084.741-8.811 2.65-9.908 4.178-1.986.791 7.043.7 8.756-.318 1.483-.923 9.434-3 9.871-3.337-.914-.876-6.27-.35-8.724z"/><path d="m4.965 5.6c.538-.041 1.458.229 1.484-.572.058-.838-.862-.6-1.414-.626-.599.008-.665 1.127-.07 1.198z"/><path d="m9.925 5.586h1c.573 0 .792-1.172.15-1.172h-1c-.575 0-.792 1.172-.15 1.172z"/><path d="m14.958 5.448c.515-.084 1.441.262 1.639-.393.113-.708-2.17-.717-2.194-.11-.026.28.302.503.555.503z"/><path d="m49 5.45c.656-.126 8.826.521 6-.9-.656.126-8.826-.521-6 .9z"/><path d="m10.834 38.567c.821-.163 2.215.446 2.624-.5.059-.209.013-.63-.292-.63-.821.163-2.215-.446-2.624.5-.059.209-.013.63.292.63z"/><path d="m10.8 43.529c.847-.156 2.19.421 2.69-.472.174-1.087-1.631-.408-2.287-.586-.55-.086-1.098.906-.403 1.058z"/><path d="m27.976 42.41h-11c-.644 0-.523 1.18.048 1.18h11c.644 0 .523-1.18-.048-1.18z"/><path d="m34.052 52.4h-17c-.6 0-.7 1.2-.1 1.2h17c.598 0 .693-1.2.1-1.2z"/><path d="m12.92 47.415h-2c-.639 0-.415 1.17.16 1.17h2c.639 0 .42-1.17-.16-1.17z"/><path d="m13.044 52.54h-2c-.687 0-.872.92-.088.92h2c.687 0 .872-.92.088-.92z"/><path d="m45.925 37.544h-29c-.787 0-.532.912.15.912h29c.787 0 .532-.912-.15-.912z"/><path d="m42.935 43.562c.565 0 .827-1.124.13-1.124h-11c-.565 0-.827 1.124-.13 1.124z"/><path d="m17.065 47.4c-.6 0-.72 1.192-.13 1.192h5c.6 0 .72-1.192.13-1.192z"/><path d="m45.908 47.407h-20c-.583 0-.418 1.186.184 1.186h20c.583 0 .418-1.186-.184-1.186z"/></g></svg>